<svg xmlns="http://www.w3.org/2000/svg" xmlns:xlink="http://www.w3.org/1999/xlink" contentStyleType="text/css" data-diagram-type="DESCRIPTION" height="652px" preserveAspectRatio="none" style="width:3361px;height:652px;background:#FAFAFA;" version="1.1" viewBox="0 0 3361 652" width="3361px" zoomAndPan="magnify"><defs/><g><rect fill="#FAFAFA" height="652" style="stroke:none;stroke-width:1;" width="3361" x="0" y="0"/><!--cluster CAPS--><g class="cluster" data-entity="CAPS" data-source-line="83" data-uid="ent0002" id="cluster_CAPS"><rect fill="#FAF0D9" height="174" rx="2" ry="2" style="stroke:#8B6914;stroke-width:1;" width="1118" x="7" y="472"/><text fill="#000000" font-family="sans-serif" font-size="12" font-style="italic" lengthAdjust="spacing" textLength="121.582" x="505.209" y="493.1387">&#171;StrategyGrouping&#187;</text><text fill="#000000" font-family="sans-serif" font-size="12" font-weight="bold" lengthAdjust="spacing" textLength="79.6523" x="526.1738" y="523.1074">Capabilities</text></g><!--cluster FN_GOV--><g class="cluster" data-entity="FN_GOV" data-source-line="95" data-uid="ent0009" id="cluster_FN_GOV"><rect fill="#FFFDEC" height="350" rx="2" ry="2" style="stroke:#B8860B;stroke-width:1;" width="222" x="2727" y="7"/><text fill="#000000" font-family="sans-serif" font-size="12" font-style="italic" lengthAdjust="spacing" textLength="123.082" x="2776.459" y="28.1387">&#171;BusinessGrouping&#187;</text><text fill="#000000" font-family="sans-serif" font-size="12" font-weight="bold" lengthAdjust="spacing" textLength="169.6641" x="2753.168" y="58.1074">Engagement Governance</text></g><!--cluster FN_EXEC--><g class="cluster" data-entity="FN_EXEC" data-source-line="103" data-uid="ent0012" id="cluster_FN_EXEC"><rect fill="#FFFDEC" height="350" rx="2" ry="2" style="stroke:#B8860B;stroke-width:1;" width="218" x="1437" y="7"/><text fill="#000000" font-family="sans-serif" font-size="12" font-style="italic" lengthAdjust="spacing" textLength="123.082" x="1484.459" y="28.1387">&#171;BusinessGrouping&#187;</text><text fill="#000000" font-family="sans-serif" font-size="12" font-weight="bold" lengthAdjust="spacing" textLength="136.3477" x="1477.8262" y="58.1074">Specialist Execution</text></g><!--cluster FN_HUMAN--><g class="cluster" data-entity="FN_HUMAN" data-source-line="111" data-uid="ent0015" id="cluster_FN_HUMAN"><rect fill="#FFFDEC" height="350" rx="2" ry="2" style="stroke:#B8860B;stroke-width:1;" width="196" x="2443" y="7"/><text fill="#000000" font-family="sans-serif" font-size="12" font-style="italic" lengthAdjust="spacing" textLength="123.082" x="2479.459" y="28.1387">&#171;BusinessGrouping&#187;</text><text fill="#000000" font-family="sans-serif" font-size="12" font-weight="bold" lengthAdjust="spacing" textLength="142.7695" x="2469.6152" y="58.1074">Human Collaboration</text></g><!--cluster FN_SAFE--><g class="cluster" data-entity="FN_SAFE" data-source-line="119" data-uid="ent0018" id="cluster_FN_SAFE"><rect fill="#FFFDEC" height="350" rx="2" ry="2" style="stroke:#B8860B;stroke-width:1;" width="194" x="3142" y="7"/><text fill="#000000" font-family="sans-serif" font-size="12" font-style="italic" lengthAdjust="spacing" textLength="123.082" x="3177.459" y="28.1387">&#171;BusinessGrouping&#187;</text><text fill="#000000" font-family="sans-serif" font-size="12" font-weight="bold" lengthAdjust="spacing" textLength="140.7422" x="3168.6289" y="58.1074">Safety &amp; Compliance</text></g><!--cluster FN_KNOW--><g class="cluster" data-entity="FN_KNOW" data-source-line="127" data-uid="ent0021" id="cluster_FN_KNOW"><rect fill="#FFFDEC" height="350" rx="2" ry="2" style="stroke:#B8860B;stroke-width:1;" width="216" x="1710" y="7"/><text fill="#000000" font-family="sans-serif" font-size="12" font-style="italic" lengthAdjust="spacing" textLength="123.082" x="1756.459" y="28.1387">&#171;BusinessGrouping&#187;</text><text fill="#000000" font-family="sans-serif" font-size="12" font-weight="bold" lengthAdjust="spacing" textLength="167.25" x="1734.375" y="58.1074">Knowledge Management</text></g><!--cluster SVCS--><g class="cluster" data-entity="SVCS" data-source-line="135" data-uid="ent0024" id="cluster_SVCS"><rect fill="#FFFDEC" height="174" rx="2" ry="2" style="stroke:#B8860B;stroke-width:1;" width="2206" x="1149" y="472"/><text fill="#000000" font-family="sans-serif" font-size="12" font-style="italic" lengthAdjust="spacing" textLength="123.082" x="2190.459" y="493.1387">&#171;BusinessGrouping&#187;</text><text fill="#000000" font-family="sans-serif" font-size="12" font-weight="bold" lengthAdjust="spacing" textLength="121.1191" x="2191.4404" y="523.1074">Business Services</text></g><!--entity CAP_001--><g class="entity" data-entity="CAP_001" data-source-line="84" data-uid="ent0003" id="entity_CAP_001"><rect fill="#F5DEB3" height="79.9375" rx="2" ry="2" style="stroke:#8B6914;stroke-width:0.5;" width="134.9004" x="201.5" y="550"/><text fill="#000000" font-family="sans-serif" font-size="12" font-style="italic" lengthAdjust="spacing" textLength="74.9414" x="231.4795" y="579.1387">&#171;Capability&#187;</text><text fill="#000000" font-family="sans-serif" font-size="12" lengthAdjust="spacing" textLength="98.9004" x="219.5" y="609.1074">Phase Execution</text></g><!--entity CAP_002--><g class="entity" data-entity="CAP_002" data-source-line="85" data-uid="ent0004" id="entity_CAP_002"><rect fill="#F5DEB3" height="79.9375" rx="2" ry="2" style="stroke:#8B6914;stroke-width:0.5;" width="148.1953" x="23" y="550"/><text fill="#000000" font-family="sans-serif" font-size="12" font-style="italic" lengthAdjust="spacing" textLength="74.9414" x="59.627" y="579.1387">&#171;Capability&#187;</text><text fill="#000000" font-family="sans-serif" font-size="12" lengthAdjust="spacing" textLength="112.1953" x="41" y="609.1074">Artifact Production</text></g><!--entity CAP_003--><g class="entity" data-entity="CAP_003" data-source-line="86" data-uid="ent0005" id="entity_CAP_003"><rect fill="#F5DEB3" height="79.9375" rx="2" ry="2" style="stroke:#8B6914;stroke-width:0.5;" width="191.1914" x="917.5" y="550"/><text fill="#000000" font-family="sans-serif" font-size="12" font-style="italic" lengthAdjust="spacing" textLength="74.9414" x="975.625" y="579.1387">&#171;Capability&#187;</text><text fill="#000000" font-family="sans-serif" font-size="12" lengthAdjust="spacing" textLength="155.1914" x="935.5" y="609.1074">Multi-Agent Orchestration</text></g><!--entity CAP_004--><g class="entity" data-entity="CAP_004" data-source-line="87" data-uid="ent0006" id="entity_CAP_004"><rect fill="#F5DEB3" height="79.9375" rx="2" ry="2" style="stroke:#8B6914;stroke-width:0.5;" width="164.1797" x="367" y="550"/><text fill="#000000" font-family="sans-serif" font-size="12" font-style="italic" lengthAdjust="spacing" textLength="74.9414" x="411.6191" y="579.1387">&#171;Capability&#187;</text><text fill="#000000" font-family="sans-serif" font-size="12" lengthAdjust="spacing" textLength="128.1797" x="385" y="609.1074">Knowledge Retention</text></g><!--entity CAP_005--><g class="entity" data-entity="CAP_005" data-source-line="88" data-uid="ent0007" id="entity_CAP_005"><rect fill="#F5DEB3" height="79.9375" rx="2" ry="2" style="stroke:#8B6914;stroke-width:0.5;" width="132.2695" x="755" y="550"/><text fill="#000000" font-family="sans-serif" font-size="12" font-style="italic" lengthAdjust="spacing" textLength="74.9414" x="783.6641" y="579.1387">&#171;Capability&#187;</text><text fill="#000000" font-family="sans-serif" font-size="12" lengthAdjust="spacing" textLength="96.2695" x="773" y="609.1074">User Interaction</text></g><!--entity CAP_006--><g class="entity" data-entity="CAP_006" data-source-line="89" data-uid="ent0008" id="entity_CAP_006"><rect fill="#F5DEB3" height="79.9375" rx="2" ry="2" style="stroke:#8B6914;stroke-width:0.5;" width="162.5801" x="561.5" y="550"/><text fill="#000000" font-family="sans-serif" font-size="12" font-style="italic" lengthAdjust="spacing" textLength="74.9414" x="605.3193" y="579.1387">&#171;Capability&#187;</text><text fill="#000000" font-family="sans-serif" font-size="12" lengthAdjust="spacing" textLength="126.5801" x="579.5" y="609.1074">Reverse Architecture</text></g><!--entity BFN_001--><g class="entity" data-entity="BFN_001" data-source-line="96" data-uid="ent0010" id="entity_BFN_001"><rect fill="#FFFAC8" height="79.9375" rx="2" ry="2" style="stroke:#B8860B;stroke-width:0.5;" width="188.959" x="2743.5" y="261"/><text fill="#000000" font-family="sans-serif" font-size="12" font-style="italic" lengthAdjust="spacing" textLength="119.4258" x="2778.2666" y="290.1387">&#171;BusinessFunction&#187;</text><text fill="#000000" font-family="sans-serif" font-size="12" lengthAdjust="spacing" textLength="152.959" x="2761.5" y="320.1074">Engagement Governance</text></g><!--entity ACT_002--><g class="entity" data-entity="ACT_002" data-source-line="97" data-uid="ent0011" id="entity_ACT_002"><rect fill="#FFFAC8" height="79.9375" rx="2" ry="2" style="stroke:#B8860B;stroke-width:0.5;" width="132.125" x="2748" y="85"/><text fill="#000000" font-family="sans-serif" font-size="12" font-style="italic" lengthAdjust="spacing" textLength="94.125" x="2767" y="114.1387">&#171;BusinessRole&#187;</text><text fill="#000000" font-family="sans-serif" font-size="12" lengthAdjust="spacing" textLength="56.9238" x="2785.6006" y="144.1074">PM Agent</text></g><!--entity BFN_002--><g class="entity" data-entity="BFN_002" data-source-line="104" data-uid="ent0013" id="entity_BFN_002"><rect fill="#FFFAC8" height="79.9375" rx="2" ry="2" style="stroke:#B8860B;stroke-width:0.5;" width="157.4258" x="1455.5" y="261"/><text fill="#000000" font-family="sans-serif" font-size="12" font-style="italic" lengthAdjust="spacing" textLength="119.4258" x="1474.5" y="290.1387">&#171;BusinessFunction&#187;</text><text fill="#000000" font-family="sans-serif" font-size="12" lengthAdjust="spacing" textLength="120.5977" x="1473.9141" y="320.1074">Specialist Execution</text></g><!--entity BCO_001--><g class="entity" data-entity="BCO_001" data-source-line="105" data-uid="ent0014" id="entity_BCO_001"><rect fill="#FFFAC8" height="79.9375" rx="2" ry="2" style="stroke:#B8860B;stroke-width:0.5;" width="185.7031" x="1453" y="85"/><text fill="#000000" font-family="sans-serif" font-size="12" font-style="italic" lengthAdjust="spacing" textLength="147.7031" x="1472" y="114.1387">&#171;BusinessCollaboration&#187;</text><text fill="#000000" font-family="sans-serif" font-size="12" lengthAdjust="spacing" textLength="113.2852" x="1489.209" y="144.1074">Architecture Board</text></g><!--entity BFN_003--><g class="entity" data-entity="BFN_003" data-source-line="112" data-uid="ent0016" id="entity_BFN_003"><rect fill="#FFFAC8" height="79.9375" rx="2" ry="2" style="stroke:#B8860B;stroke-width:0.5;" width="163.0664" x="2459.5" y="261"/><text fill="#000000" font-family="sans-serif" font-size="12" font-style="italic" lengthAdjust="spacing" textLength="119.4258" x="2481.3203" y="290.1387">&#171;BusinessFunction&#187;</text><text fill="#000000" font-family="sans-serif" font-size="12" lengthAdjust="spacing" textLength="127.0664" x="2477.5" y="320.1074">Human Collaboration</text></g><!--entity ACT_001--><g class="entity" data-entity="ACT_001" data-source-line="113" data-uid="ent0017" id="entity_ACT_001"><rect fill="#FFFAC8" height="79.9375" rx="2" ry="2" style="stroke:#B8860B;stroke-width:0.5;" width="137.5156" x="2459" y="85"/><text fill="#000000" font-family="sans-serif" font-size="12" font-style="italic" lengthAdjust="spacing" textLength="99.5156" x="2478" y="114.1387">&#171;BusinessActor&#187;</text><text fill="#000000" font-family="sans-serif" font-size="12" lengthAdjust="spacing" textLength="27.3516" x="2514.082" y="144.1074">User</text></g><!--entity BFN_004--><g class="entity" data-entity="BFN_004" data-source-line="120" data-uid="ent0019" id="entity_BFN_004"><rect fill="#FFFAC8" height="79.9375" rx="2" ry="2" style="stroke:#B8860B;stroke-width:0.5;" width="162.0059" x="3158" y="261"/><text fill="#000000" font-family="sans-serif" font-size="12" font-style="italic" lengthAdjust="spacing" textLength="119.4258" x="3179.29" y="290.1387">&#171;BusinessFunction&#187;</text><text fill="#000000" font-family="sans-serif" font-size="12" lengthAdjust="spacing" textLength="126.0059" x="3176" y="320.1074">Safety &amp; Compliance</text></g><!--entity ACT_010--><g class="entity" data-entity="ACT_010" data-source-line="121" data-uid="ent0020" id="entity_ACT_010"><rect fill="#FFFAC8" height="79.9375" rx="2" ry="2" style="stroke:#B8860B;stroke-width:0.5;" width="132.125" x="3158" y="85"/><text fill="#000000" font-family="sans-serif" font-size="12" font-style="italic" lengthAdjust="spacing" textLength="94.125" x="3177" y="114.1387">&#171;BusinessRole&#187;</text><text fill="#000000" font-family="sans-serif" font-size="12" lengthAdjust="spacing" textLength="73.1543" x="3187.4854" y="144.1074">CSCO Agent</text></g><!--entity BFN_005--><g class="entity" data-entity="BFN_005" data-source-line="128" data-uid="ent0022" id="entity_BFN_005"><rect fill="#FFFAC8" height="79.9375" rx="2" ry="2" style="stroke:#B8860B;stroke-width:0.5;" width="184.8281" x="1725.5" y="261"/><text fill="#000000" font-family="sans-serif" font-size="12" font-style="italic" lengthAdjust="spacing" textLength="119.4258" x="1758.2012" y="290.1387">&#171;BusinessFunction&#187;</text><text fill="#000000" font-family="sans-serif" font-size="12" lengthAdjust="spacing" textLength="148.8281" x="1743.5" y="320.1074">Knowledge Management</text></g><!--entity ACT_003--><g class="entity" data-entity="ACT_003" data-source-line="129" data-uid="ent0023" id="entity_ACT_003"><rect fill="#FFFAC8" height="79.9375" rx="2" ry="2" style="stroke:#B8860B;stroke-width:0.5;" width="132.125" x="1742" y="85"/><text fill="#000000" font-family="sans-serif" font-size="12" font-style="italic" lengthAdjust="spacing" textLength="94.125" x="1761" y="114.1387">&#171;BusinessRole&#187;</text><text fill="#000000" font-family="sans-serif" font-size="12" lengthAdjust="spacing" textLength="55.1602" x="1780.4824" y="144.1074">SA Agent</text></g><!--entity BSV_001--><g class="entity" data-entity="BSV_001" data-source-line="136" data-uid="ent0025" id="entity_BSV_001"><rect fill="#FFFAC8" height="79.9375" rx="2" ry="2" style="stroke:#B8860B;stroke-width:0.5;" width="214.8867" x="2109.5" y="550"/><text fill="#000000" font-family="sans-serif" font-size="12" font-style="italic" lengthAdjust="spacing" textLength="112.0781" x="2160.9043" y="579.1387">&#171;BusinessService&#187;</text><text fill="#000000" font-family="sans-serif" font-size="12" lengthAdjust="spacing" textLength="178.8867" x="2127.5" y="609.1074">Business Architecture Service</text></g><!--entity BSV_002--><g class="entity" data-entity="BSV_002" data-source-line="137" data-uid="ent0026" id="entity_BSV_002"><rect fill="#FFFAC8" height="79.9375" rx="2" ry="2" style="stroke:#B8860B;stroke-width:0.5;" width="315.2637" x="2354.5" y="550"/><text fill="#000000" font-family="sans-serif" font-size="12" font-style="italic" lengthAdjust="spacing" textLength="112.0781" x="2456.0928" y="579.1387">&#171;BusinessService&#187;</text><text fill="#000000" font-family="sans-serif" font-size="12" lengthAdjust="spacing" textLength="279.2637" x="2372.5" y="609.1074">Application &amp; Technology Architecture Service</text></g><!--entity BSV_003--><g class="entity" data-entity="BSV_003" data-source-line="138" data-uid="ent0027" id="entity_BSV_003"><rect fill="#FFFAC8" height="79.9375" rx="2" ry="2" style="stroke:#B8860B;stroke-width:0.5;" width="206.4023" x="2903" y="550"/><text fill="#000000" font-family="sans-serif" font-size="12" font-style="italic" lengthAdjust="spacing" textLength="112.0781" x="2950.1621" y="579.1387">&#171;BusinessService&#187;</text><text fill="#000000" font-family="sans-serif" font-size="12" lengthAdjust="spacing" textLength="170.4023" x="2921" y="609.1074">Project Coordination Service</text></g><!--entity BSV_004--><g class="entity" data-entity="BSV_004" data-source-line="139" data-uid="ent0028" id="entity_BSV_004"><rect fill="#FFFAC8" height="79.9375" rx="2" ry="2" style="stroke:#B8860B;stroke-width:0.5;" width="198.9668" x="3139.5" y="550"/><text fill="#000000" font-family="sans-serif" font-size="12" font-style="italic" lengthAdjust="spacing" textLength="112.0781" x="3182.9443" y="579.1387">&#171;BusinessService&#187;</text><text fill="#000000" font-family="sans-serif" font-size="12" lengthAdjust="spacing" textLength="162.9668" x="3157.5" y="609.1074">Safety Governance Service</text></g><!--entity BSV_005--><g class="entity" data-entity="BSV_005" data-source-line="140" data-uid="ent0029" id="entity_BSV_005"><rect fill="#FFFAC8" height="79.9375" rx="2" ry="2" style="stroke:#B8860B;stroke-width:0.5;" width="251.2559" x="1406.5" y="550"/><text fill="#000000" font-family="sans-serif" font-size="12" font-style="italic" lengthAdjust="spacing" textLength="112.0781" x="1476.0889" y="579.1387">&#171;BusinessService&#187;</text><text fill="#000000" font-family="sans-serif" font-size="12" lengthAdjust="spacing" textLength="215.2559" x="1424.5" y="609.1074">Requirements Management Service</text></g><!--entity BSV_006--><g class="entity" data-entity="BSV_006" data-source-line="141" data-uid="ent0030" id="entity_BSV_006"><rect fill="#FFFAC8" height="79.9375" rx="2" ry="2" style="stroke:#B8860B;stroke-width:0.5;" width="168.5098" x="1687.5" y="550"/><text fill="#000000" font-family="sans-serif" font-size="12" font-style="italic" lengthAdjust="spacing" textLength="112.0781" x="1715.7158" y="579.1387">&#171;BusinessService&#187;</text><text fill="#000000" font-family="sans-serif" font-size="12" lengthAdjust="spacing" textLength="132.5098" x="1705.5" y="609.1074">Code Delivery Service</text></g><!--entity BSV_007--><g class="entity" data-entity="BSV_007" data-source-line="142" data-uid="ent0031" id="entity_BSV_007"><rect fill="#FFFAC8" height="79.9375" rx="2" ry="2" style="stroke:#B8860B;stroke-width:0.5;" width="193.0488" x="1886.5" y="550"/><text fill="#000000" font-family="sans-serif" font-size="12" font-style="italic" lengthAdjust="spacing" textLength="112.0781" x="1926.9854" y="579.1387">&#171;BusinessService&#187;</text><text fill="#000000" font-family="sans-serif" font-size="12" lengthAdjust="spacing" textLength="157.0488" x="1904.5" y="609.1074">Quality Assurance Service</text></g><!--entity BSV_008--><g class="entity" data-entity="BSV_008" data-source-line="143" data-uid="ent0032" id="entity_BSV_008"><rect fill="#FFFAC8" height="79.9375" rx="2" ry="2" style="stroke:#B8860B;stroke-width:0.5;" width="210.7969" x="1165.5" y="550"/><text fill="#000000" font-family="sans-serif" font-size="12" font-style="italic" lengthAdjust="spacing" textLength="112.0781" x="1214.8594" y="579.1387">&#171;BusinessService&#187;</text><text fill="#000000" font-family="sans-serif" font-size="12" lengthAdjust="spacing" textLength="174.7969" x="1183.5" y="609.1074">Platform Engineering Service</text></g><!--entity BSV_009--><g class="entity" data-entity="BSV_009" data-source-line="144" data-uid="ent0033" id="entity_BSV_009"><rect fill="#FFFAC8" height="79.9375" rx="2" ry="2" style="stroke:#B8860B;stroke-width:0.5;" width="172.6699" x="2699.5" y="550"/><text fill="#000000" font-family="sans-serif" font-size="12" font-style="italic" lengthAdjust="spacing" textLength="112.0781" x="2729.7959" y="579.1387">&#171;BusinessService&#187;</text><text fill="#000000" font-family="sans-serif" font-size="12" lengthAdjust="spacing" textLength="136.6699" x="2717.5" y="609.1074">User Decisions Service</text></g><g class="entity" data-entity="N1" data-source-line="185" data-uid="ent0059" id="entity_N1"><path d="M975.5,72 L975.5,177.8125 A2,2 0 0 0 977.5,179.8125 L1418.2188,179.8125 A2,2 0 0 0 1420.2188,177.8125 L1420.2188,80 L1410.2188,70 L977.5,70 A2,2 0 0 0 975.5,72" fill="#FEFFDD" style="stroke:#181818;stroke-width:0.5;"/><path d="M1410.2188,70 L1410.2188,79 A1,1 0 0 0 1411.2188,80 L1420.2188,80 L1410.2188,70" fill="#FEFFDD" style="stroke:#181818;stroke-width:1;"/><text fill="#000000" font-family="sans-serif" font-size="12" lengthAdjust="spacing" textLength="314.3555" x="989.5" y="94.1387">Structural viewpoint: stable organizational functions</text><text fill="#000000" font-family="sans-serif" font-size="12" lengthAdjust="spacing" textLength="304.2012" x="989.5" y="108.1074">and their assigned roles/collaborations. Processes,</text><text fill="#000000" font-family="sans-serif" font-size="12" lengthAdjust="spacing" textLength="315.3223" x="989.5" y="122.0762">events, and objects are in the operational diagrams.</text><text fill="#000000" font-family="sans-serif" font-size="12" lengthAdjust="spacing" textLength="291.1992" x="989.5" y="136.0449">BFN-002 also realizes BSV-001/BSV-002 through</text><text fill="#000000" font-family="sans-serif" font-size="12" lengthAdjust="spacing" textLength="304.7988" x="989.5" y="150.0137">Phase B/C skills; BFN-005 additionally for rev-arch.</text><text fill="#000000" font-family="sans-serif" font-size="12" lengthAdjust="spacing" textLength="407.7188" x="989.5" y="163.9824">Color: dark goldenrod = business-layer; steel blue = strategy-layer.</text></g><!--link ACT_002 to BFN_001--><g class="link" data-entity-1="ACT_002" data-entity-2="BFN_001" data-source-line="150" data-uid="lnk34" id="link_ACT_002_BFN_001"><path d="M2819.39,165.05 C2823.32,193.61 2827.8312,226.2361 2831.7712,254.8361" fill="none" id="ACT_002-to-BFN_001" style="stroke:#B8860B;stroke-width:1;"/><polygon fill="#B8860B" points="2832.59,260.78,2835.3243,251.3183,2831.9076,255.8268,2827.3992,252.4101,2832.59,260.78" style="stroke:#B8860B;stroke-width:1;"/><text fill="#000000" font-family="sans-serif" font-size="12" lengthAdjust="spacing" textLength="84.4805" x="2837" y="225.1387">&#171;assignment&#187;</text></g><!--link BCO_001 to BFN_002--><g class="link" data-entity-1="BCO_001" data-entity-2="BFN_002" data-source-line="151" data-uid="lnk35" id="link_BCO_001_BFN_002"><path d="M1537.65,165.2 C1535.34,177.84 1533.15,191.96 1532,205 C1530.79,218.72 1531.78,222.22 1532,236 C1532.13,244 1532.1638,246.5726 1532.4038,254.7426" fill="none" id="BCO_001-to-BFN_002" style="stroke:#B8860B;stroke-width:1;"/><polygon fill="#B8860B" points="1532.58,260.74,1536.314,251.6264,1532.4332,255.7422,1528.3175,251.8613,1532.58,260.74" style="stroke:#B8860B;stroke-width:1;"/><text fill="#000000" font-family="sans-serif" font-size="12" lengthAdjust="spacing" textLength="84.4805" x="1541" y="225.1387">&#171;assignment&#187;</text></g><!--link ACT_001 to BFN_003--><g class="link" data-entity-1="ACT_001" data-entity-2="BFN_003" data-source-line="152" data-uid="lnk36" id="link_ACT_001_BFN_003"><path d="M2530.92,165.05 C2533.05,193.61 2535.4823,226.1967 2537.6223,254.7967" fill="none" id="ACT_001-to-BFN_003" style="stroke:#B8860B;stroke-width:1;"/><polygon fill="#B8860B" points="2538.07,260.78,2541.3873,251.5066,2537.6969,255.7939,2533.4096,252.1036,2538.07,260.78" style="stroke:#B8860B;stroke-width:1;"/><text fill="#000000" font-family="sans-serif" font-size="12" lengthAdjust="spacing" textLength="84.4805" x="2545" y="225.1387">&#171;assignment&#187;</text></g><!--link ACT_002 to BFN_003--><g class="link" data-entity-1="ACT_002" data-entity-2="BFN_003" data-source-line="153" data-uid="lnk37" id="link_ACT_002_BFN_003"><path d="M2754.8,165.06 C2722.48,186.25 2681.68,212.78 2645,236 C2632.1,244.16 2623.3359,249.6488 2610.0659,257.8388" fill="none" id="ACT_002-to-BFN_003" style="stroke:#B8860B;stroke-width:1;"/><polygon fill="#B8860B" points="2604.96,260.99,2614.7196,259.667,2609.2149,258.364,2610.518,252.8592,2604.96,260.99" style="stroke:#B8860B;stroke-width:1;"/><text fill="#000000" font-family="sans-serif" font-size="12" lengthAdjust="spacing" textLength="84.4805" x="2700" y="225.1387">&#171;assignment&#187;</text></g><!--link ACT_010 to BFN_004--><g class="link" data-entity-1="ACT_010" data-entity-2="BFN_004" data-source-line="154" data-uid="lnk38" id="link_ACT_010_BFN_004"><path d="M3227.37,165.05 C3229.83,193.61 3232.6337,226.2023 3235.1037,254.8023" fill="none" id="ACT_010-to-BFN_004" style="stroke:#B8860B;stroke-width:1;"/><polygon fill="#B8860B" points="3235.62,260.78,3238.8308,251.4692,3235.1898,255.7985,3230.8604,252.1576,3235.62,260.78" style="stroke:#B8860B;stroke-width:1;"/><text fill="#000000" font-family="sans-serif" font-size="12" lengthAdjust="spacing" textLength="84.4805" x="3242" y="225.1387">&#171;assignment&#187;</text></g><!--link ACT_003 to BFN_005--><g class="link" data-entity-1="ACT_003" data-entity-2="BFN_005" data-source-line="155" data-uid="lnk39" id="link_ACT_003_BFN_005"><path d="M1810.24,165.05 C1811.89,193.61 1813.7544,226.19 1815.4044,254.79" fill="none" id="ACT_003-to-BFN_005" style="stroke:#B8860B;stroke-width:1;"/><polygon fill="#B8860B" points="1815.75,260.78,1819.225,251.5646,1815.462,255.7883,1811.2383,252.0253,1815.75,260.78" style="stroke:#B8860B;stroke-width:1;"/><text fill="#000000" font-family="sans-serif" font-size="12" lengthAdjust="spacing" textLength="84.4805" x="1823" y="225.1387">&#171;assignment&#187;</text></g><!--link BCO_001 to BFN_005--><g class="link" data-entity-1="BCO_001" data-entity-2="BFN_005" data-source-line="156" data-uid="lnk40" id="link_BCO_001_BFN_005"><path d="M1598.84,165.07 C1628.87,186.75 1667.46,213.74 1703,236 C1716.36,244.37 1725.6594,249.9128 1739.7294,257.8828" fill="none" id="BCO_001-to-BFN_005" style="stroke:#B8860B;stroke-width:1;"/><polygon fill="#B8860B" points="1744.95,260.84,1739.0906,252.9237,1740.5995,258.3756,1735.1476,259.8846,1744.95,260.84" style="stroke:#B8860B;stroke-width:1;"/><text fill="#000000" font-family="sans-serif" font-size="12" lengthAdjust="spacing" textLength="84.4805" x="1712" y="225.1387">&#171;assignment&#187;</text></g><!--link BFN_001 to CAP_003--><g class="link" data-entity-1="BFN_001" data-entity-2="CAP_003" data-source-line="161" data-uid="lnk41" id="link_BFN_001_CAP_003"><path d="M2787.47,341.14 C2740.68,376.98 2676.23,425.2 2662,430 C2502.79,483.76 1305.99,401.5 1150,464 C1106.06,481.6 1072.5566,514.0853 1047.6166,543.7653" fill="none" id="BFN_001-to-CAP_003" style="stroke:#4682B4;stroke-width:1;stroke-dasharray:7.0,7.0;"/><polygon fill="#4682B4" points="1042.47,549.89,1049.9134,545.6952,1045.3198,541.8353,1042.47,549.89" style="stroke:#4682B4;stroke-width:1;"/><text fill="#000000" font-family="sans-serif" font-size="12" lengthAdjust="spacing" textLength="77.6602" x="2717" y="419.1387">&#171;realization&#187;</text></g><!--link BFN_002 to CAP_001--><g class="link" data-entity-1="BFN_002" data-entity-2="CAP_001" data-source-line="162" data-uid="lnk42" id="link_BFN_002_CAP_001"><path d="M1455.27,302.58 C1275.3,304.91 820.4,316.41 445,373 C395.75,380.42 373.01,365.68 336,399 C292.72,437.96 278.3968,498.6823 272.9668,541.9223" fill="none" id="BFN_002-to-CAP_001" style="stroke:#4682B4;stroke-width:1;stroke-dasharray:7.0,7.0;"/><polygon fill="#4682B4" points="271.97,549.86,275.9434,542.2961,269.9902,541.5485,271.97,549.86" style="stroke:#4682B4;stroke-width:1;"/><text fill="#000000" font-family="sans-serif" font-size="12" lengthAdjust="spacing" textLength="77.6602" x="345" y="419.1387">&#171;realization&#187;</text></g><!--link BFN_002 to CAP_002--><g class="link" data-entity-1="BFN_002" data-entity-2="CAP_002" data-source-line="163" data-uid="lnk43" id="link_BFN_002_CAP_002"><path d="M1455.17,303.38 C1185.91,308.67 313.42,330.98 209,399 C154.94,434.22 126.0977,497.8167 110.9377,542.3567" fill="none" id="BFN_002-to-CAP_002" style="stroke:#4682B4;stroke-width:1;stroke-dasharray:7.0,7.0;"/><polygon fill="#4682B4" points="108.36,549.93,113.7777,543.3233,108.0977,541.39,108.36,549.93" style="stroke:#4682B4;stroke-width:1;"/><text fill="#000000" font-family="sans-serif" font-size="12" lengthAdjust="spacing" textLength="77.6602" x="218" y="419.1387">&#171;realization&#187;</text></g><!--link BFN_003 to CAP_005--><g class="link" data-entity-1="BFN_003" data-entity-2="CAP_005" data-source-line="164" data-uid="lnk44" id="link_BFN_003_CAP_005"><path d="M2459.41,311.71 C2341.59,325.42 2116.87,350.4 1925,365 C1623.27,387.96 1545.46,363.11 1245,399 C1091.37,417.35 1031.65,378.05 903,464 C872.03,484.69 853.4354,514.2257 840.0654,542.5457" fill="none" id="BFN_003-to-CAP_005" style="stroke:#4682B4;stroke-width:1;stroke-dasharray:7.0,7.0;"/><polygon fill="#4682B4" points="836.65,549.78,842.7782,543.8264,837.3525,541.2649,836.65,549.78" style="stroke:#4682B4;stroke-width:1;"/><text fill="#000000" font-family="sans-serif" font-size="12" lengthAdjust="spacing" textLength="77.6602" x="1254" y="419.1387">&#171;realization&#187;</text></g><!--link BFN_005 to CAP_004--><g class="link" data-entity-1="BFN_005" data-entity-2="CAP_004" data-source-line="165" data-uid="lnk45" id="link_BFN_005_CAP_004"><path d="M1733.3,341.11 C1708.29,350.84 1680.51,359.93 1654,365 C1614.93,372.47 977.72,370.78 938,373 C822.93,379.43 790.84,367.43 680,399 C616.72,417.02 598.15,422.62 547,464 C517.09,488.2 495.1159,516.4825 477.2659,543.2725" fill="none" id="BFN_005-to-CAP_004" style="stroke:#4682B4;stroke-width:1;stroke-dasharray:7.0,7.0;"/><polygon fill="#4682B4" points="472.83,549.93,479.7625,544.9359,474.7693,541.609,472.83,549.93" style="stroke:#4682B4;stroke-width:1;"/><text fill="#000000" font-family="sans-serif" font-size="12" lengthAdjust="spacing" textLength="77.6602" x="689" y="419.1387">&#171;realization&#187;</text></g><!--link BFN_005 to CAP_006--><g class="link" data-entity-1="BFN_005" data-entity-2="CAP_006" data-source-line="166" data-uid="lnk46" id="link_BFN_005_CAP_006"><path d="M1733.3,341.1 C1708.29,350.83 1680.51,359.93 1654,365 C1577.49,379.64 1030.31,363.46 953,373 C903.57,379.1 889.94,379.77 844,399 C793.72,420.04 780.45,427.46 740,464 C711.97,489.32 690.5926,516.9011 672.6226,543.1211" fill="none" id="BFN_005-to-CAP_006" style="stroke:#4682B4;stroke-width:1;stroke-dasharray:7.0,7.0;"/><polygon fill="#4682B4" points="668.1,549.72,675.0972,544.817,670.148,541.4251,668.1,549.72" style="stroke:#4682B4;stroke-width:1;"/><text fill="#000000" font-family="sans-serif" font-size="12" lengthAdjust="spacing" textLength="77.6602" x="853" y="419.1387">&#171;realization&#187;</text></g><!--link BFN_001 to BSV_003--><g class="link" data-entity-1="BFN_001" data-entity-2="BSV_003" data-source-line="171" data-uid="lnk47" id="link_BFN_001_BSV_003"><path d="M2876.85,341.4 C2892.16,358.24 2909.12,378.68 2922,399 C2952.99,447.89 2975.4013,502.6434 2989.8513,542.3034" fill="none" id="BFN_001-to-BSV_003" style="stroke:#B8860B;stroke-width:1;stroke-dasharray:7.0,7.0;"/><polygon fill="#B8860B" points="2992.59,549.82,2992.6701,541.2764,2987.0326,543.3304,2992.59,549.82" style="stroke:#B8860B;stroke-width:1;"/><text fill="#000000" font-family="sans-serif" font-size="12" lengthAdjust="spacing" textLength="77.6602" x="2948" y="419.1387">&#171;realization&#187;</text></g><!--link BFN_001 to BSV_009--><g class="link" data-entity-1="BFN_001" data-entity-2="BSV_009" data-source-line="172" data-uid="lnk48" id="link_BFN_001_BSV_009"><path d="M2830.93,341 C2821.02,395.72 2804.5162,486.8281 2794.5662,541.7481" fill="none" id="BFN_001-to-BSV_009" style="stroke:#B8860B;stroke-width:1;stroke-dasharray:7.0,7.0;"/><polygon fill="#B8860B" points="2793.14,549.62,2797.5181,542.283,2791.6142,541.2133,2793.14,549.62" style="stroke:#B8860B;stroke-width:1;"/><text fill="#000000" font-family="sans-serif" font-size="12" lengthAdjust="spacing" textLength="77.6602" x="2829" y="419.1387">&#171;realization&#187;</text></g><!--link BFN_002 to BSV_001--><g class="link" data-entity-1="BFN_002" data-entity-2="BSV_001" data-source-line="173" data-uid="lnk49" id="link_BFN_002_BSV_001"><path d="M1612.93,332.97 C1643.27,344.11 1678.43,356.11 1711,365 C1787.86,385.97 1815.79,363.27 1887,399 C1905.28,408.17 1902.73,420.81 1921,430 C1991.39,465.41 2025.67,426.55 2095,464 C2133.29,484.68 2162.0415,515.1563 2184.2715,543.4863" fill="none" id="BFN_002-to-BSV_001" style="stroke:#B8860B;stroke-width:1;stroke-dasharray:7.0,7.0;"/><polygon fill="#B8860B" points="2189.21,549.78,2186.6316,541.6343,2181.9113,545.3382,2189.21,549.78" style="stroke:#B8860B;stroke-width:1;"/><text fill="#000000" font-family="sans-serif" font-size="12" lengthAdjust="spacing" textLength="77.6602" x="1930" y="419.1387">&#171;realization&#187;</text></g><!--link BFN_002 to BSV_002--><g class="link" data-entity-1="BFN_002" data-entity-2="BSV_002" data-source-line="174" data-uid="lnk50" id="link_BFN_002_BSV_002"><path d="M1612.88,335.16 C1643.06,346.49 1678.13,358.05 1711,365 C1760.27,375.43 2114.22,386.47 2163,399 C2195.17,407.26 2199.97,418.14 2231,430 C2278.4,448.12 2294.65,441.23 2340,464 C2386.35,487.28 2427.4385,517.5839 2460.6685,544.7739" fill="none" id="BFN_002-to-BSV_002" style="stroke:#B8860B;stroke-width:1;stroke-dasharray:7.0,7.0;"/><polygon fill="#B8860B" points="2466.86,549.84,2462.5683,542.4521,2458.7687,547.0957,2466.86,549.84" style="stroke:#B8860B;stroke-width:1;"/><text fill="#000000" font-family="sans-serif" font-size="12" lengthAdjust="spacing" textLength="77.6602" x="2240" y="419.1387">&#171;realization&#187;</text></g><!--link BFN_002 to BSV_005--><g class="link" data-entity-1="BFN_002" data-entity-2="BSV_005" data-source-line="175" data-uid="lnk51" id="link_BFN_002_BSV_005"><path d="M1505.75,341.04 C1495.15,357.98 1484.38,378.6 1479,399 C1465.2,451.32 1484.9273,504.3332 1504.8873,542.6932" fill="none" id="BFN_002-to-BSV_005" style="stroke:#B8860B;stroke-width:1;stroke-dasharray:7.0,7.0;"/><polygon fill="#B8860B" points="1508.58,549.79,1507.5486,541.3085,1502.226,544.078,1508.58,549.79" style="stroke:#B8860B;stroke-width:1;"/><text fill="#000000" font-family="sans-serif" font-size="12" lengthAdjust="spacing" textLength="77.6602" x="1488" y="419.1387">&#171;realization&#187;</text></g><!--link BFN_002 to BSV_006--><g class="link" data-entity-1="BFN_002" data-entity-2="BSV_006" data-source-line="176" data-uid="lnk52" id="link_BFN_002_BSV_006"><path d="M1561.51,341.08 C1580.66,367.27 1607.43,401.96 1634,430 C1649.82,446.69 1657.13,447.36 1673,464 C1698.8,491.04 1720.143,517.9028 1739.073,543.3328" fill="none" id="BFN_002-to-BSV_006" style="stroke:#B8860B;stroke-width:1;stroke-dasharray:7.0,7.0;"/><polygon fill="#B8860B" points="1743.85,549.75,1741.4795,541.5414,1736.6666,545.1241,1743.85,549.75" style="stroke:#B8860B;stroke-width:1;"/><text fill="#000000" font-family="sans-serif" font-size="12" lengthAdjust="spacing" textLength="77.6602" x="1643" y="419.1387">&#171;realization&#187;</text></g><!--link BFN_002 to BSV_007--><g class="link" data-entity-1="BFN_002" data-entity-2="BSV_007" data-source-line="177" data-uid="lnk53" id="link_BFN_002_BSV_007"><path d="M1612.91,339.71 C1649.34,357.36 1693.06,378.88 1732,399 C1757.62,412.24 1762.95,417.63 1789,430 C1825.01,447.1 1839.48,440.94 1872,464 C1905.15,487.5 1930.4151,516.2987 1950.8751,543.3587" fill="none" id="BFN_002-to-BSV_007" style="stroke:#B8860B;stroke-width:1;stroke-dasharray:7.0,7.0;"/><polygon fill="#B8860B" points="1955.7,549.74,1953.2681,541.5494,1948.4822,545.1681,1955.7,549.74" style="stroke:#B8860B;stroke-width:1;"/><text fill="#000000" font-family="sans-serif" font-size="12" lengthAdjust="spacing" textLength="77.6602" x="1798" y="419.1387">&#171;realization&#187;</text></g><!--link BFN_002 to BSV_008--><g class="link" data-entity-1="BFN_002" data-entity-2="BSV_008" data-source-line="178" data-uid="lnk54" id="link_BFN_002_BSV_008"><path d="M1455.32,337.84 C1426.63,353.64 1395.49,374.29 1372,399 C1329.92,443.27 1303.2634,501.03 1287.4134,542.38" fill="none" id="BFN_002-to-BSV_008" style="stroke:#B8860B;stroke-width:1;stroke-dasharray:7.0,7.0;"/><polygon fill="#B8860B" points="1284.55,549.85,1290.2146,543.4537,1284.6121,541.3062,1284.55,549.85" style="stroke:#B8860B;stroke-width:1;"/><text fill="#000000" font-family="sans-serif" font-size="12" lengthAdjust="spacing" textLength="77.6602" x="1381" y="419.1387">&#171;realization&#187;</text></g><!--link BFN_003 to BSV_009--><g class="link" data-entity-1="BFN_003" data-entity-2="BSV_009" data-source-line="179" data-uid="lnk55" id="link_BFN_003_BSV_009"><path d="M2537.8,341.13 C2537.69,369.22 2542.37,406.18 2564,430 C2601.56,471.35 2638.35,433.27 2685,464 C2718.2,485.87 2741.4052,515.3998 2759.2952,543.2398" fill="none" id="BFN_003-to-BSV_009" style="stroke:#B8860B;stroke-width:1;stroke-dasharray:7.0,7.0;"/><polygon fill="#B8860B" points="2763.62,549.97,2761.819,541.618,2756.7713,544.8616,2763.62,549.97" style="stroke:#B8860B;stroke-width:1;"/><text fill="#000000" font-family="sans-serif" font-size="12" lengthAdjust="spacing" textLength="77.6602" x="2573" y="419.1387">&#171;realization&#187;</text></g><!--link BFN_004 to BSV_004--><g class="link" data-entity-1="BFN_004" data-entity-2="BSV_004" data-source-line="180" data-uid="lnk56" id="link_BFN_004_BSV_004"><path d="M3239,341 C3239,395.72 3239,486.7 3239,541.62" fill="none" id="BFN_004-to-BSV_004" style="stroke:#B8860B;stroke-width:1;stroke-dasharray:7.0,7.0;"/><polygon fill="#B8860B" points="3239,549.62,3242,541.62,3236,541.62,3239,549.62" style="stroke:#B8860B;stroke-width:1;"/><text fill="#000000" font-family="sans-serif" font-size="12" lengthAdjust="spacing" textLength="77.6602" x="3248" y="419.1387">&#171;realization&#187;</text></g><!--link BFN_005 to BSV_001--><g class="link" data-entity-1="BFN_005" data-entity-2="BSV_001" data-source-line="181" data-uid="lnk57" id="link_BFN_005_BSV_001"><path d="M1910.65,338.92 C1946.97,355.14 1988.2,375.79 2023,399 C2058.87,422.92 2063.93,434.11 2095,464 C2124.18,492.06 2150.5696,519.0694 2174.4396,544.0194" fill="none" id="BFN_005-to-BSV_001" style="stroke:#B8860B;stroke-width:1;stroke-dasharray:7.0,7.0;"/><polygon fill="#B8860B" points="2179.97,549.8,2176.6074,541.9455,2172.2719,546.0933,2179.97,549.8" style="stroke:#B8860B;stroke-width:1;"/><text fill="#000000" font-family="sans-serif" font-size="12" lengthAdjust="spacing" textLength="77.6602" x="2070" y="419.1387">&#171;realization&#187;</text></g><!--link BFN_005 to BSV_002--><g class="link" data-entity-1="BFN_005" data-entity-2="BSV_002" data-source-line="182" data-uid="lnk58" id="link_BFN_005_BSV_002"><path d="M1910.56,311.13 C2039.26,325.2 2264.2,355.23 2333,399 C2396.28,439.26 2447.7807,500.4546 2479.6507,543.2346" fill="none" id="BFN_005-to-BSV_002" style="stroke:#B8860B;stroke-width:1;stroke-dasharray:7.0,7.0;"/><polygon fill="#B8860B" points="2484.43,549.65,2482.0565,541.4423,2477.2449,545.0268,2484.43,549.65" style="stroke:#B8860B;stroke-width:1;"/><text fill="#000000" font-family="sans-serif" font-size="12" lengthAdjust="spacing" textLength="77.6602" x="2383" y="419.1387">&#171;realization&#187;</text></g><!--SRC=[lPZlRjj63C2_wodO5jWyB7RylsxQ6R0r9nswEC6yPWEA8ZXBZ7pr-Kwuavrwmu1zsWCCUy8-oNYod4YEd4o0DNynA94wteyyaj8pBZsnz15gjUFh1VEqChLmkH3Ei_GDfhqPNx08goP2ZIfQXvZeEMREPSWqMq2WrJByGSvGyuX93w6HkYcLZmP3QDLJ5pMJStknaxuOCj_dCe2UutmDrSFzw6ak2zcK2nvnD52PH9gs5An1i3Lg-FBdFw2H2VuR-Z1TmyrIUX5NqdnpO3yqUiGd40ZFqmuzXpTljYwTMPG4eTy7Pi0TN4xWTmVW-v7xupL9r_Lw8oisis8hAxQpOYShTfq_3ezwU3gkafSnrP4CM80Bb16SgHLg6MS7L2xFGTsMoZTtPGjwk3HSeZ5PqAVZwxEBgtlKj8aqwe7xSuowD5pD6DSaH8zJ7fe8Hf_HMzea95fC2A3DoCY0fuIWJV8LYdM9zF8SUHJUwDUHkqllBZE7xaKCipHwhPZUs-M2IN2949igEaqRU9Hgty9xWxf4N3ahFqhhxVlpmNWNLokRR2NYQc-IZTrWj8QloEz5A7XoCjs9Ur7ssSnP-L5Say7fQ9TMEqEhKI-FLYUczKwgMu5-W73EvBQoK2SPK7ODR9ECQ7zBZJ1KJFibmijpv55wxyONl-pIwsHphLKAlSGXcA1USS_sNVmSsKeiOCNnDiRgew1QfgdlHWfCnEOuKy97NMRwFN1iFxx9bPlglyF9LRefRCHcLcnbnNPMx6J5RbPycHLxMV5L6K7wIH4HPWmFv29kC1KMTnUAXLvk4lhBNt_VJKI7ZahILw7wuSMmr-lMXn-hVKXwBvnGMEvTw_UTf8_aQJSVQYTbD4-xjK-xMKIxKS_JRkzxTYjFkrDebpdQ1y-8qoJKsudOtC_EQwZOrmHJZSVc8yeHH05JiSH3vyKs1Mgr3o_QtLvpsFvOenEPZBWnXOrxSQ-rq98io3Le53LexZLevHjqzXfqyWtQHGswEGR_G-oJ4WcLwRPe9h7tcPv3O6krrCelC_x98R0eaXAxbzqUWrTFnF-1GQEeGREeGQUeGRUemSkY1hqdahu0rdQ-mLD9No0EdVyU1qUgoFOu6DlEFKdwMZA4X8hBwCHE7bDgX4e7J2QMf73t7O3icAGHPOPS9zsI9XPDlTCSU-cftzJWKYiQAGoQ8xB2bMsgHx6rcdwY6SG0evxAfNqOg13rTZ6Viq2pXQcHsVQTa0cZxiyYRT6-M1zl_flq19fLWXdfNywOeSdps0KpvqAOrtUZg_sYibb0hE56QNhQgce_wjXbw8L5wPETempVmVQiR-hywrITfvic-L2nkLbpaBPc2Jl_0W00]--></g></svg>