<svg xmlns="http://www.w3.org/2000/svg" xmlns:xlink="http://www.w3.org/1999/xlink" contentStyleType="text/css" data-diagram-type="ACTIVITY" height="2847px" preserveAspectRatio="none" style="width:1090px;height:2847px;background:#FFFFFF;" version="1.1" viewBox="0 0 1090 2847" width="1090px" zoomAndPan="magnify"><defs/><g><rect fill="none" height="20.9531" style="stroke:none;stroke-width:1;" width="1057.3621" x="15" y="12.7451"/><ellipse cx="301.9486" cy="48.6982" fill="#222222" rx="10" ry="10" style="stroke:#222222;stroke-width:1;"/><rect fill="#F0F8FF" height="45.6094" rx="12.5" ry="12.5" style="stroke:#4682B4;stroke-width:0.5;" width="160.0942" x="221.9015" y="78.6982"/><text fill="#000000" font-family="sans-serif" font-size="11" lengthAdjust="spacing" textLength="140.0942" x="231.9015" y="98.9087">Read engagement profile</text><text fill="#000000" font-family="sans-serif" font-size="11" lengthAdjust="spacing" textLength="116.3809" x="231.9015" y="111.7134">and EventStore state</text><rect fill="#F0F8FF" height="45.6094" rx="12.5" ry="12.5" style="stroke:#4682B4;stroke-width:0.5;" width="165.4385" x="219.2294" y="144.3076"/><text fill="#000000" font-family="sans-serif" font-size="11" lengthAdjust="spacing" textLength="145.4385" x="229.2294" y="164.5181">Assess open CQs, pending</text><text fill="#000000" font-family="sans-serif" font-size="11" lengthAdjust="spacing" textLength="137.1724" x="229.2294" y="177.3228">handoffs, gate outcomes</text><rect fill="#F0F8FF" height="45.6094" rx="12.5" ry="12.5" style="stroke:#4682B4;stroke-width:0.5;" width="175.7026" x="214.0973" y="209.917"/><text fill="#000000" font-family="sans-serif" font-size="11" lengthAdjust="spacing" textLength="155.7026" x="224.0973" y="230.1274">Determine next specialist(s)</text><text fill="#000000" font-family="sans-serif" font-size="11" lengthAdjust="spacing" textLength="109.812" x="224.0973" y="242.9321">to invoke (BPR-001)</text><rect fill="#F0F8FF" height="32.8047" rx="12.5" ry="12.5" style="stroke:#4682B4;stroke-width:0.5;" width="169.4883" x="217.2045" y="275.5264"/><text fill="#000000" font-family="sans-serif" font-size="11" lengthAdjust="spacing" textLength="25.0347" x="227.2045" y="295.7368">Emit</text><text fill="#000000" font-family="sans-serif" font-size="11" font-weight="bold" lengthAdjust="spacing" textLength="86.1309" x="255.7357" y="295.7368">sprint.started</text><text fill="#000000" font-family="sans-serif" font-size="11" lengthAdjust="spacing" textLength="31.3296" x="345.3632" y="295.7368">event</text><rect fill="#F0F8FF" height="45.6094" rx="12.5" ry="12.5" style="stroke:#4682B4;stroke-width:0.5;" width="146.8438" x="228.5267" y="372.3311"/><text fill="#000000" font-family="sans-serif" font-size="11" lengthAdjust="spacing" textLength="126.8438" x="238.5267" y="392.5415">Invoke specialist agent</text><text fill="#000000" font-family="sans-serif" font-size="11" lengthAdjust="spacing" textLength="100.563" x="238.5267" y="405.3462">with assigned skill</text><rect fill="#F0F8FF" height="71.2188" rx="12.5" ry="12.5" style="stroke:#4682B4;stroke-width:0.5;" width="142.6221" x="230.6376" y="1107.9248"/><text fill="#000000" font-family="sans-serif" font-size="11" lengthAdjust="spacing" textLength="103.7964" x="240.6376" y="1128.1353">Route algedonic to</text><text fill="#000000" font-family="sans-serif" font-size="11" lengthAdjust="spacing" textLength="98.7207" x="240.6376" y="1140.9399">CSCO and/or User</text><text fill="#000000" font-family="sans-serif" font-size="11" lengthAdjust="spacing" textLength="122.6221" x="240.6376" y="1153.7446">(fast path &#8212; bypasses</text><text fill="#000000" font-family="sans-serif" font-size="11" lengthAdjust="spacing" textLength="109.7744" x="240.6376" y="1166.5493">normal sequencing)</text><rect fill="#F0F8FF" height="45.6094" rx="12.5" ry="12.5" style="stroke:#4682B4;stroke-width:0.5;" width="117.2114" x="243.3429" y="1199.1436"/><text fill="#000000" font-family="sans-serif" font-size="11" lengthAdjust="spacing" textLength="88.9775" x="253.3429" y="1219.354">Await resolution</text><text fill="#000000" font-family="sans-serif" font-size="11" lengthAdjust="spacing" textLength="97.2114" x="253.3429" y="1232.1587">before continuing</text><rect fill="#F0F8FF" height="32.8047" rx="12.5" ry="12.5" style="stroke:#4682B4;stroke-width:0.5;" width="195.4146" x="204.2413" y="1439.9717"/><text fill="#000000" font-family="sans-serif" font-size="11" lengthAdjust="spacing" textLength="43.5596" x="214.2413" y="1460.1821">Receive</text><text fill="#000000" font-family="sans-serif" font-size="11" font-weight="bold" lengthAdjust="spacing" textLength="128.3584" x="261.2975" y="1460.1821">specialist.completed</text><polygon fill="#FFFFE0" points="301.9486,328.3311,313.9486,340.3311,301.9486,352.3311,289.9486,340.3311,301.9486,328.3311" style="stroke:#B8860B;stroke-width:0.5;"/><polygon fill="#FFFFE0" points="249.089,1492.7764,354.8082,1492.7764,366.8082,1505.5811,354.8082,1518.3857,249.089,1518.3857,237.089,1505.5811,249.089,1492.7764" style="stroke:#B8860B;stroke-width:0.5;"/><text fill="#000000" font-family="sans-serif" font-size="11" lengthAdjust="spacing" textLength="88.2202" x="249.089" y="1502.9868">More specialists</text><text fill="#000000" font-family="sans-serif" font-size="11" lengthAdjust="spacing" textLength="105.7192" x="249.089" y="1515.7915">needed this sprint?</text><text fill="#000000" font-family="sans-serif" font-size="11" lengthAdjust="spacing" textLength="19.0083" x="366.8082" y="1502.9868">yes</text><rect fill="#F0F8FF" height="45.6094" rx="12.5" ry="12.5" style="stroke:#4682B4;stroke-width:0.5;" width="150.4048" x="226.7462" y="1559.7847"/><text fill="#000000" font-family="sans-serif" font-size="11" lengthAdjust="spacing" textLength="99.4995" x="236.7462" y="1579.9951">Collect gate votes</text><text fill="#000000" font-family="sans-serif" font-size="11" lengthAdjust="spacing" textLength="130.4048" x="236.7462" y="1592.7998">from all agents + CSCO</text><polygon fill="#FFFFE0" points="264.641,1625.394,339.2562,1625.394,351.2562,1637.394,339.2562,1649.394,264.641,1649.394,252.641,1637.394,264.641,1625.394" style="stroke:#B8860B;stroke-width:0.5;"/><text fill="#000000" font-family="sans-serif" font-size="11" lengthAdjust="spacing" textLength="74.6152" x="264.641" y="1641.2021">Gate passed?</text><text fill="#000000" font-family="sans-serif" font-size="11" lengthAdjust="spacing" textLength="127.6011" x="125.0399" y="1634.7998">no &#8212; failed or deferred</text><text fill="#000000" font-family="sans-serif" font-size="11" lengthAdjust="spacing" textLength="19.0083" x="351.2562" y="1634.7998">yes</text><path d="M179.7656,1662.0659 L179.7656,1678.1987 L159.7656,1682.1987 L179.7656,1686.1987 L179.7656,1702.3315 A0,0 0 0 0 179.7656,1702.3315 L392.3696,1702.3315 A0,0 0 0 0 392.3696,1702.3315 L392.3696,1672.0659 L382.3696,1662.0659 L179.7656,1662.0659 A0,0 0 0 0 179.7656,1662.0659" fill="#FEFFDD" style="stroke:#181818;stroke-width:0.5;"/><path d="M382.3696,1662.0659 L382.3696,1672.0659 L392.3696,1672.0659 L382.3696,1662.0659" fill="#FEFFDD" style="stroke:#181818;stroke-width:0.5;"/><text fill="#000000" font-family="sans-serif" font-size="13" lengthAdjust="spacing" textLength="139.8198" x="185.7656" y="1679.1328">Deferred &#8594; re-queue;</text><text fill="#000000" font-family="sans-serif" font-size="13" lengthAdjust="spacing" textLength="191.604" x="185.7656" y="1694.2656">Failed &#8594; algedonic escalation</text><rect fill="#F0F8FF" height="45.6094" rx="12.5" ry="12.5" style="stroke:#4682B4;stroke-width:0.5;" width="138.7656" x="21" y="1659.394"/><text fill="#000000" font-family="sans-serif" font-size="11" lengthAdjust="spacing" textLength="118.7656" x="31" y="1679.6045">Record gate outcome</text><text fill="#000000" font-family="sans-serif" font-size="11" lengthAdjust="spacing" textLength="4.2915" x="31" y="1692.4092">(</text><text fill="#000000" font-family="sans-serif" font-size="11" font-weight="bold" lengthAdjust="spacing" textLength="93.8652" x="35.2915" y="1692.4092">gate.evaluated</text><text fill="#000000" font-family="sans-serif" font-size="11" lengthAdjust="spacing" textLength="4.2915" x="129.1567" y="1692.4092">)</text><ellipse cx="90.3828" cy="1736.0034" fill="none" rx="11" ry="11" style="stroke:#222222;stroke-width:1;"/><ellipse cx="90.3828" cy="1736.0034" fill="#222222" rx="6" ry="6" style="stroke:#222222;stroke-width:1;"/><rect fill="#F0F8FF" height="45.6094" rx="12.5" ry="12.5" style="stroke:#4682B4;stroke-width:0.5;" width="174.1182" x="426.4553" y="1659.394"/><text fill="#000000" font-family="sans-serif" font-size="11" lengthAdjust="spacing" textLength="25.0347" x="436.4553" y="1679.6045">Emit</text><text fill="#000000" font-family="sans-serif" font-size="11" font-weight="bold" lengthAdjust="spacing" textLength="117.3208" x="464.9866" y="1679.6045">phase.transitioned</text><text fill="#000000" font-family="sans-serif" font-size="11" lengthAdjust="spacing" textLength="154.1182" x="436.4553" y="1692.4092">(if phase boundary crossed)</text><rect fill="#F0F8FF" height="45.6094" rx="12.5" ry="12.5" style="stroke:#4682B4;stroke-width:0.5;" width="202.2896" x="412.3696" y="1725.0034"/><text fill="#000000" font-family="sans-serif" font-size="11" lengthAdjust="spacing" textLength="182.2896" x="422.3696" y="1745.2139">Trigger Sprint Review Interaction</text><text fill="#000000" font-family="sans-serif" font-size="11" lengthAdjust="spacing" textLength="51.8633" x="422.3696" y="1758.0186">(BIA-001)</text><rect fill="#F0F8FF" height="32.8047" rx="12.5" ry="12.5" style="stroke:#4682B4;stroke-width:0.5;" width="156.8501" x="223.5236" y="1921.8315"/><text fill="#000000" font-family="sans-serif" font-size="11" lengthAdjust="spacing" textLength="136.8501" x="233.5236" y="1942.042">Process review decisions</text><rect fill="#F0F8FF" height="45.6094" rx="12.5" ry="12.5" style="stroke:#4682B4;stroke-width:0.5;" width="169.2896" x="217.3038" y="2068.6479"/><text fill="#000000" font-family="sans-serif" font-size="11" lengthAdjust="spacing" textLength="122.9873" x="227.3038" y="2088.8584">Create handoff events</text><text fill="#000000" font-family="sans-serif" font-size="11" lengthAdjust="spacing" textLength="149.2896" x="227.3038" y="2101.6631">to tagged specialist agents</text><rect fill="#F0F8FF" height="45.6094" rx="12.5" ry="12.5" style="stroke:#4682B4;stroke-width:0.5;" width="111.3999" x="246.2487" y="2411.6948"/><text fill="#000000" font-family="sans-serif" font-size="11" lengthAdjust="spacing" textLength="91.3999" x="256.2487" y="2431.9053">Process updated</text><text fill="#000000" font-family="sans-serif" font-size="11" lengthAdjust="spacing" textLength="91.1904" x="256.2487" y="2444.71">review decisions</text><polygon fill="#FFFFE0" points="245.6219,2018.6362,358.2753,2018.6362,370.2753,2031.4409,358.2753,2044.2456,245.6219,2044.2456,233.6219,2031.4409,245.6219,2018.6362" style="stroke:#B8860B;stroke-width:0.5;"/><text fill="#000000" font-family="sans-serif" font-size="11" lengthAdjust="spacing" textLength="19.0083" x="305.9486" y="2054.4561">yes</text><text fill="#000000" font-family="sans-serif" font-size="11" lengthAdjust="spacing" textLength="86.0718" x="245.6219" y="2028.8467">Any items need</text><text fill="#000000" font-family="sans-serif" font-size="11" lengthAdjust="spacing" textLength="112.6533" x="245.6219" y="2041.6514">revision or rejected?</text><text fill="#000000" font-family="sans-serif" font-size="11" lengthAdjust="spacing" textLength="13.7017" x="219.9203" y="2028.8467">no</text><polygon fill="#FFFFE0" points="301.9486,2477.3042,313.9486,2489.3042,301.9486,2501.3042,289.9486,2489.3042,301.9486,2477.3042" style="stroke:#B8860B;stroke-width:0.5;"/><polygon fill="#FFFFE0" points="301.9486,1974.6362,313.9486,1986.6362,301.9486,1998.6362,289.9486,1986.6362,301.9486,1974.6362" style="stroke:#B8860B;stroke-width:0.5;"/><polygon fill="#FFFFE0" points="250.1417,2521.3042,353.7555,2521.3042,365.7555,2534.1089,353.7555,2546.9136,250.1417,2546.9136,238.1417,2534.1089,250.1417,2521.3042" style="stroke:#B8860B;stroke-width:0.5;"/><text fill="#000000" font-family="sans-serif" font-size="11" lengthAdjust="spacing" textLength="62.4712" x="250.1417" y="2531.5146">All artifacts</text><text fill="#000000" font-family="sans-serif" font-size="11" lengthAdjust="spacing" textLength="103.6138" x="250.1417" y="2544.3193">approved by User?</text><text fill="#000000" font-family="sans-serif" font-size="11" lengthAdjust="spacing" textLength="13.7017" x="365.7555" y="2531.5146">no</text><rect fill="#F0F8FF" height="32.8047" rx="12.5" ry="12.5" style="stroke:#4682B4;stroke-width:0.5;" width="156.0981" x="223.8995" y="2588.3125"/><text fill="#000000" font-family="sans-serif" font-size="11" lengthAdjust="spacing" textLength="25.0347" x="233.8995" y="2608.5229">Emit</text><text fill="#000000" font-family="sans-serif" font-size="11" font-weight="bold" lengthAdjust="spacing" textLength="72.7407" x="262.4308" y="2608.5229">sprint.close</text><text fill="#000000" font-family="sans-serif" font-size="11" lengthAdjust="spacing" textLength="31.3296" x="338.6681" y="2608.5229">event</text><rect fill="#F0F8FF" height="32.8047" rx="12.5" ry="12.5" style="stroke:#4682B4;stroke-width:0.5;" width="177.835" x="213.0311" y="2641.1172"/><text fill="#000000" font-family="sans-serif" font-size="11" lengthAdjust="spacing" textLength="157.835" x="223.0311" y="2661.3276">Create sprint-close snapshot</text><polygon fill="#FFFFE0" points="266.8673,2693.9219,337.0299,2693.9219,349.0299,2706.7266,337.0299,2719.5313,266.8673,2719.5313,254.8673,2706.7266,266.8673,2693.9219" style="stroke:#B8860B;stroke-width:0.5;"/><text fill="#000000" font-family="sans-serif" font-size="11" lengthAdjust="spacing" textLength="70.1626" x="266.8673" y="2704.1323">Engagement</text><text fill="#000000" font-family="sans-serif" font-size="11" lengthAdjust="spacing" textLength="57.2183" x="266.8673" y="2716.937">complete?</text><text fill="#000000" font-family="sans-serif" font-size="11" lengthAdjust="spacing" textLength="19.0083" x="235.859" y="2704.1323">yes</text><text fill="#000000" font-family="sans-serif" font-size="11" lengthAdjust="spacing" textLength="13.7017" x="349.0299" y="2704.1323">no</text><rect fill="#F0F8FF" height="32.8047" rx="12.5" ry="12.5" style="stroke:#4682B4;stroke-width:0.5;" width="195.8818" x="104.6162" y="2729.5313"/><text fill="#000000" font-family="sans-serif" font-size="11" lengthAdjust="spacing" textLength="25.0347" x="114.6162" y="2749.7417">Emit</text><text fill="#000000" font-family="sans-serif" font-size="11" font-weight="bold" lengthAdjust="spacing" textLength="147.3506" x="143.1475" y="2749.7417">engagement.completed</text><ellipse cx="202.5571" cy="2806.1406" fill="none" rx="11" ry="11" style="stroke:#222222;stroke-width:1;"/><ellipse cx="202.5571" cy="2806.1406" fill="#222222" rx="6" ry="6" style="stroke:#222222;stroke-width:1;"/><path d="M502.1821,2732.2031 L502.1821,2748.3359 L482.1821,2752.3359 L502.1821,2756.3359 L502.1821,2772.4688 A0,0 0 0 0 502.1821,2772.4688 L621.0439,2772.4688 A0,0 0 0 0 621.0439,2772.4688 L621.0439,2742.2031 L611.0439,2732.2031 L502.1821,2732.2031 A0,0 0 0 0 502.1821,2732.2031" fill="#FEFFDD" style="stroke:#181818;stroke-width:0.5;"/><path d="M611.0439,2732.2031 L611.0439,2742.2031 L621.0439,2742.2031 L611.0439,2732.2031" fill="#FEFFDD" style="stroke:#181818;stroke-width:0.5;"/><text fill="#000000" font-family="sans-serif" font-size="13" lengthAdjust="spacing" textLength="83.6113" x="508.1821" y="2749.27">Loop back to</text><text fill="#000000" font-family="sans-serif" font-size="13" lengthAdjust="spacing" textLength="97.8618" x="508.1821" y="2764.4028">sprint planning</text><rect fill="#F0F8FF" height="45.6094" rx="12.5" ry="12.5" style="stroke:#4682B4;stroke-width:0.5;" width="161.6841" x="320.498" y="2729.5313"/><text fill="#000000" font-family="sans-serif" font-size="11" lengthAdjust="spacing" textLength="94.4561" x="330.498" y="2749.7417">Begin next sprint</text><text fill="#000000" font-family="sans-serif" font-size="11" lengthAdjust="spacing" textLength="141.6841" x="330.498" y="2762.5464">(or resume when paused)</text><ellipse cx="401.3401" cy="2818.9453" fill="none" rx="11" ry="11" style="stroke:#222222;stroke-width:1;"/><ellipse cx="401.3401" cy="2818.9453" fill="#222222" rx="6" ry="6" style="stroke:#222222;stroke-width:1;"/><line style="stroke:#5F9EA0;stroke-width:1.5;" x1="15" x2="15" y1="12.7451" y2="2835.9453"/><rect fill="#F0F8FF" height="45.6094" rx="12.5" ry="12.5" style="stroke:#4682B4;stroke-width:0.5;" width="174.5049" x="649.7722" y="437.9404"/><text fill="#000000" font-family="sans-serif" font-size="11" lengthAdjust="spacing" textLength="129.9536" x="659.7722" y="458.1509">Retrieve prior learnings</text><text fill="#000000" font-family="sans-serif" font-size="11" lengthAdjust="spacing" textLength="154.5049" x="659.7722" y="470.9556">(Step 0.L via LearningStore)</text><rect fill="#F0F8FF" height="45.6094" rx="12.5" ry="12.5" style="stroke:#4682B4;stroke-width:0.5;" width="152.4082" x="660.8206" y="503.5498"/><text fill="#000000" font-family="sans-serif" font-size="11" lengthAdjust="spacing" textLength="132.4082" x="670.8206" y="523.7603">Execute Discovery Scan</text><text fill="#000000" font-family="sans-serif" font-size="11" lengthAdjust="spacing" textLength="89.6812" x="670.8206" y="536.5649">(5-layer, Step 0)</text><rect fill="#F0F8FF" height="45.6094" rx="12.5" ry="12.5" style="stroke:#4682B4;stroke-width:0.5;" width="162.9087" x="655.5703" y="569.1592"/><text fill="#000000" font-family="sans-serif" font-size="11" lengthAdjust="spacing" textLength="102.1152" x="665.5703" y="589.3696">Execute skill steps</text><text fill="#000000" font-family="sans-serif" font-size="11" lengthAdjust="spacing" textLength="142.9087" x="665.5703" y="602.1743">(BPR-002: Skill Execution)</text><rect fill="#F0F8FF" height="45.6094" rx="12.5" ry="12.5" style="stroke:#4682B4;stroke-width:0.5;" width="119.2793" x="677.385" y="683.1709"/><text fill="#000000" font-family="sans-serif" font-size="11" lengthAdjust="spacing" textLength="99.2793" x="687.385" y="703.3813">Raise Clarification</text><text fill="#000000" font-family="sans-serif" font-size="11" lengthAdjust="spacing" textLength="73.5947" x="687.385" y="716.186">Request (CQ)</text><rect fill="#F0F8FF" height="45.6094" rx="12.5" ry="12.5" style="stroke:#4682B4;stroke-width:0.5;" width="118.4038" x="677.8228" y="878.292"/><text fill="#000000" font-family="sans-serif" font-size="11" lengthAdjust="spacing" textLength="96.1963" x="687.8228" y="898.5024">Resume skill with</text><text fill="#000000" font-family="sans-serif" font-size="11" lengthAdjust="spacing" textLength="98.4038" x="687.8228" y="911.3071">answer in context</text><polygon fill="#FFFFE0" points="674.2581,634.7686,799.7913,634.7686,811.7913,646.7686,799.7913,658.7686,674.2581,658.7686,662.2581,646.7686,674.2581,634.7686" style="stroke:#B8860B;stroke-width:0.5;"/><text fill="#000000" font-family="sans-serif" font-size="11" lengthAdjust="spacing" textLength="19.0083" x="741.0247" y="668.979">yes</text><text fill="#000000" font-family="sans-serif" font-size="11" lengthAdjust="spacing" textLength="125.5332" x="674.2581" y="650.5767">Knowledge gap found?</text><text fill="#000000" font-family="sans-serif" font-size="11" lengthAdjust="spacing" textLength="13.7017" x="648.5564" y="644.1743">no</text><polygon fill="#FFFFE0" points="737.0247,948.3037,749.0247,960.3037,737.0247,972.3037,725.0247,960.3037,737.0247,948.3037" style="stroke:#B8860B;stroke-width:0.5;"/><rect fill="#F0F8FF" height="45.6094" rx="12.5" ry="12.5" style="stroke:#4682B4;stroke-width:0.5;" width="149.6582" x="662.1956" y="1042.3154"/><text fill="#000000" font-family="sans-serif" font-size="11" lengthAdjust="spacing" textLength="25.0347" x="672.1956" y="1062.5259">Emit</text><text fill="#000000" font-family="sans-serif" font-size="11" font-weight="bold" lengthAdjust="spacing" textLength="101.127" x="700.7268" y="1062.5259">algedonic signal</text><text fill="#000000" font-family="sans-serif" font-size="11" lengthAdjust="spacing" textLength="55.3706" x="672.1956" y="1075.3306">(BPR-005)</text><polygon fill="#FFFFE0" points="677.478,992.3037,796.5713,992.3037,808.5713,1005.1084,796.5713,1017.9131,677.478,1017.9131,665.478,1005.1084,677.478,992.3037" style="stroke:#B8860B;stroke-width:0.5;"/><text fill="#000000" font-family="sans-serif" font-size="11" lengthAdjust="spacing" textLength="19.0083" x="741.0247" y="1028.1235">yes</text><text fill="#000000" font-family="sans-serif" font-size="11" lengthAdjust="spacing" textLength="119.0933" x="677.478" y="1002.5142">Safety or time-critical</text><text fill="#000000" font-family="sans-serif" font-size="11" lengthAdjust="spacing" textLength="109.1353" x="677.478" y="1015.3188">condition detected?</text><text fill="#000000" font-family="sans-serif" font-size="11" lengthAdjust="spacing" textLength="13.7017" x="808.5713" y="1002.5142">no</text><polygon fill="#FFFFE0" points="737.0247,1264.7529,749.0247,1276.7529,737.0247,1288.7529,725.0247,1276.7529,737.0247,1264.7529" style="stroke:#B8860B;stroke-width:0.5;"/><rect fill="#F0F8FF" height="45.6094" rx="12.5" ry="12.5" style="stroke:#4682B4;stroke-width:0.5;" width="191.6226" x="641.2134" y="1308.7529"/><text fill="#000000" font-family="sans-serif" font-size="11" lengthAdjust="spacing" textLength="126.731" x="651.2134" y="1328.9634">Write output artifact(s)</text><text fill="#000000" font-family="sans-serif" font-size="11" lengthAdjust="spacing" textLength="171.6226" x="651.2134" y="1341.7681">(emit artifact.created/updated)</text><rect fill="#F0F8FF" height="45.6094" rx="12.5" ry="12.5" style="stroke:#4682B4;stroke-width:0.5;" width="152.2793" x="660.885" y="1374.3623"/><text fill="#000000" font-family="sans-serif" font-size="11" lengthAdjust="spacing" textLength="132.2793" x="670.885" y="1394.5728">Generate LearningEntry</text><text fill="#000000" font-family="sans-serif" font-size="11" lengthAdjust="spacing" textLength="113.0454" x="670.885" y="1407.3774">if feedback occurred</text><rect fill="#F0F8FF" height="45.6094" rx="12.5" ry="12.5" style="stroke:#4682B4;stroke-width:0.5;" width="130.0537" x="671.9978" y="2134.2573"/><text fill="#000000" font-family="sans-serif" font-size="11" lengthAdjust="spacing" textLength="101.3472" x="681.9978" y="2154.4678">Revise artifact per</text><text fill="#000000" font-family="sans-serif" font-size="11" lengthAdjust="spacing" textLength="110.0537" x="681.9978" y="2167.2725">handoff instructions</text><rect fill="#F0F8FF" height="45.6094" rx="12.5" ry="12.5" style="stroke:#4682B4;stroke-width:0.5;" width="145.7749" x="664.1372" y="2199.8667"/><text fill="#000000" font-family="sans-serif" font-size="11" lengthAdjust="spacing" textLength="116.4722" x="674.1372" y="2220.0771">Write revised artifact</text><text fill="#000000" font-family="sans-serif" font-size="11" lengthAdjust="spacing" textLength="125.7749" x="674.1372" y="2232.8818">(emit artifact.updated)</text><line style="stroke:#5F9EA0;stroke-width:1.5;" x1="626.0439" x2="626.0439" y1="12.7451" y2="2835.9453"/><rect fill="#F0F8FF" height="32.8047" rx="12.5" ry="12.5" style="stroke:#4682B4;stroke-width:0.5;" width="163.9614" x="874.5605" y="748.7803"/><text fill="#000000" font-family="sans-serif" font-size="11" lengthAdjust="spacing" textLength="143.9614" x="884.5605" y="768.9907">Receive CQ on Dashboard</text><rect fill="#F0F8FF" height="45.6094" rx="12.5" ry="12.5" style="stroke:#4682B4;stroke-width:0.5;" width="143.938" x="884.5723" y="812.6826"/><text fill="#000000" font-family="sans-serif" font-size="11" lengthAdjust="spacing" textLength="84.4282" x="894.5723" y="832.8931">Provide answer</text><text fill="#000000" font-family="sans-serif" font-size="11" lengthAdjust="spacing" textLength="123.938" x="894.5723" y="845.6978">(optionally upload file)</text><rect fill="#F0F8FF" height="45.6094" rx="12.5" ry="12.5" style="stroke:#4682B4;stroke-width:0.5;" width="141.7358" x="885.6733" y="1790.6128"/><text fill="#000000" font-family="sans-serif" font-size="11" lengthAdjust="spacing" textLength="121.7358" x="895.6733" y="1810.8232">Receive sprint artifact</text><text fill="#000000" font-family="sans-serif" font-size="11" lengthAdjust="spacing" textLength="96.7227" x="895.6733" y="1823.6279">list on Dashboard</text><rect fill="#F0F8FF" height="45.6094" rx="12.5" ry="12.5" style="stroke:#4682B4;stroke-width:0.5;" width="219.375" x="846.8538" y="1856.2222"/><text fill="#000000" font-family="sans-serif" font-size="11" lengthAdjust="spacing" textLength="116.5742" x="856.8538" y="1876.4326">Review each artifact:</text><text fill="#000000" font-family="sans-serif" font-size="11" lengthAdjust="spacing" textLength="199.375" x="856.8538" y="1889.2373">approved / needs-revision / rejected</text><rect fill="#F0F8FF" height="45.6094" rx="12.5" ry="12.5" style="stroke:#4682B4;stroke-width:0.5;" width="145.9038" x="883.5894" y="2280.4761"/><text fill="#000000" font-family="sans-serif" font-size="11" lengthAdjust="spacing" textLength="98.8335" x="893.5894" y="2300.6865">Re-review revised</text><text fill="#000000" font-family="sans-serif" font-size="11" lengthAdjust="spacing" textLength="125.9038" x="893.5894" y="2313.4912">artifacts on Dashboard</text><rect fill="#F0F8FF" height="45.6094" rx="12.5" ry="12.5" style="stroke:#4682B4;stroke-width:0.5;" width="199.1636" x="856.9595" y="2346.0854"/><text fill="#000000" font-family="sans-serif" font-size="11" lengthAdjust="spacing" textLength="179.1636" x="866.9595" y="2366.2959">Approve / needs-further-revision</text><text fill="#000000" font-family="sans-serif" font-size="11" lengthAdjust="spacing" textLength="52.4272" x="866.9595" y="2379.1006">/ rejected</text><line style="stroke:#5F9EA0;stroke-width:1.5;" x1="840.8538" x2="840.8538" y1="12.7451" y2="2835.9453"/><line style="stroke:#5F9EA0;stroke-width:1.5;" x1="1070.2288" x2="1070.2288" y1="12.7451" y2="2835.9453"/><line style="stroke:#4682B4;stroke-width:1;" x1="301.9486" x2="301.9486" y1="58.6982" y2="78.6982"/><polygon fill="#4682B4" points="297.9486,68.6982,301.9486,78.6982,305.9486,68.6982,301.9486,72.6982" style="stroke:#4682B4;stroke-width:1;"/><line style="stroke:#4682B4;stroke-width:1;" x1="301.9486" x2="301.9486" y1="124.3076" y2="144.3076"/><polygon fill="#4682B4" points="297.9486,134.3076,301.9486,144.3076,305.9486,134.3076,301.9486,138.3076" style="stroke:#4682B4;stroke-width:1;"/><line style="stroke:#4682B4;stroke-width:1;" x1="301.9486" x2="301.9486" y1="189.917" y2="209.917"/><polygon fill="#4682B4" points="297.9486,199.917,301.9486,209.917,305.9486,199.917,301.9486,203.917" style="stroke:#4682B4;stroke-width:1;"/><line style="stroke:#4682B4;stroke-width:1;" x1="301.9486" x2="301.9486" y1="255.5264" y2="275.5264"/><polygon fill="#4682B4" points="297.9486,265.5264,301.9486,275.5264,305.9486,265.5264,301.9486,269.5264" style="stroke:#4682B4;stroke-width:1;"/><line style="stroke:#4682B4;stroke-width:1;" x1="301.9486" x2="301.9486" y1="1179.1436" y2="1199.1436"/><polygon fill="#4682B4" points="297.9486,1189.1436,301.9486,1199.1436,305.9486,1189.1436,301.9486,1193.1436" style="stroke:#4682B4;stroke-width:1;"/><line style="stroke:#4682B4;stroke-width:1;" x1="301.9486" x2="301.9486" y1="352.3311" y2="372.3311"/><polygon fill="#4682B4" points="297.9486,362.3311,301.9486,372.3311,305.9486,362.3311,301.9486,366.3311" style="stroke:#4682B4;stroke-width:1;"/><line style="stroke:#4682B4;stroke-width:1;" x1="237.089" x2="192.2413" y1="1505.5811" y2="1505.5811"/><polygon fill="#4682B4" points="188.2413,933.2061,192.2413,923.2061,196.2413,933.2061,192.2413,929.2061" style="stroke:#4682B4;stroke-width:1;"/><line style="stroke:#4682B4;stroke-width:1;" x1="192.2413" x2="192.2413" y1="340.3311" y2="1505.5811"/><line style="stroke:#4682B4;stroke-width:1;" x1="192.2413" x2="289.9486" y1="340.3311" y2="340.3311"/><polygon fill="#4682B4" points="279.9486,336.3311,289.9486,340.3311,279.9486,344.3311,283.9486,340.3311" style="stroke:#4682B4;stroke-width:1;"/><line style="stroke:#4682B4;stroke-width:1;" x1="301.9486" x2="301.9486" y1="1472.7764" y2="1492.7764"/><polygon fill="#4682B4" points="297.9486,1482.7764,301.9486,1492.7764,305.9486,1482.7764,301.9486,1486.7764" style="stroke:#4682B4;stroke-width:1;"/><line style="stroke:#4682B4;stroke-width:1;" x1="301.9486" x2="301.9486" y1="308.3311" y2="328.3311"/><polygon fill="#4682B4" points="297.9486,318.3311,301.9486,328.3311,305.9486,318.3311,301.9486,322.3311" style="stroke:#4682B4;stroke-width:1;"/><line style="stroke:#4682B4;stroke-width:1;" x1="301.9486" x2="301.9486" y1="1518.3857" y2="1559.7847"/><polygon fill="#4682B4" points="297.9486,1549.7847,301.9486,1559.7847,305.9486,1549.7847,301.9486,1553.7847" style="stroke:#4682B4;stroke-width:1;"/><text fill="#000000" font-family="sans-serif" font-size="11" lengthAdjust="spacing" textLength="13.7017" x="305.9486" y="1539.6904">no</text><line style="stroke:#4682B4;stroke-width:1;" x1="90.3828" x2="90.3828" y1="1705.0034" y2="1725.0034"/><polygon fill="#4682B4" points="86.3828,1715.0034,90.3828,1725.0034,94.3828,1715.0034,90.3828,1719.0034" style="stroke:#4682B4;stroke-width:1;"/><line style="stroke:#4682B4;stroke-width:1;" x1="513.5144" x2="513.5144" y1="1705.0034" y2="1725.0034"/><polygon fill="#4682B4" points="509.5144,1715.0034,513.5144,1725.0034,517.5144,1715.0034,513.5144,1719.0034" style="stroke:#4682B4;stroke-width:1;"/><line style="stroke:#4682B4;stroke-width:1;" x1="252.641" x2="90.3828" y1="1637.394" y2="1637.394"/><line style="stroke:#4682B4;stroke-width:1;" x1="90.3828" x2="90.3828" y1="1637.394" y2="1659.394"/><polygon fill="#4682B4" points="86.3828,1649.394,90.3828,1659.394,94.3828,1649.394,90.3828,1653.394" style="stroke:#4682B4;stroke-width:1;"/><line style="stroke:#4682B4;stroke-width:1;" x1="351.2562" x2="513.5144" y1="1637.394" y2="1637.394"/><line style="stroke:#4682B4;stroke-width:1;" x1="513.5144" x2="513.5144" y1="1637.394" y2="1659.394"/><polygon fill="#4682B4" points="509.5144,1649.394,513.5144,1659.394,517.5144,1649.394,513.5144,1653.394" style="stroke:#4682B4;stroke-width:1;"/><line style="stroke:#4682B4;stroke-width:1;" x1="513.5144" x2="513.5144" y1="1770.6128" y2="1775.6128"/><line style="stroke:#4682B4;stroke-width:1;" x1="513.5144" x2="956.5413" y1="1775.6128" y2="1775.6128"/><line style="stroke:#4682B4;stroke-width:1;" x1="956.5413" x2="956.5413" y1="1775.6128" y2="1790.6128"/><polygon fill="#4682B4" points="952.5413,1780.6128,956.5413,1790.6128,960.5413,1780.6128,956.5413,1784.6128" style="stroke:#4682B4;stroke-width:1;"/><line style="stroke:#4682B4;stroke-width:1;" x1="301.9486" x2="301.9486" y1="1605.394" y2="1625.394"/><polygon fill="#4682B4" points="297.9486,1615.394,301.9486,1625.394,305.9486,1615.394,301.9486,1619.394" style="stroke:#4682B4;stroke-width:1;"/><line style="stroke:#4682B4;stroke-width:1;" x1="301.9486" x2="301.9486" y1="2044.2456" y2="2068.6479"/><polygon fill="#4682B4" points="297.9486,2058.6479,301.9486,2068.6479,305.9486,2058.6479,301.9486,2062.6479" style="stroke:#4682B4;stroke-width:1;"/><line style="stroke:#4682B4;stroke-width:1;" x1="233.6219" x2="192.3668" y1="2031.4409" y2="2031.4409"/><polygon fill="#4682B4" points="188.3668,2252.5737,192.3668,2262.5737,196.3668,2252.5737,192.3668,2256.5737" style="stroke:#4682B4;stroke-width:1;"/><line style="stroke:#4682B4;stroke-width:1;" x1="192.3668" x2="192.3668" y1="2031.4409" y2="2489.3042"/><line style="stroke:#4682B4;stroke-width:1;" x1="192.3668" x2="289.9486" y1="2489.3042" y2="2489.3042"/><polygon fill="#4682B4" points="279.9486,2485.3042,289.9486,2489.3042,279.9486,2493.3042,283.9486,2489.3042" style="stroke:#4682B4;stroke-width:1;"/><line style="stroke:#4682B4;stroke-width:1;" x1="301.9486" x2="301.9486" y1="2457.3042" y2="2477.3042"/><polygon fill="#4682B4" points="297.9486,2467.3042,301.9486,2477.3042,305.9486,2467.3042,301.9486,2471.3042" style="stroke:#4682B4;stroke-width:1;"/><line style="stroke:#4682B4;stroke-width:1;" x1="301.9486" x2="301.9486" y1="1998.6362" y2="2018.6362"/><polygon fill="#4682B4" points="297.9486,2008.6362,301.9486,2018.6362,305.9486,2008.6362,301.9486,2012.6362" style="stroke:#4682B4;stroke-width:1;"/><line style="stroke:#4682B4;stroke-width:1;" x1="238.1417" x2="180.3668" y1="2534.1089" y2="2534.1089"/><polygon fill="#4682B4" points="176.3668,2272.5737,180.3668,2262.5737,184.3668,2272.5737,180.3668,2268.5737" style="stroke:#4682B4;stroke-width:1;"/><line style="stroke:#4682B4;stroke-width:1;" x1="180.3668" x2="180.3668" y1="1986.6362" y2="2534.1089"/><line style="stroke:#4682B4;stroke-width:1;" x1="180.3668" x2="289.9486" y1="1986.6362" y2="1986.6362"/><polygon fill="#4682B4" points="279.9486,1982.6362,289.9486,1986.6362,279.9486,1990.6362,283.9486,1986.6362" style="stroke:#4682B4;stroke-width:1;"/><line style="stroke:#4682B4;stroke-width:1;" x1="301.9486" x2="301.9486" y1="2501.3042" y2="2521.3042"/><polygon fill="#4682B4" points="297.9486,2511.3042,301.9486,2521.3042,305.9486,2511.3042,301.9486,2515.3042" style="stroke:#4682B4;stroke-width:1;"/><line style="stroke:#4682B4;stroke-width:1;" x1="301.9486" x2="301.9486" y1="1954.6362" y2="1974.6362"/><polygon fill="#4682B4" points="297.9486,1964.6362,301.9486,1974.6362,305.9486,1964.6362,301.9486,1968.6362" style="stroke:#4682B4;stroke-width:1;"/><line style="stroke:#4682B4;stroke-width:1;" x1="301.9486" x2="301.9486" y1="2546.9136" y2="2588.3125"/><polygon fill="#4682B4" points="297.9486,2578.3125,301.9486,2588.3125,305.9486,2578.3125,301.9486,2582.3125" style="stroke:#4682B4;stroke-width:1;"/><text fill="#000000" font-family="sans-serif" font-size="11" lengthAdjust="spacing" textLength="118.3789" x="305.9486" y="2568.2183">yes (sprint approved)</text><line style="stroke:#4682B4;stroke-width:1;" x1="301.9486" x2="301.9486" y1="2621.1172" y2="2641.1172"/><polygon fill="#4682B4" points="297.9486,2631.1172,301.9486,2641.1172,305.9486,2631.1172,301.9486,2635.1172" style="stroke:#4682B4;stroke-width:1;"/><line style="stroke:#4682B4;stroke-width:1;" x1="202.5571" x2="202.5571" y1="2762.3359" y2="2795.1406"/><polygon fill="#4682B4" points="198.5571,2785.1406,202.5571,2795.1406,206.5571,2785.1406,202.5571,2789.1406" style="stroke:#4682B4;stroke-width:1;"/><line style="stroke:#4682B4;stroke-width:1;" x1="401.3401" x2="401.3401" y1="2775.1406" y2="2807.9453"/><polygon fill="#4682B4" points="397.3401,2797.9453,401.3401,2807.9453,405.3401,2797.9453,401.3401,2801.9453" style="stroke:#4682B4;stroke-width:1;"/><line style="stroke:#4682B4;stroke-width:1;" x1="254.8673" x2="202.5571" y1="2706.7266" y2="2706.7266"/><line style="stroke:#4682B4;stroke-width:1;" x1="202.5571" x2="202.5571" y1="2706.7266" y2="2729.5313"/><polygon fill="#4682B4" points="198.5571,2719.5313,202.5571,2729.5313,206.5571,2719.5313,202.5571,2723.5313" style="stroke:#4682B4;stroke-width:1;"/><line style="stroke:#4682B4;stroke-width:1;" x1="349.0299" x2="401.3401" y1="2706.7266" y2="2706.7266"/><line style="stroke:#4682B4;stroke-width:1;" x1="401.3401" x2="401.3401" y1="2706.7266" y2="2729.5313"/><polygon fill="#4682B4" points="397.3401,2719.5313,401.3401,2729.5313,405.3401,2719.5313,401.3401,2723.5313" style="stroke:#4682B4;stroke-width:1;"/><line style="stroke:#4682B4;stroke-width:1;" x1="301.9486" x2="301.9486" y1="2673.9219" y2="2693.9219"/><polygon fill="#4682B4" points="297.9486,2683.9219,301.9486,2693.9219,305.9486,2683.9219,301.9486,2687.9219" style="stroke:#4682B4;stroke-width:1;"/><line style="stroke:#4682B4;stroke-width:1;" x1="737.0247" x2="737.0247" y1="483.5498" y2="503.5498"/><polygon fill="#4682B4" points="733.0247,493.5498,737.0247,503.5498,741.0247,493.5498,737.0247,497.5498" style="stroke:#4682B4;stroke-width:1;"/><line style="stroke:#4682B4;stroke-width:1;" x1="737.0247" x2="737.0247" y1="549.1592" y2="569.1592"/><polygon fill="#4682B4" points="733.0247,559.1592,737.0247,569.1592,741.0247,559.1592,737.0247,563.1592" style="stroke:#4682B4;stroke-width:1;"/><line style="stroke:#4682B4;stroke-width:1;" x1="737.0247" x2="737.0247" y1="658.7686" y2="683.1709"/><polygon fill="#4682B4" points="733.0247,673.1709,737.0247,683.1709,741.0247,673.1709,737.0247,677.1709" style="stroke:#4682B4;stroke-width:1;"/><line style="stroke:#4682B4;stroke-width:1;" x1="662.2581" x2="645.0439" y1="646.7686" y2="646.7686"/><polygon fill="#4682B4" points="641.0439,791.585,645.0439,801.585,649.0439,791.585,645.0439,795.585" style="stroke:#4682B4;stroke-width:1;"/><line style="stroke:#4682B4;stroke-width:1;" x1="645.0439" x2="645.0439" y1="646.7686" y2="960.3037"/><line style="stroke:#4682B4;stroke-width:1;" x1="645.0439" x2="725.0247" y1="960.3037" y2="960.3037"/><polygon fill="#4682B4" points="715.0247,956.3037,725.0247,960.3037,715.0247,964.3037,719.0247,960.3037" style="stroke:#4682B4;stroke-width:1;"/><line style="stroke:#4682B4;stroke-width:1;" x1="737.0247" x2="737.0247" y1="923.9014" y2="948.3037"/><polygon fill="#4682B4" points="733.0247,938.3037,737.0247,948.3037,741.0247,938.3037,737.0247,942.3037" style="stroke:#4682B4;stroke-width:1;"/><line style="stroke:#4682B4;stroke-width:1;" x1="737.0247" x2="737.0247" y1="614.7686" y2="634.7686"/><polygon fill="#4682B4" points="733.0247,624.7686,737.0247,634.7686,741.0247,624.7686,737.0247,628.7686" style="stroke:#4682B4;stroke-width:1;"/><line style="stroke:#4682B4;stroke-width:1;" x1="737.0247" x2="737.0247" y1="1017.9131" y2="1042.3154"/><polygon fill="#4682B4" points="733.0247,1032.3154,737.0247,1042.3154,741.0247,1032.3154,737.0247,1036.3154" style="stroke:#4682B4;stroke-width:1;"/><line style="stroke:#4682B4;stroke-width:1;" x1="808.5713" x2="821.8538" y1="1005.1084" y2="1005.1084"/><polygon fill="#4682B4" points="817.8538,1133.1318,821.8538,1143.1318,825.8538,1133.1318,821.8538,1137.1318" style="stroke:#4682B4;stroke-width:1;"/><line style="stroke:#4682B4;stroke-width:1;" x1="821.8538" x2="821.8538" y1="1005.1084" y2="1276.7529"/><line style="stroke:#4682B4;stroke-width:1;" x1="821.8538" x2="749.0247" y1="1276.7529" y2="1276.7529"/><polygon fill="#4682B4" points="759.0247,1272.7529,749.0247,1276.7529,759.0247,1280.7529,755.0247,1276.7529" style="stroke:#4682B4;stroke-width:1;"/><line style="stroke:#4682B4;stroke-width:1;" x1="737.0247" x2="737.0247" y1="972.3037" y2="992.3037"/><polygon fill="#4682B4" points="733.0247,982.3037,737.0247,992.3037,741.0247,982.3037,737.0247,986.3037" style="stroke:#4682B4;stroke-width:1;"/><line style="stroke:#4682B4;stroke-width:1;" x1="737.0247" x2="737.0247" y1="1288.7529" y2="1308.7529"/><polygon fill="#4682B4" points="733.0247,1298.7529,737.0247,1308.7529,741.0247,1298.7529,737.0247,1302.7529" style="stroke:#4682B4;stroke-width:1;"/><line style="stroke:#4682B4;stroke-width:1;" x1="737.0247" x2="737.0247" y1="1354.3623" y2="1374.3623"/><polygon fill="#4682B4" points="733.0247,1364.3623,737.0247,1374.3623,741.0247,1364.3623,737.0247,1368.3623" style="stroke:#4682B4;stroke-width:1;"/><line style="stroke:#4682B4;stroke-width:1;" x1="737.0247" x2="737.0247" y1="2179.8667" y2="2199.8667"/><polygon fill="#4682B4" points="733.0247,2189.8667,737.0247,2199.8667,741.0247,2189.8667,737.0247,2193.8667" style="stroke:#4682B4;stroke-width:1;"/><line style="stroke:#4682B4;stroke-width:1;" x1="956.5413" x2="956.5413" y1="781.585" y2="812.6826"/><polygon fill="#4682B4" points="952.5413,802.6826,956.5413,812.6826,960.5413,802.6826,956.5413,806.6826" style="stroke:#4682B4;stroke-width:1;"/><line style="stroke:#4682B4;stroke-width:1;" x1="956.5413" x2="956.5413" y1="1836.2222" y2="1856.2222"/><polygon fill="#4682B4" points="952.5413,1846.2222,956.5413,1856.2222,960.5413,1846.2222,956.5413,1850.2222" style="stroke:#4682B4;stroke-width:1;"/><line style="stroke:#4682B4;stroke-width:1;" x1="956.5413" x2="956.5413" y1="2326.0854" y2="2346.0854"/><polygon fill="#4682B4" points="952.5413,2336.0854,956.5413,2346.0854,960.5413,2336.0854,956.5413,2340.0854" style="stroke:#4682B4;stroke-width:1;"/><line style="stroke:#4682B4;stroke-width:1;" x1="301.9486" x2="301.9486" y1="417.9404" y2="422.9404"/><line style="stroke:#4682B4;stroke-width:1;" x1="301.9486" x2="737.0247" y1="422.9404" y2="422.9404"/><line style="stroke:#4682B4;stroke-width:1;" x1="737.0247" x2="737.0247" y1="422.9404" y2="437.9404"/><polygon fill="#4682B4" points="733.0247,427.9404,737.0247,437.9404,741.0247,427.9404,737.0247,431.9404" style="stroke:#4682B4;stroke-width:1;"/><line style="stroke:#4682B4;stroke-width:1;" x1="737.0247" x2="737.0247" y1="728.7803" y2="733.7803"/><line style="stroke:#4682B4;stroke-width:1;" x1="737.0247" x2="956.5413" y1="733.7803" y2="733.7803"/><line style="stroke:#4682B4;stroke-width:1;" x1="956.5413" x2="956.5413" y1="733.7803" y2="748.7803"/><polygon fill="#4682B4" points="952.5413,738.7803,956.5413,748.7803,960.5413,738.7803,956.5413,742.7803" style="stroke:#4682B4;stroke-width:1;"/><line style="stroke:#4682B4;stroke-width:1;" x1="956.5413" x2="956.5413" y1="858.292" y2="863.292"/><line style="stroke:#4682B4;stroke-width:1;" x1="956.5413" x2="737.0247" y1="863.292" y2="863.292"/><line style="stroke:#4682B4;stroke-width:1;" x1="737.0247" x2="737.0247" y1="863.292" y2="878.292"/><polygon fill="#4682B4" points="733.0247,868.292,737.0247,878.292,741.0247,868.292,737.0247,872.292" style="stroke:#4682B4;stroke-width:1;"/><line style="stroke:#4682B4;stroke-width:1;" x1="737.0247" x2="737.0247" y1="1087.9248" y2="1092.9248"/><line style="stroke:#4682B4;stroke-width:1;" x1="737.0247" x2="301.9486" y1="1092.9248" y2="1092.9248"/><line style="stroke:#4682B4;stroke-width:1;" x1="301.9486" x2="301.9486" y1="1092.9248" y2="1107.9248"/><polygon fill="#4682B4" points="297.9486,1097.9248,301.9486,1107.9248,305.9486,1097.9248,301.9486,1101.9248" style="stroke:#4682B4;stroke-width:1;"/><line style="stroke:#4682B4;stroke-width:1;" x1="301.9486" x2="301.9486" y1="1244.7529" y2="1252.5518"/><line style="stroke:#4682B4;stroke-width:1;" x1="301.9486" x2="737.0247" y1="1252.5518" y2="1252.5518"/><line style="stroke:#4682B4;stroke-width:1;" x1="737.0247" x2="737.0247" y1="1252.5518" y2="1264.7529"/><polygon fill="#4682B4" points="733.0247,1254.7529,737.0247,1264.7529,741.0247,1254.7529,737.0247,1258.7529" style="stroke:#4682B4;stroke-width:1;"/><line style="stroke:#4682B4;stroke-width:1;" x1="737.0247" x2="737.0247" y1="1419.9717" y2="1424.9717"/><line style="stroke:#4682B4;stroke-width:1;" x1="737.0247" x2="301.9486" y1="1424.9717" y2="1424.9717"/><line style="stroke:#4682B4;stroke-width:1;" x1="301.9486" x2="301.9486" y1="1424.9717" y2="1439.9717"/><polygon fill="#4682B4" points="297.9486,1429.9717,301.9486,1439.9717,305.9486,1429.9717,301.9486,1433.9717" style="stroke:#4682B4;stroke-width:1;"/><line style="stroke:#4682B4;stroke-width:1;" x1="956.5413" x2="956.5413" y1="1901.8315" y2="1906.8315"/><line style="stroke:#4682B4;stroke-width:1;" x1="956.5413" x2="301.9486" y1="1906.8315" y2="1906.8315"/><line style="stroke:#4682B4;stroke-width:1;" x1="301.9486" x2="301.9486" y1="1906.8315" y2="1921.8315"/><polygon fill="#4682B4" points="297.9486,1911.8315,301.9486,1921.8315,305.9486,1911.8315,301.9486,1915.8315" style="stroke:#4682B4;stroke-width:1;"/><line style="stroke:#4682B4;stroke-width:1;" x1="301.9486" x2="301.9486" y1="2114.2573" y2="2119.2573"/><line style="stroke:#4682B4;stroke-width:1;" x1="301.9486" x2="737.0247" y1="2119.2573" y2="2119.2573"/><line style="stroke:#4682B4;stroke-width:1;" x1="737.0247" x2="737.0247" y1="2119.2573" y2="2134.2573"/><polygon fill="#4682B4" points="733.0247,2124.2573,737.0247,2134.2573,741.0247,2124.2573,737.0247,2128.2573" style="stroke:#4682B4;stroke-width:1;"/><line style="stroke:#4682B4;stroke-width:1;" x1="737.0247" x2="737.0247" y1="2245.4761" y2="2262.9761"/><line style="stroke:#4682B4;stroke-width:1;" x1="737.0247" x2="956.5413" y1="2262.9761" y2="2262.9761"/><line style="stroke:#4682B4;stroke-width:1;" x1="956.5413" x2="956.5413" y1="2262.9761" y2="2280.4761"/><polygon fill="#4682B4" points="952.5413,2270.4761,956.5413,2280.4761,960.5413,2270.4761,956.5413,2274.4761" style="stroke:#4682B4;stroke-width:1;"/><line style="stroke:#4682B4;stroke-width:1;" x1="956.5413" x2="956.5413" y1="2391.6948" y2="2396.6948"/><line style="stroke:#4682B4;stroke-width:1;" x1="956.5413" x2="301.9486" y1="2396.6948" y2="2396.6948"/><line style="stroke:#4682B4;stroke-width:1;" x1="301.9486" x2="301.9486" y1="2396.6948" y2="2411.6948"/><polygon fill="#4682B4" points="297.9486,2401.6948,301.9486,2411.6948,305.9486,2401.6948,301.9486,2405.6948" style="stroke:#4682B4;stroke-width:1;"/><text fill="#000000" font-family="sans-serif" font-size="18" font-weight="bold" lengthAdjust="spacing" textLength="97.8135" x="271.6152" y="29.4531">PM Agent</text><text fill="#000000" font-family="sans-serif" font-size="18" font-weight="bold" lengthAdjust="spacing" textLength="176.124" x="645.3868" y="29.4531">Specialist Agents</text><text fill="#000000" font-family="sans-serif" font-size="18" font-weight="bold" lengthAdjust="spacing" textLength="46.415" x="932.3337" y="29.4531">User</text><!--SRC=[hLTBRXj74Dtp50Lx4KenAIcEDnIGWA9amuYCsAA3800thPaQigDczwIxXpGJ1SWg1mXoXzmZH_59yghdGr9caesyCT7JNPzNhrwLmfssfV9gIIgBUgNZXdxf4Lsex6xkNMNpYJFEqzZeZ2zCnVBD-PnzVJwDpAOvlzHgwMp-yEcrdY_Y3soCM-zSsh5ngVpTAsTojjxbk3Bstgq_DV_IsJZLFpETdVL-xOKkxh3MIwCirt7ls9sed6Fp-BsEXfE5k35Cjt078xtFQF1u_s1jsiQ2qABETAbi3FJnjp_fjWhQSWW3epRioJl3WVhZoVl14TwrEU3hBHiAhl8PZ-Zllt8TIhoWfq-VTlMvDIwx2-GiiSeMn3RY54R4sEdfsOYUV1VOFo6wf-Ri2vozVKFZEUxkdZ_7-RJaJ2kZGwo_XoUFZ4hlldLz3yk2Iu5K1ZeVjT7rGiHnRtJ3AaSwSpNd9QvJwLsX3S-iiZbThLYgvpmJhaS-xut68G1HSYLRchmBpmW_SctdCxl02rSKE9hZAhagPcx90MykER9VeXHa-KEaq6NV3qSp6nrfkt9tJFsBjpU2vX7UN2rrfEFZK7fjup05o_dnCR64TDxhUIvPHR1izBf-lBLAIXAVsRME2r8XwBdbd41UO_0GfVW4_dkS7eJfEVNXo7F0BGKgSEALiXjoHNjbE4m_pawF99eRZbuZI02fqG-6bRU09yni7urLqkdmcbPQqNNp8Q6BXF7qwWDd5P2xr25pA_ORccRAuk6Bci3FgBQmVplbXV9mAJvg1C6zQJgkBsbdZrBckg3-DzQj3UTpHfbAAaGplZwYk40z-niEaeIaeNHWcXZbTQ4p9IPczeP_gXYWzIVlQdl0KcX_dtuU1F2iCSSP2tgJTz92boeiRfto-NdzzQrtAvqpS0rhziZ2bU9G6REXgZGE31LETZuFrYzv2TMoHKIgBomMao0OPH0Yi4zSia5kVUiaLs5lqM8pLGMZsL6tg9SyoBo6e2WpitYSQuc986-SWOe7C6iegyoSSsTrHi8yPOwFkxgyw5BOjcSTkPDIRbz6DxEJwUHRG9AV81n16LOAXPHB1LedUTkKIhfnPgtpImKII7ri1bOTDSYErmenWR_EL7KDRxcGTXOqjArmzVm_C3q8rEXxm9BwkwnYL_FKodqM2DgZOURHefoVL6Kk_zUyVSMMlGX4sm5NDlhDp0B_WZc_nIGZbsMLzvpNxRgBLSSaaOOsuY64fZIS1AAJ1belm1dglqdgrTqLjE06WX0NEb2jBoWcVjUb77n5rfq__fXw9JbVhPIfKZUrOlVbqIDx6c4G6r2qLk6LYqAGmZii6-YA98s1FYTX5x8KrgV84fMshBOkKQnGm32NXiYvO2b98t8PPlwUpgFunyToCEGwHob6ghX52EHb8HdHPME5Flx-1sWv05yhFf_PbxKVETqs0GVqNW8BLa9qPQ_cOzDnRR-L2nLu63rQFRMeE4Oqo2nzmTu1YLDGqymxoR6cuNj4D8SoJ1C1w8PNcjVq6XhXPUXBg_GlNe-RSTIG_z5NbtzpJftlH_RPw7NNHZN_kvQTsQG0-nezQk9BcqzxSmHjBR4ih52s4vAM2WEFUq6YFq5jVqmoURwtYeZIPx8- -DfYZgwK1s5te0ibnvYm49bbI9PdjhCC9hQc3oZm90aEDPj8lIk4j654XMhddom9uVz7oae6OPirjXtVRJgOAY7wAXKiD89RQsCA5-wsi3vGngqYFfoYy3Xeq6ci0EZcMJWqFCTr5ReY59K7BBuhnipkLUFGz6chqaHLmxrVdaEpO5zdnw8kRQ0xvBZTfEdLIAoyXy9kP15lkTVS530Uh7sPSO6tIrzRt_hh87sb05TXuM8ZPbVTAYjJknuB3vdIUjcklViJP4zjwen75pp74j7ih-9UrXGXOrevrcA-L5KhBxkQT-rSIMcioLHlaiOV65Q6N-Sh8VeF]--></g></svg>