<svg xmlns="http://www.w3.org/2000/svg" xmlns:xlink="http://www.w3.org/1999/xlink" contentStyleType="text/css" data-diagram-type="DESCRIPTION" height="1083px" preserveAspectRatio="none" style="width:1294px;height:1083px;background:#FAFAFA;" version="1.1" viewBox="0 0 1294 1083" width="1294px" zoomAndPan="magnify"><defs/><g><rect fill="#FAFAFA" height="1083" style="stroke:none;stroke-width:1;" width="1294" x="0" y="0"/><!--cluster GRP_STK--><g class="cluster" data-entity="GRP_STK" data-source-line="44" data-uid="ent0002" id="cluster_GRP_STK"><rect fill="#F7EEF9" height="110" rx="2" ry="2" style="stroke:#7B3F9A;stroke-width:1;" width="1181.5" x="7" y="7"/><text fill="#000000" font-family="sans-serif" font-size="12" font-style="italic" lengthAdjust="spacing" textLength="133.3418" x="531.0791" y="20.1387">&#171;MotivationGrouping&#187;</text><text fill="#000000" font-family="sans-serif" font-size="12" font-weight="bold" lengthAdjust="spacing" textLength="89.2852" x="553.1074" y="34.1074">Stakeholders</text></g><!--cluster GRP_DRV--><g class="cluster" data-entity="GRP_DRV" data-source-line="51" data-uid="ent0007" id="cluster_GRP_DRV"><rect fill="#F7EEF9" height="936" rx="2" ry="2" style="stroke:#7B3F9A;stroke-width:1;" width="293" x="914" y="141"/><text fill="#000000" font-family="sans-serif" font-size="12" font-style="italic" lengthAdjust="spacing" textLength="133.3418" x="993.8291" y="154.1387">&#171;MotivationGrouping&#187;</text><text fill="#000000" font-family="sans-serif" font-size="12" font-weight="bold" lengthAdjust="spacing" textLength="82.9277" x="1019.0361" y="168.1074">Role Drivers</text></g><!--entity STK_006--><g class="entity" data-entity="STK_006" data-source-line="45" data-uid="ent0003" id="entity_STK_006"><rect fill="#EDD6F0" height="47.9375" rx="2" ry="2" style="stroke:#7B3F9A;stroke-width:0.5;" width="244.9004" x="23" y="53"/><text fill="#000000" font-family="sans-serif" font-size="12" font-style="italic" lengthAdjust="spacing" textLength="87.0352" x="101.9326" y="74.1387">&#171;Stakeholder&#187;</text><text fill="#000000" font-family="sans-serif" font-size="12" lengthAdjust="spacing" textLength="224.9004" x="33" y="88.1074">DevOps / Platform Agent Stakeholder</text></g><!--entity STK_007--><g class="entity" data-entity="STK_007" data-source-line="46" data-uid="ent0004" id="entity_STK_007"><rect fill="#EDD6F0" height="47.9375" rx="2" ry="2" style="stroke:#7B3F9A;stroke-width:0.5;" width="284.4043" x="343" y="53"/><text fill="#000000" font-family="sans-serif" font-size="12" font-style="italic" lengthAdjust="spacing" textLength="87.0352" x="441.6846" y="74.1387">&#171;Stakeholder&#187;</text><text fill="#000000" font-family="sans-serif" font-size="12" lengthAdjust="spacing" textLength="264.4043" x="353" y="88.1074">Implementing Developer Agent Stakeholder</text></g><!--entity STK_008--><g class="entity" data-entity="STK_008" data-source-line="47" data-uid="ent0005" id="entity_STK_008"><rect fill="#EDD6F0" height="47.9375" rx="2" ry="2" style="stroke:#7B3F9A;stroke-width:0.5;" width="153.0254" x="702" y="53"/><text fill="#000000" font-family="sans-serif" font-size="12" font-style="italic" lengthAdjust="spacing" textLength="87.0352" x="734.9951" y="74.1387">&#171;Stakeholder&#187;</text><text fill="#000000" font-family="sans-serif" font-size="12" lengthAdjust="spacing" textLength="133.0254" x="712" y="88.1074">QA Agent Stakeholder</text></g><!--entity STK_009--><g class="entity" data-entity="STK_009" data-source-line="48" data-uid="ent0006" id="entity_STK_009"><rect fill="#EDD6F0" height="47.9375" rx="2" ry="2" style="stroke:#7B3F9A;stroke-width:0.5;" width="224.4043" x="948.5" y="53"/><text fill="#000000" font-family="sans-serif" font-size="12" font-style="italic" lengthAdjust="spacing" textLength="87.0352" x="1017.1846" y="74.1387">&#171;Stakeholder&#187;</text><text fill="#000000" font-family="sans-serif" font-size="12" lengthAdjust="spacing" textLength="204.4043" x="958.5" y="88.1074">Product Owner Agent Stakeholder</text></g><!--entity DRV_006--><g class="entity" data-entity="DRV_006" data-source-line="52" data-uid="ent0008" id="entity_DRV_006"><rect fill="#EDD6F0" height="47.9375" rx="2" ry="2" style="stroke:#7B3F9A;stroke-width:0.5;" width="213.1426" x="954" y="659"/><text fill="#000000" font-family="sans-serif" font-size="12" font-style="italic" lengthAdjust="spacing" textLength="51.7383" x="1034.7021" y="680.1387">&#171;Driver&#187;</text><text fill="#000000" font-family="sans-serif" font-size="12" lengthAdjust="spacing" textLength="193.1426" x="964" y="694.1074">Platform Fragility Under Change</text></g><!--entity DRV_015--><g class="entity" data-entity="DRV_015" data-source-line="53" data-uid="ent0009" id="entity_DRV_015"><rect fill="#EDD6F0" height="47.9375" rx="2" ry="2" style="stroke:#7B3F9A;stroke-width:0.5;" width="231.1719" x="945" y="1013"/><text fill="#000000" font-family="sans-serif" font-size="12" font-style="italic" lengthAdjust="spacing" textLength="51.7383" x="1034.7168" y="1034.1387">&#171;Driver&#187;</text><text fill="#000000" font-family="sans-serif" font-size="12" lengthAdjust="spacing" textLength="211.1719" x="955" y="1048.1074">Rollback and Recovery Uncertainty</text></g><!--entity DRV_007--><g class="entity" data-entity="DRV_007" data-source-line="54" data-uid="ent0010" id="entity_DRV_007"><rect fill="#EDD6F0" height="47.9375" rx="2" ry="2" style="stroke:#7B3F9A;stroke-width:0.5;" width="261.1426" x="930" y="423"/><text fill="#000000" font-family="sans-serif" font-size="12" font-style="italic" lengthAdjust="spacing" textLength="51.7383" x="1034.7021" y="444.1387">&#171;Driver&#187;</text><text fill="#000000" font-family="sans-serif" font-size="12" lengthAdjust="spacing" textLength="241.1426" x="940" y="458.1074">Execution Friction and Local Complexity</text></g><!--entity DRV_016--><g class="entity" data-entity="DRV_016" data-source-line="55" data-uid="ent0011" id="entity_DRV_016"><rect fill="#EDD6F0" height="47.9375" rx="2" ry="2" style="stroke:#7B3F9A;stroke-width:0.5;" width="234.2012" x="943.5" y="541"/><text fill="#000000" font-family="sans-serif" font-size="12" font-style="italic" lengthAdjust="spacing" textLength="51.7383" x="1034.7314" y="562.1387">&#171;Driver&#187;</text><text fill="#000000" font-family="sans-serif" font-size="12" lengthAdjust="spacing" textLength="214.2012" x="953.5" y="576.1074">Constraint Interpretation Ambiguity</text></g><!--entity DRV_008--><g class="entity" data-entity="DRV_008" data-source-line="56" data-uid="ent0012" id="entity_DRV_008"><rect fill="#EDD6F0" height="47.9375" rx="2" ry="2" style="stroke:#7B3F9A;stroke-width:0.5;" width="161.9258" x="979.5" y="187"/><text fill="#000000" font-family="sans-serif" font-size="12" font-style="italic" lengthAdjust="spacing" textLength="51.7383" x="1034.5938" y="208.1387">&#171;Driver&#187;</text><text fill="#000000" font-family="sans-serif" font-size="12" lengthAdjust="spacing" textLength="141.9258" x="989.5" y="222.1074">Defect Escape Pressure</text></g><!--entity DRV_017--><g class="entity" data-entity="DRV_017" data-source-line="57" data-uid="ent0013" id="entity_DRV_017"><rect fill="#EDD6F0" height="47.9375" rx="2" ry="2" style="stroke:#7B3F9A;stroke-width:0.5;" width="219.0313" x="951" y="305"/><text fill="#000000" font-family="sans-serif" font-size="12" font-style="italic" lengthAdjust="spacing" textLength="51.7383" x="1034.6465" y="326.1387">&#171;Driver&#187;</text><text fill="#000000" font-family="sans-serif" font-size="12" lengthAdjust="spacing" textLength="199.0313" x="961" y="340.1074">Regression Coverage Blind Spots</text></g><!--entity DRV_009--><g class="entity" data-entity="DRV_009" data-source-line="58" data-uid="ent0014" id="entity_DRV_009"><rect fill="#EDD6F0" height="47.9375" rx="2" ry="2" style="stroke:#7B3F9A;stroke-width:0.5;" width="182.6504" x="969" y="777"/><text fill="#000000" font-family="sans-serif" font-size="12" font-style="italic" lengthAdjust="spacing" textLength="51.7383" x="1034.4561" y="798.1387">&#171;Driver&#187;</text><text fill="#000000" font-family="sans-serif" font-size="12" lengthAdjust="spacing" textLength="162.6504" x="979" y="812.1074">Opportunity-Cost Exposure</text></g><!--entity DRV_018--><g class="entity" data-entity="DRV_018" data-source-line="59" data-uid="ent0015" id="entity_DRV_018"><rect fill="#EDD6F0" height="47.9375" rx="2" ry="2" style="stroke:#7B3F9A;stroke-width:0.5;" width="189.3418" x="966" y="895"/><text fill="#000000" font-family="sans-serif" font-size="12" font-style="italic" lengthAdjust="spacing" textLength="51.7383" x="1034.8018" y="916.1387">&#171;Driver&#187;</text><text fill="#000000" font-family="sans-serif" font-size="12" lengthAdjust="spacing" textLength="169.3418" x="976" y="930.1074">Value Hypothesis Ambiguity</text></g><!--link STK_006 to STK_007--><!--link STK_007 to STK_008--><!--link STK_008 to STK_009--><!--link STK_006 to DRV_006--><g class="link" data-entity-1="STK_006" data-entity-2="DRV_006" data-source-line="66" data-uid="lnk19" id="link_STK_006_DRV_006"><path d="M187,101.13 C187,213.84 187,683 187,683 C187,683 714.81,683 947.83,683" fill="none" id="STK_006-to-DRV_006" style="stroke:#6D4C41;stroke-width:1;"/><polygon fill="#6D4C41" points="953.83,683,944.83,679,948.83,683,944.83,687,953.83,683" style="stroke:#6D4C41;stroke-width:1;"/><text fill="#000000" font-family="sans-serif" font-size="12" lengthAdjust="spacing" textLength="82.1543" x="196.48" y="695.1387">&#171;association&#187;</text></g><!--link STK_006 to DRV_015--><g class="link" data-entity-1="STK_006" data-entity-2="DRV_015" data-source-line="67" data-uid="lnk20" id="link_STK_006_DRV_015"><path d="M105,101.21 C105,250.26 105,1037 105,1037 C105,1037 684.38,1037 938.77,1037" fill="none" id="STK_006-to-DRV_015" style="stroke:#6D4C41;stroke-width:1;"/><polygon fill="#6D4C41" points="944.77,1037,935.77,1033,939.77,1037,935.77,1041,944.77,1037" style="stroke:#6D4C41;stroke-width:1;"/><text fill="#000000" font-family="sans-serif" font-size="12" lengthAdjust="spacing" textLength="82.1543" x="22" y="1001.1287">&#171;association&#187;</text></g><!--link STK_007 to DRV_007--><g class="link" data-entity-1="STK_007" data-entity-2="DRV_007" data-source-line="68" data-uid="lnk21" id="link_STK_007_DRV_007"><path d="M533,101.28 C533,183.59 533,447 533,447 C533,447 767.55,447 923.77,447" fill="none" id="STK_007-to-DRV_007" style="stroke:#6D4C41;stroke-width:1;"/><polygon fill="#6D4C41" points="929.77,447,920.77,443,924.77,447,920.77,451,929.77,447" style="stroke:#6D4C41;stroke-width:1;"/><text fill="#000000" font-family="sans-serif" font-size="12" lengthAdjust="spacing" textLength="82.1543" x="475.52" y="459.1387">&#171;association&#187;</text></g><!--link STK_007 to DRV_016--><g class="link" data-entity-1="STK_007" data-entity-2="DRV_016" data-source-line="69" data-uid="lnk22" id="link_STK_007_DRV_016"><path d="M438,101.2 C438,199.67 438,565 438,565 C438,565 757.09,565 937.41,565" fill="none" id="STK_007-to-DRV_016" style="stroke:#6D4C41;stroke-width:1;"/><polygon fill="#6D4C41" points="943.41,565,934.41,561,938.41,565,934.41,569,943.41,565" style="stroke:#6D4C41;stroke-width:1;"/><text fill="#000000" font-family="sans-serif" font-size="12" lengthAdjust="spacing" textLength="82.1543" x="375.81" y="577.1387">&#171;association&#187;</text></g><!--link STK_008 to DRV_008--><g class="link" data-entity-1="STK_008" data-entity-2="DRV_008" data-source-line="70" data-uid="lnk23" id="link_STK_008_DRV_008"><path d="M804,101.27 C804,139.88 804,211 804,211 C804,211 898.2,211 973.34,211" fill="none" id="STK_008-to-DRV_008" style="stroke:#6D4C41;stroke-width:1;"/><polygon fill="#6D4C41" points="979.34,211,970.34,207,974.34,211,970.34,215,979.34,211" style="stroke:#6D4C41;stroke-width:1;"/><text fill="#000000" font-family="sans-serif" font-size="12" lengthAdjust="spacing" textLength="82.1543" x="753.8" y="223.1387">&#171;association&#187;</text></g><!--link STK_008 to DRV_017--><g class="link" data-entity-1="STK_008" data-entity-2="DRV_017" data-source-line="71" data-uid="lnk24" id="link_STK_008_DRV_017"><path d="M753,101.16 C753,164.24 753,329 753,329 C753,329 856.48,329 944.79,329" fill="none" id="STK_008-to-DRV_017" style="stroke:#6D4C41;stroke-width:1;"/><polygon fill="#6D4C41" points="950.79,329,941.79,325,945.79,329,941.79,333,950.79,329" style="stroke:#6D4C41;stroke-width:1;"/><text fill="#000000" font-family="sans-serif" font-size="12" lengthAdjust="spacing" textLength="82.1543" x="670" y="326.1187">&#171;association&#187;</text></g><!--link STK_009 to DRV_009--><g class="link" data-entity-1="STK_009" data-entity-2="DRV_009" data-source-line="72" data-uid="lnk25" id="link_STK_009_DRV_009"><path d="M1172.78,85 C1190.44,85 1203,85 1203,85 C1203,85 1203,801 1203,801 C1203,801 1185.93,801 1158.36,801" fill="none" id="STK_009-to-DRV_009" style="stroke:#6D4C41;stroke-width:1;"/><polygon fill="#6D4C41" points="1152.36,801,1161.36,805,1157.36,801,1161.36,797,1152.36,801" style="stroke:#6D4C41;stroke-width:1;"/><text fill="#000000" font-family="sans-serif" font-size="12" lengthAdjust="spacing" textLength="82.1543" x="1204" y="465.3487">&#171;association&#187;</text></g><!--link STK_009 to DRV_018--><g class="link" data-entity-1="STK_009" data-entity-2="DRV_018" data-source-line="73" data-uid="lnk26" id="link_STK_009_DRV_018"><path d="M1172.78,69 C1196.74,69 1215,69 1215,69 C1215,69 1215,919 1215,919 C1215,919 1193.25,919 1161.27,919" fill="none" id="STK_009-to-DRV_018" style="stroke:#6D4C41;stroke-width:1;"/><polygon fill="#6D4C41" points="1155.27,919,1164.27,923,1160.27,919,1164.27,915,1155.27,919" style="stroke:#6D4C41;stroke-width:1;"/><text fill="#000000" font-family="sans-serif" font-size="12" lengthAdjust="spacing" textLength="82.1543" x="1132" y="514.8987">&#171;association&#187;</text></g><!--SRC=[bP5HIyCm58NVyolkvlFc2jlQokZBAdjGGJRnHSO8pNKDQtDBaar4_E-sjR863BgNbfFldfvpqu5KMN4K2EFnzQxacIOphevbmGPzm7MMov9R71cB6ic-LzZDiG9VBLW2BVUv1I4rPbQIOkOWLSKrBw6G2Xi7aBOvzO0YWGOh22UzGytLeJsSCTPyYwjzWJ3SM7x0d0g1sWnXiNWWAq-yILffEbPIxPC4k87L-d6tURg33mQGtYxl6x6RJEQk35qPkJ9cdqxsckfdgkNf7zdf-lcSNOj-TYk3cKj3bxh3vsRVr1skYpeqQdft-yBe9PT2eDeAUbEZ17uMxzuU7dKyyl2u7t0rJwVBQR1jVtqzqgqBD_KTSMCea-qb9SbVdc3czOJUdF1oJ-3l5dbpeiizWRzRxCs9B_S4ltJx0W00]--></g></svg>