<svg xmlns="http://www.w3.org/2000/svg" xmlns:xlink="http://www.w3.org/1999/xlink" contentStyleType="text/css" data-diagram-type="DESCRIPTION" height="1326px" preserveAspectRatio="none" style="width:472px;height:1326px;background:#FAFAFA;" version="1.1" viewBox="0 0 472 1326" width="472px" zoomAndPan="magnify"><defs/><g><rect fill="#FAFAFA" height="1326" style="stroke:none;stroke-width:1;" width="472" x="0" y="0"/><!--cluster GRP_REQ--><g class="cluster" data-entity="GRP_REQ" data-source-line="43" data-uid="ent0002" id="cluster_GRP_REQ"><rect fill="#F7EEF9" height="590" rx="2" ry="2" style="stroke:#7B3F9A;stroke-width:1;" width="326" x="76" y="730"/><text fill="#000000" font-family="sans-serif" font-size="12" font-style="italic" lengthAdjust="spacing" textLength="133.3418" x="172.3291" y="743.1387">&#171;MotivationGrouping&#187;</text><text fill="#000000" font-family="sans-serif" font-size="12" font-weight="bold" lengthAdjust="spacing" textLength="205.0078" x="136.4961" y="757.1074">Requirements (Goal-Relevant)</text></g><!--cluster GRP_GOL--><g class="cluster" data-entity="GRP_GOL" data-source-line="52" data-uid="ent0009" id="cluster_GRP_GOL"><rect fill="#F7EEF9" height="638" rx="2" ry="2" style="stroke:#7B3F9A;stroke-width:1;" width="271" x="103.5" y="60"/><text fill="#000000" font-family="sans-serif" font-size="12" font-style="italic" lengthAdjust="spacing" textLength="133.3418" x="172.3291" y="73.1387">&#171;MotivationGrouping&#187;</text><text fill="#000000" font-family="sans-serif" font-size="12" font-weight="bold" lengthAdjust="spacing" textLength="37.4473" x="220.2764" y="87.1074">Goals</text></g><!--entity REQ_015--><g class="entity" data-entity="REQ_015" data-source-line="44" data-uid="ent0003" id="entity_REQ_015"><rect fill="#EDD6F0" height="47.9375" rx="2" ry="2" style="stroke:#7B3F9A;stroke-width:0.5;" width="217.9941" x="130" y="1224"/><text fill="#000000" font-family="sans-serif" font-size="12" font-style="italic" lengthAdjust="spacing" textLength="92.7891" x="192.6025" y="1245.1387">&#171;Requirement&#187;</text><text fill="#000000" font-family="sans-serif" font-size="12" lengthAdjust="spacing" textLength="197.9941" x="140" y="1259.1074">Phase-Gate Decision Traceability</text></g><!--entity REQ_017--><g class="entity" data-entity="REQ_017" data-source-line="45" data-uid="ent0004" id="entity_REQ_017"><rect fill="#EDD6F0" height="47.9375" rx="2" ry="2" style="stroke:#7B3F9A;stroke-width:0.5;" width="276.6699" x="100.5" y="1136"/><text fill="#000000" font-family="sans-serif" font-size="12" font-style="italic" lengthAdjust="spacing" textLength="92.7891" x="192.4404" y="1157.1387">&#171;Requirement&#187;</text><text fill="#000000" font-family="sans-serif" font-size="12" lengthAdjust="spacing" textLength="256.6699" x="110.5" y="1171.1074">Architecture-to-Code Conformance Checks</text></g><!--entity REQ_018--><g class="entity" data-entity="REQ_018" data-source-line="46" data-uid="ent0005" id="entity_REQ_018"><rect fill="#EDD6F0" height="47.9375" rx="2" ry="2" style="stroke:#7B3F9A;stroke-width:0.5;" width="278.1699" x="100" y="1048"/><text fill="#000000" font-family="sans-serif" font-size="12" font-style="italic" lengthAdjust="spacing" textLength="92.7891" x="192.6904" y="1069.1387">&#171;Requirement&#187;</text><text fill="#000000" font-family="sans-serif" font-size="12" lengthAdjust="spacing" textLength="258.1699" x="110" y="1083.1074">Progressive Delivery and Rollback Controls</text></g><!--entity REQ_020--><g class="entity" data-entity="REQ_020" data-source-line="47" data-uid="ent0006" id="entity_REQ_020"><rect fill="#EDD6F0" height="47.9375" rx="2" ry="2" style="stroke:#7B3F9A;stroke-width:0.5;" width="211.5254" x="133" y="960"/><text fill="#000000" font-family="sans-serif" font-size="12" font-style="italic" lengthAdjust="spacing" textLength="92.7891" x="192.3682" y="981.1387">&#171;Requirement&#187;</text><text fill="#000000" font-family="sans-serif" font-size="12" lengthAdjust="spacing" textLength="191.5254" x="143" y="995.1074">Risk-Based Regression Strategy</text></g><!--entity REQ_021--><g class="entity" data-entity="REQ_021" data-source-line="48" data-uid="ent0007" id="entity_REQ_021"><rect fill="#EDD6F0" height="47.9375" rx="2" ry="2" style="stroke:#7B3F9A;stroke-width:0.5;" width="222.3242" x="128" y="784"/><text fill="#000000" font-family="sans-serif" font-size="12" font-style="italic" lengthAdjust="spacing" textLength="92.7891" x="192.7676" y="805.1387">&#171;Requirement&#187;</text><text fill="#000000" font-family="sans-serif" font-size="12" lengthAdjust="spacing" textLength="202.3242" x="138" y="819.1074">Value Hypothesis and KPI Binding</text></g><!--entity REQ_023--><g class="entity" data-entity="REQ_023" data-source-line="49" data-uid="ent0008" id="entity_REQ_023"><rect fill="#EDD6F0" height="47.9375" rx="2" ry="2" style="stroke:#7B3F9A;stroke-width:0.5;" width="216.5" x="131" y="872"/><text fill="#000000" font-family="sans-serif" font-size="12" font-style="italic" lengthAdjust="spacing" textLength="92.7891" x="192.8555" y="893.1387">&#171;Requirement&#187;</text><text fill="#000000" font-family="sans-serif" font-size="12" lengthAdjust="spacing" textLength="196.5" x="141" y="907.1074">Safety Control Feedback Closure</text></g><!--entity GOL_001--><g class="entity" data-entity="GOL_001" data-source-line="53" data-uid="ent0010" id="entity_GOL_001"><rect fill="#EDD6F0" height="47.9375" rx="2" ry="2" style="stroke:#7B3F9A;stroke-width:0.5;" width="173.7441" x="152" y="106"/><text fill="#000000" font-family="sans-serif" font-size="12" font-style="italic" lengthAdjust="spacing" textLength="42.1406" x="217.8018" y="127.1387">&#171;Goal&#187;</text><text fill="#000000" font-family="sans-serif" font-size="12" lengthAdjust="spacing" textLength="153.7441" x="162" y="141.1074">Full ADM Phase Coverage</text></g><!--entity GOL_002--><g class="entity" data-entity="GOL_002" data-source-line="54" data-uid="ent0011" id="entity_GOL_002"><rect fill="#EDD6F0" height="47.9375" rx="2" ry="2" style="stroke:#7B3F9A;stroke-width:0.5;" width="160.5078" x="158.5" y="634"/><text fill="#000000" font-family="sans-serif" font-size="12" font-style="italic" lengthAdjust="spacing" textLength="42.1406" x="217.6836" y="655.1387">&#171;Goal&#187;</text><text fill="#000000" font-family="sans-serif" font-size="12" lengthAdjust="spacing" textLength="140.5078" x="168.5" y="669.1074">End-to-End Traceability</text></g><!--entity GOL_003--><g class="entity" data-entity="GOL_003" data-source-line="55" data-uid="ent0012" id="entity_GOL_003"><rect fill="#EDD6F0" height="47.9375" rx="2" ry="2" style="stroke:#7B3F9A;stroke-width:0.5;" width="125.6094" x="176" y="194"/><text fill="#000000" font-family="sans-serif" font-size="12" font-style="italic" lengthAdjust="spacing" textLength="42.1406" x="217.7344" y="215.1387">&#171;Goal&#187;</text><text fill="#000000" font-family="sans-serif" font-size="12" lengthAdjust="spacing" textLength="105.6094" x="186" y="229.1074">Safety-by-Default</text></g><!--entity GOL_004--><g class="entity" data-entity="GOL_004" data-source-line="56" data-uid="ent0013" id="entity_GOL_004"><rect fill="#EDD6F0" height="47.9375" rx="2" ry="2" style="stroke:#7B3F9A;stroke-width:0.5;" width="200.9023" x="138.5" y="282"/><text fill="#000000" font-family="sans-serif" font-size="12" font-style="italic" lengthAdjust="spacing" textLength="42.1406" x="217.8809" y="303.1387">&#171;Goal&#187;</text><text fill="#000000" font-family="sans-serif" font-size="12" lengthAdjust="spacing" textLength="180.9023" x="148.5" y="317.1074">Predictable Sprint Throughput</text></g><!--entity GOL_005--><g class="entity" data-entity="GOL_005" data-source-line="57" data-uid="ent0014" id="entity_GOL_005"><rect fill="#EDD6F0" height="47.9375" rx="2" ry="2" style="stroke:#7B3F9A;stroke-width:0.5;" width="218.9434" x="129.5" y="370"/><text fill="#000000" font-family="sans-serif" font-size="12" font-style="italic" lengthAdjust="spacing" textLength="42.1406" x="217.9014" y="391.1387">&#171;Goal&#187;</text><text fill="#000000" font-family="sans-serif" font-size="12" lengthAdjust="spacing" textLength="198.9434" x="139.5" y="405.1074">Operational Resilience by Design</text></g><!--entity GOL_006--><g class="entity" data-entity="GOL_006" data-source-line="58" data-uid="ent0015" id="entity_GOL_006"><rect fill="#EDD6F0" height="47.9375" rx="2" ry="2" style="stroke:#7B3F9A;stroke-width:0.5;" width="239.1816" x="119.5" y="458"/><text fill="#000000" font-family="sans-serif" font-size="12" font-style="italic" lengthAdjust="spacing" textLength="42.1406" x="218.0205" y="479.1387">&#171;Goal&#187;</text><text fill="#000000" font-family="sans-serif" font-size="12" lengthAdjust="spacing" textLength="219.1816" x="129.5" y="493.1074">Verifiable Architecture Conformance</text></g><!--entity GOL_007--><g class="entity" data-entity="GOL_007" data-source-line="59" data-uid="ent0016" id="entity_GOL_007"><rect fill="#EDD6F0" height="47.9375" rx="2" ry="2" style="stroke:#7B3F9A;stroke-width:0.5;" width="232.4492" x="123" y="546"/><text fill="#000000" font-family="sans-serif" font-size="12" font-style="italic" lengthAdjust="spacing" textLength="42.1406" x="218.1543" y="567.1387">&#171;Goal&#187;</text><text fill="#000000" font-family="sans-serif" font-size="12" lengthAdjust="spacing" textLength="212.4492" x="133" y="581.1074">Decision Auditability Across Phases</text></g><g class="entity" data-entity="GMN23" data-source-line="70" data-uid="ent0024" id="entity_GMN23"><path d="M53,8 L53,41.9375 A2,2 0 0 0 55,43.9375 L423.2461,43.9375 A2,2 0 0 0 425.2461,41.9375 L425.2461,16 L415.2461,6 L55,6 A2,2 0 0 0 53,8" fill="#FEFFDD" style="stroke:#181818;stroke-width:0.5;"/><path d="M415.2461,6 L415.2461,15 A1,1 0 0 0 416.2461,16 L425.2461,16 L415.2461,6" fill="#FEFFDD" style="stroke:#181818;stroke-width:1;"/><text fill="#000000" font-family="sans-serif" font-size="12" lengthAdjust="spacing" textLength="351.2461" x="59" y="22.1387">Full driver+requirement to goal influences are captured in</text><text fill="#000000" font-family="sans-serif" font-size="12" lengthAdjust="spacing" textLength="264.0938" x="59" y="36.1074">[a-matrix-motivation-goal-influence-full-v1].</text></g><!--link REQ_021 to GOL_001--><g class="link" data-entity-1="REQ_021" data-entity-2="GOL_001" data-source-line="62" data-uid="lnk17" id="link_REQ_021_GOL_001"><path d="M127.85,808 C119.36,808 114,808 114,808 C114,808 114,130 114,130 C114,130 124.67,130 145.84,130" fill="none" id="REQ_021-to-GOL_001" style="stroke:#1565C0;stroke-width:1;"/><polygon fill="#1565C0" points="151.84,130,142.84,126,146.84,130,142.84,134,151.84,130" style="stroke:#1565C0;stroke-width:1;"/><text fill="#000000" font-family="sans-serif" font-size="12" lengthAdjust="spacing" textLength="69.7559" x="44" y="469.1487">&#171;influence&#187;</text></g><!--link REQ_023 to GOL_003--><g class="link" data-entity-1="REQ_023" data-entity-2="GOL_003" data-source-line="63" data-uid="lnk18" id="link_REQ_023_GOL_003"><path d="M130.9,896 C116.73,896 107,896 107,896 C107,896 107,218 107,218 C107,218 135.83,218 169.71,218" fill="none" id="REQ_023-to-GOL_003" style="stroke:#1565C0;stroke-width:1;"/><polygon fill="#1565C0" points="175.71,218,166.71,214,170.71,218,166.71,222,175.71,218" style="stroke:#1565C0;stroke-width:1;"/><text fill="#000000" font-family="sans-serif" font-size="12" lengthAdjust="spacing" textLength="69.7559" x="37" y="546.7387">&#171;influence&#187;</text></g><!--link REQ_020 to GOL_004--><g class="link" data-entity-1="REQ_020" data-entity-2="GOL_004" data-source-line="64" data-uid="lnk19" id="link_REQ_020_GOL_004"><path d="M345.09,984 C360.89,984 372,984 372,984 C372,984 372,306 372,306 C372,306 364.35,306 345.8,306" fill="none" id="REQ_020-to-GOL_004" style="stroke:#1565C0;stroke-width:1;"/><polygon fill="#1565C0" points="339.8,306,348.8,310,344.8,306,348.8,302,339.8,306" style="stroke:#1565C0;stroke-width:1;"/><text fill="#000000" font-family="sans-serif" font-size="12" lengthAdjust="spacing" textLength="69.7559" x="373" y="654.4987">&#171;influence&#187;</text></g><!--link REQ_018 to GOL_005--><g class="link" data-entity-1="REQ_018" data-entity-2="GOL_005" data-source-line="65" data-uid="lnk20" id="link_REQ_018_GOL_005"><path d="M366,1047.87 C366,927.09 366,394 366,394 C366,394 365.14,394 354.61,394" fill="none" id="REQ_018-to-GOL_005" style="stroke:#1565C0;stroke-width:1;"/><polygon fill="#1565C0" points="348.61,394,357.61,398,353.61,394,357.61,390,348.61,394" style="stroke:#1565C0;stroke-width:1;"/><text fill="#000000" font-family="sans-serif" font-size="12" lengthAdjust="spacing" textLength="69.7559" x="296" y="724.3787">&#171;influence&#187;</text></g><!--link REQ_017 to GOL_006--><g class="link" data-entity-1="REQ_017" data-entity-2="GOL_006" data-source-line="66" data-uid="lnk21" id="link_REQ_017_GOL_006"><path d="M377.71,1160 C387.73,1160 394,1160 394,1160 C394,1160 394,482 394,482 C394,482 385.24,482 364.83,482" fill="none" id="REQ_017-to-GOL_006" style="stroke:#1565C0;stroke-width:1;"/><polygon fill="#1565C0" points="358.83,482,367.83,486,363.83,482,367.83,478,358.83,482" style="stroke:#1565C0;stroke-width:1;"/><text fill="#000000" font-family="sans-serif" font-size="12" lengthAdjust="spacing" textLength="69.7559" x="395" y="823.6987">&#171;influence&#187;</text></g><!--link REQ_015 to GOL_007--><g class="link" data-entity-1="REQ_015" data-entity-2="GOL_007" data-source-line="67" data-uid="lnk22" id="link_REQ_015_GOL_007"><path d="M129.6,1248 C100.5,1248 77,1248 77,1248 C77,1248 77,570 77,570 C77,570 91.02,570 116.99,570" fill="none" id="REQ_015-to-GOL_007" style="stroke:#1565C0;stroke-width:1;"/><polygon fill="#1565C0" points="122.99,570,113.99,566,117.99,570,113.99,574,122.99,570" style="stroke:#1565C0;stroke-width:1;"/><text fill="#000000" font-family="sans-serif" font-size="12" lengthAdjust="spacing" textLength="69.7559" x="7" y="924.4387">&#171;influence&#187;</text></g><!--link GRP_REQ to GMN23--><g class="link" data-entity-1="GRP_REQ" data-entity-2="GMN23" data-source-line="70" data-uid="lnk25" id="link_GRP_REQ_GMN23"><path d="M402.2362,1312 C402.5264,1312 402.8093,1312 403.0848,1312 C407.4925,1312 410,1312 410,1312 C410,1312 410,204.29 410,44.19" fill="none" id="GRP_REQ-GMN23" style="stroke:#181818;stroke-width:1;stroke-dasharray:7.0,7.0;"/></g><!--SRC=[XPDHJy8m4CVV-obEVD6OuiOO44FsWhWNZBfNGaZTZj7GjRFh5etnkxiI11fTVFnT-xl-axjUS9cAEaFezs_N1KkrglfbNGXoSNx0TBhb1JD8AuCQbVaeyN2F2DmOC0eqpxS6CgunDLn9KksuB9bc1GWkqHgWjDcgimEfCgomXA5tLjHCxlR52I6s5vEvGEWb-5QtlGkKfeAhM3514nJOC6ckUp2TFYh36sPVZhMgIoxpA09MGPmyhvFv2tmIWFlvR65XxVcXYsCN9muEF1Tz5mFovIIrsQh_8iLFYrEa5jQUvxiuS35mSUXYwEB8nR5DUCWET7dfXwDmvgts4wCH79w7kpOpbnjHeqmnYWv6q6a47ORNQGp_Dln9fn5s6EDEOzHXX9t6-9T1f388hyeOLO3Q_2mHUQY5W4pp1lMDFYsaNV-ydJeSUrJ0D4BAIbDhpDewMJBQVY3DtsbnN0jg9NgKwAPjJnj_rISeCx0PlW40]--></g></svg>