<svg xmlns="http://www.w3.org/2000/svg" xmlns:xlink="http://www.w3.org/1999/xlink" contentStyleType="text/css" data-diagram-type="DESCRIPTION" height="567px" preserveAspectRatio="none" style="width:1025px;height:567px;background:#FAFAFA;" version="1.1" viewBox="0 0 1025 567" width="1025px" zoomAndPan="magnify"><defs/><g><rect fill="#FAFAFA" height="567" style="stroke:none;stroke-width:1;" width="1025" x="0" y="0"/><!--cluster GRP_INTENT--><g class="cluster" data-entity="GRP_INTENT" data-source-line="45" data-uid="ent0002" id="cluster_GRP_INTENT"><rect fill="#F7EEF9" height="198" rx="2" ry="2" style="stroke:#7B3F9A;stroke-width:1;" width="880" x="139" y="363"/><text fill="#000000" font-family="sans-serif" font-size="12" font-style="italic" lengthAdjust="spacing" textLength="133.3418" x="512.3291" y="376.1387">&#171;MotivationGrouping&#187;</text><text fill="#000000" font-family="sans-serif" font-size="12" font-weight="bold" lengthAdjust="spacing" textLength="41.1621" x="558.4189" y="390.1074">Intent</text></g><!--cluster GRP_EVID--><g class="cluster" data-entity="GRP_EVID" data-source-line="52" data-uid="ent0007" id="cluster_GRP_EVID"><rect fill="#F7EEF9" height="110" rx="2" ry="2" style="stroke:#7B3F9A;stroke-width:1;" width="488" x="513" y="229"/><text fill="#000000" font-family="sans-serif" font-size="12" font-style="italic" lengthAdjust="spacing" textLength="133.3418" x="690.3291" y="242.1387">&#171;MotivationGrouping&#187;</text><text fill="#000000" font-family="sans-serif" font-size="12" font-weight="bold" lengthAdjust="spacing" textLength="60.6563" x="726.6719" y="256.1074">Evidence</text></g><!--cluster GRP_STRAT--><g class="cluster" data-entity="GRP_STRAT" data-source-line="57" data-uid="ent0010" id="cluster_GRP_STRAT"><rect fill="#FAF0D9" height="198" rx="2" ry="2" style="stroke:#8B6914;stroke-width:1;" width="446" x="568.5" y="7"/><text fill="#000000" font-family="sans-serif" font-size="12" font-style="italic" lengthAdjust="spacing" textLength="121.582" x="730.709" y="20.1387">&#171;StrategyGrouping&#187;</text><text fill="#000000" font-family="sans-serif" font-size="12" font-weight="bold" lengthAdjust="spacing" textLength="125.625" x="728.6875" y="34.1074">Operationalization</text></g><!--cluster GRP_EXEC--><g class="cluster" data-entity="GRP_EXEC" data-source-line="63" data-uid="ent0014" id="cluster_GRP_EXEC"><rect fill="#FFFDEC" height="110" rx="2" ry="2" style="stroke:#B8860B;stroke-width:1;" width="204" x="142.5" y="118"/><text fill="#000000" font-family="sans-serif" font-size="12" font-style="italic" lengthAdjust="spacing" textLength="123.082" x="182.959" y="131.1387">&#171;BusinessGrouping&#187;</text><text fill="#000000" font-family="sans-serif" font-size="12" font-weight="bold" lengthAdjust="spacing" textLength="66.3691" x="211.3154" y="145.1074">Execution</text></g><!--entity STK_001--><g class="entity" data-entity="STK_001" data-source-line="46" data-uid="ent0003" id="entity_STK_001"><rect fill="#EDD6F0" height="47.9375" rx="2" ry="2" style="stroke:#7B3F9A;stroke-width:0.5;" width="178.5605" x="155" y="409"/><text fill="#000000" font-family="sans-serif" font-size="12" font-style="italic" lengthAdjust="spacing" textLength="87.0352" x="200.7627" y="430.1387">&#171;Stakeholder&#187;</text><text fill="#000000" font-family="sans-serif" font-size="12" lengthAdjust="spacing" textLength="158.5605" x="165" y="444.1074">User / Engagement Owner</text></g><!--entity DRV_018--><g class="entity" data-entity="DRV_018" data-source-line="47" data-uid="ent0004" id="entity_DRV_018"><rect fill="#EDD6F0" height="47.9375" rx="2" ry="2" style="stroke:#7B3F9A;stroke-width:0.5;" width="189.3418" x="548" y="409"/><text fill="#000000" font-family="sans-serif" font-size="12" font-style="italic" lengthAdjust="spacing" textLength="51.7383" x="616.8018" y="430.1387">&#171;Driver&#187;</text><text fill="#000000" font-family="sans-serif" font-size="12" lengthAdjust="spacing" textLength="169.3418" x="558" y="444.1074">Value Hypothesis Ambiguity</text></g><!--entity REQ_021--><g class="entity" data-entity="REQ_021" data-source-line="48" data-uid="ent0005" id="entity_REQ_021"><rect fill="#EDD6F0" height="47.9375" rx="2" ry="2" style="stroke:#7B3F9A;stroke-width:0.5;" width="222.3242" x="531.5" y="497"/><text fill="#000000" font-family="sans-serif" font-size="12" font-style="italic" lengthAdjust="spacing" textLength="92.7891" x="596.2676" y="518.1387">&#171;Requirement&#187;</text><text fill="#000000" font-family="sans-serif" font-size="12" lengthAdjust="spacing" textLength="202.3242" x="541.5" y="532.1074">Value Hypothesis and KPI Binding</text></g><!--entity GOL_004--><g class="entity" data-entity="GOL_004" data-source-line="49" data-uid="ent0006" id="entity_GOL_004"><rect fill="#EDD6F0" height="47.9375" rx="2" ry="2" style="stroke:#7B3F9A;stroke-width:0.5;" width="200.9023" x="802" y="409"/><text fill="#000000" font-family="sans-serif" font-size="12" font-style="italic" lengthAdjust="spacing" textLength="42.1406" x="881.3809" y="430.1387">&#171;Goal&#187;</text><text fill="#000000" font-family="sans-serif" font-size="12" lengthAdjust="spacing" textLength="180.9023" x="812" y="444.1074">Predictable Sprint Throughput</text></g><!--entity OUT_001--><g class="entity" data-entity="OUT_001" data-source-line="53" data-uid="ent0008" id="entity_OUT_001"><rect fill="#EDD6F0" height="47.9375" rx="2" ry="2" style="stroke:#7B3F9A;stroke-width:0.5;" width="227.3105" x="529" y="275"/><text fill="#000000" font-family="sans-serif" font-size="12" font-style="italic" lengthAdjust="spacing" textLength="69.5801" x="607.8652" y="296.1387">&#171;Outcome&#187;</text><text fill="#000000" font-family="sans-serif" font-size="12" lengthAdjust="spacing" textLength="207.3105" x="539" y="310.1074">Predictable Throughput Evidenced</text></g><!--entity VAL_001--><g class="entity" data-entity="VAL_001" data-source-line="54" data-uid="ent0009" id="entity_VAL_001"><rect fill="#EDD6F0" height="47.9375" rx="2" ry="2" style="stroke:#7B3F9A;stroke-width:0.5;" width="164.8203" x="820" y="275"/><text fill="#000000" font-family="sans-serif" font-size="12" font-style="italic" lengthAdjust="spacing" textLength="48.6973" x="878.0615" y="296.1387">&#171;Value&#187;</text><text fill="#000000" font-family="sans-serif" font-size="12" lengthAdjust="spacing" textLength="144.8203" x="830" y="310.1074">Predictable Sprint Value</text></g><!--entity COA_001--><g class="entity" data-entity="COA_001" data-source-line="58" data-uid="ent0011" id="entity_COA_001"><rect fill="#F5DEB3" height="47.9375" rx="2" ry="2" style="stroke:#8B6914;stroke-width:0.5;" width="191.709" x="806.5" y="97"/><text fill="#000000" font-family="sans-serif" font-size="12" font-style="italic" lengthAdjust="spacing" textLength="108.1699" x="848.2695" y="118.1387">&#171;CourseOfAction&#187;</text><text fill="#000000" font-family="sans-serif" font-size="12" lengthAdjust="spacing" textLength="171.709" x="816.5" y="132.1074">Evidence-Gated Governance</text></g><!--entity CAP_005--><g class="entity" data-entity="CAP_005" data-source-line="59" data-uid="ent0012" id="entity_CAP_005"><rect fill="#F5DEB3" height="47.9375" rx="2" ry="2" style="stroke:#8B6914;stroke-width:0.5;" width="116.2695" x="584.5" y="53"/><text fill="#000000" font-family="sans-serif" font-size="12" font-style="italic" lengthAdjust="spacing" textLength="74.9414" x="605.1641" y="74.1387">&#171;Capability&#187;</text><text fill="#000000" font-family="sans-serif" font-size="12" lengthAdjust="spacing" textLength="96.2695" x="594.5" y="88.1074">User Interaction</text></g><!--entity VS_001--><g class="entity" data-entity="VS_001" data-source-line="60" data-uid="ent0013" id="entity_VS_001"><rect fill="#F5DEB3" height="47.9375" rx="2" ry="2" style="stroke:#8B6914;stroke-width:0.5;" width="114.3789" x="585.5" y="141"/><text fill="#000000" font-family="sans-serif" font-size="12" font-style="italic" lengthAdjust="spacing" textLength="92.3789" x="596.5" y="162.1387">&#171;ValueStream&#187;</text><text fill="#000000" font-family="sans-serif" font-size="12" lengthAdjust="spacing" textLength="84.6328" x="600.373" y="176.1074">Forward SDLC</text></g><!--entity BIA_001--><g class="entity" data-entity="BIA_001" data-source-line="64" data-uid="ent0015" id="entity_BIA_001"><rect fill="#FFFAC8" height="47.9375" rx="2" ry="2" style="stroke:#B8860B;stroke-width:0.5;" width="171.8984" x="158.5" y="164"/><text fill="#000000" font-family="sans-serif" font-size="12" font-style="italic" lengthAdjust="spacing" textLength="132.832" x="178.0332" y="185.1387">&#171;BusinessInteraction&#187;</text><text fill="#000000" font-family="sans-serif" font-size="12" lengthAdjust="spacing" textLength="151.8984" x="168.5" y="199.1074">Sprint Review Interaction</text></g><g class="entity" data-entity="GMN26" data-source-line="79" data-uid="ent0027" id="entity_GMN26"><path d="M6,52 L6,99.9063 A2,2 0 0 0 8,101.9063 L241,101.9063 L245,163.97 L249,101.9063 L481.4688,101.9063 A2,2 0 0 0 483.4688,99.9063 L483.4688,60 L473.4688,50 L8,50 A2,2 0 0 0 6,52" fill="#FEFFDD" style="stroke:#181818;stroke-width:0.5;"/><path d="M473.4688,50 L473.4688,59 A1,1 0 0 0 474.4688,60 L483.4688,60 L473.4688,50" fill="#FEFFDD" style="stroke:#181818;stroke-width:0.5;"/><text fill="#000000" font-family="sans-serif" font-size="12" lengthAdjust="spacing" textLength="152.0801" x="12" y="66.1387">Verifiable chain required:</text><text fill="#000000" font-family="sans-serif" font-size="12" lengthAdjust="spacing" textLength="456.4688" x="12" y="80.1074">STK to DRV to GOL to OUT to COA to CAP to BIA/BPR/BSV to VS stage value.</text><text fill="#000000" font-family="sans-serif" font-size="12" lengthAdjust="spacing" textLength="339.0117" x="12" y="94.0762">OUT properties must define measurable evidence fields.</text></g><!--link STK_001 to DRV_018--><g class="link" data-entity-1="STK_001" data-entity-2="DRV_018" data-source-line="67" data-uid="lnk16" id="link_STK_001_DRV_018"><path d="M334.32,433 C397.94,433 477.13,433 541.81,433" fill="none" id="STK_001-to-DRV_018" style="stroke:#2E7D32;stroke-width:1;"/><polygon fill="#2E7D32" points="547.81,433,538.81,429,542.81,433,538.81,437,547.81,433" style="stroke:#2E7D32;stroke-width:1;"/><text fill="#000000" font-family="sans-serif" font-size="12" lengthAdjust="spacing" textLength="82.1543" x="358.06" y="445.1387">&#171;association&#187;</text></g><!--link DRV_018 to GOL_004--><g class="link" data-entity-1="DRV_018" data-entity-2="GOL_004" data-source-line="68" data-uid="lnk17" id="link_DRV_018_GOL_004"><path d="M737.1,433 C758.15,433 774.55,433 795.84,433" fill="none" id="DRV_018-to-GOL_004" style="stroke:#1565C0;stroke-width:1;"/><polygon fill="#1565C0" points="801.84,433,792.84,429,796.84,433,792.84,437,801.84,433" style="stroke:#1565C0;stroke-width:1;"/><text fill="#000000" font-family="sans-serif" font-size="12" lengthAdjust="spacing" textLength="69.7559" x="699.47" y="445.1387">&#171;influence&#187;</text></g><!--link REQ_021 to GOL_004--><g class="link" data-entity-1="REQ_021" data-entity-2="GOL_004" data-source-line="69" data-uid="lnk18" id="link_REQ_021_GOL_004"><path d="M748,496.95 C748,474.69 748,445 748,445 C748,445 766.29,445 795.6,445" fill="none" id="REQ_021-to-GOL_004" style="stroke:#1565C0;stroke-width:1;"/><polygon fill="#1565C0" points="801.6,445,792.6,441,796.6,445,792.6,449,801.6,445" style="stroke:#1565C0;stroke-width:1;"/><text fill="#000000" font-family="sans-serif" font-size="12" lengthAdjust="spacing" textLength="69.7559" x="749.82" y="457.1387">&#171;influence&#187;</text></g><!--link OUT_001 to GOL_004--><g class="link" data-entity-1="OUT_001" data-entity-2="GOL_004" data-source-line="70" data-uid="lnk19" id="link_OUT_001_GOL_004"><path d="M743,323.1 C743,358.66 743,421 743,421 C743,421 764.09,421 795.94,421" fill="none" id="OUT_001-to-GOL_004" style="stroke:#B8860B;stroke-width:1;"/><polygon fill="#B8860B" points="801.94,421,792.94,417,796.94,421,792.94,425,801.94,421" style="stroke:#B8860B;stroke-width:1;"/><text fill="#000000" font-family="sans-serif" font-size="12" lengthAdjust="spacing" textLength="77.6602" x="665" y="398.6587">&#171;realization&#187;</text></g><!--link COA_001 to OUT_001--><g class="link" data-entity-1="COA_001" data-entity-2="OUT_001" data-source-line="71" data-uid="lnk20" id="link_COA_001_OUT_001"><path d="M814,145.36 C814,192.36 814,291 814,291 C814,291 794.09,291 762.42,291" fill="none" id="COA_001-to-OUT_001" style="stroke:#2E7D32;stroke-width:1;"/><polygon fill="#2E7D32" points="756.42,291,765.42,295,761.42,291,765.42,287,756.42,291" style="stroke:#2E7D32;stroke-width:1;"/><text fill="#000000" font-family="sans-serif" font-size="12" lengthAdjust="spacing" textLength="82.1543" x="815" y="259.1087">&#171;association&#187;</text></g><!--link CAP_005 to COA_001--><g class="link" data-entity-1="CAP_005" data-entity-2="COA_001" data-source-line="72" data-uid="lnk21" id="link_CAP_005_COA_001"><path d="M643,101.07 C643,111.56 643,121.5 643,121.5 C643,121.5 726.39,121.5 800.24,121.5" fill="none" id="CAP_005-to-COA_001" style="stroke:#B8860B;stroke-width:1;"/><polygon fill="#B8860B" points="806.24,121.5,797.24,117.5,801.24,121.5,797.24,125.5,806.24,121.5" style="stroke:#B8860B;stroke-width:1;"/><text fill="#000000" font-family="sans-serif" font-size="12" lengthAdjust="spacing" textLength="77.6602" x="636.41" y="133.6387">&#171;realization&#187;</text></g><!--link BIA_001 to CAP_005--><g class="link" data-entity-1="BIA_001" data-entity-2="CAP_005" data-source-line="73" data-uid="lnk22" id="link_BIA_001_CAP_005"><path d="M330.85,176.5 C407.02,176.5 506,176.5 506,176.5 C506,176.5 506,77 506,77 C506,77 541.12,77 578.22,77" fill="none" id="BIA_001-to-CAP_005" style="stroke:#B8860B;stroke-width:1;"/><polygon fill="#B8860B" points="584.22,77,575.22,73,579.22,77,575.22,81,584.22,77" style="stroke:#B8860B;stroke-width:1;"/><text fill="#000000" font-family="sans-serif" font-size="12" lengthAdjust="spacing" textLength="77.6602" x="428" y="187.3587">&#171;realization&#187;</text></g><!--link BIA_001 to OUT_001--><g class="link" data-entity-1="BIA_001" data-entity-2="OUT_001" data-source-line="74" data-uid="lnk23" id="link_BIA_001_OUT_001"><path d="M330.72,200.5 C423.22,200.5 557,200.5 557,200.5 C557,200.5 557,239.74 557,268.9" fill="none" id="BIA_001-to-OUT_001" style="stroke:#B8860B;stroke-width:1;"/><polygon fill="#B8860B" points="557,274.9,561,265.9,557,269.9,553,265.9,557,274.9" style="stroke:#B8860B;stroke-width:1;"/><text fill="#000000" font-family="sans-serif" font-size="12" lengthAdjust="spacing" textLength="77.6602" x="403.06" y="212.6387">&#171;realization&#187;</text></g><!--link OUT_001 to VAL_001--><g class="link" data-entity-1="OUT_001" data-entity-2="VAL_001" data-source-line="75" data-uid="lnk24" id="link_OUT_001_VAL_001"><path d="M756.16,307 C777.61,307 793.67,307 813.94,307" fill="none" id="OUT_001-to-VAL_001" style="stroke:#2E7D32;stroke-width:1;"/><polygon fill="#2E7D32" points="819.94,307,810.94,303,814.94,307,810.94,311,819.94,307" style="stroke:#2E7D32;stroke-width:1;"/><text fill="#000000" font-family="sans-serif" font-size="12" lengthAdjust="spacing" textLength="82.1543" x="705.05" y="319.1387">&#171;association&#187;</text></g><!--link VAL_001 to VS_001--><g class="link" data-entity-1="VAL_001" data-entity-2="VS_001" data-source-line="76" data-uid="lnk25" id="link_VAL_001_VS_001"><path d="M903,274.79 C903,236.68 903,167 903,167 C903,167 782.35,167 705.67,167" fill="none" id="VAL_001-to-VS_001" style="stroke:#2E7D32;stroke-width:1;"/><polygon fill="#2E7D32" points="699.67,167,708.67,171,704.67,167,708.67,163,699.67,167" style="stroke:#2E7D32;stroke-width:1;"/><text fill="#000000" font-family="sans-serif" font-size="12" lengthAdjust="spacing" textLength="82.1543" x="772.23" y="179.1387">&#171;association&#187;</text></g><!--SRC=[ZLHXRzem4FtkNt7jFWE15OQg2eb0XD1OOOIXITCKkSa1LXCxinsqRjf_dnqva1IczTDXt-EzktVdt30UfqM2q6vteep6KgXsNcGfkQadg8mFBACQMqgZHA5VSdGuak9EWnOWsVwW8M4IOyq49-gPyPnAca7AEDf_W93w86e9BX9KcCETLxkKb3-NbmD2B1Vb-nJXTiurSdqB3m-VX6P7QZLcKXGvu_lH2AY2sNeLpHytmUC6VXE0QJ1PHE7cO-HvtUeuNMyZhpkiZklWS-JrJjdPSc70T-HFGpWuiWHvZF-J3hRpwLbu-MLJ5zwE5-MnIRtCKPPiD6M_oXzM9DJc4lSlbnBXPZskDJTPZkiQa_7A7FidoV2AOl0Juw8IyWjb9gFKbLw-1fEpZZyVLrJEJsXzUzSBFapVzxwtHk1SXNl3IPKICIjx6Or8bJ7mRd_GdtWMxcmkuOplqiAwQy1k6cy3Etyjs1yE1vx_6YpnPAg1EwkQTLSSbtKxAvli5SSbkpFe5Tnnl15UBwO9hxLwhjqjr9NQgqmJ7lu3JRZG24z2Qv6HBKgsO_J9R4fye8o3n1-5UT39lHsyVUHce3OOesqmbTbWZ2d3U6M3wQxZhzOTFooXsn2Kfdk48pN3Qzjk89V2RBvcg20hbFbeuCui8cH8LI5BUNIF3dOCqqIr2V84RAdaBm00]--></g></svg>