<svg xmlns="http://www.w3.org/2000/svg" xmlns:xlink="http://www.w3.org/1999/xlink" contentStyleType="text/css" data-diagram-type="DESCRIPTION" height="257px" preserveAspectRatio="none" style="width:2669px;height:257px;background:#FAFAFA;" version="1.1" viewBox="0 0 2669 257" width="2669px" zoomAndPan="magnify"><defs/><g><rect fill="#FAFAFA" height="257" style="stroke:none;stroke-width:1;" width="2669" x="0" y="0"/><!--cluster GRP_REQ--><g class="cluster" data-entity="GRP_REQ" data-source-line="48" data-uid="ent0002" id="cluster_GRP_REQ"><rect fill="#F7EEF9" height="110" rx="2" ry="2" style="stroke:#7B3F9A;stroke-width:1;" width="2656" x="7" y="7"/><text fill="#000000" font-family="sans-serif" font-size="12" font-style="italic" lengthAdjust="spacing" textLength="133.3418" x="1268.3291" y="20.1387">&#171;MotivationGrouping&#187;</text><text fill="#000000" font-family="sans-serif" font-size="12" font-weight="bold" lengthAdjust="spacing" textLength="226.7168" x="1221.6416" y="34.1074">Delivery and Value Requirements</text></g><!--cluster GRP_CST--><g class="cluster" data-entity="GRP_CST" data-source-line="60" data-uid="ent0012" id="cluster_GRP_CST"><rect fill="#F7EEF9" height="110" rx="2" ry="2" style="stroke:#7B3F9A;stroke-width:1;" width="1728" x="459" y="141"/><text fill="#000000" font-family="sans-serif" font-size="12" font-style="italic" lengthAdjust="spacing" textLength="133.3418" x="1256.3291" y="154.1387">&#171;MotivationGrouping&#187;</text><text fill="#000000" font-family="sans-serif" font-size="12" font-weight="bold" lengthAdjust="spacing" textLength="209.9941" x="1218.0029" y="168.1074">Delivery and Value Constraints</text></g><!--entity REQ_009--><g class="entity" data-entity="REQ_009" data-source-line="49" data-uid="ent0003" id="entity_REQ_009"><rect fill="#EDD6F0" height="47.9375" rx="2" ry="2" style="stroke:#7B3F9A;stroke-width:0.5;" width="303.8516" x="2343" y="53"/><text fill="#000000" font-family="sans-serif" font-size="12" font-style="italic" lengthAdjust="spacing" textLength="92.7891" x="2448.5313" y="74.1387">&#171;Requirement&#187;</text><text fill="#000000" font-family="sans-serif" font-size="12" lengthAdjust="spacing" textLength="283.8516" x="2353" y="88.1074">Operability Evidence for Architecture Decisions</text></g><!--entity REQ_011--><g class="entity" data-entity="REQ_011" data-source-line="50" data-uid="ent0004" id="entity_REQ_011"><rect fill="#EDD6F0" height="47.9375" rx="2" ry="2" style="stroke:#7B3F9A;stroke-width:0.5;" width="209.7266" x="2089" y="53"/><text fill="#000000" font-family="sans-serif" font-size="12" font-style="italic" lengthAdjust="spacing" textLength="92.7891" x="2147.4688" y="74.1387">&#171;Requirement&#187;</text><text fill="#000000" font-family="sans-serif" font-size="12" lengthAdjust="spacing" textLength="189.7266" x="2099" y="88.1074">Evidence-Bound Defect Closure</text></g><!--entity REQ_020--><g class="entity" data-entity="REQ_020" data-source-line="51" data-uid="ent0005" id="entity_REQ_020"><rect fill="#EDD6F0" height="47.9375" rx="2" ry="2" style="stroke:#7B3F9A;stroke-width:0.5;" width="211.5254" x="1833" y="53"/><text fill="#000000" font-family="sans-serif" font-size="12" font-style="italic" lengthAdjust="spacing" textLength="92.7891" x="1892.3682" y="74.1387">&#171;Requirement&#187;</text><text fill="#000000" font-family="sans-serif" font-size="12" lengthAdjust="spacing" textLength="191.5254" x="1843" y="88.1074">Risk-Based Regression Strategy</text></g><!--entity REQ_012--><g class="entity" data-entity="REQ_012" data-source-line="52" data-uid="ent0006" id="entity_REQ_012"><rect fill="#EDD6F0" height="47.9375" rx="2" ry="2" style="stroke:#7B3F9A;stroke-width:0.5;" width="231.5586" x="1557" y="53"/><text fill="#000000" font-family="sans-serif" font-size="12" font-style="italic" lengthAdjust="spacing" textLength="92.7891" x="1626.3848" y="74.1387">&#171;Requirement&#187;</text><text fill="#000000" font-family="sans-serif" font-size="12" lengthAdjust="spacing" textLength="211.5586" x="1567" y="88.1074">Value-Priority Traceability to Scope</text></g><!--entity REQ_013--><g class="entity" data-entity="REQ_013" data-source-line="53" data-uid="ent0007" id="entity_REQ_013"><rect fill="#EDD6F0" height="47.9375" rx="2" ry="2" style="stroke:#7B3F9A;stroke-width:0.5;" width="280.9648" x="1231.5" y="53"/><text fill="#000000" font-family="sans-serif" font-size="12" font-style="italic" lengthAdjust="spacing" textLength="92.7891" x="1325.5879" y="74.1387">&#171;Requirement&#187;</text><text fill="#000000" font-family="sans-serif" font-size="12" lengthAdjust="spacing" textLength="260.9648" x="1241.5" y="88.1074">Market-Signal Traceability to Requirements</text></g><!--entity REQ_021--><g class="entity" data-entity="REQ_021" data-source-line="54" data-uid="ent0008" id="entity_REQ_021"><rect fill="#EDD6F0" height="47.9375" rx="2" ry="2" style="stroke:#7B3F9A;stroke-width:0.5;" width="222.3242" x="965" y="53"/><text fill="#000000" font-family="sans-serif" font-size="12" font-style="italic" lengthAdjust="spacing" textLength="92.7891" x="1029.7676" y="74.1387">&#171;Requirement&#187;</text><text fill="#000000" font-family="sans-serif" font-size="12" lengthAdjust="spacing" textLength="202.3242" x="975" y="88.1074">Value Hypothesis and KPI Binding</text></g><!--entity REQ_022--><g class="entity" data-entity="REQ_022" data-source-line="55" data-uid="ent0009" id="entity_REQ_022"><rect fill="#EDD6F0" height="47.9375" rx="2" ry="2" style="stroke:#7B3F9A;stroke-width:0.5;" width="253.5781" x="667" y="53"/><text fill="#000000" font-family="sans-serif" font-size="12" font-style="italic" lengthAdjust="spacing" textLength="92.7891" x="747.3945" y="74.1387">&#171;Requirement&#187;</text><text fill="#000000" font-family="sans-serif" font-size="12" lengthAdjust="spacing" textLength="233.5781" x="677" y="88.1074">Market Claim to Capability Traceability</text></g><!--entity REQ_017--><g class="entity" data-entity="REQ_017" data-source-line="56" data-uid="ent0010" id="entity_REQ_017"><rect fill="#EDD6F0" height="47.9375" rx="2" ry="2" style="stroke:#7B3F9A;stroke-width:0.5;" width="276.6699" x="345.5" y="53"/><text fill="#000000" font-family="sans-serif" font-size="12" font-style="italic" lengthAdjust="spacing" textLength="92.7891" x="437.4404" y="74.1387">&#171;Requirement&#187;</text><text fill="#000000" font-family="sans-serif" font-size="12" lengthAdjust="spacing" textLength="256.6699" x="355.5" y="88.1074">Architecture-to-Code Conformance Checks</text></g><!--entity REQ_018--><g class="entity" data-entity="REQ_018" data-source-line="57" data-uid="ent0011" id="entity_REQ_018"><rect fill="#EDD6F0" height="47.9375" rx="2" ry="2" style="stroke:#7B3F9A;stroke-width:0.5;" width="278.1699" x="23" y="53"/><text fill="#000000" font-family="sans-serif" font-size="12" font-style="italic" lengthAdjust="spacing" textLength="92.7891" x="115.6904" y="74.1387">&#171;Requirement&#187;</text><text fill="#000000" font-family="sans-serif" font-size="12" lengthAdjust="spacing" textLength="258.1699" x="33" y="88.1074">Progressive Delivery and Rollback Controls</text></g><!--entity CST_008--><g class="entity" data-entity="CST_008" data-source-line="61" data-uid="ent0013" id="entity_CST_008"><rect fill="#EDD6F0" height="47.9375" rx="2" ry="2" style="stroke:#7B3F9A;stroke-width:0.5;" width="332.1699" x="1839" y="187"/><text fill="#000000" font-family="sans-serif" font-size="12" font-style="italic" lengthAdjust="spacing" textLength="77.0273" x="1966.5713" y="208.1387">&#171;Constraint&#187;</text><text fill="#000000" font-family="sans-serif" font-size="12" lengthAdjust="spacing" textLength="312.1699" x="1849" y="222.1074">No Technology Decision Without Operability Signals</text></g><!--entity CST_005--><g class="entity" data-entity="CST_005" data-source-line="62" data-uid="ent0014" id="entity_CST_005"><rect fill="#EDD6F0" height="47.9375" rx="2" ry="2" style="stroke:#7B3F9A;stroke-width:0.5;" width="218.4219" x="1577" y="187"/><text fill="#000000" font-family="sans-serif" font-size="12" font-style="italic" lengthAdjust="spacing" textLength="77.0273" x="1647.6973" y="208.1387">&#171;Constraint&#187;</text><text fill="#000000" font-family="sans-serif" font-size="12" lengthAdjust="spacing" textLength="198.4219" x="1587" y="222.1074">No Release Without QA Evidence</text></g><!--entity CST_007--><g class="entity" data-entity="CST_007" data-source-line="63" data-uid="ent0015" id="entity_CST_007"><rect fill="#EDD6F0" height="47.9375" rx="2" ry="2" style="stroke:#7B3F9A;stroke-width:0.5;" width="321.8926" x="1211" y="187"/><text fill="#000000" font-family="sans-serif" font-size="12" font-style="italic" lengthAdjust="spacing" textLength="77.0273" x="1333.4326" y="208.1387">&#171;Constraint&#187;</text><text fill="#000000" font-family="sans-serif" font-size="12" lengthAdjust="spacing" textLength="301.8926" x="1221" y="222.1074">No Scope Commitment Without Value Traceability</text></g><!--entity CST_010--><g class="entity" data-entity="CST_010" data-source-line="64" data-uid="ent0016" id="entity_CST_010"><rect fill="#EDD6F0" height="47.9375" rx="2" ry="2" style="stroke:#7B3F9A;stroke-width:0.5;" width="331.5313" x="835" y="187"/><text fill="#000000" font-family="sans-serif" font-size="12" font-style="italic" lengthAdjust="spacing" textLength="77.0273" x="962.252" y="208.1387">&#171;Constraint&#187;</text><text fill="#000000" font-family="sans-serif" font-size="12" lengthAdjust="spacing" textLength="311.5313" x="845" y="222.1074">No Merge Without Architecture Conformance Signal</text></g><!--entity CST_011--><g class="entity" data-entity="CST_011" data-source-line="65" data-uid="ent0017" id="entity_CST_011"><rect fill="#EDD6F0" height="47.9375" rx="2" ry="2" style="stroke:#7B3F9A;stroke-width:0.5;" width="315.0957" x="475.5" y="187"/><text fill="#000000" font-family="sans-serif" font-size="12" font-style="italic" lengthAdjust="spacing" textLength="77.0273" x="594.5342" y="208.1387">&#171;Constraint&#187;</text><text fill="#000000" font-family="sans-serif" font-size="12" lengthAdjust="spacing" textLength="295.0957" x="485.5" y="222.1074">No Production Change Without Rollback Strategy</text></g><!--link REQ_009 to CST_008--><g class="link" data-entity-1="REQ_009" data-entity-2="CST_008" data-source-line="68" data-uid="lnk18" id="link_REQ_009_CST_008"><path d="M2495,101.27 C2495,139.88 2495,211 2495,211 C2495,211 2319.34,211 2177.23,211" fill="none" id="REQ_009-to-CST_008" style="stroke:#2E7D32;stroke-width:1;"/><polygon fill="#2E7D32" points="2171.23,211,2180.23,215,2176.23,211,2180.23,207,2171.23,211" style="stroke:#2E7D32;stroke-width:1;"/><text fill="#000000" font-family="sans-serif" font-size="12" lengthAdjust="spacing" textLength="82.1543" x="2304.98" y="208.1387">&#171;association&#187;</text></g><!--link REQ_011 to CST_005--><g class="link" data-entity-1="REQ_011" data-entity-2="CST_005" data-source-line="69" data-uid="lnk19" id="link_REQ_011_CST_005"><path d="M2130,101.32 C2130,127.67 2130,166 2130,166 C2130,166 1683,166 1683,166 C1683,166 1683,170.22 1683,180.92" fill="none" id="REQ_011-to-CST_005" style="stroke:#2E7D32;stroke-width:1;"/><polygon fill="#2E7D32" points="1683,186.92,1687,177.92,1683,181.92,1679,177.92,1683,186.92" style="stroke:#2E7D32;stroke-width:1;"/><text fill="#000000" font-family="sans-serif" font-size="12" lengthAdjust="spacing" textLength="82.1543" x="1845.38" y="163.1387">&#171;association&#187;</text></g><!--link REQ_020 to CST_005--><g class="link" data-entity-1="REQ_020" data-entity-2="CST_005" data-source-line="70" data-uid="lnk20" id="link_REQ_020_CST_005"><path d="M1832.98,77 C1821.57,77 1814,77 1814,77 C1814,77 1814,211 1814,211 C1814,211 1812.49,211 1801.11,211" fill="none" id="REQ_020-to-CST_005" style="stroke:#2E7D32;stroke-width:1;"/><polygon fill="#2E7D32" points="1795.11,211,1804.11,215,1800.11,211,1804.11,207,1795.11,211" style="stroke:#2E7D32;stroke-width:1;"/><text fill="#000000" font-family="sans-serif" font-size="12" lengthAdjust="spacing" textLength="82.1543" x="1731" y="141.0887">&#171;association&#187;</text></g><!--link REQ_012 to CST_007--><g class="link" data-entity-1="REQ_012" data-entity-2="CST_007" data-source-line="71" data-uid="lnk21" id="link_REQ_012_CST_007"><path d="M1567,101.27 C1567,139.88 1567,211 1567,211 C1567,211 1559.24,211 1539.03,211" fill="none" id="REQ_012-to-CST_007" style="stroke:#2E7D32;stroke-width:1;"/><polygon fill="#2E7D32" points="1533.03,211,1542.03,215,1538.03,211,1542.03,207,1533.03,211" style="stroke:#2E7D32;stroke-width:1;"/><text fill="#000000" font-family="sans-serif" font-size="12" lengthAdjust="spacing" textLength="82.1543" x="1484" y="170.2587">&#171;association&#187;</text></g><!--link REQ_013 to CST_007--><g class="link" data-entity-1="REQ_013" data-entity-2="CST_007" data-source-line="72" data-uid="lnk22" id="link_REQ_013_CST_007"><path d="M1372,101.27 C1372,125.55 1372,156.69 1372,180.91" fill="none" id="REQ_013-to-CST_007" style="stroke:#2E7D32;stroke-width:1;"/><polygon fill="#2E7D32" points="1372,186.91,1376,177.91,1372,181.91,1368,177.91,1372,186.91" style="stroke:#2E7D32;stroke-width:1;"/><text fill="#000000" font-family="sans-serif" font-size="12" lengthAdjust="spacing" textLength="82.1543" x="1289" y="141.2287">&#171;association&#187;</text></g><!--link REQ_021 to CST_007--><g class="link" data-entity-1="REQ_021" data-entity-2="CST_007" data-source-line="73" data-uid="lnk23" id="link_REQ_021_CST_007"><path d="M1177,101.27 C1177,139.88 1177,211 1177,211 C1177,211 1184.76,211 1204.97,211" fill="none" id="REQ_021-to-CST_007" style="stroke:#2E7D32;stroke-width:1;"/><polygon fill="#2E7D32" points="1210.97,211,1201.97,207,1205.97,211,1201.97,215,1210.97,211" style="stroke:#2E7D32;stroke-width:1;"/><text fill="#000000" font-family="sans-serif" font-size="12" lengthAdjust="spacing" textLength="82.1543" x="1094" y="170.2587">&#171;association&#187;</text></g><!--link REQ_022 to CST_007--><g class="link" data-entity-1="REQ_022" data-entity-2="CST_007" data-source-line="74" data-uid="lnk24" id="link_REQ_022_CST_007"><path d="M892.33,101.08 C892.33,112.21 892.33,123 892.33,123 C892.33,123 1221.25,123 1221.25,123 C1221.25,123 1221.25,154.9 1221.25,180.95" fill="none" id="REQ_022-to-CST_007" style="stroke:#2E7D32;stroke-width:1;"/><polygon fill="#2E7D32" points="1221.25,186.95,1225.25,177.95,1221.25,181.95,1217.25,177.95,1221.25,186.95" style="stroke:#2E7D32;stroke-width:1;"/><text fill="#000000" font-family="sans-serif" font-size="12" lengthAdjust="spacing" textLength="82.1543" x="994.81" y="120.1387">&#171;association&#187;</text></g><!--link REQ_017 to CST_010--><g class="link" data-entity-1="REQ_017" data-entity-2="CST_010" data-source-line="75" data-uid="lnk25" id="link_REQ_017_CST_010"><path d="M549,101.19 C549,120.38 549,144 549,144 C549,144 863.67,144 863.67,144 C863.67,144 863.67,161.62 863.67,180.81" fill="none" id="REQ_017-to-CST_010" style="stroke:#2E7D32;stroke-width:1;"/><polygon fill="#2E7D32" points="863.67,186.81,867.67,177.81,863.67,181.81,859.67,177.81,863.67,186.81" style="stroke:#2E7D32;stroke-width:1;"/><text fill="#000000" font-family="sans-serif" font-size="12" lengthAdjust="spacing" textLength="82.1543" x="623.33" y="141.1387">&#171;association&#187;</text></g><!--link REQ_018 to CST_011--><g class="link" data-entity-1="REQ_018" data-entity-2="CST_011" data-source-line="76" data-uid="lnk26" id="link_REQ_018_CST_011"><path d="M162,101.27 C162,139.88 162,211 162,211 C162,211 332.3,211 469.18,211" fill="none" id="REQ_018-to-CST_011" style="stroke:#2E7D32;stroke-width:1;"/><polygon fill="#2E7D32" points="475.18,211,466.18,207,470.18,211,466.18,215,475.18,211" style="stroke:#2E7D32;stroke-width:1;"/><text fill="#000000" font-family="sans-serif" font-size="12" lengthAdjust="spacing" textLength="82.1543" x="180.72" y="208.1387">&#171;association&#187;</text></g><!--SRC=[dP1DJy90443l-oi6F8FT1L8qf1SWN3HHD5oC8MixWGtjJjtTOeZnlzkQ9hAOZUBnpSoRhuxIQLvb2Ft-vRgGgI7RBwiYPvtZX3JfLXNIOSywD4ZkK69RnnoLu0XUo3ag85C6KwT8CxjJkfH65f0hZOq1PDoMZXAQChHOmd1u53HIxvhWI33Mz99waoDqPvYhFPe3I9t1IkOLmX9VgtfSWThPBamcj-JKNZR35uQgKkbDae2qi5ZUhPVpUtXd0BFvzAQ1THHTUSYvXoBoiyB7WLzyufuKnpwEsSTlbqr9MsUa-iDXquV7xyDgg0yR-pZoCVQGHpxoPhdsFz1xkX3pU3OGpnczwLu2RN-uhfUIrbAglhPA4jR-CAICGeg8pbQu22bnK1cShGX-llAFnUA0mgEWCWuf_AVo2G00]--></g></svg>