<svg xmlns="http://www.w3.org/2000/svg" xmlns:xlink="http://www.w3.org/1999/xlink" contentStyleType="text/css" data-diagram-type="DESCRIPTION" height="708px" preserveAspectRatio="none" style="width:2295px;height:708px;background:#FAFAFA;" version="1.1" viewBox="0 0 2295 708" width="2295px" zoomAndPan="magnify"><defs/><g><rect fill="#FAFAFA" height="708" style="stroke:none;stroke-width:1;" width="2295" x="0" y="0"/><!--cluster GRP_PHASE--><g class="cluster" data-entity="GRP_PHASE" data-source-line="62" data-uid="ent0002" id="cluster_GRP_PHASE"><rect fill="#FFFDEC" height="301" rx="2" ry="2" style="stroke:#B8860B;stroke-width:1;" width="1803" x="323" y="401"/><text fill="#000000" font-family="sans-serif" font-size="12" font-style="italic" lengthAdjust="spacing" textLength="123.082" x="1162.959" y="422.1387">&#171;BusinessGrouping&#187;</text><text fill="#000000" font-family="sans-serif" font-size="12" font-weight="bold" lengthAdjust="spacing" textLength="83.2266" x="1182.8867" y="452.1074">ADM Phases</text></g><!--cluster GRP_ACT_005--><g class="cluster" data-entity="GRP_ACT_005" data-source-line="74" data-uid="ent0012" id="cluster_GRP_ACT_005"><rect fill="#FFFDEC" height="331" rx="2" ry="2" style="stroke:#B8860B;stroke-width:1;" width="703" x="7" y="7"/><text fill="#000000" font-family="sans-serif" font-size="12" font-style="italic" lengthAdjust="spacing" textLength="123.082" x="296.959" y="28.1387">&#171;BusinessGrouping&#187;</text><text fill="#000000" font-family="sans-serif" font-size="12" font-weight="bold" lengthAdjust="spacing" textLength="96.5918" x="310.2041" y="58.1074">ACT-005 Skills</text></g><!--cluster GRP_ACT_006--><g class="cluster" data-entity="GRP_ACT_006" data-source-line="81" data-uid="ent0018" id="cluster_GRP_ACT_006"><rect fill="#FFFDEC" height="331" rx="2" ry="2" style="stroke:#B8860B;stroke-width:1;" width="656" x="734" y="7"/><text fill="#000000" font-family="sans-serif" font-size="12" font-style="italic" lengthAdjust="spacing" textLength="123.082" x="1000.459" y="28.1387">&#171;BusinessGrouping&#187;</text><text fill="#000000" font-family="sans-serif" font-size="12" font-weight="bold" lengthAdjust="spacing" textLength="96.5918" x="1013.7041" y="58.1074">ACT-006 Skills</text></g><!--cluster GRP_ACT_007--><g class="cluster" data-entity="GRP_ACT_007" data-source-line="87" data-uid="ent0023" id="cluster_GRP_ACT_007"><rect fill="#FFFDEC" height="331" rx="2" ry="2" style="stroke:#B8860B;stroke-width:1;" width="532" x="1414" y="7"/><text fill="#000000" font-family="sans-serif" font-size="12" font-style="italic" lengthAdjust="spacing" textLength="123.082" x="1618.459" y="28.1387">&#171;BusinessGrouping&#187;</text><text fill="#000000" font-family="sans-serif" font-size="12" font-weight="bold" lengthAdjust="spacing" textLength="96.5918" x="1631.7041" y="58.1074">ACT-007 Skills</text></g><!--entity BOB_103--><g class="entity" data-entity="BOB_103" data-source-line="63" data-uid="ent0003" id="entity_BOB_103"><rect fill="#FFFAC8" height="79.9375" rx="2" ry="2" style="stroke:#B8860B;stroke-width:0.5;" width="144.8105" x="1732.5" y="479"/><text fill="#000000" font-family="sans-serif" font-size="12" font-style="italic" lengthAdjust="spacing" textLength="106.8105" x="1751.5" y="508.1387">&#171;BusinessObject&#187;</text><text fill="#000000" font-family="sans-serif" font-size="12" lengthAdjust="spacing" textLength="107.8828" x="1750.9639" y="538.1074">Preliminary Phase</text></g><!--entity BOB_104--><g class="entity" data-entity="BOB_104" data-source-line="64" data-uid="ent0004" id="entity_BOB_104"><rect fill="#FFFAC8" height="79.9375" rx="2" ry="2" style="stroke:#B8860B;stroke-width:0.5;" width="201.5508" x="1908" y="479"/><text fill="#000000" font-family="sans-serif" font-size="12" font-style="italic" lengthAdjust="spacing" textLength="106.8105" x="1955.3701" y="508.1387">&#171;BusinessObject&#187;</text><text fill="#000000" font-family="sans-serif" font-size="12" lengthAdjust="spacing" textLength="165.5508" x="1926" y="538.1074">Phase A Architecture Vision</text></g><!--entity BOB_105--><g class="entity" data-entity="BOB_105" data-source-line="65" data-uid="ent0005" id="entity_BOB_105"><rect fill="#FFFAC8" height="79.9375" rx="2" ry="2" style="stroke:#B8860B;stroke-width:0.5;" width="218.4141" x="1572" y="606"/><text fill="#000000" font-family="sans-serif" font-size="12" font-style="italic" lengthAdjust="spacing" textLength="106.8105" x="1627.8018" y="635.1387">&#171;BusinessObject&#187;</text><text fill="#000000" font-family="sans-serif" font-size="12" lengthAdjust="spacing" textLength="182.4141" x="1590" y="665.1074">Phase B Business Architecture</text></g><!--entity BOB_106--><g class="entity" data-entity="BOB_106" data-source-line="66" data-uid="ent0006" id="entity_BOB_106"><rect fill="#FFFAC8" height="79.9375" rx="2" ry="2" style="stroke:#B8860B;stroke-width:0.5;" width="290.1328" x="1820" y="606"/><text fill="#000000" font-family="sans-serif" font-size="12" font-style="italic" lengthAdjust="spacing" textLength="106.8105" x="1911.6611" y="635.1387">&#171;BusinessObject&#187;</text><text fill="#000000" font-family="sans-serif" font-size="12" lengthAdjust="spacing" textLength="254.1328" x="1838" y="665.1074">Phase C Information Systems Architecture</text></g><!--entity BOB_107--><g class="entity" data-entity="BOB_107" data-source-line="67" data-uid="ent0007" id="entity_BOB_107"><rect fill="#FFFAC8" height="79.9375" rx="2" ry="2" style="stroke:#B8860B;stroke-width:0.5;" width="235.7637" x="339" y="479"/><text fill="#000000" font-family="sans-serif" font-size="12" font-style="italic" lengthAdjust="spacing" textLength="106.8105" x="403.4766" y="508.1387">&#171;BusinessObject&#187;</text><text fill="#000000" font-family="sans-serif" font-size="12" lengthAdjust="spacing" textLength="199.7637" x="357" y="538.1074">Phase D Technology Architecture</text></g><!--entity BOB_108--><g class="entity" data-entity="BOB_108" data-source-line="68" data-uid="ent0008" id="entity_BOB_108"><rect fill="#FFFAC8" height="79.9375" rx="2" ry="2" style="stroke:#B8860B;stroke-width:0.5;" width="254.2617" x="895" y="479"/><text fill="#000000" font-family="sans-serif" font-size="12" font-style="italic" lengthAdjust="spacing" textLength="106.8105" x="968.7256" y="508.1387">&#171;BusinessObject&#187;</text><text fill="#000000" font-family="sans-serif" font-size="12" lengthAdjust="spacing" textLength="218.2617" x="913" y="538.1074">Phase E Opportunities and Solutions</text></g><!--entity BOB_109--><g class="entity" data-entity="BOB_109" data-source-line="69" data-uid="ent0009" id="entity_BOB_109"><rect fill="#FFFAC8" height="79.9375" rx="2" ry="2" style="stroke:#B8860B;stroke-width:0.5;" width="198.4453" x="1179" y="479"/><text fill="#000000" font-family="sans-serif" font-size="12" font-style="italic" lengthAdjust="spacing" textLength="106.8105" x="1224.8174" y="508.1387">&#171;BusinessObject&#187;</text><text fill="#000000" font-family="sans-serif" font-size="12" lengthAdjust="spacing" textLength="162.4453" x="1197" y="538.1074">Phase F Migration Planning</text></g><!--entity BOB_110--><g class="entity" data-entity="BOB_110" data-source-line="70" data-uid="ent0010" id="entity_BOB_110"><rect fill="#FFFAC8" height="79.9375" rx="2" ry="2" style="stroke:#B8860B;stroke-width:0.5;" width="260.4609" x="605" y="479"/><text fill="#000000" font-family="sans-serif" font-size="12" font-style="italic" lengthAdjust="spacing" textLength="106.8105" x="681.8252" y="508.1387">&#171;BusinessObject&#187;</text><text fill="#000000" font-family="sans-serif" font-size="12" lengthAdjust="spacing" textLength="224.4609" x="623" y="538.1074">Phase G Implementation Governance</text></g><!--entity BOB_111--><g class="entity" data-entity="BOB_111" data-source-line="71" data-uid="ent0011" id="entity_BOB_111"><rect fill="#FFFAC8" height="79.9375" rx="2" ry="2" style="stroke:#B8860B;stroke-width:0.5;" width="295.0957" x="1407.5" y="479"/><text fill="#000000" font-family="sans-serif" font-size="12" font-style="italic" lengthAdjust="spacing" textLength="106.8105" x="1501.6426" y="508.1387">&#171;BusinessObject&#187;</text><text fill="#000000" font-family="sans-serif" font-size="12" lengthAdjust="spacing" textLength="259.0957" x="1425.5" y="538.1074">Phase H Architecture Change Management</text></g><!--entity ACT_005--><g class="entity" data-entity="ACT_005" data-source-line="75" data-uid="ent0013" id="entity_ACT_005"><rect fill="#FFFAC8" height="79.9375" rx="2" ry="2" style="stroke:#B8860B;stroke-width:0.5;" width="132.125" x="290" y="85"/><text fill="#000000" font-family="sans-serif" font-size="12" font-style="italic" lengthAdjust="spacing" textLength="94.125" x="309" y="114.1387">&#171;BusinessRole&#187;</text><text fill="#000000" font-family="sans-serif" font-size="12" lengthAdjust="spacing" textLength="86.373" x="312.876" y="144.1074">DevOps Agent</text></g><!--entity BOB_211--><g class="entity" data-entity="BOB_211" data-source-line="76" data-uid="ent0014" id="entity_BOB_211"><rect fill="#FFFAC8" height="79.9375" rx="2" ry="2" style="stroke:#B8860B;stroke-width:0.5;" width="144.8105" x="23.5" y="242"/><text fill="#000000" font-family="sans-serif" font-size="12" font-style="italic" lengthAdjust="spacing" textLength="106.8105" x="42.5" y="271.1387">&#171;BusinessObject&#187;</text><text fill="#000000" font-family="sans-serif" font-size="12" lengthAdjust="spacing" textLength="108.6797" x="41.5654" y="301.1074">Skill: DO-PHASE-D</text></g><!--entity BOB_212--><g class="entity" data-entity="BOB_212" data-source-line="77" data-uid="ent0015" id="entity_BOB_212"><rect fill="#FFFAC8" height="79.9375" rx="2" ry="2" style="stroke:#B8860B;stroke-width:0.5;" width="144.8105" x="373.5" y="242"/><text fill="#000000" font-family="sans-serif" font-size="12" font-style="italic" lengthAdjust="spacing" textLength="106.8105" x="392.5" y="271.1387">&#171;BusinessObject&#187;</text><text fill="#000000" font-family="sans-serif" font-size="12" lengthAdjust="spacing" textLength="107.0215" x="392.3945" y="301.1074">Skill: DO-PHASE-E</text></g><!--entity BOB_213--><g class="entity" data-entity="BOB_213" data-source-line="78" data-uid="ent0016" id="entity_BOB_213"><rect fill="#FFFAC8" height="79.9375" rx="2" ry="2" style="stroke:#B8860B;stroke-width:0.5;" width="144.8105" x="548.5" y="242"/><text fill="#000000" font-family="sans-serif" font-size="12" font-style="italic" lengthAdjust="spacing" textLength="106.8105" x="567.5" y="271.1387">&#171;BusinessObject&#187;</text><text fill="#000000" font-family="sans-serif" font-size="12" lengthAdjust="spacing" textLength="106.3418" x="567.7344" y="301.1074">Skill: DO-PHASE-F</text></g><!--entity BOB_214--><g class="entity" data-entity="BOB_214" data-source-line="79" data-uid="ent0017" id="entity_BOB_214"><rect fill="#FFFAC8" height="79.9375" rx="2" ry="2" style="stroke:#B8860B;stroke-width:0.5;" width="144.8105" x="198.5" y="242"/><text fill="#000000" font-family="sans-serif" font-size="12" font-style="italic" lengthAdjust="spacing" textLength="106.8105" x="217.5" y="271.1387">&#171;BusinessObject&#187;</text><text fill="#000000" font-family="sans-serif" font-size="12" lengthAdjust="spacing" textLength="108.7383" x="216.5361" y="301.1074">Skill: DO-PHASE-G</text></g><!--entity ACT_006--><g class="entity" data-entity="ACT_006" data-source-line="82" data-uid="ent0019" id="entity_ACT_006"><rect fill="#FFFAC8" height="79.9375" rx="2" ry="2" style="stroke:#B8860B;stroke-width:0.5;" width="132.125" x="964" y="85"/><text fill="#000000" font-family="sans-serif" font-size="12" font-style="italic" lengthAdjust="spacing" textLength="94.125" x="983" y="114.1387">&#171;BusinessRole&#187;</text><text fill="#000000" font-family="sans-serif" font-size="12" lengthAdjust="spacing" textLength="56.1563" x="1001.9844" y="144.1074">DE Agent</text></g><!--entity BOB_208--><g class="entity" data-entity="BOB_208" data-source-line="83" data-uid="ent0020" id="entity_BOB_208"><rect fill="#FFFAC8" height="79.9375" rx="2" ry="2" style="stroke:#B8860B;stroke-width:0.5;" width="209.4844" x="925.5" y="242"/><text fill="#000000" font-family="sans-serif" font-size="12" font-style="italic" lengthAdjust="spacing" textLength="106.8105" x="976.8369" y="271.1387">&#171;BusinessObject&#187;</text><text fill="#000000" font-family="sans-serif" font-size="12" lengthAdjust="spacing" textLength="173.4844" x="943.5" y="301.1074">Skill: DE-PHASE-E-FEEDBACK</text></g><!--entity BOB_209--><g class="entity" data-entity="BOB_209" data-source-line="84" data-uid="ent0021" id="entity_BOB_209"><rect fill="#FFFAC8" height="79.9375" rx="2" ry="2" style="stroke:#B8860B;stroke-width:0.5;" width="208.8047" x="1164.5" y="242"/><text fill="#000000" font-family="sans-serif" font-size="12" font-style="italic" lengthAdjust="spacing" textLength="106.8105" x="1215.4971" y="271.1387">&#171;BusinessObject&#187;</text><text fill="#000000" font-family="sans-serif" font-size="12" lengthAdjust="spacing" textLength="172.8047" x="1182.5" y="301.1074">Skill: DE-PHASE-F-FEEDBACK</text></g><!--entity BOB_210--><g class="entity" data-entity="BOB_210" data-source-line="85" data-uid="ent0022" id="entity_BOB_210"><rect fill="#FFFAC8" height="79.9375" rx="2" ry="2" style="stroke:#B8860B;stroke-width:0.5;" width="144.8105" x="750.5" y="242"/><text fill="#000000" font-family="sans-serif" font-size="12" font-style="italic" lengthAdjust="spacing" textLength="106.8105" x="769.5" y="271.1387">&#171;BusinessObject&#187;</text><text fill="#000000" font-family="sans-serif" font-size="12" lengthAdjust="spacing" textLength="106.875" x="769.4678" y="301.1074">Skill: DE-PHASE-G</text></g><!--entity ACT_007--><g class="entity" data-entity="ACT_007" data-source-line="88" data-uid="ent0024" id="entity_ACT_007"><rect fill="#FFFAC8" height="79.9375" rx="2" ry="2" style="stroke:#B8860B;stroke-width:0.5;" width="132.125" x="1614" y="85"/><text fill="#000000" font-family="sans-serif" font-size="12" font-style="italic" lengthAdjust="spacing" textLength="94.125" x="1633" y="114.1387">&#171;BusinessRole&#187;</text><text fill="#000000" font-family="sans-serif" font-size="12" lengthAdjust="spacing" textLength="56.9883" x="1651.5684" y="144.1074">QA Agent</text></g><!--entity BOB_226--><g class="entity" data-entity="BOB_226" data-source-line="89" data-uid="ent0025" id="entity_BOB_226"><rect fill="#FFFAC8" height="79.9375" rx="2" ry="2" style="stroke:#B8860B;stroke-width:0.5;" width="148.8926" x="1605.5" y="242"/><text fill="#000000" font-family="sans-serif" font-size="12" font-style="italic" lengthAdjust="spacing" textLength="106.8105" x="1626.541" y="271.1387">&#171;BusinessObject&#187;</text><text fill="#000000" font-family="sans-serif" font-size="12" lengthAdjust="spacing" textLength="112.8926" x="1623.5" y="301.1074">Skill: QA-PHASE-EF</text></g><!--entity BOB_227--><g class="entity" data-entity="BOB_227" data-source-line="90" data-uid="ent0026" id="entity_BOB_227"><rect fill="#FFFAC8" height="79.9375" rx="2" ry="2" style="stroke:#B8860B;stroke-width:0.5;" width="144.8105" x="1430.5" y="242"/><text fill="#000000" font-family="sans-serif" font-size="12" font-style="italic" lengthAdjust="spacing" textLength="106.8105" x="1449.5" y="271.1387">&#171;BusinessObject&#187;</text><text fill="#000000" font-family="sans-serif" font-size="12" lengthAdjust="spacing" textLength="107.707" x="1449.0518" y="301.1074">Skill: QA-PHASE-G</text></g><!--entity BOB_228--><g class="entity" data-entity="BOB_228" data-source-line="91" data-uid="ent0027" id="entity_BOB_228"><rect fill="#FFFAC8" height="79.9375" rx="2" ry="2" style="stroke:#B8860B;stroke-width:0.5;" width="144.8105" x="1784.5" y="242"/><text fill="#000000" font-family="sans-serif" font-size="12" font-style="italic" lengthAdjust="spacing" textLength="106.8105" x="1803.5" y="271.1387">&#171;BusinessObject&#187;</text><text fill="#000000" font-family="sans-serif" font-size="12" lengthAdjust="spacing" textLength="107.4316" x="1803.1895" y="301.1074">Skill: QA-PHASE-H</text></g><g class="entity" data-entity="N1" data-source-line="116" data-uid="ent0049" id="entity_N1"><path d="M1962,100 L1962,149.9375 A2,2 0 0 0 1964,151.9375 L2286.3418,151.9375 A2,2 0 0 0 2288.3418,149.9375 L2288.3418,108 L2278.3418,98 L1964,98 A2,2 0 0 0 1962,100" fill="#FEFFDD" style="stroke:#181818;stroke-width:0.5;"/><path d="M2278.3418,98 L2278.3418,107 A1,1 0 0 0 2279.3418,108 L2288.3418,108 L2278.3418,98" fill="#FEFFDD" style="stroke:#181818;stroke-width:1;"/><text fill="#000000" font-family="sans-serif" font-size="12" lengthAdjust="spacing" textLength="255.1348" x="1976" y="122.1387">Specific role -&gt; skill-id -&gt; phase mappings</text><text fill="#000000" font-family="sans-serif" font-size="12" lengthAdjust="spacing" textLength="289.3418" x="1976" y="136.1074">generated from skill frontmatter trigger-phases.</text></g><!--link ACT_005 to BOB_211--><g class="link" data-entity-1="ACT_005" data-entity-2="BOB_211" data-source-line="94" data-uid="lnk28" id="link_ACT_005_BOB_211"><path d="M289.69,140.4 C254.49,150.11 211.68,165.37 178,188 C156.74,202.29 141.2294,218.6662 126.7494,237.1562" fill="none" id="ACT_005-to-BOB_211" style="stroke:#808080;stroke-width:1;"/><polygon fill="#808080" points="123.05,241.88,131.7483,237.2605,126.1328,237.9435,125.4498,232.328,123.05,241.88" style="stroke:#808080;stroke-width:1;"/><text fill="#000000" font-family="sans-serif" font-size="12" lengthAdjust="spacing" textLength="82.1543" x="187" y="208.1387">&#171;association&#187;</text></g><!--link BOB_211 to BOB_107--><g class="link" data-entity-1="BOB_211" data-entity-2="BOB_107" data-source-line="95" data-uid="lnk29" id="link_BOB_211_BOB_107"><path d="M148.98,322.21 C160.12,330.22 171.87,338.49 183,346 C253.3,393.44 330.8755,441.6392 386.8855,475.7492" fill="none" id="BOB_211-to-BOB_107" style="stroke:#B8860B;stroke-width:1;"/><polygon fill="#B8860B" points="392.01,478.87,386.4038,470.7724,387.7396,476.2693,382.2427,477.6051,392.01,478.87" style="stroke:#B8860B;stroke-width:1;"/><text fill="#000000" font-family="sans-serif" font-size="12" lengthAdjust="spacing" textLength="82.1543" x="244" y="374.1387">&#171;association&#187;</text></g><!--link ACT_005 to BOB_212--><g class="link" data-entity-1="ACT_005" data-entity-2="BOB_212" data-source-line="96" data-uid="lnk30" id="link_ACT_005_BOB_212"><path d="M385.12,165.07 C390.29,172.54 395.47,180.41 400,188 C410.25,205.17 417.6773,219.5143 425.7273,236.3943" fill="none" id="ACT_005-to-BOB_212" style="stroke:#808080;stroke-width:1;"/><polygon fill="#808080" points="428.31,241.81,428.0464,231.9647,426.1577,237.2969,420.8255,235.4083,428.31,241.81" style="stroke:#808080;stroke-width:1;"/><text fill="#000000" font-family="sans-serif" font-size="12" lengthAdjust="spacing" textLength="82.1543" x="426" y="208.1387">&#171;association&#187;</text></g><!--link BOB_212 to BOB_108--><g class="link" data-entity-1="BOB_212" data-entity-2="BOB_108" data-source-line="97" data-uid="lnk31" id="link_BOB_212_BOB_108"><path d="M489.59,322.31 C502.66,331.85 517.63,340.8 533,346 C564.9,356.8 804.66,341.68 836,354 C901.31,379.67 955.0184,434.5311 988.2084,474.3511" fill="none" id="BOB_212-to-BOB_108" style="stroke:#B8860B;stroke-width:1;"/><polygon fill="#B8860B" points="992.05,478.96,989.3603,469.4855,988.8487,475.1192,983.215,474.6076,992.05,478.96" style="stroke:#B8860B;stroke-width:1;"/><text fill="#000000" font-family="sans-serif" font-size="12" lengthAdjust="spacing" textLength="82.1543" x="899" y="374.1387">&#171;association&#187;</text></g><!--link ACT_005 to BOB_213--><g class="link" data-entity-1="ACT_005" data-entity-2="BOB_213" data-source-line="98" data-uid="lnk32" id="link_ACT_005_BOB_213"><path d="M422.3,143.54 C454.45,153.73 492.77,168.46 524,188 C547.34,202.6 565.6344,219.1529 583.0344,237.4429" fill="none" id="ACT_005-to-BOB_213" style="stroke:#808080;stroke-width:1;"/><polygon fill="#808080" points="587.17,241.79,583.8647,232.5123,583.7237,238.1674,578.0686,238.0264,587.17,241.79" style="stroke:#808080;stroke-width:1;"/><text fill="#000000" font-family="sans-serif" font-size="12" lengthAdjust="spacing" textLength="82.1543" x="571" y="208.1387">&#171;association&#187;</text></g><!--link BOB_213 to BOB_109--><g class="link" data-entity-1="BOB_213" data-entity-2="BOB_109" data-source-line="99" data-uid="lnk33" id="link_BOB_213_BOB_109"><path d="M678.71,322 C696.07,331.73 715.66,340.85 735,346 C748.58,349.62 1230.09,345.14 1241,354 C1277.36,383.54 1282.8418,434.5025 1281.7418,472.8925" fill="none" id="BOB_213-to-BOB_109" style="stroke:#B8860B;stroke-width:1;"/><polygon fill="#B8860B" points="1281.57,478.89,1285.8261,470.0083,1281.7132,473.8921,1277.8294,469.7791,1281.57,478.89" style="stroke:#B8860B;stroke-width:1;"/><text fill="#000000" font-family="sans-serif" font-size="12" lengthAdjust="spacing" textLength="82.1543" x="1273" y="374.1387">&#171;association&#187;</text></g><!--link ACT_005 to BOB_214--><g class="link" data-entity-1="ACT_005" data-entity-2="BOB_214" data-source-line="100" data-uid="lnk34" id="link_ACT_005_BOB_214"><path d="M313.55,165.05 C307.36,172.22 301.55,179.99 297,188 C287.64,204.47 282.8217,218.6719 278.8617,235.9319" fill="none" id="ACT_005-to-BOB_214" style="stroke:#808080;stroke-width:1;"/><polygon fill="#808080" points="277.52,241.78,283.4313,233.9024,278.6381,236.9066,275.6339,232.1134,277.52,241.78" style="stroke:#808080;stroke-width:1;"/><text fill="#000000" font-family="sans-serif" font-size="12" lengthAdjust="spacing" textLength="82.1543" x="306" y="208.1387">&#171;association&#187;</text></g><!--link BOB_214 to BOB_110--><g class="link" data-entity-1="BOB_214" data-entity-2="BOB_110" data-source-line="101" data-uid="lnk35" id="link_BOB_214_BOB_110"><path d="M317.53,322.24 C330.04,331.19 344,339.86 358,346 C454.35,388.26 495.53,346.7 590,393 C632.83,413.99 669.0361,446.4001 696.2561,474.6401" fill="none" id="BOB_214-to-BOB_110" style="stroke:#B8860B;stroke-width:1;"/><polygon fill="#B8860B" points="700.42,478.96,697.0541,469.7042,696.9501,475.3601,691.2942,475.256,700.42,478.96" style="stroke:#B8860B;stroke-width:1;"/><text fill="#000000" font-family="sans-serif" font-size="12" lengthAdjust="spacing" textLength="82.1543" x="578" y="374.1387">&#171;association&#187;</text></g><!--link ACT_006 to BOB_208--><g class="link" data-entity-1="ACT_006" data-entity-2="BOB_208" data-source-line="102" data-uid="lnk36" id="link_ACT_006_BOB_208"><path d="M1030,165.11 C1030,188.61 1030,212.4 1030,235.9" fill="none" id="ACT_006-to-BOB_208" style="stroke:#808080;stroke-width:1;"/><polygon fill="#808080" points="1030,241.9,1034,232.9,1030,236.9,1026,232.9,1030,241.9" style="stroke:#808080;stroke-width:1;"/><text fill="#000000" font-family="sans-serif" font-size="12" lengthAdjust="spacing" textLength="82.1543" x="1039" y="208.1387">&#171;association&#187;</text></g><!--link BOB_208 to BOB_108--><g class="link" data-entity-1="BOB_208" data-entity-2="BOB_108" data-source-line="103" data-uid="lnk37" id="link_BOB_208_BOB_108"><path d="M1012.24,322.07 C1008.43,332.26 1004.95,343.36 1003,354 C995.23,396.29 1001.7173,439.4791 1009.5573,472.8391" fill="none" id="BOB_208-to-BOB_108" style="stroke:#B8860B;stroke-width:1;"/><polygon fill="#B8860B" points="1010.93,478.68,1012.7649,469.0036,1009.7861,473.8126,1004.9771,470.8338,1010.93,478.68" style="stroke:#B8860B;stroke-width:1;"/><text fill="#000000" font-family="sans-serif" font-size="12" lengthAdjust="spacing" textLength="82.1543" x="1012" y="374.1387">&#171;association&#187;</text></g><!--link ACT_006 to BOB_209--><g class="link" data-entity-1="ACT_006" data-entity-2="BOB_209" data-source-line="104" data-uid="lnk38" id="link_ACT_006_BOB_209"><path d="M1096.19,163.13 C1109.82,171.11 1123.98,179.67 1137,188 C1163.44,204.93 1187.1338,221.3538 1210.9138,238.4038" fill="none" id="ACT_006-to-BOB_209" style="stroke:#808080;stroke-width:1;"/><polygon fill="#808080" points="1215.79,241.9,1210.8065,233.405,1211.7265,238.9865,1206.145,239.9065,1215.79,241.9" style="stroke:#808080;stroke-width:1;"/><text fill="#000000" font-family="sans-serif" font-size="12" lengthAdjust="spacing" textLength="82.1543" x="1191" y="208.1387">&#171;association&#187;</text></g><!--link BOB_209 to BOB_109--><g class="link" data-entity-1="BOB_209" data-entity-2="BOB_109" data-source-line="105" data-uid="lnk39" id="link_BOB_209_BOB_109"><path d="M1348.43,322.11 C1359.51,331.04 1369.36,341.62 1376,354 C1399.37,397.55 1366.706,441.8551 1331.676,474.7151" fill="none" id="BOB_209-to-BOB_109" style="stroke:#B8860B;stroke-width:1;"/><polygon fill="#B8860B" points="1327.3,478.82,1336.6006,475.5799,1330.9467,475.3992,1331.1274,469.7453,1327.3,478.82" style="stroke:#B8860B;stroke-width:1;"/><text fill="#000000" font-family="sans-serif" font-size="12" lengthAdjust="spacing" textLength="82.1543" x="1393" y="374.1387">&#171;association&#187;</text></g><!--link ACT_006 to BOB_210--><g class="link" data-entity-1="ACT_006" data-entity-2="BOB_210" data-source-line="106" data-uid="lnk40" id="link_ACT_006_BOB_210"><path d="M963.73,161.29 C949.9,169.5 935.68,178.61 923,188 C901.28,204.08 883.3709,220.0965 865.4209,237.5565" fill="none" id="ACT_006-to-BOB_210" style="stroke:#808080;stroke-width:1;"/><polygon fill="#808080" points="861.12,241.74,870.3604,238.332,864.7041,238.2537,864.7824,232.5974,861.12,241.74" style="stroke:#808080;stroke-width:1;"/><text fill="#000000" font-family="sans-serif" font-size="12" lengthAdjust="spacing" textLength="82.1543" x="932" y="208.1387">&#171;association&#187;</text></g><!--link BOB_210 to BOB_110--><g class="link" data-entity-1="BOB_210" data-entity-2="BOB_110" data-source-line="107" data-uid="lnk41" id="link_BOB_210_BOB_110"><path d="M757.78,322.34 C747.75,331.42 738.82,342 733,354 C713.99,393.2 717.2904,438.2273 723.9304,472.8673" fill="none" id="BOB_210-to-BOB_110" style="stroke:#B8860B;stroke-width:1;"/><polygon fill="#B8860B" points="725.06,478.76,727.2942,469.1679,724.1187,473.8494,719.4372,470.674,725.06,478.76" style="stroke:#B8860B;stroke-width:1;"/><text fill="#000000" font-family="sans-serif" font-size="12" lengthAdjust="spacing" textLength="82.1543" x="742" y="374.1387">&#171;association&#187;</text></g><!--link ACT_007 to BOB_226--><g class="link" data-entity-1="ACT_007" data-entity-2="BOB_226" data-source-line="108" data-uid="lnk42" id="link_ACT_007_BOB_226"><path d="M1680,165.11 C1680,188.61 1680,212.4 1680,235.9" fill="none" id="ACT_007-to-BOB_226" style="stroke:#808080;stroke-width:1;"/><polygon fill="#808080" points="1680,241.9,1684,232.9,1680,236.9,1676,232.9,1680,241.9" style="stroke:#808080;stroke-width:1;"/><text fill="#000000" font-family="sans-serif" font-size="12" lengthAdjust="spacing" textLength="82.1543" x="1689" y="208.1387">&#171;association&#187;</text></g><!--link BOB_226 to BOB_108--><g class="link" data-entity-1="BOB_226" data-entity-2="BOB_108" data-source-line="109" data-uid="lnk43" id="link_BOB_226_BOB_108"><path d="M1633.42,322.03 C1620.39,331.21 1605.74,340.04 1591,346 C1569.32,354.77 1560.86,345.7 1539,354 C1515.26,363.02 1515.27,377.52 1491,385 C1456.27,395.7 1197.84,379.75 1164,393 C1119.04,410.6 1082.8454,444.6884 1056.8154,474.3784" fill="none" id="BOB_226-to-BOB_108" style="stroke:#B8860B;stroke-width:1;"/><polygon fill="#B8860B" points="1052.86,478.89,1061.8009,474.7596,1056.1562,475.1303,1055.7854,469.4856,1052.86,478.89" style="stroke:#B8860B;stroke-width:1;"/><text fill="#000000" font-family="sans-serif" font-size="12" lengthAdjust="spacing" textLength="82.1543" x="1548" y="374.1387">&#171;association&#187;</text></g><!--link BOB_226 to BOB_109--><g class="link" data-entity-1="BOB_226" data-entity-2="BOB_109" data-source-line="110" data-uid="lnk44" id="link_BOB_226_BOB_109"><path d="M1677.58,322.01 C1673.99,344.23 1665.53,370.45 1646,385 C1623.36,401.87 1417.65,381.19 1392,393 C1352.91,410.99 1324.5912,444.3598 1304.6412,473.8598" fill="none" id="BOB_226-to-BOB_109" style="stroke:#B8860B;stroke-width:1;"/><polygon fill="#B8860B" points="1301.28,478.83,1309.6352,473.6155,1304.081,474.6882,1303.0083,469.134,1301.28,478.83" style="stroke:#B8860B;stroke-width:1;"/><text fill="#000000" font-family="sans-serif" font-size="12" lengthAdjust="spacing" textLength="82.1543" x="1677" y="374.1387">&#171;association&#187;</text></g><!--link ACT_007 to BOB_227--><g class="link" data-entity-1="ACT_007" data-entity-2="BOB_227" data-source-line="111" data-uid="lnk45" id="link_ACT_007_BOB_227"><path d="M1613.8,158.8 C1599.6,167.31 1585.21,177.18 1573,188 C1555.46,203.55 1542.8414,219.1573 1530.5714,236.9873" fill="none" id="ACT_007-to-BOB_227" style="stroke:#808080;stroke-width:1;"/><polygon fill="#808080" points="1527.17,241.93,1535.5673,236.7835,1530.0045,237.8111,1528.977,232.2483,1527.17,241.93" style="stroke:#808080;stroke-width:1;"/><text fill="#000000" font-family="sans-serif" font-size="12" lengthAdjust="spacing" textLength="82.1543" x="1582" y="208.1387">&#171;association&#187;</text></g><!--link BOB_227 to BOB_110--><g class="link" data-entity-1="BOB_227" data-entity-2="BOB_110" data-source-line="112" data-uid="lnk46" id="link_BOB_227_BOB_110"><path d="M1444.65,322.14 C1427.43,331.74 1408.08,340.76 1389,346 C1361.67,353.51 1159.72,342.09 1134,354 C1117.15,361.8 1122.83,377.16 1106,385 C1060.44,406.21 926.79,374.67 880,393 C834.66,410.76 797.7527,444.6783 771.0327,474.2483" fill="none" id="BOB_227-to-BOB_110" style="stroke:#B8860B;stroke-width:1;"/><polygon fill="#B8860B" points="767.01,478.7,776.0119,474.7042,770.3622,474.9902,770.0762,469.3406,767.01,478.7" style="stroke:#B8860B;stroke-width:1;"/><text fill="#000000" font-family="sans-serif" font-size="12" lengthAdjust="spacing" textLength="82.1543" x="1143" y="374.1387">&#171;association&#187;</text></g><!--link ACT_007 to BOB_228--><g class="link" data-entity-1="ACT_007" data-entity-2="BOB_228" data-source-line="113" data-uid="lnk47" id="link_ACT_007_BOB_228"><path d="M1746.2,158.8 C1760.4,167.31 1774.79,177.18 1787,188 C1804.54,203.55 1817.1586,219.1573 1829.4286,236.9873" fill="none" id="ACT_007-to-BOB_228" style="stroke:#808080;stroke-width:1;"/><polygon fill="#808080" points="1832.83,241.93,1831.023,232.2483,1829.9955,237.8111,1824.4327,236.7835,1832.83,241.93" style="stroke:#808080;stroke-width:1;"/><text fill="#000000" font-family="sans-serif" font-size="12" lengthAdjust="spacing" textLength="82.1543" x="1824" y="208.1387">&#171;association&#187;</text></g><!--link BOB_228 to BOB_111--><g class="link" data-entity-1="BOB_228" data-entity-2="BOB_111" data-source-line="114" data-uid="lnk48" id="link_BOB_228_BOB_111"><path d="M1840.33,322.08 C1828.73,344.31 1811.01,370.53 1787,385 C1760.56,400.94 1746.61,381.41 1718,393 C1670.07,412.41 1628.5168,445.8359 1597.7068,474.7259" fill="none" id="BOB_228-to-BOB_111" style="stroke:#B8860B;stroke-width:1;"/><polygon fill="#B8860B" points="1593.33,478.83,1602.6313,475.5918,1596.9774,475.4099,1597.1592,469.756,1593.33,478.83" style="stroke:#B8860B;stroke-width:1;"/><text fill="#000000" font-family="sans-serif" font-size="12" lengthAdjust="spacing" textLength="82.1543" x="1827" y="374.1387">&#171;association&#187;</text></g><!--SRC=[hLLDRvmm4BtpAoRfcIqObeygGWf9b5RgnwhRMrKX2oQijM0icprKLVzxxNQfyDQaHQguy3pFRsOUPdp5UDsT6eJDvcNLqreEQYDEVUTTpGDKrWVMqn5zDQB4OVmgyCnJHyO5bRI7LWudyOOVKBAHyXeXd0NvqA120L4mMvIK7yrYl9qj2jeqZBUGUPx4MYkr7SBrxVqxs1seGdKDDpVbIJ6EIZsQb9fS540LF7xSLRlNj_i7-EO1t3_SlQtA3sKL1f4DOnjkRPZOCBLXPiFSWc5Wmz3xRZTnzyaFWYtiZwph_jA8vbQ6-xkLyy8y0z4PB4Xi6DamrkNyKKsoefhaiXhBAsARGsnpY3R7aJvTaJwzJ6zz6qBiQiX5D3CVOtBL__mY2yppnI_WR2MyqZLGfOQQqP4Dl2YyAQBfPPObGJdHzRbmq9zH9ulgnAMUhLEF5jKZbtg-JZrUL8yTwc6mg9uur9sjJf5LpZZLyqNrV9qpBdLdgrDabJEfGvqaI-ea-LTddg7dwuf95zNJ_z3gSkskG-3yL_amefaNxyrCt0kisHEhGGvwrkXzoamPdpNcNPXx17egp91HcjqYHwbljmQUvD3_uffNFkexJrzuC4hMjYZzdplLnaFUWCdt0m00]--></g></svg>