<svg xmlns="http://www.w3.org/2000/svg" xmlns:xlink="http://www.w3.org/1999/xlink" contentStyleType="text/css" data-diagram-type="DESCRIPTION" height="2118px" preserveAspectRatio="none" style="width:730px;height:2118px;background:#FAFAFA;" version="1.1" viewBox="0 0 730 2118" width="730px" zoomAndPan="magnify"><defs/><g><rect fill="#FAFAFA" height="2118" style="stroke:none;stroke-width:1;" width="730" x="0" y="0"/><!--cluster VS-001: Forward SDLC--><g class="cluster" data-entity="VS-001: Forward SDLC" data-source-line="55" data-uid="ent0004" id="cluster_VS-001: Forward SDLC"><rect fill="none" height="2018" rx="2" ry="2" style="stroke:#181818;stroke-width:1;" width="384" x="340" y="94"/><text fill="#000000" font-family="sans-serif" font-size="12" font-weight="bold" lengthAdjust="spacing" textLength="152.2207" x="455.8896" y="117.1387">VS-001: Forward SDLC</text></g><g class="entity" data-entity="S1" data-source-line="57" data-uid="ent0005" id="entity_S1"><ellipse cx="532.1393" cy="268.8114" fill="#FEFDF0" rx="152.1393" ry="122.3114" style="stroke:#B8860B;stroke-width:1.5;"/><text fill="#000000" font-family="sans-serif" font-size="12" font-weight="bold" lengthAdjust="spacing" textLength="51.7324" x="506.2731" y="203.0282">Stage 1</text><text fill="#000000" font-family="sans-serif" font-size="12" lengthAdjust="spacing" textLength="128.0859" x="468.0963" y="236.997">Engagement Scoping</text><text fill="#000000" font-family="sans-serif" font-size="12" lengthAdjust="spacing" textLength="101.1445" x="481.567" y="270.9657">&#9472;&#9472;&#9472;&#9472;&#9472;&#9472;&#9472;&#9472;&#9472;&#9472;&#9472;&#9472;&#9472;&#9472;</text><text fill="#000000" font-family="sans-serif" font-size="12" lengthAdjust="spacing" textLength="177.3457" x="443.4664" y="304.9345">BSV-003 Project Coordination</text><text fill="#000000" font-family="sans-serif" font-size="12" lengthAdjust="spacing" textLength="177.5156" x="443.3814" y="338.9032">BSV-005 Requirements Mgmt</text></g><g class="entity" data-entity="S2" data-source-line="58" data-uid="ent0006" id="entity_S2"><ellipse cx="532.0291" cy="584.0977" fill="#FEFDF0" rx="157.0291" ry="123.0977" style="stroke:#B8860B;stroke-width:1.5;"/><text fill="#000000" font-family="sans-serif" font-size="12" font-weight="bold" lengthAdjust="spacing" textLength="51.7324" x="506.1629" y="518.3145">Stage 2</text><text fill="#000000" font-family="sans-serif" font-size="12" lengthAdjust="spacing" textLength="113.8828" x="475.0877" y="552.2832">Architecture Vision</text><text fill="#000000" font-family="sans-serif" font-size="12" lengthAdjust="spacing" textLength="101.1445" x="481.4569" y="586.252">&#9472;&#9472;&#9472;&#9472;&#9472;&#9472;&#9472;&#9472;&#9472;&#9472;&#9472;&#9472;&#9472;&#9472;</text><text fill="#000000" font-family="sans-serif" font-size="12" lengthAdjust="spacing" textLength="185.8301" x="439.1141" y="620.2207">BSV-001 Business Architecture</text><text fill="#000000" font-family="sans-serif" font-size="12" lengthAdjust="spacing" textLength="177.3457" x="443.3563" y="654.1895">BSV-003 Project Coordination</text></g><g class="entity" data-entity="S3" data-source-line="59" data-uid="ent0007" id="entity_S3"><ellipse cx="532.0485" cy="917.9388" fill="#FEFDF0" rx="176.0485" ry="141.4388" style="stroke:#B8860B;stroke-width:1.5;"/><text fill="#000000" font-family="sans-serif" font-size="12" font-weight="bold" lengthAdjust="spacing" textLength="51.7324" x="506.1823" y="835.1712">Stage 3</text><text fill="#000000" font-family="sans-serif" font-size="12" lengthAdjust="spacing" textLength="119.2383" x="472.4294" y="869.14">Architecture Design</text><text fill="#000000" font-family="sans-serif" font-size="12" lengthAdjust="spacing" textLength="101.1445" x="481.4763" y="903.1087">&#9472;&#9472;&#9472;&#9472;&#9472;&#9472;&#9472;&#9472;&#9472;&#9472;&#9472;&#9472;&#9472;&#9472;</text><text fill="#000000" font-family="sans-serif" font-size="12" lengthAdjust="spacing" textLength="185.8301" x="439.1335" y="937.0775">BSV-001 Business Architecture</text><text fill="#000000" font-family="sans-serif" font-size="12" lengthAdjust="spacing" textLength="202.2598" x="430.9186" y="971.0462">BSV-002 App &amp; Tech Architecture</text><text fill="#000000" font-family="sans-serif" font-size="12" lengthAdjust="spacing" textLength="177.5156" x="443.2907" y="1005.015">BSV-005 Requirements Mgmt</text></g><g class="entity" data-entity="S4" data-source-line="60" data-uid="ent0008" id="entity_S4"><ellipse cx="531.7757" cy="1265.0205" fill="#FEFDF0" rx="169.2757" ry="136.0205" style="stroke:#B8860B;stroke-width:1.5;"/><text fill="#000000" font-family="sans-serif" font-size="12" font-weight="bold" lengthAdjust="spacing" textLength="51.7324" x="505.9095" y="1182.253">Stage 4</text><text fill="#000000" font-family="sans-serif" font-size="12" lengthAdjust="spacing" textLength="105.3164" x="479.1175" y="1216.2217">Delivery Planning</text><text fill="#000000" font-family="sans-serif" font-size="12" lengthAdjust="spacing" textLength="101.1445" x="481.2034" y="1250.1905">&#9472;&#9472;&#9472;&#9472;&#9472;&#9472;&#9472;&#9472;&#9472;&#9472;&#9472;&#9472;&#9472;&#9472;</text><text fill="#000000" font-family="sans-serif" font-size="12" lengthAdjust="spacing" textLength="177.3457" x="443.1028" y="1284.1592">BSV-003 Project Coordination</text><text fill="#000000" font-family="sans-serif" font-size="12" lengthAdjust="spacing" textLength="163.9922" x="449.7796" y="1318.128">BSV-007 Quality Assurance</text><text fill="#000000" font-family="sans-serif" font-size="12" lengthAdjust="spacing" textLength="181.7402" x="440.9056" y="1352.0967">BSV-008 Platform Engineering</text></g><g class="entity" data-entity="S5" data-source-line="61" data-uid="ent0009" id="entity_S5"><ellipse cx="531.7757" cy="1607.0205" fill="#FEFDF0" rx="169.2757" ry="136.0205" style="stroke:#B8860B;stroke-width:1.5;"/><text fill="#000000" font-family="sans-serif" font-size="12" font-weight="bold" lengthAdjust="spacing" textLength="51.7324" x="505.9095" y="1524.253">Stage 5</text><text fill="#000000" font-family="sans-serif" font-size="12" lengthAdjust="spacing" textLength="106.998" x="478.2767" y="1558.2217">Software Delivery</text><text fill="#000000" font-family="sans-serif" font-size="12" lengthAdjust="spacing" textLength="101.1445" x="481.2034" y="1592.1905">&#9472;&#9472;&#9472;&#9472;&#9472;&#9472;&#9472;&#9472;&#9472;&#9472;&#9472;&#9472;&#9472;&#9472;</text><text fill="#000000" font-family="sans-serif" font-size="12" lengthAdjust="spacing" textLength="139.4531" x="462.0491" y="1626.1592">BSV-006 Code Delivery</text><text fill="#000000" font-family="sans-serif" font-size="12" lengthAdjust="spacing" textLength="163.9922" x="449.7796" y="1660.128">BSV-007 Quality Assurance</text><text fill="#000000" font-family="sans-serif" font-size="12" lengthAdjust="spacing" textLength="181.7402" x="440.9056" y="1694.0967">BSV-008 Platform Engineering</text></g><g class="entity" data-entity="S6" data-source-line="62" data-uid="ent0010" id="entity_S6"><ellipse cx="532.0485" cy="1953.9388" fill="#FEFDF0" rx="176.0485" ry="141.4388" style="stroke:#B8860B;stroke-width:1.5;"/><text fill="#000000" font-family="sans-serif" font-size="12" font-weight="bold" lengthAdjust="spacing" textLength="51.7324" x="506.1823" y="1871.1712">Stage 6</text><text fill="#000000" font-family="sans-serif" font-size="12" lengthAdjust="spacing" textLength="139.3359" x="462.3806" y="1905.14">Architecture Promotion</text><text fill="#000000" font-family="sans-serif" font-size="12" lengthAdjust="spacing" textLength="101.1445" x="481.4763" y="1939.1087">&#9472;&#9472;&#9472;&#9472;&#9472;&#9472;&#9472;&#9472;&#9472;&#9472;&#9472;&#9472;&#9472;&#9472;</text><text fill="#000000" font-family="sans-serif" font-size="12" lengthAdjust="spacing" textLength="185.8301" x="439.1335" y="1973.0775">BSV-001 Business Architecture</text><text fill="#000000" font-family="sans-serif" font-size="12" lengthAdjust="spacing" textLength="202.2598" x="430.9186" y="2007.0462">BSV-002 App &amp; Tech Architecture</text><text fill="#000000" font-family="sans-serif" font-size="12" lengthAdjust="spacing" textLength="169.9102" x="447.0934" y="2041.015">BSV-004 Safety Governance</text></g><!--entity ACT_001_uc--><g class="entity" data-entity="ACT_001_uc" data-source-line="49" data-uid="ent0002" id="entity_ACT_001_uc"><ellipse cx="70.4502" cy="1046.5" fill="#F1F1F1" rx="8" ry="8" style="stroke:#181818;stroke-width:0.5;"/><path d="M70.4502,1054.5 L70.4502,1081.5 M57.4502,1062.5 L83.4502,1062.5 M70.4502,1081.5 L57.4502,1096.5 M70.4502,1081.5 L83.4502,1096.5" fill="none" style="stroke:#181818;stroke-width:0.5;"/><text fill="#000000" font-family="sans-serif" font-size="12" lengthAdjust="spacing" textLength="27.3516" x="6" y="1119.1387">User</text><text fill="#000000" font-family="sans-serif" font-size="12" lengthAdjust="spacing" textLength="128.9004" x="6" y="1133.1074">(Engagement Owner)</text></g><!--entity BCO_001_uc--><g class="entity" data-entity="BCO_001_uc" data-source-line="50" data-uid="ent0003" id="entity_BCO_001_uc"><ellipse cx="70.6426" cy="1908.5" fill="#F1F1F1" rx="8" ry="8" style="stroke:#181818;stroke-width:0.5;"/><path d="M70.6426,1916.5 L70.6426,1943.5 M57.6426,1924.5 L83.6426,1924.5 M70.6426,1943.5 L57.6426,1958.5 M70.6426,1943.5 L83.6426,1958.5" fill="none" style="stroke:#181818;stroke-width:0.5;"/><text fill="#000000" font-family="sans-serif" font-size="12" lengthAdjust="spacing" textLength="113.2852" x="14" y="1981.1387">Architecture Board</text><text fill="#000000" font-family="sans-serif" font-size="12" lengthAdjust="spacing" textLength="62.6543" x="14" y="1995.1074">(BCO-001)</text></g><g class="entity" data-entity="GMN23" data-source-line="88" data-uid="ent0024" id="entity_GMN23"><path d="M383,8 L383,75.9063 A2,2 0 0 0 385,77.9063 L679.0508,77.9063 A2,2 0 0 0 681.0508,75.9063 L681.0508,16 L671.0508,6 L385,6 A2,2 0 0 0 383,8" fill="#FEFFDD" style="stroke:#181818;stroke-width:0.5;"/><path d="M671.0508,6 L671.0508,15 A1,1 0 0 0 672.0508,16 L681.0508,16 L671.0508,6" fill="#FEFFDD" style="stroke:#181818;stroke-width:1;"/><text fill="#000000" font-family="sans-serif" font-size="12" lengthAdjust="spacing" textLength="226.5938" x="399" y="32.1387">Stage 6 occurs at VS-001 completion.</text><text fill="#000000" font-family="sans-serif" font-size="12" lengthAdjust="spacing" textLength="257.0508" x="399" y="46.1074">Also triggered by Brownfield engagements</text><text fill="#000000" font-family="sans-serif" font-size="12" lengthAdjust="spacing" textLength="255.8906" x="399" y="60.0762">that reach full architecture reconstruction.</text></g><!--link ACT_001_uc to S1--><g class="link" data-entity-1="ACT_001_uc" data-entity-2="S1" data-source-line="70" data-uid="lnk11" id="link_ACT_001_uc_S1"><path d="M81.5,1037.82 C96.44,962.57 127.96,823.02 175,711 C228.45,583.72 244.01,549.37 332,443 C358.33,411.17 386.2006,384.1436 417.1606,357.3836" fill="none" id="ACT_001_uc-to-S1" style="stroke:#B8860B;stroke-width:1;"/><polygon fill="#B8860B" points="421.7,353.46,412.2753,356.3191,417.9172,356.7296,417.5067,362.3716,421.7,353.46" style="stroke:#B8860B;stroke-width:1;"/><text fill="#000000" font-family="sans-serif" font-size="12" lengthAdjust="spacing" textLength="48.0059" x="225.5" y="443.1387">initiates</text></g><!--link ACT_001_uc to S2--><g class="link" data-entity-1="ACT_001_uc" data-entity-2="S2" data-source-line="71" data-uid="lnk12" id="link_ACT_001_uc_S2"><path d="M107.13,1037.98 C126.53,1009.28 151.35,973.68 175,943 C240.63,857.86 256.55,835.58 332,759 C360.66,729.91 388.8469,703.9138 419.3469,677.1938" fill="none" id="ACT_001_uc-to-S2" style="stroke:#B8860B;stroke-width:1;"/><polygon fill="#B8860B" points="423.86,673.24,414.4546,676.1619,420.0991,676.5348,419.7262,682.1793,423.86,673.24" style="stroke:#B8860B;stroke-width:1;"/><text fill="#000000" font-family="sans-serif" font-size="12" lengthAdjust="spacing" textLength="50.3672" x="224.7578" y="741.1387">receives</text><text fill="#000000" font-family="sans-serif" font-size="12" lengthAdjust="spacing" textLength="113.8828" x="193" y="755.1074">Architecture Vision</text></g><!--link ACT_001_uc to S3--><g class="link" data-entity-1="ACT_001_uc" data-entity-2="S3" data-source-line="72" data-uid="lnk13" id="link_ACT_001_uc_S3"><path d="M145.07,1064.14 C206.17,1041 289.6488,1009.3948 366.8388,980.1648" fill="none" id="ACT_001_uc-to-S3" style="stroke:#B8860B;stroke-width:1;"/><polygon fill="#B8860B" points="372.45,978.04,362.6167,977.4864,367.774,979.8107,365.4498,984.968,372.45,978.04" style="stroke:#B8860B;stroke-width:1;"/><text fill="#000000" font-family="sans-serif" font-size="12" lengthAdjust="spacing" textLength="59.373" x="220.1143" y="973.1387">reviews &amp;</text><text fill="#000000" font-family="sans-serif" font-size="12" lengthAdjust="spacing" textLength="95.6016" x="202" y="987.1074">confirms design</text></g><!--link ACT_001_uc to S4--><g class="link" data-entity-1="ACT_001_uc" data-entity-2="S4" data-source-line="73" data-uid="lnk14" id="link_ACT_001_uc_S4"><path d="M145.07,1119.7 C207.69,1143.28 294.0949,1175.8057 372.5749,1205.3557" fill="none" id="ACT_001_uc-to-S4" style="stroke:#B8860B;stroke-width:1;"/><polygon fill="#B8860B" points="378.19,1207.47,371.1768,1200.5552,373.5107,1205.7081,368.3578,1208.042,378.19,1207.47" style="stroke:#B8860B;stroke-width:1;"/><text fill="#000000" font-family="sans-serif" font-size="12" lengthAdjust="spacing" textLength="55.5996" x="222.1563" y="1107.1387">approves</text><text fill="#000000" font-family="sans-serif" font-size="12" lengthAdjust="spacing" textLength="77.9121" x="211" y="1121.1074">delivery plan</text></g><!--link ACT_001_uc to S5--><g class="link" data-entity-1="ACT_001_uc" data-entity-2="S5" data-source-line="74" data-uid="lnk15" id="link_ACT_001_uc_S5"><path d="M106.89,1146.2 C126.23,1174.96 151.05,1210.55 175,1241 C240,1323.66 258.92,1342.39 332,1418 C359.82,1446.78 386.4518,1472.8856 415.5318,1500.5356" fill="none" id="ACT_001_uc-to-S5" style="stroke:#B8860B;stroke-width:1;"/><polygon fill="#B8860B" points="419.88,1504.67,416.1139,1495.5696,416.2565,1501.2247,410.6014,1501.3672,419.88,1504.67" style="stroke:#B8860B;stroke-width:1;"/><text fill="#000000" font-family="sans-serif" font-size="12" lengthAdjust="spacing" textLength="50.3672" x="224.7705" y="1214.1387">receives</text><text fill="#000000" font-family="sans-serif" font-size="12" lengthAdjust="spacing" textLength="111.9082" x="194" y="1228.1074">delivered software</text></g><!--link ACT_001_uc to S6--><g class="link" data-entity-1="ACT_001_uc" data-entity-2="S6" data-source-line="75" data-uid="lnk16" id="link_ACT_001_uc_S6"><path d="M82.43,1146.01 C98.3,1220.01 130.72,1356.32 175,1467 C229.88,1604.17 243.18,1641.94 332,1760 C355.57,1791.33 379.9441,1818.1009 408.0841,1845.8009" fill="none" id="ACT_001_uc-to-S6" style="stroke:#B8860B;stroke-width:1;"/><polygon fill="#B8860B" points="412.36,1850.01,408.7521,1840.8458,408.7967,1846.5024,403.14,1846.547,412.36,1850.01" style="stroke:#B8860B;stroke-width:1;"/><text fill="#000000" font-family="sans-serif" font-size="12" lengthAdjust="spacing" textLength="62.7656" x="218.5" y="1440.1387">authorises</text><text fill="#000000" font-family="sans-serif" font-size="12" lengthAdjust="spacing" textLength="61.9102" x="218.9277" y="1454.1074">promotion</text></g><!--link BCO_001_uc to S6--><g class="link" data-entity-1="BCO_001_uc" data-entity-2="S6" data-source-line="78" data-uid="lnk17" id="link_BCO_001_uc_S6"><path d="M137.34,1954 C194.29,1954 273.28,1954 349.73,1954" fill="none" id="BCO_001_uc-to-S6" style="stroke:#B8860B;stroke-width:1;"/><polygon fill="#B8860B" points="355.73,1954,346.73,1950,350.73,1954,346.73,1958,355.73,1954" style="stroke:#B8860B;stroke-width:1;"/><text fill="#000000" font-family="sans-serif" font-size="12" lengthAdjust="spacing" textLength="48.2344" x="225.5098" y="1927.1387">governs</text><text fill="#000000" font-family="sans-serif" font-size="12" lengthAdjust="spacing" textLength="127.2539" x="186" y="1941.1074">enterprise promotion</text></g><!--link S1 to S2--><g class="link" data-entity-1="S1" data-entity-2="S2" data-source-line="81" data-uid="lnk18" id="link_S1_S2"><path d="M532,391.54 C532,414.3 532,432.08 532,454.86" fill="none" id="S1-to-S2" style="stroke:#B8860B;stroke-width:1;stroke-dasharray:7.0,7.0;"/><polygon fill="#B8860B" points="532,460.86,536,451.86,532,455.86,528,451.86,532,460.86" style="stroke:#B8860B;stroke-width:1;"/><text fill="#000000" font-family="sans-serif" font-size="12" lengthAdjust="spacing" textLength="58.1602" x="482.5" y="430.8887">&#171;include&#187;</text></g><!--link S2 to S3--><g class="link" data-entity-1="S2" data-entity-2="S3" data-source-line="82" data-uid="lnk19" id="link_S2_S3"><path d="M532,707.11 C532,729.65 532,747.33 532,770.35" fill="none" id="S2-to-S3" style="stroke:#B8860B;stroke-width:1;stroke-dasharray:7.0,7.0;"/><polygon fill="#B8860B" points="532,776.35,536,767.35,532,771.35,528,767.35,532,776.35" style="stroke:#B8860B;stroke-width:1;"/><text fill="#000000" font-family="sans-serif" font-size="12" lengthAdjust="spacing" textLength="58.1602" x="482.5" y="746.3887">&#171;include&#187;</text></g><!--link S3 to S4--><g class="link" data-entity-1="S3" data-entity-2="S4" data-source-line="83" data-uid="lnk20" id="link_S3_S4"><path d="M532,1059.75 C532,1082.58 532,1100.16 532,1122.85" fill="none" id="S3-to-S4" style="stroke:#B8860B;stroke-width:1;stroke-dasharray:7.0,7.0;"/><polygon fill="#B8860B" points="532,1128.85,536,1119.85,532,1123.85,528,1119.85,532,1128.85" style="stroke:#B8860B;stroke-width:1;"/><text fill="#000000" font-family="sans-serif" font-size="12" lengthAdjust="spacing" textLength="58.1602" x="482.5" y="1098.8887">&#171;include&#187;</text></g><!--link S4 to S5--><g class="link" data-entity-1="S4" data-entity-2="S5" data-source-line="84" data-uid="lnk21" id="link_S4_S5"><path d="M532,1401.24 C532,1424.15 532,1441.94 532,1464.85" fill="none" id="S4-to-S5" style="stroke:#B8860B;stroke-width:1;stroke-dasharray:7.0,7.0;"/><polygon fill="#B8860B" points="532,1470.85,536,1461.85,532,1465.85,528,1461.85,532,1470.85" style="stroke:#B8860B;stroke-width:1;"/><text fill="#000000" font-family="sans-serif" font-size="12" lengthAdjust="spacing" textLength="58.1602" x="482.5" y="1440.6387">&#171;include&#187;</text></g><!--link S5 to S6--><g class="link" data-entity-1="S5" data-entity-2="S6" data-source-line="85" data-uid="lnk22" id="link_S5_S6"><path d="M532,1743.14 C532,1765.87 532,1783.5 532,1806.36" fill="none" id="S5-to-S6" style="stroke:#B8860B;stroke-width:1;stroke-dasharray:7.0,7.0;"/><polygon fill="#B8860B" points="532,1812.36,536,1803.36,532,1807.36,528,1803.36,532,1812.36" style="stroke:#B8860B;stroke-width:1;"/><text fill="#000000" font-family="sans-serif" font-size="12" lengthAdjust="spacing" textLength="58.1602" x="482.5" y="1782.3887">&#171;include&#187;</text></g><!--link S6 to GMN23--><g class="link" data-entity-1="S6" data-entity-2="GMN23" data-source-line="88" data-uid="lnk25" id="link_S6_GMN23"><path d="M379.81,1882.77 C324.9,1848.64 268.98,1802.04 238.5,1742.5 C157.74,1584.75 136.56,292.47 238.5,147.5 C271.75,100.22 328.3,74.02 382.94,59.55" fill="none" id="S6-GMN23" style="stroke:#B8860B;stroke-width:1;stroke-dasharray:7.0,7.0;"/></g><!--SRC=[jLRRJXin47tVhnXIYG8IQIwR5264b0JIbrPGGdcAX8ntid7nsblRInfLbVW8lf0lwNYp2GcRtaEqBndFvNZcp8otXE8oYn2grJVN2UD6ssgQ9JBOMZvWXez5mXpkMuS6jPkcMEW54aSEd0OZuh63I1ZaJcWLs5kXKcPO0fb5pYp2jm2Wo_XjR7IcefwMsi2h_cd_f5_p9zf4Q0ffz-2WNUkIj6ECdfI4t6cpeX-s3nhTS77qFCZfQJ_izuFlPL0pBvTZmMyLMWlrQcj9AMLH95GCzLeGl8RzpVt8MuxKRjWjyqwXyicY6QgTKnMp61DK3iuc2irk1PY5Jk_okbQhNsTyhjxnvNLKjymWrO6PY8oxlRDzKflPq9-vpSOJSJNmSGwXhys4GiFWv7qF7kyVW4a9Ldm5w-WMriEWee6lsgRJvZdBL2mHAklGL8YwnAqvZojxUmCF2UfxUqErbEG1rodHPQWU7-x_y1kgxk2A8ZRXtEZF10DwcYWf5FDDD3zjmGL-oQYrV1WB7-B4vMKPrDV1QdXOApMz4ZRtzlUuwj3DhCXROzdZhs7Fi3NMOMkMi9sW5V5BO6j09qrX6owHZzSg_3IhpNN8Gu_y1AMuGpE5SycKUf5QluMF6PF2JQ5ZRMQOuWl01pwi6scJ0B6ERew68CmmX-imjppcWHuvehBFz0pyls1k4zPesSL_WMsj0zikKOFIb6ZtCipzBJj26B0HqitUQRgnybURWMy7j4WsFWKlKEOqi6EHserxzmk1jfbnWekKzhW5eVBvsYwcQ_2q5IZqCKqME2GTuOJNBfqsw9I69X8PxDfPKx9evXPt0YSMjeUAQpKI9h4GvUrVKWz9dQMfqNc0QDvsARLTIRUr0gRGnGXiGVoIGTixpznO6s6zIJhdcIzhUHcM4bVm5NOMXdDtRheRFEtAfsXnpY4AHPC6JUhZmahKAoOpX97Kb9uRT1D4DTzxEvQc5Da99dS3gakroF_HKV54EpuEI50jahmYRkRYyBaupCMjv-9MBcu_4mTAEuGRxPnEG8zy0y0Y1PhppD1kTiKQ1wwJLAA_LjK_nwJLuEXf6ESLkPb2bzvpL7gK4U1YSrfITMDoOf1HEuuoOYPRhWELbrh3cOpFFAEAmCCAVW00]--></g></svg>