<svg xmlns="http://www.w3.org/2000/svg" xmlns:xlink="http://www.w3.org/1999/xlink" contentStyleType="text/css" data-diagram-type="DESCRIPTION" height="761px" preserveAspectRatio="none" style="width:2295px;height:761px;background:#FAFAFA;" version="1.1" viewBox="0 0 2295 761" width="2295px" zoomAndPan="magnify"><title>Business Architecture - Role Skill Phase Map (delivery)</title><defs/><g><rect fill="#FAFAFA" height="761" style="stroke:none;stroke-width:1;" width="2295" x="0" y="0"/><text fill="#000000" font-family="sans-serif" font-size="14" font-weight="bold" lengthAdjust="spacing" textLength="434.123" x="923.6094" y="30.9951">Business Architecture - Role Skill Phase Map (delivery)</text><!--cluster GRP_PHASE--><g class="cluster" data-entity="GRP_PHASE" data-source-line="63" data-uid="ent0002" id="cluster_GRP_PHASE"><rect fill="#FFFDEC" height="301" rx="2" ry="2" style="stroke:#B8860B;stroke-width:1;" width="1803" x="323" y="454.2969"/><text fill="#000000" font-family="sans-serif" font-size="12" font-style="italic" lengthAdjust="spacing" textLength="123.082" x="1162.959" y="475.4355">&#171;BusinessGrouping&#187;</text><text fill="#000000" font-family="sans-serif" font-size="12" font-weight="bold" lengthAdjust="spacing" textLength="83.2266" x="1182.8867" y="505.4043">ADM Phases</text></g><!--cluster GRP_ACT_005--><g class="cluster" data-entity="GRP_ACT_005" data-source-line="75" data-uid="ent0012" id="cluster_GRP_ACT_005"><rect fill="#FFFDEC" height="331" rx="2" ry="2" style="stroke:#B8860B;stroke-width:1;" width="703" x="7" y="60.2969"/><text fill="#000000" font-family="sans-serif" font-size="12" font-style="italic" lengthAdjust="spacing" textLength="123.082" x="296.959" y="81.4355">&#171;BusinessGrouping&#187;</text><text fill="#000000" font-family="sans-serif" font-size="12" font-weight="bold" lengthAdjust="spacing" textLength="96.5918" x="310.2041" y="111.4043">ACT-005 Skills</text></g><!--cluster GRP_ACT_006--><g class="cluster" data-entity="GRP_ACT_006" data-source-line="82" data-uid="ent0018" id="cluster_GRP_ACT_006"><rect fill="#FFFDEC" height="331" rx="2" ry="2" style="stroke:#B8860B;stroke-width:1;" width="656" x="734" y="60.2969"/><text fill="#000000" font-family="sans-serif" font-size="12" font-style="italic" lengthAdjust="spacing" textLength="123.082" x="1000.459" y="81.4355">&#171;BusinessGrouping&#187;</text><text fill="#000000" font-family="sans-serif" font-size="12" font-weight="bold" lengthAdjust="spacing" textLength="96.5918" x="1013.7041" y="111.4043">ACT-006 Skills</text></g><!--cluster GRP_ACT_007--><g class="cluster" data-entity="GRP_ACT_007" data-source-line="88" data-uid="ent0023" id="cluster_GRP_ACT_007"><rect fill="#FFFDEC" height="331" rx="2" ry="2" style="stroke:#B8860B;stroke-width:1;" width="532" x="1414" y="60.2969"/><text fill="#000000" font-family="sans-serif" font-size="12" font-style="italic" lengthAdjust="spacing" textLength="123.082" x="1618.459" y="81.4355">&#171;BusinessGrouping&#187;</text><text fill="#000000" font-family="sans-serif" font-size="12" font-weight="bold" lengthAdjust="spacing" textLength="96.5918" x="1631.7041" y="111.4043">ACT-007 Skills</text></g><!--entity BOB_103--><g class="entity" data-entity="BOB_103" data-source-line="64" data-uid="ent0003" id="entity_BOB_103"><rect fill="#FFFAC8" height="79.9375" rx="2" ry="2" style="stroke:#B8860B;stroke-width:0.5;" width="144.8105" x="1732.5" y="532.2969"/><text fill="#000000" font-family="sans-serif" font-size="12" font-style="italic" lengthAdjust="spacing" textLength="106.8105" x="1751.5" y="561.4355">&#171;BusinessObject&#187;</text><text fill="#000000" font-family="sans-serif" font-size="12" lengthAdjust="spacing" textLength="107.8828" x="1750.9639" y="591.4043">Preliminary Phase</text></g><!--entity BOB_104--><g class="entity" data-entity="BOB_104" data-source-line="65" data-uid="ent0004" id="entity_BOB_104"><rect fill="#FFFAC8" height="79.9375" rx="2" ry="2" style="stroke:#B8860B;stroke-width:0.5;" width="201.5508" x="1908" y="532.2969"/><text fill="#000000" font-family="sans-serif" font-size="12" font-style="italic" lengthAdjust="spacing" textLength="106.8105" x="1955.3701" y="561.4355">&#171;BusinessObject&#187;</text><text fill="#000000" font-family="sans-serif" font-size="12" lengthAdjust="spacing" textLength="165.5508" x="1926" y="591.4043">Phase A Architecture Vision</text></g><!--entity BOB_105--><g class="entity" data-entity="BOB_105" data-source-line="66" data-uid="ent0005" id="entity_BOB_105"><rect fill="#FFFAC8" height="79.9375" rx="2" ry="2" style="stroke:#B8860B;stroke-width:0.5;" width="218.4141" x="1572" y="659.2969"/><text fill="#000000" font-family="sans-serif" font-size="12" font-style="italic" lengthAdjust="spacing" textLength="106.8105" x="1627.8018" y="688.4355">&#171;BusinessObject&#187;</text><text fill="#000000" font-family="sans-serif" font-size="12" lengthAdjust="spacing" textLength="182.4141" x="1590" y="718.4043">Phase B Business Architecture</text></g><!--entity BOB_106--><g class="entity" data-entity="BOB_106" data-source-line="67" data-uid="ent0006" id="entity_BOB_106"><rect fill="#FFFAC8" height="79.9375" rx="2" ry="2" style="stroke:#B8860B;stroke-width:0.5;" width="290.1328" x="1820" y="659.2969"/><text fill="#000000" font-family="sans-serif" font-size="12" font-style="italic" lengthAdjust="spacing" textLength="106.8105" x="1911.6611" y="688.4355">&#171;BusinessObject&#187;</text><text fill="#000000" font-family="sans-serif" font-size="12" lengthAdjust="spacing" textLength="254.1328" x="1838" y="718.4043">Phase C Information Systems Architecture</text></g><!--entity BOB_107--><g class="entity" data-entity="BOB_107" data-source-line="68" data-uid="ent0007" id="entity_BOB_107"><rect fill="#FFFAC8" height="79.9375" rx="2" ry="2" style="stroke:#B8860B;stroke-width:0.5;" width="235.7637" x="339" y="532.2969"/><text fill="#000000" font-family="sans-serif" font-size="12" font-style="italic" lengthAdjust="spacing" textLength="106.8105" x="403.4766" y="561.4355">&#171;BusinessObject&#187;</text><text fill="#000000" font-family="sans-serif" font-size="12" lengthAdjust="spacing" textLength="199.7637" x="357" y="591.4043">Phase D Technology Architecture</text></g><!--entity BOB_108--><g class="entity" data-entity="BOB_108" data-source-line="69" data-uid="ent0008" id="entity_BOB_108"><rect fill="#FFFAC8" height="79.9375" rx="2" ry="2" style="stroke:#B8860B;stroke-width:0.5;" width="254.2617" x="895" y="532.2969"/><text fill="#000000" font-family="sans-serif" font-size="12" font-style="italic" lengthAdjust="spacing" textLength="106.8105" x="968.7256" y="561.4355">&#171;BusinessObject&#187;</text><text fill="#000000" font-family="sans-serif" font-size="12" lengthAdjust="spacing" textLength="218.2617" x="913" y="591.4043">Phase E Opportunities and Solutions</text></g><!--entity BOB_109--><g class="entity" data-entity="BOB_109" data-source-line="70" data-uid="ent0009" id="entity_BOB_109"><rect fill="#FFFAC8" height="79.9375" rx="2" ry="2" style="stroke:#B8860B;stroke-width:0.5;" width="198.4453" x="1179" y="532.2969"/><text fill="#000000" font-family="sans-serif" font-size="12" font-style="italic" lengthAdjust="spacing" textLength="106.8105" x="1224.8174" y="561.4355">&#171;BusinessObject&#187;</text><text fill="#000000" font-family="sans-serif" font-size="12" lengthAdjust="spacing" textLength="162.4453" x="1197" y="591.4043">Phase F Migration Planning</text></g><!--entity BOB_110--><g class="entity" data-entity="BOB_110" data-source-line="71" data-uid="ent0010" id="entity_BOB_110"><rect fill="#FFFAC8" height="79.9375" rx="2" ry="2" style="stroke:#B8860B;stroke-width:0.5;" width="260.4609" x="605" y="532.2969"/><text fill="#000000" font-family="sans-serif" font-size="12" font-style="italic" lengthAdjust="spacing" textLength="106.8105" x="681.8252" y="561.4355">&#171;BusinessObject&#187;</text><text fill="#000000" font-family="sans-serif" font-size="12" lengthAdjust="spacing" textLength="224.4609" x="623" y="591.4043">Phase G Implementation Governance</text></g><!--entity BOB_111--><g class="entity" data-entity="BOB_111" data-source-line="72" data-uid="ent0011" id="entity_BOB_111"><rect fill="#FFFAC8" height="79.9375" rx="2" ry="2" style="stroke:#B8860B;stroke-width:0.5;" width="295.0957" x="1407.5" y="532.2969"/><text fill="#000000" font-family="sans-serif" font-size="12" font-style="italic" lengthAdjust="spacing" textLength="106.8105" x="1501.6426" y="561.4355">&#171;BusinessObject&#187;</text><text fill="#000000" font-family="sans-serif" font-size="12" lengthAdjust="spacing" textLength="259.0957" x="1425.5" y="591.4043">Phase H Architecture Change Management</text></g><!--entity ACT_005--><g class="entity" data-entity="ACT_005" data-source-line="76" data-uid="ent0013" id="entity_ACT_005"><rect fill="#FFFAC8" height="79.9375" rx="2" ry="2" style="stroke:#B8860B;stroke-width:0.5;" width="132.125" x="290" y="138.2969"/><text fill="#000000" font-family="sans-serif" font-size="12" font-style="italic" lengthAdjust="spacing" textLength="94.125" x="309" y="167.4355">&#171;BusinessRole&#187;</text><text fill="#000000" font-family="sans-serif" font-size="12" lengthAdjust="spacing" textLength="86.373" x="312.876" y="197.4043">DevOps Agent</text></g><!--entity BOB_211--><g class="entity" data-entity="BOB_211" data-source-line="77" data-uid="ent0014" id="entity_BOB_211"><rect fill="#FFFAC8" height="79.9375" rx="2" ry="2" style="stroke:#B8860B;stroke-width:0.5;" width="144.8105" x="23.5" y="295.2969"/><text fill="#000000" font-family="sans-serif" font-size="12" font-style="italic" lengthAdjust="spacing" textLength="106.8105" x="42.5" y="324.4355">&#171;BusinessObject&#187;</text><text fill="#000000" font-family="sans-serif" font-size="12" lengthAdjust="spacing" textLength="108.6797" x="41.5654" y="354.4043">Skill: DO-PHASE-D</text></g><!--entity BOB_212--><g class="entity" data-entity="BOB_212" data-source-line="78" data-uid="ent0015" id="entity_BOB_212"><rect fill="#FFFAC8" height="79.9375" rx="2" ry="2" style="stroke:#B8860B;stroke-width:0.5;" width="144.8105" x="373.5" y="295.2969"/><text fill="#000000" font-family="sans-serif" font-size="12" font-style="italic" lengthAdjust="spacing" textLength="106.8105" x="392.5" y="324.4355">&#171;BusinessObject&#187;</text><text fill="#000000" font-family="sans-serif" font-size="12" lengthAdjust="spacing" textLength="107.0215" x="392.3945" y="354.4043">Skill: DO-PHASE-E</text></g><!--entity BOB_213--><g class="entity" data-entity="BOB_213" data-source-line="79" data-uid="ent0016" id="entity_BOB_213"><rect fill="#FFFAC8" height="79.9375" rx="2" ry="2" style="stroke:#B8860B;stroke-width:0.5;" width="144.8105" x="548.5" y="295.2969"/><text fill="#000000" font-family="sans-serif" font-size="12" font-style="italic" lengthAdjust="spacing" textLength="106.8105" x="567.5" y="324.4355">&#171;BusinessObject&#187;</text><text fill="#000000" font-family="sans-serif" font-size="12" lengthAdjust="spacing" textLength="106.3418" x="567.7344" y="354.4043">Skill: DO-PHASE-F</text></g><!--entity BOB_214--><g class="entity" data-entity="BOB_214" data-source-line="80" data-uid="ent0017" id="entity_BOB_214"><rect fill="#FFFAC8" height="79.9375" rx="2" ry="2" style="stroke:#B8860B;stroke-width:0.5;" width="144.8105" x="198.5" y="295.2969"/><text fill="#000000" font-family="sans-serif" font-size="12" font-style="italic" lengthAdjust="spacing" textLength="106.8105" x="217.5" y="324.4355">&#171;BusinessObject&#187;</text><text fill="#000000" font-family="sans-serif" font-size="12" lengthAdjust="spacing" textLength="108.7383" x="216.5361" y="354.4043">Skill: DO-PHASE-G</text></g><!--entity ACT_006--><g class="entity" data-entity="ACT_006" data-source-line="83" data-uid="ent0019" id="entity_ACT_006"><rect fill="#FFFAC8" height="79.9375" rx="2" ry="2" style="stroke:#B8860B;stroke-width:0.5;" width="132.125" x="964" y="138.2969"/><text fill="#000000" font-family="sans-serif" font-size="12" font-style="italic" lengthAdjust="spacing" textLength="94.125" x="983" y="167.4355">&#171;BusinessRole&#187;</text><text fill="#000000" font-family="sans-serif" font-size="12" lengthAdjust="spacing" textLength="56.1563" x="1001.9844" y="197.4043">DE Agent</text></g><!--entity BOB_208--><g class="entity" data-entity="BOB_208" data-source-line="84" data-uid="ent0020" id="entity_BOB_208"><rect fill="#FFFAC8" height="79.9375" rx="2" ry="2" style="stroke:#B8860B;stroke-width:0.5;" width="209.4844" x="925.5" y="295.2969"/><text fill="#000000" font-family="sans-serif" font-size="12" font-style="italic" lengthAdjust="spacing" textLength="106.8105" x="976.8369" y="324.4355">&#171;BusinessObject&#187;</text><text fill="#000000" font-family="sans-serif" font-size="12" lengthAdjust="spacing" textLength="173.4844" x="943.5" y="354.4043">Skill: DE-PHASE-E-FEEDBACK</text></g><!--entity BOB_209--><g class="entity" data-entity="BOB_209" data-source-line="85" data-uid="ent0021" id="entity_BOB_209"><rect fill="#FFFAC8" height="79.9375" rx="2" ry="2" style="stroke:#B8860B;stroke-width:0.5;" width="208.8047" x="1164.5" y="295.2969"/><text fill="#000000" font-family="sans-serif" font-size="12" font-style="italic" lengthAdjust="spacing" textLength="106.8105" x="1215.4971" y="324.4355">&#171;BusinessObject&#187;</text><text fill="#000000" font-family="sans-serif" font-size="12" lengthAdjust="spacing" textLength="172.8047" x="1182.5" y="354.4043">Skill: DE-PHASE-F-FEEDBACK</text></g><!--entity BOB_210--><g class="entity" data-entity="BOB_210" data-source-line="86" data-uid="ent0022" id="entity_BOB_210"><rect fill="#FFFAC8" height="79.9375" rx="2" ry="2" style="stroke:#B8860B;stroke-width:0.5;" width="144.8105" x="750.5" y="295.2969"/><text fill="#000000" font-family="sans-serif" font-size="12" font-style="italic" lengthAdjust="spacing" textLength="106.8105" x="769.5" y="324.4355">&#171;BusinessObject&#187;</text><text fill="#000000" font-family="sans-serif" font-size="12" lengthAdjust="spacing" textLength="106.875" x="769.4678" y="354.4043">Skill: DE-PHASE-G</text></g><!--entity ACT_007--><g class="entity" data-entity="ACT_007" data-source-line="89" data-uid="ent0024" id="entity_ACT_007"><rect fill="#FFFAC8" height="79.9375" rx="2" ry="2" style="stroke:#B8860B;stroke-width:0.5;" width="132.125" x="1614" y="138.2969"/><text fill="#000000" font-family="sans-serif" font-size="12" font-style="italic" lengthAdjust="spacing" textLength="94.125" x="1633" y="167.4355">&#171;BusinessRole&#187;</text><text fill="#000000" font-family="sans-serif" font-size="12" lengthAdjust="spacing" textLength="56.9883" x="1651.5684" y="197.4043">QA Agent</text></g><!--entity BOB_226--><g class="entity" data-entity="BOB_226" data-source-line="90" data-uid="ent0025" id="entity_BOB_226"><rect fill="#FFFAC8" height="79.9375" rx="2" ry="2" style="stroke:#B8860B;stroke-width:0.5;" width="148.8926" x="1605.5" y="295.2969"/><text fill="#000000" font-family="sans-serif" font-size="12" font-style="italic" lengthAdjust="spacing" textLength="106.8105" x="1626.541" y="324.4355">&#171;BusinessObject&#187;</text><text fill="#000000" font-family="sans-serif" font-size="12" lengthAdjust="spacing" textLength="112.8926" x="1623.5" y="354.4043">Skill: QA-PHASE-EF</text></g><!--entity BOB_227--><g class="entity" data-entity="BOB_227" data-source-line="91" data-uid="ent0026" id="entity_BOB_227"><rect fill="#FFFAC8" height="79.9375" rx="2" ry="2" style="stroke:#B8860B;stroke-width:0.5;" width="144.8105" x="1430.5" y="295.2969"/><text fill="#000000" font-family="sans-serif" font-size="12" font-style="italic" lengthAdjust="spacing" textLength="106.8105" x="1449.5" y="324.4355">&#171;BusinessObject&#187;</text><text fill="#000000" font-family="sans-serif" font-size="12" lengthAdjust="spacing" textLength="107.707" x="1449.0518" y="354.4043">Skill: QA-PHASE-G</text></g><!--entity BOB_228--><g class="entity" data-entity="BOB_228" data-source-line="92" data-uid="ent0027" id="entity_BOB_228"><rect fill="#FFFAC8" height="79.9375" rx="2" ry="2" style="stroke:#B8860B;stroke-width:0.5;" width="144.8105" x="1784.5" y="295.2969"/><text fill="#000000" font-family="sans-serif" font-size="12" font-style="italic" lengthAdjust="spacing" textLength="106.8105" x="1803.5" y="324.4355">&#171;BusinessObject&#187;</text><text fill="#000000" font-family="sans-serif" font-size="12" lengthAdjust="spacing" textLength="107.4316" x="1803.1895" y="354.4043">Skill: QA-PHASE-H</text></g><g class="entity" data-entity="N1" data-source-line="117" data-uid="ent0049" id="entity_N1"><path d="M1962,153.2969 L1962,203.2344 A2,2 0 0 0 1964,205.2344 L2286.3418,205.2344 A2,2 0 0 0 2288.3418,203.2344 L2288.3418,161.2969 L2278.3418,151.2969 L1964,151.2969 A2,2 0 0 0 1962,153.2969" fill="#FEFFDD" style="stroke:#181818;stroke-width:0.5;"/><path d="M2278.3418,151.2969 L2278.3418,160.2969 A1,1 0 0 0 2279.3418,161.2969 L2288.3418,161.2969 L2278.3418,151.2969" fill="#FEFFDD" style="stroke:#181818;stroke-width:1;"/><text fill="#000000" font-family="sans-serif" font-size="12" lengthAdjust="spacing" textLength="255.1348" x="1976" y="175.4355">Specific role -&gt; skill-id -&gt; phase mappings</text><text fill="#000000" font-family="sans-serif" font-size="12" lengthAdjust="spacing" textLength="289.3418" x="1976" y="189.4043">generated from skill frontmatter trigger-phases.</text></g><!--link ACT_005 to BOB_211--><g class="link" data-entity-1="ACT_005" data-entity-2="BOB_211" data-source-line="95" data-uid="lnk28" id="link_ACT_005_BOB_211"><path d="M289.69,193.6969 C254.49,203.4069 211.68,218.6669 178,241.2969 C156.74,255.5869 141.2294,271.963 126.7494,290.453" fill="none" id="ACT_005-to-BOB_211" style="stroke:#808080;stroke-width:1;"/><polygon fill="#808080" points="123.05,295.1769,131.7483,290.5574,126.1328,291.2403,125.4498,285.6249,123.05,295.1769" style="stroke:#808080;stroke-width:1;"/><text fill="#000000" font-family="sans-serif" font-size="12" lengthAdjust="spacing" textLength="82.1543" x="187" y="261.4355">&#171;association&#187;</text></g><!--link BOB_211 to BOB_107--><g class="link" data-entity-1="BOB_211" data-entity-2="BOB_107" data-source-line="96" data-uid="lnk29" id="link_BOB_211_BOB_107"><path d="M148.98,375.5069 C160.12,383.5169 171.87,391.7869 183,399.2969 C253.3,446.7369 330.8755,494.9361 386.8855,529.0461" fill="none" id="BOB_211-to-BOB_107" style="stroke:#B8860B;stroke-width:1;"/><polygon fill="#B8860B" points="392.01,532.1669,386.4038,524.0693,387.7396,529.5662,382.2427,530.902,392.01,532.1669" style="stroke:#B8860B;stroke-width:1;"/><text fill="#000000" font-family="sans-serif" font-size="12" lengthAdjust="spacing" textLength="82.1543" x="244" y="427.4355">&#171;association&#187;</text></g><!--link ACT_005 to BOB_212--><g class="link" data-entity-1="ACT_005" data-entity-2="BOB_212" data-source-line="97" data-uid="lnk30" id="link_ACT_005_BOB_212"><path d="M385.12,218.3669 C390.29,225.8369 395.47,233.7069 400,241.2969 C410.25,258.4669 417.6773,272.8112 425.7273,289.6912" fill="none" id="ACT_005-to-BOB_212" style="stroke:#808080;stroke-width:1;"/><polygon fill="#808080" points="428.31,295.1069,428.0464,285.2615,426.1577,290.5938,420.8255,288.7052,428.31,295.1069" style="stroke:#808080;stroke-width:1;"/><text fill="#000000" font-family="sans-serif" font-size="12" lengthAdjust="spacing" textLength="82.1543" x="426" y="261.4355">&#171;association&#187;</text></g><!--link BOB_212 to BOB_108--><g class="link" data-entity-1="BOB_212" data-entity-2="BOB_108" data-source-line="98" data-uid="lnk31" id="link_BOB_212_BOB_108"><path d="M489.59,375.6069 C502.66,385.1469 517.63,394.0969 533,399.2969 C564.9,410.0969 804.66,394.9769 836,407.2969 C901.31,432.9669 955.0184,487.8279 988.2084,527.6479" fill="none" id="BOB_212-to-BOB_108" style="stroke:#B8860B;stroke-width:1;"/><polygon fill="#B8860B" points="992.05,532.2569,989.3603,522.7824,988.8487,528.4161,983.215,527.9045,992.05,532.2569" style="stroke:#B8860B;stroke-width:1;"/><text fill="#000000" font-family="sans-serif" font-size="12" lengthAdjust="spacing" textLength="82.1543" x="899" y="427.4355">&#171;association&#187;</text></g><!--link ACT_005 to BOB_213--><g class="link" data-entity-1="ACT_005" data-entity-2="BOB_213" data-source-line="99" data-uid="lnk32" id="link_ACT_005_BOB_213"><path d="M422.3,196.8369 C454.45,207.0269 492.77,221.7569 524,241.2969 C547.34,255.8969 565.6344,272.4498 583.0344,290.7398" fill="none" id="ACT_005-to-BOB_213" style="stroke:#808080;stroke-width:1;"/><polygon fill="#808080" points="587.17,295.0869,583.8647,285.8092,583.7237,291.4643,578.0686,291.3233,587.17,295.0869" style="stroke:#808080;stroke-width:1;"/><text fill="#000000" font-family="sans-serif" font-size="12" lengthAdjust="spacing" textLength="82.1543" x="571" y="261.4355">&#171;association&#187;</text></g><!--link BOB_213 to BOB_109--><g class="link" data-entity-1="BOB_213" data-entity-2="BOB_109" data-source-line="100" data-uid="lnk33" id="link_BOB_213_BOB_109"><path d="M678.71,375.2969 C696.07,385.0269 715.66,394.1469 735,399.2969 C748.58,402.9169 1230.09,398.4369 1241,407.2969 C1277.36,436.8369 1282.8418,487.7993 1281.7418,526.1893" fill="none" id="BOB_213-to-BOB_109" style="stroke:#B8860B;stroke-width:1;"/><polygon fill="#B8860B" points="1281.57,532.1869,1285.8261,523.3051,1281.7132,527.1889,1277.8294,523.076,1281.57,532.1869" style="stroke:#B8860B;stroke-width:1;"/><text fill="#000000" font-family="sans-serif" font-size="12" lengthAdjust="spacing" textLength="82.1543" x="1273" y="427.4355">&#171;association&#187;</text></g><!--link ACT_005 to BOB_214--><g class="link" data-entity-1="ACT_005" data-entity-2="BOB_214" data-source-line="101" data-uid="lnk34" id="link_ACT_005_BOB_214"><path d="M313.55,218.3469 C307.36,225.5169 301.55,233.2869 297,241.2969 C287.64,257.7669 282.8217,271.9688 278.8617,289.2288" fill="none" id="ACT_005-to-BOB_214" style="stroke:#808080;stroke-width:1;"/><polygon fill="#808080" points="277.52,295.0769,283.4313,287.1993,278.6381,290.2035,275.6339,285.4103,277.52,295.0769" style="stroke:#808080;stroke-width:1;"/><text fill="#000000" font-family="sans-serif" font-size="12" lengthAdjust="spacing" textLength="82.1543" x="306" y="261.4355">&#171;association&#187;</text></g><!--link BOB_214 to BOB_110--><g class="link" data-entity-1="BOB_214" data-entity-2="BOB_110" data-source-line="102" data-uid="lnk35" id="link_BOB_214_BOB_110"><path d="M317.53,375.5369 C330.04,384.4869 344,393.1569 358,399.2969 C454.35,441.5569 495.53,399.9969 590,446.2969 C632.83,467.2869 669.0361,499.6969 696.2561,527.9369" fill="none" id="BOB_214-to-BOB_110" style="stroke:#B8860B;stroke-width:1;"/><polygon fill="#B8860B" points="700.42,532.2569,697.0541,523.001,696.9501,528.6569,691.2942,528.5529,700.42,532.2569" style="stroke:#B8860B;stroke-width:1;"/><text fill="#000000" font-family="sans-serif" font-size="12" lengthAdjust="spacing" textLength="82.1543" x="578" y="427.4355">&#171;association&#187;</text></g><!--link ACT_006 to BOB_208--><g class="link" data-entity-1="ACT_006" data-entity-2="BOB_208" data-source-line="103" data-uid="lnk36" id="link_ACT_006_BOB_208"><path d="M1030,218.4069 C1030,241.9069 1030,265.6969 1030,289.1969" fill="none" id="ACT_006-to-BOB_208" style="stroke:#808080;stroke-width:1;"/><polygon fill="#808080" points="1030,295.1969,1034,286.1969,1030,290.1969,1026,286.1969,1030,295.1969" style="stroke:#808080;stroke-width:1;"/><text fill="#000000" font-family="sans-serif" font-size="12" lengthAdjust="spacing" textLength="82.1543" x="1039" y="261.4355">&#171;association&#187;</text></g><!--link BOB_208 to BOB_108--><g class="link" data-entity-1="BOB_208" data-entity-2="BOB_108" data-source-line="104" data-uid="lnk37" id="link_BOB_208_BOB_108"><path d="M1012.24,375.3669 C1008.43,385.5569 1004.95,396.6569 1003,407.2969 C995.23,449.5869 1001.7173,492.776 1009.5573,526.136" fill="none" id="BOB_208-to-BOB_108" style="stroke:#B8860B;stroke-width:1;"/><polygon fill="#B8860B" points="1010.93,531.9769,1012.7649,522.3005,1009.7861,527.1095,1004.9771,524.1307,1010.93,531.9769" style="stroke:#B8860B;stroke-width:1;"/><text fill="#000000" font-family="sans-serif" font-size="12" lengthAdjust="spacing" textLength="82.1543" x="1012" y="427.4355">&#171;association&#187;</text></g><!--link ACT_006 to BOB_209--><g class="link" data-entity-1="ACT_006" data-entity-2="BOB_209" data-source-line="105" data-uid="lnk38" id="link_ACT_006_BOB_209"><path d="M1096.19,216.4269 C1109.82,224.4069 1123.98,232.9669 1137,241.2969 C1163.44,258.2269 1187.1338,274.6507 1210.9138,291.7007" fill="none" id="ACT_006-to-BOB_209" style="stroke:#808080;stroke-width:1;"/><polygon fill="#808080" points="1215.79,295.1969,1210.8065,286.7019,1211.7265,292.2834,1206.145,293.2034,1215.79,295.1969" style="stroke:#808080;stroke-width:1;"/><text fill="#000000" font-family="sans-serif" font-size="12" lengthAdjust="spacing" textLength="82.1543" x="1191" y="261.4355">&#171;association&#187;</text></g><!--link BOB_209 to BOB_109--><g class="link" data-entity-1="BOB_209" data-entity-2="BOB_109" data-source-line="106" data-uid="lnk39" id="link_BOB_209_BOB_109"><path d="M1348.43,375.4069 C1359.51,384.3369 1369.36,394.9169 1376,407.2969 C1399.37,450.8469 1366.706,495.1519 1331.676,528.0119" fill="none" id="BOB_209-to-BOB_109" style="stroke:#B8860B;stroke-width:1;"/><polygon fill="#B8860B" points="1327.3,532.1169,1336.6006,528.8768,1330.9467,528.6961,1331.1274,523.0421,1327.3,532.1169" style="stroke:#B8860B;stroke-width:1;"/><text fill="#000000" font-family="sans-serif" font-size="12" lengthAdjust="spacing" textLength="82.1543" x="1393" y="427.4355">&#171;association&#187;</text></g><!--link ACT_006 to BOB_210--><g class="link" data-entity-1="ACT_006" data-entity-2="BOB_210" data-source-line="107" data-uid="lnk40" id="link_ACT_006_BOB_210"><path d="M963.73,214.5869 C949.9,222.7969 935.68,231.9069 923,241.2969 C901.28,257.3769 883.3709,273.3933 865.4209,290.8533" fill="none" id="ACT_006-to-BOB_210" style="stroke:#808080;stroke-width:1;"/><polygon fill="#808080" points="861.12,295.0369,870.3604,291.6289,864.7041,291.5506,864.7824,285.8943,861.12,295.0369" style="stroke:#808080;stroke-width:1;"/><text fill="#000000" font-family="sans-serif" font-size="12" lengthAdjust="spacing" textLength="82.1543" x="932" y="261.4355">&#171;association&#187;</text></g><!--link BOB_210 to BOB_110--><g class="link" data-entity-1="BOB_210" data-entity-2="BOB_110" data-source-line="108" data-uid="lnk41" id="link_BOB_210_BOB_110"><path d="M757.78,375.6369 C747.75,384.7169 738.82,395.2969 733,407.2969 C713.99,446.4969 717.2904,491.5242 723.9304,526.1642" fill="none" id="BOB_210-to-BOB_110" style="stroke:#B8860B;stroke-width:1;"/><polygon fill="#B8860B" points="725.06,532.0569,727.2942,522.4648,724.1187,527.1463,719.4372,523.9708,725.06,532.0569" style="stroke:#B8860B;stroke-width:1;"/><text fill="#000000" font-family="sans-serif" font-size="12" lengthAdjust="spacing" textLength="82.1543" x="742" y="427.4355">&#171;association&#187;</text></g><!--link ACT_007 to BOB_226--><g class="link" data-entity-1="ACT_007" data-entity-2="BOB_226" data-source-line="109" data-uid="lnk42" id="link_ACT_007_BOB_226"><path d="M1680,218.4069 C1680,241.9069 1680,265.6969 1680,289.1969" fill="none" id="ACT_007-to-BOB_226" style="stroke:#808080;stroke-width:1;"/><polygon fill="#808080" points="1680,295.1969,1684,286.1969,1680,290.1969,1676,286.1969,1680,295.1969" style="stroke:#808080;stroke-width:1;"/><text fill="#000000" font-family="sans-serif" font-size="12" lengthAdjust="spacing" textLength="82.1543" x="1689" y="261.4355">&#171;association&#187;</text></g><!--link BOB_226 to BOB_108--><g class="link" data-entity-1="BOB_226" data-entity-2="BOB_108" data-source-line="110" data-uid="lnk43" id="link_BOB_226_BOB_108"><path d="M1633.42,375.3269 C1620.39,384.5069 1605.74,393.3369 1591,399.2969 C1569.32,408.0669 1560.86,398.9969 1539,407.2969 C1515.26,416.3169 1515.27,430.8169 1491,438.2969 C1456.27,448.9969 1197.84,433.0469 1164,446.2969 C1119.04,463.8969 1082.8454,497.9853 1056.8154,527.6753" fill="none" id="BOB_226-to-BOB_108" style="stroke:#B8860B;stroke-width:1;"/><polygon fill="#B8860B" points="1052.86,532.1869,1061.8009,528.0564,1056.1562,528.4272,1055.7854,522.7825,1052.86,532.1869" style="stroke:#B8860B;stroke-width:1;"/><text fill="#000000" font-family="sans-serif" font-size="12" lengthAdjust="spacing" textLength="82.1543" x="1548" y="427.4355">&#171;association&#187;</text></g><!--link BOB_226 to BOB_109--><g class="link" data-entity-1="BOB_226" data-entity-2="BOB_109" data-source-line="111" data-uid="lnk44" id="link_BOB_226_BOB_109"><path d="M1677.58,375.3069 C1673.99,397.5269 1665.53,423.7469 1646,438.2969 C1623.36,455.1669 1417.65,434.4869 1392,446.2969 C1352.91,464.2869 1324.5912,497.6567 1304.6412,527.1567" fill="none" id="BOB_226-to-BOB_109" style="stroke:#B8860B;stroke-width:1;"/><polygon fill="#B8860B" points="1301.28,532.1269,1309.6352,526.9124,1304.081,527.9851,1303.0083,522.4309,1301.28,532.1269" style="stroke:#B8860B;stroke-width:1;"/><text fill="#000000" font-family="sans-serif" font-size="12" lengthAdjust="spacing" textLength="82.1543" x="1677" y="427.4355">&#171;association&#187;</text></g><!--link ACT_007 to BOB_227--><g class="link" data-entity-1="ACT_007" data-entity-2="BOB_227" data-source-line="112" data-uid="lnk45" id="link_ACT_007_BOB_227"><path d="M1613.8,212.0969 C1599.6,220.6069 1585.21,230.4769 1573,241.2969 C1555.46,256.8469 1542.8414,272.4542 1530.5714,290.2842" fill="none" id="ACT_007-to-BOB_227" style="stroke:#808080;stroke-width:1;"/><polygon fill="#808080" points="1527.17,295.2269,1535.5673,290.0804,1530.0045,291.1079,1528.977,285.5452,1527.17,295.2269" style="stroke:#808080;stroke-width:1;"/><text fill="#000000" font-family="sans-serif" font-size="12" lengthAdjust="spacing" textLength="82.1543" x="1582" y="261.4355">&#171;association&#187;</text></g><!--link BOB_227 to BOB_110--><g class="link" data-entity-1="BOB_227" data-entity-2="BOB_110" data-source-line="113" data-uid="lnk46" id="link_BOB_227_BOB_110"><path d="M1444.65,375.4369 C1427.43,385.0369 1408.08,394.0569 1389,399.2969 C1361.67,406.8069 1159.72,395.3869 1134,407.2969 C1117.15,415.0969 1122.83,430.4569 1106,438.2969 C1060.44,459.5069 926.79,427.9669 880,446.2969 C834.66,464.0569 797.7527,497.9751 771.0327,527.5451" fill="none" id="BOB_227-to-BOB_110" style="stroke:#B8860B;stroke-width:1;"/><polygon fill="#B8860B" points="767.01,531.9969,776.0119,528.001,770.3622,528.2871,770.0762,522.6375,767.01,531.9969" style="stroke:#B8860B;stroke-width:1;"/><text fill="#000000" font-family="sans-serif" font-size="12" lengthAdjust="spacing" textLength="82.1543" x="1143" y="427.4355">&#171;association&#187;</text></g><!--link ACT_007 to BOB_228--><g class="link" data-entity-1="ACT_007" data-entity-2="BOB_228" data-source-line="114" data-uid="lnk47" id="link_ACT_007_BOB_228"><path d="M1746.2,212.0969 C1760.4,220.6069 1774.79,230.4769 1787,241.2969 C1804.54,256.8469 1817.1586,272.4542 1829.4286,290.2842" fill="none" id="ACT_007-to-BOB_228" style="stroke:#808080;stroke-width:1;"/><polygon fill="#808080" points="1832.83,295.2269,1831.023,285.5452,1829.9955,291.1079,1824.4327,290.0804,1832.83,295.2269" style="stroke:#808080;stroke-width:1;"/><text fill="#000000" font-family="sans-serif" font-size="12" lengthAdjust="spacing" textLength="82.1543" x="1824" y="261.4355">&#171;association&#187;</text></g><!--link BOB_228 to BOB_111--><g class="link" data-entity-1="BOB_228" data-entity-2="BOB_111" data-source-line="115" data-uid="lnk48" id="link_BOB_228_BOB_111"><path d="M1840.33,375.3769 C1828.73,397.6069 1811.01,423.8269 1787,438.2969 C1760.56,454.2369 1746.61,434.7069 1718,446.2969 C1670.07,465.7069 1628.5168,499.1328 1597.7068,528.0228" fill="none" id="BOB_228-to-BOB_111" style="stroke:#B8860B;stroke-width:1;"/><polygon fill="#B8860B" points="1593.33,532.1269,1602.6313,528.8886,1596.9774,528.7068,1597.1592,523.0529,1593.33,532.1269" style="stroke:#B8860B;stroke-width:1;"/><text fill="#000000" font-family="sans-serif" font-size="12" lengthAdjust="spacing" textLength="82.1543" x="1827" y="427.4355">&#171;association&#187;</text></g><!--SRC=[hLLTRvim57tdLznsBzi36J64ZwcAbBHLDsdTecPlquGik2LMm23RJAgc_VVPJPZYp7H3cdZX-1xEFVS0zWNZHTsN2BFPsxoXXMZbhEkRshiuBL1Hx5X35VfIeS1MFNLuv2ccQeHrBnb7AM5bc0eBrGi47nvQNTpkMLt3PaSbmZtju7M9DVkEukcD9_UCTrJG1YhHzjq7laF15EK5mloaoDiI9NOG1YUBWlAzMOmM9uiTBKl6AqWzJsWNb5VQmENgvlxGNrx2rTLWziwqrEJb4gY4kuTDldc_sjx23m_WvlRwOxx-lCxdGMZ3o8OB6yOsJ6oOsZ2pu3omuTpxQGzn_SKFWiKXphyCehcvuVuUvRXmse7e3XOaDWnj66axVxY99xY9pzrOMH4x76A7GtGuZlR9XFR9UNlhtH1Yko5drTIyZ25L_-khD33NDty9noZXdVP0fMmBHXLh-NBf3HLDNwTf7Am7kluk7FGNrCceEd6ffzFKmr7rqAMUJLEFHjKZX_ey65MF7UhEKOVAf6ISwjceUZOj6PUwSzIXCYcPnA5EuZ5r4lzhCY_Gisbcab7rv3-CEkxTzH4u_rNUAZJxnIUp9suxBDWZAq2Ouqi_9yqkuxFIt7VFvrX3ExF9ICskaAFGPsC9Zw9j3bnpovK-CVLn2KgmgaBXFpyfPnxo4ao_Nm00]--></g></svg>