<svg xmlns="http://www.w3.org/2000/svg" xmlns:xlink="http://www.w3.org/1999/xlink" contentStyleType="text/css" data-diagram-type="ACTIVITY" height="967px" preserveAspectRatio="none" style="width:548px;height:967px;background:#FFFFFF;" version="1.1" viewBox="0 0 548 967" width="548px" zoomAndPan="magnify"><title>Phase C &#8212; SwA Application Workflow Net</title><defs/><g><text fill="#000000" font-family="sans-serif" font-size="14" font-weight="bold" lengthAdjust="spacing" textLength="326.792" x="109.2185" y="32.9951">Phase C &#8212; SwA Application Workflow Net</text><rect fill="none" height="20.9531" style="stroke:none;stroke-width:1;" width="515.229" x="15" y="50.042"/><ellipse cx="138.7012" cy="85.9951" fill="#222222" rx="10" ry="10" style="stroke:#222222;stroke-width:1;"/><rect fill="#F0F8FF" height="45.6094" rx="12.5" ry="12.5" style="stroke:#4682B4;stroke-width:0.5;" width="156.3882" x="60.5071" y="115.9951"/><text fill="#000000" font-family="sans-serif" font-size="11" lengthAdjust="spacing" textLength="136.3882" x="70.5071" y="136.2056">Step 0.L Query learnings</text><text fill="#000000" font-family="sans-serif" font-size="11" lengthAdjust="spacing" textLength="96.6367" x="70.5071" y="149.0103">(query_learnings)</text><rect fill="#F0F8FF" height="45.6094" rx="12.5" ry="12.5" style="stroke:#4682B4;stroke-width:0.5;" width="177.6738" x="49.8643" y="181.6045"/><text fill="#000000" font-family="sans-serif" font-size="11" lengthAdjust="spacing" textLength="123.6211" x="59.8643" y="201.8149">Discovery Scan Step 0</text><text fill="#000000" font-family="sans-serif" font-size="11" lengthAdjust="spacing" textLength="157.6738" x="59.8643" y="214.6196">(read BA, RR, SCO, DA draft)</text><rect fill="#F0F8FF" height="45.6094" rx="12.5" ry="12.5" style="stroke:#4682B4;stroke-width:0.5;" width="171.5508" x="52.9258" y="247.2139"/><text fill="#000000" font-family="sans-serif" font-size="11" lengthAdjust="spacing" textLength="151.5508" x="62.9258" y="267.4243">Derive APP/ASV/IFC entities</text><text fill="#000000" font-family="sans-serif" font-size="11" lengthAdjust="spacing" textLength="121.2954" x="62.9258" y="280.229">from BA BSV/BPR/BFN</text><rect fill="#F0F8FF" height="45.6094" rx="12.5" ry="12.5" style="stroke:#4682B4;stroke-width:0.5;" width="178.5171" x="49.4426" y="312.8232"/><text fill="#000000" font-family="sans-serif" font-size="11" lengthAdjust="spacing" textLength="158.5171" x="59.4426" y="333.0337">Author cross-layer mappings</text><text fill="#000000" font-family="sans-serif" font-size="11" lengthAdjust="spacing" textLength="129.8892" x="59.4426" y="345.8384">(ASV-&gt;BPR, ASV-&gt;BSV)</text><rect fill="#F0F8FF" height="32.8047" rx="12.5" ry="12.5" style="stroke:#4682B4;stroke-width:0.5;" width="121.6587" x="77.8718" y="426.835"/><text fill="#000000" font-family="sans-serif" font-size="11" lengthAdjust="spacing" textLength="101.6587" x="87.8718" y="447.0454">Raise bounded CQ</text><rect fill="#F0F8FF" height="32.8047" rx="12.5" ry="12.5" style="stroke:#4682B4;stroke-width:0.5;" width="189.3667" x="44.0178" y="600.249"/><text fill="#000000" font-family="sans-serif" font-size="11" lengthAdjust="spacing" textLength="169.3667" x="54.0178" y="620.4595">Integrate answer and continue</text><polygon fill="#FFFFE0" points="72.3467,378.4326,205.0557,378.4326,217.0557,390.4326,205.0557,402.4326,72.3467,402.4326,60.3467,390.4326,72.3467,378.4326" style="stroke:#B8860B;stroke-width:0.5;"/><text fill="#000000" font-family="sans-serif" font-size="11" lengthAdjust="spacing" textLength="19.0083" x="142.7012" y="412.6431">yes</text><text fill="#000000" font-family="sans-serif" font-size="11" lengthAdjust="spacing" textLength="132.709" x="72.3467" y="394.2407">Missing business detail?</text><text fill="#000000" font-family="sans-serif" font-size="11" lengthAdjust="spacing" textLength="13.7017" x="46.645" y="387.8384">no</text><polygon fill="#FFFFE0" points="138.7012,653.0537,150.7012,665.0537,138.7012,677.0537,126.7012,665.0537,138.7012,653.0537" style="stroke:#B8860B;stroke-width:0.5;"/><rect fill="#F0F8FF" height="45.6094" rx="12.5" ry="12.5" style="stroke:#4682B4;stroke-width:0.5;" width="222.8823" x="27.26" y="697.0537"/><text fill="#000000" font-family="sans-serif" font-size="11" lengthAdjust="spacing" textLength="202.8823" x="37.26" y="717.2642">Produce c-archimate-application and</text><text fill="#000000" font-family="sans-serif" font-size="11" lengthAdjust="spacing" textLength="94.0479" x="37.26" y="730.0688">interaction views</text><rect fill="#F0F8FF" height="32.8047" rx="12.5" ry="12.5" style="stroke:#4682B4;stroke-width:0.5;" width="144.4751" x="66.4636" y="762.6631"/><text fill="#000000" font-family="sans-serif" font-size="11" lengthAdjust="spacing" textLength="124.4751" x="76.4636" y="782.8735">Run model verification</text><rect fill="#F0F8FF" height="32.8047" rx="12.5" ry="12.5" style="stroke:#4682B4;stroke-width:0.5;" width="235.4023" x="21" y="815.4678"/><text fill="#000000" font-family="sans-serif" font-size="11" lengthAdjust="spacing" textLength="215.4023" x="31" y="835.6782">Create Phase C handoff for PM + CSCO</text><line style="stroke:#5F9EA0;stroke-width:1.5;" x1="15" x2="15" y1="50.042" y2="955.8818"/><rect fill="#F0F8FF" height="32.8047" rx="12.5" ry="12.5" style="stroke:#4682B4;stroke-width:0.5;" width="134.3667" x="282.8909" y="479.6396"/><text fill="#000000" font-family="sans-serif" font-size="11" lengthAdjust="spacing" textLength="114.3667" x="292.8909" y="499.8501">Route CQ to PO/User</text><rect fill="#F0F8FF" height="45.6094" rx="12.5" ry="12.5" style="stroke:#4682B4;stroke-width:0.5;" width="153.1172" x="273.5156" y="868.2725"/><text fill="#000000" font-family="sans-serif" font-size="11" lengthAdjust="spacing" textLength="133.1172" x="283.5156" y="888.4829">Evaluate gate readiness</text><text fill="#000000" font-family="sans-serif" font-size="11" lengthAdjust="spacing" textLength="112.2129" x="283.5156" y="901.2876">for Phase C baseline</text><ellipse cx="350.0742" cy="944.8818" fill="none" rx="11" ry="11" style="stroke:#222222;stroke-width:1;"/><ellipse cx="350.0742" cy="944.8818" fill="#222222" rx="6" ry="6" style="stroke:#222222;stroke-width:1;"/><line style="stroke:#5F9EA0;stroke-width:1.5;" x1="260.4023" x2="260.4023" y1="50.042" y2="955.8818"/><rect fill="#F0F8FF" height="32.8047" rx="12.5" ry="12.5" style="stroke:#4682B4;stroke-width:0.5;" width="80.3496" x="443.7461" y="547.4443"/><text fill="#000000" font-family="sans-serif" font-size="11" lengthAdjust="spacing" textLength="60.3496" x="453.7461" y="567.6548">Answer CQ</text><line style="stroke:#5F9EA0;stroke-width:1.5;" x1="437.7461" x2="437.7461" y1="50.042" y2="955.8818"/><line style="stroke:#5F9EA0;stroke-width:1.5;" x1="528.0957" x2="528.0957" y1="50.042" y2="955.8818"/><line style="stroke:#4682B4;stroke-width:1;" x1="138.7012" x2="138.7012" y1="95.9951" y2="115.9951"/><polygon fill="#4682B4" points="134.7012,105.9951,138.7012,115.9951,142.7012,105.9951,138.7012,109.9951" style="stroke:#4682B4;stroke-width:1;"/><line style="stroke:#4682B4;stroke-width:1;" x1="138.7012" x2="138.7012" y1="161.6045" y2="181.6045"/><polygon fill="#4682B4" points="134.7012,171.6045,138.7012,181.6045,142.7012,171.6045,138.7012,175.6045" style="stroke:#4682B4;stroke-width:1;"/><line style="stroke:#4682B4;stroke-width:1;" x1="138.7012" x2="138.7012" y1="227.2139" y2="247.2139"/><polygon fill="#4682B4" points="134.7012,237.2139,138.7012,247.2139,142.7012,237.2139,138.7012,241.2139" style="stroke:#4682B4;stroke-width:1;"/><line style="stroke:#4682B4;stroke-width:1;" x1="138.7012" x2="138.7012" y1="292.8232" y2="312.8232"/><polygon fill="#4682B4" points="134.7012,302.8232,138.7012,312.8232,142.7012,302.8232,138.7012,306.8232" style="stroke:#4682B4;stroke-width:1;"/><line style="stroke:#4682B4;stroke-width:1;" x1="138.7012" x2="138.7012" y1="402.4326" y2="426.835"/><polygon fill="#4682B4" points="134.7012,416.835,138.7012,426.835,142.7012,416.835,138.7012,420.835" style="stroke:#4682B4;stroke-width:1;"/><line style="stroke:#4682B4;stroke-width:1;" x1="60.3467" x2="34.0178" y1="390.4326" y2="390.4326"/><polygon fill="#4682B4" points="30.0178,519.9443,34.0178,529.9443,38.0178,519.9443,34.0178,523.9443" style="stroke:#4682B4;stroke-width:1;"/><line style="stroke:#4682B4;stroke-width:1;" x1="34.0178" x2="34.0178" y1="390.4326" y2="665.0537"/><line style="stroke:#4682B4;stroke-width:1;" x1="34.0178" x2="126.7012" y1="665.0537" y2="665.0537"/><polygon fill="#4682B4" points="116.7012,661.0537,126.7012,665.0537,116.7012,669.0537,120.7012,665.0537" style="stroke:#4682B4;stroke-width:1;"/><line style="stroke:#4682B4;stroke-width:1;" x1="138.7012" x2="138.7012" y1="633.0537" y2="653.0537"/><polygon fill="#4682B4" points="134.7012,643.0537,138.7012,653.0537,142.7012,643.0537,138.7012,647.0537" style="stroke:#4682B4;stroke-width:1;"/><line style="stroke:#4682B4;stroke-width:1;" x1="138.7012" x2="138.7012" y1="358.4326" y2="378.4326"/><polygon fill="#4682B4" points="134.7012,368.4326,138.7012,378.4326,142.7012,368.4326,138.7012,372.4326" style="stroke:#4682B4;stroke-width:1;"/><line style="stroke:#4682B4;stroke-width:1;" x1="138.7012" x2="138.7012" y1="677.0537" y2="697.0537"/><polygon fill="#4682B4" points="134.7012,687.0537,138.7012,697.0537,142.7012,687.0537,138.7012,691.0537" style="stroke:#4682B4;stroke-width:1;"/><line style="stroke:#4682B4;stroke-width:1;" x1="138.7012" x2="138.7012" y1="742.6631" y2="762.6631"/><polygon fill="#4682B4" points="134.7012,752.6631,138.7012,762.6631,142.7012,752.6631,138.7012,756.6631" style="stroke:#4682B4;stroke-width:1;"/><line style="stroke:#4682B4;stroke-width:1;" x1="138.7012" x2="138.7012" y1="795.4678" y2="815.4678"/><polygon fill="#4682B4" points="134.7012,805.4678,138.7012,815.4678,142.7012,805.4678,138.7012,809.4678" style="stroke:#4682B4;stroke-width:1;"/><line style="stroke:#4682B4;stroke-width:1;" x1="350.0742" x2="350.0742" y1="913.8818" y2="933.8818"/><polygon fill="#4682B4" points="346.0742,923.8818,350.0742,933.8818,354.0742,923.8818,350.0742,927.8818" style="stroke:#4682B4;stroke-width:1;"/><line style="stroke:#4682B4;stroke-width:1;" x1="138.7012" x2="138.7012" y1="459.6396" y2="464.6396"/><line style="stroke:#4682B4;stroke-width:1;" x1="138.7012" x2="350.0742" y1="464.6396" y2="464.6396"/><line style="stroke:#4682B4;stroke-width:1;" x1="350.0742" x2="350.0742" y1="464.6396" y2="479.6396"/><polygon fill="#4682B4" points="346.0742,469.6396,350.0742,479.6396,354.0742,469.6396,350.0742,473.6396" style="stroke:#4682B4;stroke-width:1;"/><line style="stroke:#4682B4;stroke-width:1;" x1="350.0742" x2="350.0742" y1="512.4443" y2="529.9443"/><line style="stroke:#4682B4;stroke-width:1;" x1="350.0742" x2="483.9209" y1="529.9443" y2="529.9443"/><line style="stroke:#4682B4;stroke-width:1;" x1="483.9209" x2="483.9209" y1="529.9443" y2="547.4443"/><polygon fill="#4682B4" points="479.9209,537.4443,483.9209,547.4443,487.9209,537.4443,483.9209,541.4443" style="stroke:#4682B4;stroke-width:1;"/><line style="stroke:#4682B4;stroke-width:1;" x1="483.9209" x2="483.9209" y1="580.249" y2="585.249"/><line style="stroke:#4682B4;stroke-width:1;" x1="483.9209" x2="138.7012" y1="585.249" y2="585.249"/><line style="stroke:#4682B4;stroke-width:1;" x1="138.7012" x2="138.7012" y1="585.249" y2="600.249"/><polygon fill="#4682B4" points="134.7012,590.249,138.7012,600.249,142.7012,590.249,138.7012,594.249" style="stroke:#4682B4;stroke-width:1;"/><line style="stroke:#4682B4;stroke-width:1;" x1="138.7012" x2="138.7012" y1="848.2725" y2="853.2725"/><line style="stroke:#4682B4;stroke-width:1;" x1="138.7012" x2="350.0742" y1="853.2725" y2="853.2725"/><line style="stroke:#4682B4;stroke-width:1;" x1="350.0742" x2="350.0742" y1="853.2725" y2="868.2725"/><polygon fill="#4682B4" points="346.0742,858.2725,350.0742,868.2725,354.0742,858.2725,350.0742,862.2725" style="stroke:#4682B4;stroke-width:1;"/><text fill="#000000" font-family="sans-serif" font-size="18" font-weight="bold" lengthAdjust="spacing" textLength="235.0371" x="20.1826" y="66.75">Software Architect / PE</text><text fill="#000000" font-family="sans-serif" font-size="18" font-weight="bold" lengthAdjust="spacing" textLength="167.3438" x="265.4023" y="66.75">Project Manager</text><text fill="#000000" font-family="sans-serif" font-size="18" font-weight="bold" lengthAdjust="spacing" textLength="46.415" x="459.7134" y="66.75">User</text><!--SRC=[TLF1ZjD03BtFL_ZOYfQorrO2fUakMccxcpQmY1FoPfpMT38JPYQD2aNY8_X2lWGdhQ1YnIKpiTzxTfwToD4GP5iC12dy-l4JyZQ1fAuD5nZPMVZW_AuqheLxYag57TiQFLQ0HUGznmDyKm1pB7ORxnghKsUSXqJeD3SDTJddDVbJF8z4vXnVC5REwd-fTxpPnezafEG5w49ZWNxtrXbDrZijaCHxrpwNlt4svloLuEfAVR_eExHS6RHqwlj2DqLDyKn-rzdIAyI3-FCavKH47NDNnXOzIT5Yov6A21F8heygHFHHJQM16bwzl8DLG_u0Xj1RjfkW1b-wmAS_WU5CJHSS2hVlS7c15avSDV246kR92DRh4UJfmmWM2MYFPUn9v7alzRDiakIFazkR5CX6Zan1bTvLmeIv9ERPUZA_kHT6qiIjV5xXNGXZWmVoK65TdzeIZV5hmOxWTCiVfOZY4WPB3a4myDJ8GI60k8DitWmXRid2u41XA4vDryYXSqW6I1hIrKo2nyoxpvqvIxIu8N_iWQw9icGhY0woXydxGBx7TfSUaDZGIdDdYVzQBSXR6sdZKUJmn46heP1niMrefiX8HmFhXegivbAfgVIZcuAW66EdLWbrZ1TBBdp58kgxhPRtFLCRnBjrOw5ocWp8dBWymoMHofJYtnzdAmAkBA4KexCbl81K1YT6FZTYUhr7qtJSJVVeXjtRgthgMUv93YFXcUoLgty3]--></g></svg>