<svg xmlns="http://www.w3.org/2000/svg" xmlns:xlink="http://www.w3.org/1999/xlink" contentStyleType="text/css" data-diagram-type="ACTIVITY" height="2885px" preserveAspectRatio="none" style="width:1090px;height:2885px;background:#FFFFFF;" version="1.1" viewBox="0 0 1090 2885" width="1090px" zoomAndPan="magnify"><title>Sprint Lifecycle &#8212; SDLC Agile ADM Sprint Flow</title><defs/><g><text fill="#000000" font-family="sans-serif" font-size="14" font-weight="bold" lengthAdjust="spacing" textLength="368.5254" x="359.4183" y="32.9951">Sprint Lifecycle &#8212; SDLC Agile ADM Sprint Flow</text><rect fill="none" height="20.9531" style="stroke:none;stroke-width:1;" width="1057.3621" x="15" y="50.042"/><ellipse cx="301.9486" cy="85.9951" fill="#222222" rx="10" ry="10" style="stroke:#222222;stroke-width:1;"/><rect fill="#F0F8FF" height="45.6094" rx="12.5" ry="12.5" style="stroke:#4682B4;stroke-width:0.5;" width="160.0942" x="221.9015" y="115.9951"/><text fill="#000000" font-family="sans-serif" font-size="11" lengthAdjust="spacing" textLength="140.0942" x="231.9015" y="136.2056">Read engagement profile</text><text fill="#000000" font-family="sans-serif" font-size="11" lengthAdjust="spacing" textLength="116.3809" x="231.9015" y="149.0103">and EventStore state</text><rect fill="#F0F8FF" height="45.6094" rx="12.5" ry="12.5" style="stroke:#4682B4;stroke-width:0.5;" width="165.4385" x="219.2294" y="181.6045"/><text fill="#000000" font-family="sans-serif" font-size="11" lengthAdjust="spacing" textLength="145.4385" x="229.2294" y="201.8149">Assess open CQs, pending</text><text fill="#000000" font-family="sans-serif" font-size="11" lengthAdjust="spacing" textLength="137.1724" x="229.2294" y="214.6196">handoffs, gate outcomes</text><rect fill="#F0F8FF" height="45.6094" rx="12.5" ry="12.5" style="stroke:#4682B4;stroke-width:0.5;" width="175.7026" x="214.0973" y="247.2139"/><text fill="#000000" font-family="sans-serif" font-size="11" lengthAdjust="spacing" textLength="155.7026" x="224.0973" y="267.4243">Determine next specialist(s)</text><text fill="#000000" font-family="sans-serif" font-size="11" lengthAdjust="spacing" textLength="109.812" x="224.0973" y="280.229">to invoke (BPR-001)</text><rect fill="#F0F8FF" height="32.8047" rx="12.5" ry="12.5" style="stroke:#4682B4;stroke-width:0.5;" width="169.4883" x="217.2045" y="312.8232"/><text fill="#000000" font-family="sans-serif" font-size="11" lengthAdjust="spacing" textLength="25.0347" x="227.2045" y="333.0337">Emit</text><text fill="#000000" font-family="sans-serif" font-size="11" font-weight="bold" lengthAdjust="spacing" textLength="86.1309" x="255.7357" y="333.0337">sprint.started</text><text fill="#000000" font-family="sans-serif" font-size="11" lengthAdjust="spacing" textLength="31.3296" x="345.3632" y="333.0337">event</text><rect fill="#F0F8FF" height="45.6094" rx="12.5" ry="12.5" style="stroke:#4682B4;stroke-width:0.5;" width="146.8438" x="228.5267" y="409.6279"/><text fill="#000000" font-family="sans-serif" font-size="11" lengthAdjust="spacing" textLength="126.8438" x="238.5267" y="429.8384">Invoke specialist agent</text><text fill="#000000" font-family="sans-serif" font-size="11" lengthAdjust="spacing" textLength="100.563" x="238.5267" y="442.6431">with assigned skill</text><rect fill="#F0F8FF" height="71.2188" rx="12.5" ry="12.5" style="stroke:#4682B4;stroke-width:0.5;" width="142.6221" x="230.6376" y="1145.2217"/><text fill="#000000" font-family="sans-serif" font-size="11" lengthAdjust="spacing" textLength="103.7964" x="240.6376" y="1165.4321">Route algedonic to</text><text fill="#000000" font-family="sans-serif" font-size="11" lengthAdjust="spacing" textLength="98.7207" x="240.6376" y="1178.2368">CSCO and/or User</text><text fill="#000000" font-family="sans-serif" font-size="11" lengthAdjust="spacing" textLength="122.6221" x="240.6376" y="1191.0415">(fast path &#8212; bypasses</text><text fill="#000000" font-family="sans-serif" font-size="11" lengthAdjust="spacing" textLength="109.7744" x="240.6376" y="1203.8462">normal sequencing)</text><rect fill="#F0F8FF" height="45.6094" rx="12.5" ry="12.5" style="stroke:#4682B4;stroke-width:0.5;" width="117.2114" x="243.3429" y="1236.4404"/><text fill="#000000" font-family="sans-serif" font-size="11" lengthAdjust="spacing" textLength="88.9775" x="253.3429" y="1256.6509">Await resolution</text><text fill="#000000" font-family="sans-serif" font-size="11" lengthAdjust="spacing" textLength="97.2114" x="253.3429" y="1269.4556">before continuing</text><rect fill="#F0F8FF" height="32.8047" rx="12.5" ry="12.5" style="stroke:#4682B4;stroke-width:0.5;" width="195.4146" x="204.2413" y="1477.2686"/><text fill="#000000" font-family="sans-serif" font-size="11" lengthAdjust="spacing" textLength="43.5596" x="214.2413" y="1497.479">Receive</text><text fill="#000000" font-family="sans-serif" font-size="11" font-weight="bold" lengthAdjust="spacing" textLength="128.3584" x="261.2975" y="1497.479">specialist.completed</text><polygon fill="#FFFFE0" points="301.9486,365.6279,313.9486,377.6279,301.9486,389.6279,289.9486,377.6279,301.9486,365.6279" style="stroke:#B8860B;stroke-width:0.5;"/><polygon fill="#FFFFE0" points="249.089,1530.0732,354.8082,1530.0732,366.8082,1542.8779,354.8082,1555.6826,249.089,1555.6826,237.089,1542.8779,249.089,1530.0732" style="stroke:#B8860B;stroke-width:0.5;"/><text fill="#000000" font-family="sans-serif" font-size="11" lengthAdjust="spacing" textLength="88.2202" x="249.089" y="1540.2837">More specialists</text><text fill="#000000" font-family="sans-serif" font-size="11" lengthAdjust="spacing" textLength="105.7192" x="249.089" y="1553.0884">needed this sprint?</text><text fill="#000000" font-family="sans-serif" font-size="11" lengthAdjust="spacing" textLength="19.0083" x="366.8082" y="1540.2837">yes</text><rect fill="#F0F8FF" height="45.6094" rx="12.5" ry="12.5" style="stroke:#4682B4;stroke-width:0.5;" width="150.4048" x="226.7462" y="1597.0815"/><text fill="#000000" font-family="sans-serif" font-size="11" lengthAdjust="spacing" textLength="99.4995" x="236.7462" y="1617.292">Collect gate votes</text><text fill="#000000" font-family="sans-serif" font-size="11" lengthAdjust="spacing" textLength="130.4048" x="236.7462" y="1630.0967">from all agents + CSCO</text><polygon fill="#FFFFE0" points="264.641,1662.6909,339.2562,1662.6909,351.2562,1674.6909,339.2562,1686.6909,264.641,1686.6909,252.641,1674.6909,264.641,1662.6909" style="stroke:#B8860B;stroke-width:0.5;"/><text fill="#000000" font-family="sans-serif" font-size="11" lengthAdjust="spacing" textLength="74.6152" x="264.641" y="1678.499">Gate passed?</text><text fill="#000000" font-family="sans-serif" font-size="11" lengthAdjust="spacing" textLength="127.6011" x="125.0399" y="1672.0967">no &#8212; failed or deferred</text><text fill="#000000" font-family="sans-serif" font-size="11" lengthAdjust="spacing" textLength="19.0083" x="351.2562" y="1672.0967">yes</text><path d="M179.7656,1699.3628 L179.7656,1715.4956 L159.7656,1719.4956 L179.7656,1723.4956 L179.7656,1739.6284 A0,0 0 0 0 179.7656,1739.6284 L392.3696,1739.6284 A0,0 0 0 0 392.3696,1739.6284 L392.3696,1709.3628 L382.3696,1699.3628 L179.7656,1699.3628 A0,0 0 0 0 179.7656,1699.3628" fill="#FEFFDD" style="stroke:#181818;stroke-width:0.5;"/><path d="M382.3696,1699.3628 L382.3696,1709.3628 L392.3696,1709.3628 L382.3696,1699.3628" fill="#FEFFDD" style="stroke:#181818;stroke-width:0.5;"/><text fill="#000000" font-family="sans-serif" font-size="13" lengthAdjust="spacing" textLength="139.8198" x="185.7656" y="1716.4297">Deferred &#8594; re-queue;</text><text fill="#000000" font-family="sans-serif" font-size="13" lengthAdjust="spacing" textLength="191.604" x="185.7656" y="1731.5625">Failed &#8594; algedonic escalation</text><rect fill="#F0F8FF" height="45.6094" rx="12.5" ry="12.5" style="stroke:#4682B4;stroke-width:0.5;" width="138.7656" x="21" y="1696.6909"/><text fill="#000000" font-family="sans-serif" font-size="11" lengthAdjust="spacing" textLength="118.7656" x="31" y="1716.9014">Record gate outcome</text><text fill="#000000" font-family="sans-serif" font-size="11" lengthAdjust="spacing" textLength="4.2915" x="31" y="1729.7061">(</text><text fill="#000000" font-family="sans-serif" font-size="11" font-weight="bold" lengthAdjust="spacing" textLength="93.8652" x="35.2915" y="1729.7061">gate.evaluated</text><text fill="#000000" font-family="sans-serif" font-size="11" lengthAdjust="spacing" textLength="4.2915" x="129.1567" y="1729.7061">)</text><ellipse cx="90.3828" cy="1773.3003" fill="none" rx="11" ry="11" style="stroke:#222222;stroke-width:1;"/><ellipse cx="90.3828" cy="1773.3003" fill="#222222" rx="6" ry="6" style="stroke:#222222;stroke-width:1;"/><rect fill="#F0F8FF" height="45.6094" rx="12.5" ry="12.5" style="stroke:#4682B4;stroke-width:0.5;" width="174.1182" x="426.4553" y="1696.6909"/><text fill="#000000" font-family="sans-serif" font-size="11" lengthAdjust="spacing" textLength="25.0347" x="436.4553" y="1716.9014">Emit</text><text fill="#000000" font-family="sans-serif" font-size="11" font-weight="bold" lengthAdjust="spacing" textLength="117.3208" x="464.9866" y="1716.9014">phase.transitioned</text><text fill="#000000" font-family="sans-serif" font-size="11" lengthAdjust="spacing" textLength="154.1182" x="436.4553" y="1729.7061">(if phase boundary crossed)</text><rect fill="#F0F8FF" height="45.6094" rx="12.5" ry="12.5" style="stroke:#4682B4;stroke-width:0.5;" width="202.2896" x="412.3696" y="1762.3003"/><text fill="#000000" font-family="sans-serif" font-size="11" lengthAdjust="spacing" textLength="182.2896" x="422.3696" y="1782.5107">Trigger Sprint Review Interaction</text><text fill="#000000" font-family="sans-serif" font-size="11" lengthAdjust="spacing" textLength="51.8633" x="422.3696" y="1795.3154">(BIA-001)</text><rect fill="#F0F8FF" height="32.8047" rx="12.5" ry="12.5" style="stroke:#4682B4;stroke-width:0.5;" width="156.8501" x="223.5236" y="1959.1284"/><text fill="#000000" font-family="sans-serif" font-size="11" lengthAdjust="spacing" textLength="136.8501" x="233.5236" y="1979.3389">Process review decisions</text><rect fill="#F0F8FF" height="45.6094" rx="12.5" ry="12.5" style="stroke:#4682B4;stroke-width:0.5;" width="169.2896" x="217.3038" y="2105.9448"/><text fill="#000000" font-family="sans-serif" font-size="11" lengthAdjust="spacing" textLength="122.9873" x="227.3038" y="2126.1553">Create handoff events</text><text fill="#000000" font-family="sans-serif" font-size="11" lengthAdjust="spacing" textLength="149.2896" x="227.3038" y="2138.96">to tagged specialist agents</text><rect fill="#F0F8FF" height="45.6094" rx="12.5" ry="12.5" style="stroke:#4682B4;stroke-width:0.5;" width="111.3999" x="246.2487" y="2448.9917"/><text fill="#000000" font-family="sans-serif" font-size="11" lengthAdjust="spacing" textLength="91.3999" x="256.2487" y="2469.2021">Process updated</text><text fill="#000000" font-family="sans-serif" font-size="11" lengthAdjust="spacing" textLength="91.1904" x="256.2487" y="2482.0068">review decisions</text><polygon fill="#FFFFE0" points="245.6219,2055.9331,358.2753,2055.9331,370.2753,2068.7378,358.2753,2081.5425,245.6219,2081.5425,233.6219,2068.7378,245.6219,2055.9331" style="stroke:#B8860B;stroke-width:0.5;"/><text fill="#000000" font-family="sans-serif" font-size="11" lengthAdjust="spacing" textLength="19.0083" x="305.9486" y="2091.7529">yes</text><text fill="#000000" font-family="sans-serif" font-size="11" lengthAdjust="spacing" textLength="86.0718" x="245.6219" y="2066.1436">Any items need</text><text fill="#000000" font-family="sans-serif" font-size="11" lengthAdjust="spacing" textLength="112.6533" x="245.6219" y="2078.9482">revision or rejected?</text><text fill="#000000" font-family="sans-serif" font-size="11" lengthAdjust="spacing" textLength="13.7017" x="219.9203" y="2066.1436">no</text><polygon fill="#FFFFE0" points="301.9486,2514.6011,313.9486,2526.6011,301.9486,2538.6011,289.9486,2526.6011,301.9486,2514.6011" style="stroke:#B8860B;stroke-width:0.5;"/><polygon fill="#FFFFE0" points="301.9486,2011.9331,313.9486,2023.9331,301.9486,2035.9331,289.9486,2023.9331,301.9486,2011.9331" style="stroke:#B8860B;stroke-width:0.5;"/><polygon fill="#FFFFE0" points="250.1417,2558.6011,353.7555,2558.6011,365.7555,2571.4058,353.7555,2584.2104,250.1417,2584.2104,238.1417,2571.4058,250.1417,2558.6011" style="stroke:#B8860B;stroke-width:0.5;"/><text fill="#000000" font-family="sans-serif" font-size="11" lengthAdjust="spacing" textLength="62.4712" x="250.1417" y="2568.8115">All artifacts</text><text fill="#000000" font-family="sans-serif" font-size="11" lengthAdjust="spacing" textLength="103.6138" x="250.1417" y="2581.6162">approved by User?</text><text fill="#000000" font-family="sans-serif" font-size="11" lengthAdjust="spacing" textLength="13.7017" x="365.7555" y="2568.8115">no</text><rect fill="#F0F8FF" height="32.8047" rx="12.5" ry="12.5" style="stroke:#4682B4;stroke-width:0.5;" width="156.0981" x="223.8995" y="2625.6094"/><text fill="#000000" font-family="sans-serif" font-size="11" lengthAdjust="spacing" textLength="25.0347" x="233.8995" y="2645.8198">Emit</text><text fill="#000000" font-family="sans-serif" font-size="11" font-weight="bold" lengthAdjust="spacing" textLength="72.7407" x="262.4308" y="2645.8198">sprint.close</text><text fill="#000000" font-family="sans-serif" font-size="11" lengthAdjust="spacing" textLength="31.3296" x="338.6681" y="2645.8198">event</text><rect fill="#F0F8FF" height="32.8047" rx="12.5" ry="12.5" style="stroke:#4682B4;stroke-width:0.5;" width="177.835" x="213.0311" y="2678.4141"/><text fill="#000000" font-family="sans-serif" font-size="11" lengthAdjust="spacing" textLength="157.835" x="223.0311" y="2698.6245">Create sprint-close snapshot</text><polygon fill="#FFFFE0" points="266.8673,2731.2188,337.0299,2731.2188,349.0299,2744.0234,337.0299,2756.8281,266.8673,2756.8281,254.8673,2744.0234,266.8673,2731.2188" style="stroke:#B8860B;stroke-width:0.5;"/><text fill="#000000" font-family="sans-serif" font-size="11" lengthAdjust="spacing" textLength="70.1626" x="266.8673" y="2741.4292">Engagement</text><text fill="#000000" font-family="sans-serif" font-size="11" lengthAdjust="spacing" textLength="57.2183" x="266.8673" y="2754.2339">complete?</text><text fill="#000000" font-family="sans-serif" font-size="11" lengthAdjust="spacing" textLength="19.0083" x="235.859" y="2741.4292">yes</text><text fill="#000000" font-family="sans-serif" font-size="11" lengthAdjust="spacing" textLength="13.7017" x="349.0299" y="2741.4292">no</text><rect fill="#F0F8FF" height="32.8047" rx="12.5" ry="12.5" style="stroke:#4682B4;stroke-width:0.5;" width="195.8818" x="104.6162" y="2766.8281"/><text fill="#000000" font-family="sans-serif" font-size="11" lengthAdjust="spacing" textLength="25.0347" x="114.6162" y="2787.0386">Emit</text><text fill="#000000" font-family="sans-serif" font-size="11" font-weight="bold" lengthAdjust="spacing" textLength="147.3506" x="143.1475" y="2787.0386">engagement.completed</text><ellipse cx="202.5571" cy="2843.4375" fill="none" rx="11" ry="11" style="stroke:#222222;stroke-width:1;"/><ellipse cx="202.5571" cy="2843.4375" fill="#222222" rx="6" ry="6" style="stroke:#222222;stroke-width:1;"/><path d="M502.1821,2769.5 L502.1821,2785.6328 L482.1821,2789.6328 L502.1821,2793.6328 L502.1821,2809.7656 A0,0 0 0 0 502.1821,2809.7656 L621.0439,2809.7656 A0,0 0 0 0 621.0439,2809.7656 L621.0439,2779.5 L611.0439,2769.5 L502.1821,2769.5 A0,0 0 0 0 502.1821,2769.5" fill="#FEFFDD" style="stroke:#181818;stroke-width:0.5;"/><path d="M611.0439,2769.5 L611.0439,2779.5 L621.0439,2779.5 L611.0439,2769.5" fill="#FEFFDD" style="stroke:#181818;stroke-width:0.5;"/><text fill="#000000" font-family="sans-serif" font-size="13" lengthAdjust="spacing" textLength="83.6113" x="508.1821" y="2786.5669">Loop back to</text><text fill="#000000" font-family="sans-serif" font-size="13" lengthAdjust="spacing" textLength="97.8618" x="508.1821" y="2801.6997">sprint planning</text><rect fill="#F0F8FF" height="45.6094" rx="12.5" ry="12.5" style="stroke:#4682B4;stroke-width:0.5;" width="161.6841" x="320.498" y="2766.8281"/><text fill="#000000" font-family="sans-serif" font-size="11" lengthAdjust="spacing" textLength="94.4561" x="330.498" y="2787.0386">Begin next sprint</text><text fill="#000000" font-family="sans-serif" font-size="11" lengthAdjust="spacing" textLength="141.6841" x="330.498" y="2799.8433">(or resume when paused)</text><ellipse cx="401.3401" cy="2856.2422" fill="none" rx="11" ry="11" style="stroke:#222222;stroke-width:1;"/><ellipse cx="401.3401" cy="2856.2422" fill="#222222" rx="6" ry="6" style="stroke:#222222;stroke-width:1;"/><line style="stroke:#5F9EA0;stroke-width:1.5;" x1="15" x2="15" y1="50.042" y2="2873.2422"/><rect fill="#F0F8FF" height="45.6094" rx="12.5" ry="12.5" style="stroke:#4682B4;stroke-width:0.5;" width="174.5049" x="649.7722" y="475.2373"/><text fill="#000000" font-family="sans-serif" font-size="11" lengthAdjust="spacing" textLength="129.9536" x="659.7722" y="495.4478">Retrieve prior learnings</text><text fill="#000000" font-family="sans-serif" font-size="11" lengthAdjust="spacing" textLength="154.5049" x="659.7722" y="508.2524">(Step 0.L via LearningStore)</text><rect fill="#F0F8FF" height="45.6094" rx="12.5" ry="12.5" style="stroke:#4682B4;stroke-width:0.5;" width="152.4082" x="660.8206" y="540.8467"/><text fill="#000000" font-family="sans-serif" font-size="11" lengthAdjust="spacing" textLength="132.4082" x="670.8206" y="561.0571">Execute Discovery Scan</text><text fill="#000000" font-family="sans-serif" font-size="11" lengthAdjust="spacing" textLength="89.6812" x="670.8206" y="573.8618">(5-layer, Step 0)</text><rect fill="#F0F8FF" height="45.6094" rx="12.5" ry="12.5" style="stroke:#4682B4;stroke-width:0.5;" width="162.9087" x="655.5703" y="606.4561"/><text fill="#000000" font-family="sans-serif" font-size="11" lengthAdjust="spacing" textLength="102.1152" x="665.5703" y="626.6665">Execute skill steps</text><text fill="#000000" font-family="sans-serif" font-size="11" lengthAdjust="spacing" textLength="142.9087" x="665.5703" y="639.4712">(BPR-002: Skill Execution)</text><rect fill="#F0F8FF" height="45.6094" rx="12.5" ry="12.5" style="stroke:#4682B4;stroke-width:0.5;" width="119.2793" x="677.385" y="720.4678"/><text fill="#000000" font-family="sans-serif" font-size="11" lengthAdjust="spacing" textLength="99.2793" x="687.385" y="740.6782">Raise Clarification</text><text fill="#000000" font-family="sans-serif" font-size="11" lengthAdjust="spacing" textLength="73.5947" x="687.385" y="753.4829">Request (CQ)</text><rect fill="#F0F8FF" height="45.6094" rx="12.5" ry="12.5" style="stroke:#4682B4;stroke-width:0.5;" width="118.4038" x="677.8228" y="915.5889"/><text fill="#000000" font-family="sans-serif" font-size="11" lengthAdjust="spacing" textLength="96.1963" x="687.8228" y="935.7993">Resume skill with</text><text fill="#000000" font-family="sans-serif" font-size="11" lengthAdjust="spacing" textLength="98.4038" x="687.8228" y="948.604">answer in context</text><polygon fill="#FFFFE0" points="674.2581,672.0654,799.7913,672.0654,811.7913,684.0654,799.7913,696.0654,674.2581,696.0654,662.2581,684.0654,674.2581,672.0654" style="stroke:#B8860B;stroke-width:0.5;"/><text fill="#000000" font-family="sans-serif" font-size="11" lengthAdjust="spacing" textLength="19.0083" x="741.0247" y="706.2759">yes</text><text fill="#000000" font-family="sans-serif" font-size="11" lengthAdjust="spacing" textLength="125.5332" x="674.2581" y="687.8735">Knowledge gap found?</text><text fill="#000000" font-family="sans-serif" font-size="11" lengthAdjust="spacing" textLength="13.7017" x="648.5564" y="681.4712">no</text><polygon fill="#FFFFE0" points="737.0247,985.6006,749.0247,997.6006,737.0247,1009.6006,725.0247,997.6006,737.0247,985.6006" style="stroke:#B8860B;stroke-width:0.5;"/><rect fill="#F0F8FF" height="45.6094" rx="12.5" ry="12.5" style="stroke:#4682B4;stroke-width:0.5;" width="149.6582" x="662.1956" y="1079.6123"/><text fill="#000000" font-family="sans-serif" font-size="11" lengthAdjust="spacing" textLength="25.0347" x="672.1956" y="1099.8228">Emit</text><text fill="#000000" font-family="sans-serif" font-size="11" font-weight="bold" lengthAdjust="spacing" textLength="101.127" x="700.7268" y="1099.8228">algedonic signal</text><text fill="#000000" font-family="sans-serif" font-size="11" lengthAdjust="spacing" textLength="55.3706" x="672.1956" y="1112.6274">(BPR-005)</text><polygon fill="#FFFFE0" points="677.478,1029.6006,796.5713,1029.6006,808.5713,1042.4053,796.5713,1055.21,677.478,1055.21,665.478,1042.4053,677.478,1029.6006" style="stroke:#B8860B;stroke-width:0.5;"/><text fill="#000000" font-family="sans-serif" font-size="11" lengthAdjust="spacing" textLength="19.0083" x="741.0247" y="1065.4204">yes</text><text fill="#000000" font-family="sans-serif" font-size="11" lengthAdjust="spacing" textLength="119.0933" x="677.478" y="1039.811">Safety or time-critical</text><text fill="#000000" font-family="sans-serif" font-size="11" lengthAdjust="spacing" textLength="109.1353" x="677.478" y="1052.6157">condition detected?</text><text fill="#000000" font-family="sans-serif" font-size="11" lengthAdjust="spacing" textLength="13.7017" x="808.5713" y="1039.811">no</text><polygon fill="#FFFFE0" points="737.0247,1302.0498,749.0247,1314.0498,737.0247,1326.0498,725.0247,1314.0498,737.0247,1302.0498" style="stroke:#B8860B;stroke-width:0.5;"/><rect fill="#F0F8FF" height="45.6094" rx="12.5" ry="12.5" style="stroke:#4682B4;stroke-width:0.5;" width="191.6226" x="641.2134" y="1346.0498"/><text fill="#000000" font-family="sans-serif" font-size="11" lengthAdjust="spacing" textLength="126.731" x="651.2134" y="1366.2603">Write output artifact(s)</text><text fill="#000000" font-family="sans-serif" font-size="11" lengthAdjust="spacing" textLength="171.6226" x="651.2134" y="1379.0649">(emit artifact.created/updated)</text><rect fill="#F0F8FF" height="45.6094" rx="12.5" ry="12.5" style="stroke:#4682B4;stroke-width:0.5;" width="152.2793" x="660.885" y="1411.6592"/><text fill="#000000" font-family="sans-serif" font-size="11" lengthAdjust="spacing" textLength="132.2793" x="670.885" y="1431.8696">Generate LearningEntry</text><text fill="#000000" font-family="sans-serif" font-size="11" lengthAdjust="spacing" textLength="113.0454" x="670.885" y="1444.6743">if feedback occurred</text><rect fill="#F0F8FF" height="45.6094" rx="12.5" ry="12.5" style="stroke:#4682B4;stroke-width:0.5;" width="130.0537" x="671.9978" y="2171.5542"/><text fill="#000000" font-family="sans-serif" font-size="11" lengthAdjust="spacing" textLength="101.3472" x="681.9978" y="2191.7646">Revise artifact per</text><text fill="#000000" font-family="sans-serif" font-size="11" lengthAdjust="spacing" textLength="110.0537" x="681.9978" y="2204.5693">handoff instructions</text><rect fill="#F0F8FF" height="45.6094" rx="12.5" ry="12.5" style="stroke:#4682B4;stroke-width:0.5;" width="145.7749" x="664.1372" y="2237.1636"/><text fill="#000000" font-family="sans-serif" font-size="11" lengthAdjust="spacing" textLength="116.4722" x="674.1372" y="2257.374">Write revised artifact</text><text fill="#000000" font-family="sans-serif" font-size="11" lengthAdjust="spacing" textLength="125.7749" x="674.1372" y="2270.1787">(emit artifact.updated)</text><line style="stroke:#5F9EA0;stroke-width:1.5;" x1="626.0439" x2="626.0439" y1="50.042" y2="2873.2422"/><rect fill="#F0F8FF" height="32.8047" rx="12.5" ry="12.5" style="stroke:#4682B4;stroke-width:0.5;" width="163.9614" x="874.5605" y="786.0771"/><text fill="#000000" font-family="sans-serif" font-size="11" lengthAdjust="spacing" textLength="143.9614" x="884.5605" y="806.2876">Receive CQ on Dashboard</text><rect fill="#F0F8FF" height="45.6094" rx="12.5" ry="12.5" style="stroke:#4682B4;stroke-width:0.5;" width="143.938" x="884.5723" y="849.9795"/><text fill="#000000" font-family="sans-serif" font-size="11" lengthAdjust="spacing" textLength="84.4282" x="894.5723" y="870.1899">Provide answer</text><text fill="#000000" font-family="sans-serif" font-size="11" lengthAdjust="spacing" textLength="123.938" x="894.5723" y="882.9946">(optionally upload file)</text><rect fill="#F0F8FF" height="45.6094" rx="12.5" ry="12.5" style="stroke:#4682B4;stroke-width:0.5;" width="141.7358" x="885.6733" y="1827.9097"/><text fill="#000000" font-family="sans-serif" font-size="11" lengthAdjust="spacing" textLength="121.7358" x="895.6733" y="1848.1201">Receive sprint artifact</text><text fill="#000000" font-family="sans-serif" font-size="11" lengthAdjust="spacing" textLength="96.7227" x="895.6733" y="1860.9248">list on Dashboard</text><rect fill="#F0F8FF" height="45.6094" rx="12.5" ry="12.5" style="stroke:#4682B4;stroke-width:0.5;" width="219.375" x="846.8538" y="1893.519"/><text fill="#000000" font-family="sans-serif" font-size="11" lengthAdjust="spacing" textLength="116.5742" x="856.8538" y="1913.7295">Review each artifact:</text><text fill="#000000" font-family="sans-serif" font-size="11" lengthAdjust="spacing" textLength="199.375" x="856.8538" y="1926.5342">approved / needs-revision / rejected</text><rect fill="#F0F8FF" height="45.6094" rx="12.5" ry="12.5" style="stroke:#4682B4;stroke-width:0.5;" width="145.9038" x="883.5894" y="2317.7729"/><text fill="#000000" font-family="sans-serif" font-size="11" lengthAdjust="spacing" textLength="98.8335" x="893.5894" y="2337.9834">Re-review revised</text><text fill="#000000" font-family="sans-serif" font-size="11" lengthAdjust="spacing" textLength="125.9038" x="893.5894" y="2350.7881">artifacts on Dashboard</text><rect fill="#F0F8FF" height="45.6094" rx="12.5" ry="12.5" style="stroke:#4682B4;stroke-width:0.5;" width="199.1636" x="856.9595" y="2383.3823"/><text fill="#000000" font-family="sans-serif" font-size="11" lengthAdjust="spacing" textLength="179.1636" x="866.9595" y="2403.5928">Approve / needs-further-revision</text><text fill="#000000" font-family="sans-serif" font-size="11" lengthAdjust="spacing" textLength="52.4272" x="866.9595" y="2416.3975">/ rejected</text><line style="stroke:#5F9EA0;stroke-width:1.5;" x1="840.8538" x2="840.8538" y1="50.042" y2="2873.2422"/><line style="stroke:#5F9EA0;stroke-width:1.5;" x1="1070.2288" x2="1070.2288" y1="50.042" y2="2873.2422"/><line style="stroke:#4682B4;stroke-width:1;" x1="301.9486" x2="301.9486" y1="95.9951" y2="115.9951"/><polygon fill="#4682B4" points="297.9486,105.9951,301.9486,115.9951,305.9486,105.9951,301.9486,109.9951" style="stroke:#4682B4;stroke-width:1;"/><line style="stroke:#4682B4;stroke-width:1;" x1="301.9486" x2="301.9486" y1="161.6045" y2="181.6045"/><polygon fill="#4682B4" points="297.9486,171.6045,301.9486,181.6045,305.9486,171.6045,301.9486,175.6045" style="stroke:#4682B4;stroke-width:1;"/><line style="stroke:#4682B4;stroke-width:1;" x1="301.9486" x2="301.9486" y1="227.2139" y2="247.2139"/><polygon fill="#4682B4" points="297.9486,237.2139,301.9486,247.2139,305.9486,237.2139,301.9486,241.2139" style="stroke:#4682B4;stroke-width:1;"/><line style="stroke:#4682B4;stroke-width:1;" x1="301.9486" x2="301.9486" y1="292.8232" y2="312.8232"/><polygon fill="#4682B4" points="297.9486,302.8232,301.9486,312.8232,305.9486,302.8232,301.9486,306.8232" style="stroke:#4682B4;stroke-width:1;"/><line style="stroke:#4682B4;stroke-width:1;" x1="301.9486" x2="301.9486" y1="1216.4404" y2="1236.4404"/><polygon fill="#4682B4" points="297.9486,1226.4404,301.9486,1236.4404,305.9486,1226.4404,301.9486,1230.4404" style="stroke:#4682B4;stroke-width:1;"/><line style="stroke:#4682B4;stroke-width:1;" x1="301.9486" x2="301.9486" y1="389.6279" y2="409.6279"/><polygon fill="#4682B4" points="297.9486,399.6279,301.9486,409.6279,305.9486,399.6279,301.9486,403.6279" style="stroke:#4682B4;stroke-width:1;"/><line style="stroke:#4682B4;stroke-width:1;" x1="237.089" x2="192.2413" y1="1542.8779" y2="1542.8779"/><polygon fill="#4682B4" points="188.2413,970.5029,192.2413,960.5029,196.2413,970.5029,192.2413,966.5029" style="stroke:#4682B4;stroke-width:1;"/><line style="stroke:#4682B4;stroke-width:1;" x1="192.2413" x2="192.2413" y1="377.6279" y2="1542.8779"/><line style="stroke:#4682B4;stroke-width:1;" x1="192.2413" x2="289.9486" y1="377.6279" y2="377.6279"/><polygon fill="#4682B4" points="279.9486,373.6279,289.9486,377.6279,279.9486,381.6279,283.9486,377.6279" style="stroke:#4682B4;stroke-width:1;"/><line style="stroke:#4682B4;stroke-width:1;" x1="301.9486" x2="301.9486" y1="1510.0732" y2="1530.0732"/><polygon fill="#4682B4" points="297.9486,1520.0732,301.9486,1530.0732,305.9486,1520.0732,301.9486,1524.0732" style="stroke:#4682B4;stroke-width:1;"/><line style="stroke:#4682B4;stroke-width:1;" x1="301.9486" x2="301.9486" y1="345.6279" y2="365.6279"/><polygon fill="#4682B4" points="297.9486,355.6279,301.9486,365.6279,305.9486,355.6279,301.9486,359.6279" style="stroke:#4682B4;stroke-width:1;"/><line style="stroke:#4682B4;stroke-width:1;" x1="301.9486" x2="301.9486" y1="1555.6826" y2="1597.0815"/><polygon fill="#4682B4" points="297.9486,1587.0815,301.9486,1597.0815,305.9486,1587.0815,301.9486,1591.0815" style="stroke:#4682B4;stroke-width:1;"/><text fill="#000000" font-family="sans-serif" font-size="11" lengthAdjust="spacing" textLength="13.7017" x="305.9486" y="1576.9873">no</text><line style="stroke:#4682B4;stroke-width:1;" x1="90.3828" x2="90.3828" y1="1742.3003" y2="1762.3003"/><polygon fill="#4682B4" points="86.3828,1752.3003,90.3828,1762.3003,94.3828,1752.3003,90.3828,1756.3003" style="stroke:#4682B4;stroke-width:1;"/><line style="stroke:#4682B4;stroke-width:1;" x1="513.5144" x2="513.5144" y1="1742.3003" y2="1762.3003"/><polygon fill="#4682B4" points="509.5144,1752.3003,513.5144,1762.3003,517.5144,1752.3003,513.5144,1756.3003" style="stroke:#4682B4;stroke-width:1;"/><line style="stroke:#4682B4;stroke-width:1;" x1="252.641" x2="90.3828" y1="1674.6909" y2="1674.6909"/><line style="stroke:#4682B4;stroke-width:1;" x1="90.3828" x2="90.3828" y1="1674.6909" y2="1696.6909"/><polygon fill="#4682B4" points="86.3828,1686.6909,90.3828,1696.6909,94.3828,1686.6909,90.3828,1690.6909" style="stroke:#4682B4;stroke-width:1;"/><line style="stroke:#4682B4;stroke-width:1;" x1="351.2562" x2="513.5144" y1="1674.6909" y2="1674.6909"/><line style="stroke:#4682B4;stroke-width:1;" x1="513.5144" x2="513.5144" y1="1674.6909" y2="1696.6909"/><polygon fill="#4682B4" points="509.5144,1686.6909,513.5144,1696.6909,517.5144,1686.6909,513.5144,1690.6909" style="stroke:#4682B4;stroke-width:1;"/><line style="stroke:#4682B4;stroke-width:1;" x1="513.5144" x2="513.5144" y1="1807.9097" y2="1812.9097"/><line style="stroke:#4682B4;stroke-width:1;" x1="513.5144" x2="956.5413" y1="1812.9097" y2="1812.9097"/><line style="stroke:#4682B4;stroke-width:1;" x1="956.5413" x2="956.5413" y1="1812.9097" y2="1827.9097"/><polygon fill="#4682B4" points="952.5413,1817.9097,956.5413,1827.9097,960.5413,1817.9097,956.5413,1821.9097" style="stroke:#4682B4;stroke-width:1;"/><line style="stroke:#4682B4;stroke-width:1;" x1="301.9486" x2="301.9486" y1="1642.6909" y2="1662.6909"/><polygon fill="#4682B4" points="297.9486,1652.6909,301.9486,1662.6909,305.9486,1652.6909,301.9486,1656.6909" style="stroke:#4682B4;stroke-width:1;"/><line style="stroke:#4682B4;stroke-width:1;" x1="301.9486" x2="301.9486" y1="2081.5425" y2="2105.9448"/><polygon fill="#4682B4" points="297.9486,2095.9448,301.9486,2105.9448,305.9486,2095.9448,301.9486,2099.9448" style="stroke:#4682B4;stroke-width:1;"/><line style="stroke:#4682B4;stroke-width:1;" x1="233.6219" x2="192.3668" y1="2068.7378" y2="2068.7378"/><polygon fill="#4682B4" points="188.3668,2289.8706,192.3668,2299.8706,196.3668,2289.8706,192.3668,2293.8706" style="stroke:#4682B4;stroke-width:1;"/><line style="stroke:#4682B4;stroke-width:1;" x1="192.3668" x2="192.3668" y1="2068.7378" y2="2526.6011"/><line style="stroke:#4682B4;stroke-width:1;" x1="192.3668" x2="289.9486" y1="2526.6011" y2="2526.6011"/><polygon fill="#4682B4" points="279.9486,2522.6011,289.9486,2526.6011,279.9486,2530.6011,283.9486,2526.6011" style="stroke:#4682B4;stroke-width:1;"/><line style="stroke:#4682B4;stroke-width:1;" x1="301.9486" x2="301.9486" y1="2494.6011" y2="2514.6011"/><polygon fill="#4682B4" points="297.9486,2504.6011,301.9486,2514.6011,305.9486,2504.6011,301.9486,2508.6011" style="stroke:#4682B4;stroke-width:1;"/><line style="stroke:#4682B4;stroke-width:1;" x1="301.9486" x2="301.9486" y1="2035.9331" y2="2055.9331"/><polygon fill="#4682B4" points="297.9486,2045.9331,301.9486,2055.9331,305.9486,2045.9331,301.9486,2049.9331" style="stroke:#4682B4;stroke-width:1;"/><line style="stroke:#4682B4;stroke-width:1;" x1="238.1417" x2="180.3668" y1="2571.4058" y2="2571.4058"/><polygon fill="#4682B4" points="176.3668,2309.8706,180.3668,2299.8706,184.3668,2309.8706,180.3668,2305.8706" style="stroke:#4682B4;stroke-width:1;"/><line style="stroke:#4682B4;stroke-width:1;" x1="180.3668" x2="180.3668" y1="2023.9331" y2="2571.4058"/><line style="stroke:#4682B4;stroke-width:1;" x1="180.3668" x2="289.9486" y1="2023.9331" y2="2023.9331"/><polygon fill="#4682B4" points="279.9486,2019.9331,289.9486,2023.9331,279.9486,2027.9331,283.9486,2023.9331" style="stroke:#4682B4;stroke-width:1;"/><line style="stroke:#4682B4;stroke-width:1;" x1="301.9486" x2="301.9486" y1="2538.6011" y2="2558.6011"/><polygon fill="#4682B4" points="297.9486,2548.6011,301.9486,2558.6011,305.9486,2548.6011,301.9486,2552.6011" style="stroke:#4682B4;stroke-width:1;"/><line style="stroke:#4682B4;stroke-width:1;" x1="301.9486" x2="301.9486" y1="1991.9331" y2="2011.9331"/><polygon fill="#4682B4" points="297.9486,2001.9331,301.9486,2011.9331,305.9486,2001.9331,301.9486,2005.9331" style="stroke:#4682B4;stroke-width:1;"/><line style="stroke:#4682B4;stroke-width:1;" x1="301.9486" x2="301.9486" y1="2584.2104" y2="2625.6094"/><polygon fill="#4682B4" points="297.9486,2615.6094,301.9486,2625.6094,305.9486,2615.6094,301.9486,2619.6094" style="stroke:#4682B4;stroke-width:1;"/><text fill="#000000" font-family="sans-serif" font-size="11" lengthAdjust="spacing" textLength="118.3789" x="305.9486" y="2605.5151">yes (sprint approved)</text><line style="stroke:#4682B4;stroke-width:1;" x1="301.9486" x2="301.9486" y1="2658.4141" y2="2678.4141"/><polygon fill="#4682B4" points="297.9486,2668.4141,301.9486,2678.4141,305.9486,2668.4141,301.9486,2672.4141" style="stroke:#4682B4;stroke-width:1;"/><line style="stroke:#4682B4;stroke-width:1;" x1="202.5571" x2="202.5571" y1="2799.6328" y2="2832.4375"/><polygon fill="#4682B4" points="198.5571,2822.4375,202.5571,2832.4375,206.5571,2822.4375,202.5571,2826.4375" style="stroke:#4682B4;stroke-width:1;"/><line style="stroke:#4682B4;stroke-width:1;" x1="401.3401" x2="401.3401" y1="2812.4375" y2="2845.2422"/><polygon fill="#4682B4" points="397.3401,2835.2422,401.3401,2845.2422,405.3401,2835.2422,401.3401,2839.2422" style="stroke:#4682B4;stroke-width:1;"/><line style="stroke:#4682B4;stroke-width:1;" x1="254.8673" x2="202.5571" y1="2744.0234" y2="2744.0234"/><line style="stroke:#4682B4;stroke-width:1;" x1="202.5571" x2="202.5571" y1="2744.0234" y2="2766.8281"/><polygon fill="#4682B4" points="198.5571,2756.8281,202.5571,2766.8281,206.5571,2756.8281,202.5571,2760.8281" style="stroke:#4682B4;stroke-width:1;"/><line style="stroke:#4682B4;stroke-width:1;" x1="349.0299" x2="401.3401" y1="2744.0234" y2="2744.0234"/><line style="stroke:#4682B4;stroke-width:1;" x1="401.3401" x2="401.3401" y1="2744.0234" y2="2766.8281"/><polygon fill="#4682B4" points="397.3401,2756.8281,401.3401,2766.8281,405.3401,2756.8281,401.3401,2760.8281" style="stroke:#4682B4;stroke-width:1;"/><line style="stroke:#4682B4;stroke-width:1;" x1="301.9486" x2="301.9486" y1="2711.2188" y2="2731.2188"/><polygon fill="#4682B4" points="297.9486,2721.2188,301.9486,2731.2188,305.9486,2721.2188,301.9486,2725.2188" style="stroke:#4682B4;stroke-width:1;"/><line style="stroke:#4682B4;stroke-width:1;" x1="737.0247" x2="737.0247" y1="520.8467" y2="540.8467"/><polygon fill="#4682B4" points="733.0247,530.8467,737.0247,540.8467,741.0247,530.8467,737.0247,534.8467" style="stroke:#4682B4;stroke-width:1;"/><line style="stroke:#4682B4;stroke-width:1;" x1="737.0247" x2="737.0247" y1="586.4561" y2="606.4561"/><polygon fill="#4682B4" points="733.0247,596.4561,737.0247,606.4561,741.0247,596.4561,737.0247,600.4561" style="stroke:#4682B4;stroke-width:1;"/><line style="stroke:#4682B4;stroke-width:1;" x1="737.0247" x2="737.0247" y1="696.0654" y2="720.4678"/><polygon fill="#4682B4" points="733.0247,710.4678,737.0247,720.4678,741.0247,710.4678,737.0247,714.4678" style="stroke:#4682B4;stroke-width:1;"/><line style="stroke:#4682B4;stroke-width:1;" x1="662.2581" x2="645.0439" y1="684.0654" y2="684.0654"/><polygon fill="#4682B4" points="641.0439,828.8818,645.0439,838.8818,649.0439,828.8818,645.0439,832.8818" style="stroke:#4682B4;stroke-width:1;"/><line style="stroke:#4682B4;stroke-width:1;" x1="645.0439" x2="645.0439" y1="684.0654" y2="997.6006"/><line style="stroke:#4682B4;stroke-width:1;" x1="645.0439" x2="725.0247" y1="997.6006" y2="997.6006"/><polygon fill="#4682B4" points="715.0247,993.6006,725.0247,997.6006,715.0247,1001.6006,719.0247,997.6006" style="stroke:#4682B4;stroke-width:1;"/><line style="stroke:#4682B4;stroke-width:1;" x1="737.0247" x2="737.0247" y1="961.1982" y2="985.6006"/><polygon fill="#4682B4" points="733.0247,975.6006,737.0247,985.6006,741.0247,975.6006,737.0247,979.6006" style="stroke:#4682B4;stroke-width:1;"/><line style="stroke:#4682B4;stroke-width:1;" x1="737.0247" x2="737.0247" y1="652.0654" y2="672.0654"/><polygon fill="#4682B4" points="733.0247,662.0654,737.0247,672.0654,741.0247,662.0654,737.0247,666.0654" style="stroke:#4682B4;stroke-width:1;"/><line style="stroke:#4682B4;stroke-width:1;" x1="737.0247" x2="737.0247" y1="1055.21" y2="1079.6123"/><polygon fill="#4682B4" points="733.0247,1069.6123,737.0247,1079.6123,741.0247,1069.6123,737.0247,1073.6123" style="stroke:#4682B4;stroke-width:1;"/><line style="stroke:#4682B4;stroke-width:1;" x1="808.5713" x2="821.8538" y1="1042.4053" y2="1042.4053"/><polygon fill="#4682B4" points="817.8538,1170.4287,821.8538,1180.4287,825.8538,1170.4287,821.8538,1174.4287" style="stroke:#4682B4;stroke-width:1;"/><line style="stroke:#4682B4;stroke-width:1;" x1="821.8538" x2="821.8538" y1="1042.4053" y2="1314.0498"/><line style="stroke:#4682B4;stroke-width:1;" x1="821.8538" x2="749.0247" y1="1314.0498" y2="1314.0498"/><polygon fill="#4682B4" points="759.0247,1310.0498,749.0247,1314.0498,759.0247,1318.0498,755.0247,1314.0498" style="stroke:#4682B4;stroke-width:1;"/><line style="stroke:#4682B4;stroke-width:1;" x1="737.0247" x2="737.0247" y1="1009.6006" y2="1029.6006"/><polygon fill="#4682B4" points="733.0247,1019.6006,737.0247,1029.6006,741.0247,1019.6006,737.0247,1023.6006" style="stroke:#4682B4;stroke-width:1;"/><line style="stroke:#4682B4;stroke-width:1;" x1="737.0247" x2="737.0247" y1="1326.0498" y2="1346.0498"/><polygon fill="#4682B4" points="733.0247,1336.0498,737.0247,1346.0498,741.0247,1336.0498,737.0247,1340.0498" style="stroke:#4682B4;stroke-width:1;"/><line style="stroke:#4682B4;stroke-width:1;" x1="737.0247" x2="737.0247" y1="1391.6592" y2="1411.6592"/><polygon fill="#4682B4" points="733.0247,1401.6592,737.0247,1411.6592,741.0247,1401.6592,737.0247,1405.6592" style="stroke:#4682B4;stroke-width:1;"/><line style="stroke:#4682B4;stroke-width:1;" x1="737.0247" x2="737.0247" y1="2217.1636" y2="2237.1636"/><polygon fill="#4682B4" points="733.0247,2227.1636,737.0247,2237.1636,741.0247,2227.1636,737.0247,2231.1636" style="stroke:#4682B4;stroke-width:1;"/><line style="stroke:#4682B4;stroke-width:1;" x1="956.5413" x2="956.5413" y1="818.8818" y2="849.9795"/><polygon fill="#4682B4" points="952.5413,839.9795,956.5413,849.9795,960.5413,839.9795,956.5413,843.9795" style="stroke:#4682B4;stroke-width:1;"/><line style="stroke:#4682B4;stroke-width:1;" x1="956.5413" x2="956.5413" y1="1873.519" y2="1893.519"/><polygon fill="#4682B4" points="952.5413,1883.519,956.5413,1893.519,960.5413,1883.519,956.5413,1887.519" style="stroke:#4682B4;stroke-width:1;"/><line style="stroke:#4682B4;stroke-width:1;" x1="956.5413" x2="956.5413" y1="2363.3823" y2="2383.3823"/><polygon fill="#4682B4" points="952.5413,2373.3823,956.5413,2383.3823,960.5413,2373.3823,956.5413,2377.3823" style="stroke:#4682B4;stroke-width:1;"/><line style="stroke:#4682B4;stroke-width:1;" x1="301.9486" x2="301.9486" y1="455.2373" y2="460.2373"/><line style="stroke:#4682B4;stroke-width:1;" x1="301.9486" x2="737.0247" y1="460.2373" y2="460.2373"/><line style="stroke:#4682B4;stroke-width:1;" x1="737.0247" x2="737.0247" y1="460.2373" y2="475.2373"/><polygon fill="#4682B4" points="733.0247,465.2373,737.0247,475.2373,741.0247,465.2373,737.0247,469.2373" style="stroke:#4682B4;stroke-width:1;"/><line style="stroke:#4682B4;stroke-width:1;" x1="737.0247" x2="737.0247" y1="766.0771" y2="771.0771"/><line style="stroke:#4682B4;stroke-width:1;" x1="737.0247" x2="956.5413" y1="771.0771" y2="771.0771"/><line style="stroke:#4682B4;stroke-width:1;" x1="956.5413" x2="956.5413" y1="771.0771" y2="786.0771"/><polygon fill="#4682B4" points="952.5413,776.0771,956.5413,786.0771,960.5413,776.0771,956.5413,780.0771" style="stroke:#4682B4;stroke-width:1;"/><line style="stroke:#4682B4;stroke-width:1;" x1="956.5413" x2="956.5413" y1="895.5889" y2="900.5889"/><line style="stroke:#4682B4;stroke-width:1;" x1="956.5413" x2="737.0247" y1="900.5889" y2="900.5889"/><line style="stroke:#4682B4;stroke-width:1;" x1="737.0247" x2="737.0247" y1="900.5889" y2="915.5889"/><polygon fill="#4682B4" points="733.0247,905.5889,737.0247,915.5889,741.0247,905.5889,737.0247,909.5889" style="stroke:#4682B4;stroke-width:1;"/><line style="stroke:#4682B4;stroke-width:1;" x1="737.0247" x2="737.0247" y1="1125.2217" y2="1130.2217"/><line style="stroke:#4682B4;stroke-width:1;" x1="737.0247" x2="301.9486" y1="1130.2217" y2="1130.2217"/><line style="stroke:#4682B4;stroke-width:1;" x1="301.9486" x2="301.9486" y1="1130.2217" y2="1145.2217"/><polygon fill="#4682B4" points="297.9486,1135.2217,301.9486,1145.2217,305.9486,1135.2217,301.9486,1139.2217" style="stroke:#4682B4;stroke-width:1;"/><line style="stroke:#4682B4;stroke-width:1;" x1="301.9486" x2="301.9486" y1="1282.0498" y2="1289.8486"/><line style="stroke:#4682B4;stroke-width:1;" x1="301.9486" x2="737.0247" y1="1289.8486" y2="1289.8486"/><line style="stroke:#4682B4;stroke-width:1;" x1="737.0247" x2="737.0247" y1="1289.8486" y2="1302.0498"/><polygon fill="#4682B4" points="733.0247,1292.0498,737.0247,1302.0498,741.0247,1292.0498,737.0247,1296.0498" style="stroke:#4682B4;stroke-width:1;"/><line style="stroke:#4682B4;stroke-width:1;" x1="737.0247" x2="737.0247" y1="1457.2686" y2="1462.2686"/><line style="stroke:#4682B4;stroke-width:1;" x1="737.0247" x2="301.9486" y1="1462.2686" y2="1462.2686"/><line style="stroke:#4682B4;stroke-width:1;" x1="301.9486" x2="301.9486" y1="1462.2686" y2="1477.2686"/><polygon fill="#4682B4" points="297.9486,1467.2686,301.9486,1477.2686,305.9486,1467.2686,301.9486,1471.2686" style="stroke:#4682B4;stroke-width:1;"/><line style="stroke:#4682B4;stroke-width:1;" x1="956.5413" x2="956.5413" y1="1939.1284" y2="1944.1284"/><line style="stroke:#4682B4;stroke-width:1;" x1="956.5413" x2="301.9486" y1="1944.1284" y2="1944.1284"/><line style="stroke:#4682B4;stroke-width:1;" x1="301.9486" x2="301.9486" y1="1944.1284" y2="1959.1284"/><polygon fill="#4682B4" points="297.9486,1949.1284,301.9486,1959.1284,305.9486,1949.1284,301.9486,1953.1284" style="stroke:#4682B4;stroke-width:1;"/><line style="stroke:#4682B4;stroke-width:1;" x1="301.9486" x2="301.9486" y1="2151.5542" y2="2156.5542"/><line style="stroke:#4682B4;stroke-width:1;" x1="301.9486" x2="737.0247" y1="2156.5542" y2="2156.5542"/><line style="stroke:#4682B4;stroke-width:1;" x1="737.0247" x2="737.0247" y1="2156.5542" y2="2171.5542"/><polygon fill="#4682B4" points="733.0247,2161.5542,737.0247,2171.5542,741.0247,2161.5542,737.0247,2165.5542" style="stroke:#4682B4;stroke-width:1;"/><line style="stroke:#4682B4;stroke-width:1;" x1="737.0247" x2="737.0247" y1="2282.7729" y2="2300.2729"/><line style="stroke:#4682B4;stroke-width:1;" x1="737.0247" x2="956.5413" y1="2300.2729" y2="2300.2729"/><line style="stroke:#4682B4;stroke-width:1;" x1="956.5413" x2="956.5413" y1="2300.2729" y2="2317.7729"/><polygon fill="#4682B4" points="952.5413,2307.7729,956.5413,2317.7729,960.5413,2307.7729,956.5413,2311.7729" style="stroke:#4682B4;stroke-width:1;"/><line style="stroke:#4682B4;stroke-width:1;" x1="956.5413" x2="956.5413" y1="2428.9917" y2="2433.9917"/><line style="stroke:#4682B4;stroke-width:1;" x1="956.5413" x2="301.9486" y1="2433.9917" y2="2433.9917"/><line style="stroke:#4682B4;stroke-width:1;" x1="301.9486" x2="301.9486" y1="2433.9917" y2="2448.9917"/><polygon fill="#4682B4" points="297.9486,2438.9917,301.9486,2448.9917,305.9486,2438.9917,301.9486,2442.9917" style="stroke:#4682B4;stroke-width:1;"/><text fill="#000000" font-family="sans-serif" font-size="18" font-weight="bold" lengthAdjust="spacing" textLength="97.8135" x="271.6152" y="66.75">PM Agent</text><text fill="#000000" font-family="sans-serif" font-size="18" font-weight="bold" lengthAdjust="spacing" textLength="176.124" x="645.3868" y="66.75">Specialist Agents</text><text fill="#000000" font-family="sans-serif" font-size="18" font-weight="bold" lengthAdjust="spacing" textLength="46.415" x="932.3337" y="66.75">User</text><!--SRC=[hLVDZXj54BxxAKh90Tl4tbr2Bbu9vBKtKSH69EiWXEHBUwR6RdRSFNJts34i4YSU0F4El0UFaYVXgvuVsni3byqbJazt_NprrLULe4FED2kSDe5kTCR9Bi71nz_-fDdqPaBZfSO_nzCtpPsNkTrsElvEcq8vjIQL1BtHOKU_T8YkL7AtTBOqwSJcrj4urmbVvINBD-jITjNvB33dzVbKgxKrwSEdDtgv2ZzmBkxsbmviJ9MxUsNpb8spAQwCdRFRJys_j2RCzCzC5nUTNm_YzbkzpfNXAku3knELSgWVlnTqeeMm0mmBk8EHpcSqUBm_i3PhOa5eGIUwK2RuM8D5wRLXxmUvsh4ZPtFsr1rFtWzwUDVaWAyBpidRqYKyeh__IhKly8AUFdtQrcUHs-JEapN4AbaHcu1J615Zv-SN8thodMVtXEYUwhClSFRs3IY0kuVdpt4-ApZHAjS-LD_zaqT6fNFVkBw7PS4bGoe3dOwQw3e-uBWpkcML8fsbMl8QrwbmDWDfvqQPbAutBDMpZWdN0rzsHcFlWIZPWWrDtlbdX1-fDikvMU65pJ8SBN6LR1aIksQFDrCExDOe1Hd-4CYtsNTzRsw29MqszewfU_NsLj3iuStrMWVgzttics4CbjD-drX2kknq71Ui0bWsUbqztbib9OdFpLQ75IdlzT9mIY1ldkCXIl49_FSuFGdJS-h2aMEFMmfKg7fRcHtPhBao7COV5-SzYUQMWzC84a1gz4FEoXd0u-UcYyOgw7nuGnkjwAR-4D55mdXw_O6J4iXDjK_iXjsEPeaoUFYY8l0pgYmStuvveJnSY8yAGN1l5e-hIzgQNinSPzJznjXjpkcIKQQ2Cj6ChtiKLgXdTyTUaf0qbFPCarmvdUb4YOcvkUMVIWPetScxoXwm5DhVnvyd0RoepN72WjxadRJGLFdLmYgNNbPVtpgxqIa3LxzbXoni8GvLdk-eB78BXWedMvydwnUz-7BT82BL5nQBIH2C4WWHs2SkEKTkNMCbLs5lrc0pKncZsL6teDSyI9o6eAXyRl0urH8JGTuu0HLFO5PJLkLBJgtH2GdpLDxljtLvqQQmRyygSYkbtByCTcuciyctW2GzGpY2Cgna2YaN2hIEyhOhb7JZt1ZhrWeaaFgO1ApgrSYEjmenWRysBwiQBZYJTXOqj2bnzV8_C3q9rEXxm1BxkoX3M_FOobqM29gZOUBGefoUbKKgVrUyVSM6dGX4qm7N9hZTt03_Z3bTO9AHJPBIEKwhTZt4gcMII4CJyH12K-GS1QAL1jgkPFXstqJrQkyAMd03GGWhxQdI5nGJlwjI3huYOoyVVqozafolDoelOpSrOlTbxv4zZJ28Sr2qKk6D3KAGp5ai6-YAA8sUFYTX5x8KriV88fNsh3OsKYnJm32LXaWvOob9BN89PlwHpgFu_RuS3BdAKOeHAsuG0ZbPI4OqhQtGnz__02q7u6l9btFpil8Zf_icO8_UYs31YW-sw5Hyh3kkwRTYfJmFWqEhnnOLnuW6cSKls3iWSGfgcZWhELOqV8-8bb26UZ6xvOtcBRs6HZWP-j8gtQlNuteSrUH_zDNbtvnJw_kHVTPwtRPHnV-sPUScAi2nHe_g-EBcqzmSGLiBB0iRbEsCfANymE6Ub-ZFKDiVeqnU7gqYelI9h0-kifYYA-M1FnpeGian9Yn4PksZvRbfBOE9ZUaJ2Zo9WaFr9bBj2Zvk646XskadIuB__v6oaK7OP8rjnxMR3gQA3wwC1VEru5RQ6CE5kpsi3vHnhuWFfoWy3cfqQYi0kdxcJmtFSLM5jWXPwG2BQuinDqVLE3LzcghKKLLm7vVdr2murjcng4iJw04v5hiulMg9bVTGs9qiuWttwfi2neErBycjv_tIrzIt-Zg8Nyd3bL_PK8lPTRlAojIkni93fZHUzcllyGGvKfiguz4LBx54rFkhk9SrHSWOLuwjc2zKsSZBeURTM5jG76iorUkayHyC8yElzHKH_GS0]--></g></svg>