<svg xmlns="http://www.w3.org/2000/svg" xmlns:xlink="http://www.w3.org/1999/xlink" contentStyleType="text/css" data-diagram-type="DESCRIPTION" height="765px" preserveAspectRatio="none" style="width:3317px;height:765px;background:#FAFAFA;" version="1.1" viewBox="0 0 3317 765" width="3317px" zoomAndPan="magnify"><defs/><g><rect fill="#FAFAFA" height="765" style="stroke:none;stroke-width:1;" width="3317" x="0" y="0"/><!--cluster CAPS--><g class="cluster" data-entity="CAPS" data-source-line="82" data-uid="ent0002" id="cluster_CAPS"><rect fill="#FAF0D9" height="380" rx="2" ry="2" style="stroke:#8B6914;stroke-width:1;" width="555" x="7" y="7"/><text fill="#000000" font-family="sans-serif" font-size="12" font-style="italic" lengthAdjust="spacing" textLength="121.582" x="223.709" y="26.1387">&#171;StrategyGrouping&#187;</text><text fill="#000000" font-family="sans-serif" font-size="12" font-weight="bold" lengthAdjust="spacing" textLength="79.6523" x="244.6738" y="52.1074">Capabilities</text></g><!--cluster HUMAN--><g class="cluster" data-entity="HUMAN" data-source-line="94" data-uid="ent0009" id="cluster_HUMAN"><rect fill="#FFFDEC" height="158" rx="2" ry="2" style="stroke:#B8860B;stroke-width:1;" width="166" x="2778" y="7"/><text fill="#000000" font-family="sans-serif" font-size="12" font-style="italic" lengthAdjust="spacing" textLength="123.082" x="2799.459" y="26.1387">&#171;BusinessGrouping&#187;</text><text fill="#000000" font-family="sans-serif" font-size="12" font-weight="bold" lengthAdjust="spacing" textLength="126.7617" x="2797.6191" y="52.1074">Human Participant</text></g><!--cluster AGENTS--><g class="cluster" data-entity="AGENTS" data-source-line="101" data-uid="ent0011" id="cluster_AGENTS"><rect fill="#FFFDEC" height="380" rx="2" ry="2" style="stroke:#B8860B;stroke-width:1;" width="950" x="586" y="7"/><text fill="#000000" font-family="sans-serif" font-size="12" font-style="italic" lengthAdjust="spacing" textLength="123.082" x="999.459" y="26.1387">&#171;BusinessGrouping&#187;</text><text fill="#000000" font-family="sans-serif" font-size="12" font-weight="bold" lengthAdjust="spacing" textLength="99.2813" x="1011.3594" y="52.1074">AI Agent Roles</text></g><!--cluster GOVERN--><g class="cluster" data-entity="GOVERN" data-source-line="116" data-uid="ent0021" id="cluster_GOVERN"><rect fill="#FFFDEC" height="158" rx="2" ry="2" style="stroke:#B8860B;stroke-width:1;" width="214" x="2422" y="7"/><text fill="#000000" font-family="sans-serif" font-size="12" font-style="italic" lengthAdjust="spacing" textLength="123.082" x="2467.459" y="26.1387">&#171;BusinessGrouping&#187;</text><text fill="#000000" font-family="sans-serif" font-size="12" font-weight="bold" lengthAdjust="spacing" textLength="168.8848" x="2444.5576" y="52.1074">Architecture Governance</text></g><!--cluster PROCS--><g class="cluster" data-entity="PROCS" data-source-line="123" data-uid="ent0023" id="cluster_PROCS"><rect fill="#FFFDEC" height="158" rx="2" ry="2" style="stroke:#B8860B;stroke-width:1;" width="1458" x="1560" y="229"/><text fill="#000000" font-family="sans-serif" font-size="12" font-style="italic" lengthAdjust="spacing" textLength="123.082" x="2227.459" y="248.1387">&#171;BusinessGrouping&#187;</text><text fill="#000000" font-family="sans-serif" font-size="12" font-weight="bold" lengthAdjust="spacing" textLength="107.0098" x="2235.4951" y="274.1074">SDLC Processes</text></g><!--cluster SVCS--><g class="cluster" data-entity="SVCS" data-source-line="137" data-uid="ent0032" id="cluster_SVCS"><rect fill="#FFFDEC" height="271" rx="2" ry="2" style="stroke:#B8860B;stroke-width:1;" width="1712" x="820" y="488"/><text fill="#000000" font-family="sans-serif" font-size="12" font-style="italic" lengthAdjust="spacing" textLength="123.082" x="1614.459" y="507.1387">&#171;BusinessGrouping&#187;</text><text fill="#000000" font-family="sans-serif" font-size="12" font-weight="bold" lengthAdjust="spacing" textLength="121.1191" x="1615.4404" y="533.1074">Business Services</text></g><!--entity CAP_001--><g class="entity" data-entity="CAP_001" data-source-line="83" data-uid="ent0003" id="entity_CAP_001"><rect fill="#F5DEB3" height="71.9375" rx="2" ry="2" style="stroke:#8B6914;stroke-width:0.5;" width="130.9004" x="23.5" y="77"/><text fill="#000000" font-family="sans-serif" font-size="12" font-style="italic" lengthAdjust="spacing" textLength="74.9414" x="51.4795" y="104.1387">&#171;Capability&#187;</text><text fill="#000000" font-family="sans-serif" font-size="12" lengthAdjust="spacing" textLength="98.9004" x="39.5" y="130.1074">Phase Execution</text></g><!--entity CAP_002--><g class="entity" data-entity="CAP_002" data-source-line="84" data-uid="ent0004" id="entity_CAP_002"><rect fill="#F5DEB3" height="71.9375" rx="2" ry="2" style="stroke:#8B6914;stroke-width:0.5;" width="144.1953" x="185" y="77"/><text fill="#000000" font-family="sans-serif" font-size="12" font-style="italic" lengthAdjust="spacing" textLength="74.9414" x="219.627" y="104.1387">&#171;Capability&#187;</text><text fill="#000000" font-family="sans-serif" font-size="12" lengthAdjust="spacing" textLength="112.1953" x="201" y="130.1074">Artifact Production</text></g><!--entity CAP_003--><g class="entity" data-entity="CAP_003" data-source-line="85" data-uid="ent0005" id="entity_CAP_003"><rect fill="#F5DEB3" height="71.9375" rx="2" ry="2" style="stroke:#8B6914;stroke-width:0.5;" width="187.1914" x="359.5" y="77"/><text fill="#000000" font-family="sans-serif" font-size="12" font-style="italic" lengthAdjust="spacing" textLength="74.9414" x="415.625" y="104.1387">&#171;Capability&#187;</text><text fill="#000000" font-family="sans-serif" font-size="12" lengthAdjust="spacing" textLength="155.1914" x="375.5" y="130.1074">Multi-Agent Orchestration</text></g><!--entity CAP_004--><g class="entity" data-entity="CAP_004" data-source-line="86" data-uid="ent0006" id="entity_CAP_004"><rect fill="#F5DEB3" height="71.9375" rx="2" ry="2" style="stroke:#8B6914;stroke-width:0.5;" width="160.1797" x="31" y="299"/><text fill="#000000" font-family="sans-serif" font-size="12" font-style="italic" lengthAdjust="spacing" textLength="74.9414" x="73.6191" y="326.1387">&#171;Capability&#187;</text><text fill="#000000" font-family="sans-serif" font-size="12" lengthAdjust="spacing" textLength="128.1797" x="47" y="352.1074">Knowledge Retention</text></g><!--entity CAP_005--><g class="entity" data-entity="CAP_005" data-source-line="87" data-uid="ent0007" id="entity_CAP_005"><rect fill="#F5DEB3" height="71.9375" rx="2" ry="2" style="stroke:#8B6914;stroke-width:0.5;" width="128.2695" x="221" y="299"/><text fill="#000000" font-family="sans-serif" font-size="12" font-style="italic" lengthAdjust="spacing" textLength="74.9414" x="247.6641" y="326.1387">&#171;Capability&#187;</text><text fill="#000000" font-family="sans-serif" font-size="12" lengthAdjust="spacing" textLength="96.2695" x="237" y="352.1074">User Interaction</text></g><!--entity CAP_006--><g class="entity" data-entity="CAP_006" data-source-line="88" data-uid="ent0008" id="entity_CAP_006"><rect fill="#F5DEB3" height="71.9375" rx="2" ry="2" style="stroke:#8B6914;stroke-width:0.5;" width="158.5801" x="379.5" y="299"/><text fill="#000000" font-family="sans-serif" font-size="12" font-style="italic" lengthAdjust="spacing" textLength="74.9414" x="421.3193" y="326.1387">&#171;Capability&#187;</text><text fill="#000000" font-family="sans-serif" font-size="12" lengthAdjust="spacing" textLength="126.5801" x="395.5" y="352.1074">Reverse Architecture</text></g><!--entity ACT_001--><g class="entity" data-entity="ACT_001" data-source-line="95" data-uid="ent0010" id="entity_ACT_001"><rect fill="#FFFAC8" height="71.9375" rx="2" ry="2" style="stroke:#B8860B;stroke-width:0.5;" width="133.5156" x="2794" y="77"/><text fill="#000000" font-family="sans-serif" font-size="12" font-style="italic" lengthAdjust="spacing" textLength="99.5156" x="2811" y="104.1387">&#171;BusinessActor&#187;</text><text fill="#000000" font-family="sans-serif" font-size="12" lengthAdjust="spacing" textLength="27.3516" x="2847.082" y="130.1074">User</text></g><!--entity ACT_002--><g class="entity" data-entity="ACT_002" data-source-line="102" data-uid="ent0012" id="entity_ACT_002"><rect fill="#FFFAC8" height="71.9375" rx="2" ry="2" style="stroke:#B8860B;stroke-width:0.5;" width="128.125" x="1392" y="77"/><text fill="#000000" font-family="sans-serif" font-size="12" font-style="italic" lengthAdjust="spacing" textLength="94.125" x="1409" y="104.1387">&#171;BusinessRole&#187;</text><text fill="#000000" font-family="sans-serif" font-size="12" lengthAdjust="spacing" textLength="56.9238" x="1427.6006" y="130.1074">PM Agent</text></g><!--entity ACT_003--><g class="entity" data-entity="ACT_003" data-source-line="103" data-uid="ent0013" id="entity_ACT_003"><rect fill="#FFFAC8" height="71.9375" rx="2" ry="2" style="stroke:#B8860B;stroke-width:0.5;" width="128.125" x="1234" y="77"/><text fill="#000000" font-family="sans-serif" font-size="12" font-style="italic" lengthAdjust="spacing" textLength="94.125" x="1251" y="104.1387">&#171;BusinessRole&#187;</text><text fill="#000000" font-family="sans-serif" font-size="12" lengthAdjust="spacing" textLength="55.1602" x="1270.4824" y="130.1074">SA Agent</text></g><!--entity ACT_004--><g class="entity" data-entity="ACT_004" data-source-line="104" data-uid="ent0014" id="entity_ACT_004"><rect fill="#FFFAC8" height="71.9375" rx="2" ry="2" style="stroke:#B8860B;stroke-width:0.5;" width="128.125" x="1076" y="77"/><text fill="#000000" font-family="sans-serif" font-size="12" font-style="italic" lengthAdjust="spacing" textLength="94.125" x="1093" y="104.1387">&#171;BusinessRole&#187;</text><text fill="#000000" font-family="sans-serif" font-size="12" lengthAdjust="spacing" textLength="64.9746" x="1107.5752" y="130.1074">SwA Agent</text></g><!--entity ACT_005--><g class="entity" data-entity="ACT_005" data-source-line="105" data-uid="ent0015" id="entity_ACT_005"><rect fill="#FFFAC8" height="71.9375" rx="2" ry="2" style="stroke:#B8860B;stroke-width:0.5;" width="128.125" x="602" y="77"/><text fill="#000000" font-family="sans-serif" font-size="12" font-style="italic" lengthAdjust="spacing" textLength="94.125" x="619" y="104.1387">&#171;BusinessRole&#187;</text><text fill="#000000" font-family="sans-serif" font-size="12" lengthAdjust="spacing" textLength="86.373" x="622.876" y="130.1074">DevOps Agent</text></g><!--entity ACT_006--><g class="entity" data-entity="ACT_006" data-source-line="106" data-uid="ent0016" id="entity_ACT_006"><rect fill="#FFFAC8" height="71.9375" rx="2" ry="2" style="stroke:#B8860B;stroke-width:0.5;" width="128.125" x="760" y="77"/><text fill="#000000" font-family="sans-serif" font-size="12" font-style="italic" lengthAdjust="spacing" textLength="94.125" x="777" y="104.1387">&#171;BusinessRole&#187;</text><text fill="#000000" font-family="sans-serif" font-size="12" lengthAdjust="spacing" textLength="56.1563" x="795.9844" y="130.1074">DE Agent</text></g><!--entity ACT_007--><g class="entity" data-entity="ACT_007" data-source-line="107" data-uid="ent0017" id="entity_ACT_007"><rect fill="#FFFAC8" height="71.9375" rx="2" ry="2" style="stroke:#B8860B;stroke-width:0.5;" width="128.125" x="918" y="77"/><text fill="#000000" font-family="sans-serif" font-size="12" font-style="italic" lengthAdjust="spacing" textLength="94.125" x="935" y="104.1387">&#171;BusinessRole&#187;</text><text fill="#000000" font-family="sans-serif" font-size="12" lengthAdjust="spacing" textLength="56.9883" x="953.5684" y="130.1074">QA Agent</text></g><!--entity ACT_008--><g class="entity" data-entity="ACT_008" data-source-line="108" data-uid="ent0018" id="entity_ACT_008"><rect fill="#FFFAC8" height="71.9375" rx="2" ry="2" style="stroke:#B8860B;stroke-width:0.5;" width="128.125" x="602" y="299"/><text fill="#000000" font-family="sans-serif" font-size="12" font-style="italic" lengthAdjust="spacing" textLength="94.125" x="619" y="326.1387">&#171;BusinessRole&#187;</text><text fill="#000000" font-family="sans-serif" font-size="12" lengthAdjust="spacing" textLength="56.0156" x="638.0547" y="352.1074">PO Agent</text></g><!--entity ACT_009--><g class="entity" data-entity="ACT_009" data-source-line="109" data-uid="ent0019" id="entity_ACT_009"><rect fill="#FFFAC8" height="71.9375" rx="2" ry="2" style="stroke:#B8860B;stroke-width:0.5;" width="128.125" x="760" y="299"/><text fill="#000000" font-family="sans-serif" font-size="12" font-style="italic" lengthAdjust="spacing" textLength="94.125" x="777" y="326.1387">&#171;BusinessRole&#187;</text><text fill="#000000" font-family="sans-serif" font-size="12" lengthAdjust="spacing" textLength="57.3047" x="795.4102" y="352.1074">SM Agent</text></g><!--entity ACT_010--><g class="entity" data-entity="ACT_010" data-source-line="110" data-uid="ent0020" id="entity_ACT_010"><rect fill="#FFFAC8" height="71.9375" rx="2" ry="2" style="stroke:#B8860B;stroke-width:0.5;" width="128.125" x="918" y="299"/><text fill="#000000" font-family="sans-serif" font-size="12" font-style="italic" lengthAdjust="spacing" textLength="94.125" x="935" y="326.1387">&#171;BusinessRole&#187;</text><text fill="#000000" font-family="sans-serif" font-size="12" lengthAdjust="spacing" textLength="73.1543" x="945.4854" y="352.1074">CSCO Agent</text></g><!--entity ACT_011--><g class="entity" data-entity="ACT_011" data-source-line="117" data-uid="ent0022" id="entity_ACT_011"><rect fill="#FFFAC8" height="71.9375" rx="2" ry="2" style="stroke:#B8860B;stroke-width:0.5;" width="181.7031" x="2438" y="77"/><text fill="#000000" font-family="sans-serif" font-size="12" font-style="italic" lengthAdjust="spacing" textLength="147.7031" x="2455" y="104.1387">&#171;BusinessCollaboration&#187;</text><text fill="#000000" font-family="sans-serif" font-size="12" lengthAdjust="spacing" textLength="113.2852" x="2472.209" y="130.1074">Architecture Board</text></g><!--entity BPR_001--><g class="entity" data-entity="BPR_001" data-source-line="124" data-uid="ent0024" id="entity_BPR_001"><rect fill="#FFFAC8" height="71.9375" rx="2" ry="2" style="stroke:#B8860B;stroke-width:0.5;" width="147.7246" x="2486" y="299"/><text fill="#000000" font-family="sans-serif" font-size="12" font-style="italic" lengthAdjust="spacing" textLength="113.7246" x="2503" y="326.1387">&#171;BusinessProcess&#187;</text><text fill="#000000" font-family="sans-serif" font-size="12" lengthAdjust="spacing" textLength="91.3184" x="2514.2031" y="352.1074">Sprint Planning</text></g><!--entity BPR_002--><g class="entity" data-entity="BPR_002" data-source-line="125" data-uid="ent0025" id="entity_BPR_002"><rect fill="#FFFAC8" height="71.9375" rx="2" ry="2" style="stroke:#B8860B;stroke-width:0.5;" width="147.7246" x="1576" y="299"/><text fill="#000000" font-family="sans-serif" font-size="12" font-style="italic" lengthAdjust="spacing" textLength="113.7246" x="1593" y="326.1387">&#171;BusinessProcess&#187;</text><text fill="#000000" font-family="sans-serif" font-size="12" lengthAdjust="spacing" textLength="87.6387" x="1606.043" y="352.1074">Skill Execution</text></g><!--entity BPR_003--><g class="entity" data-entity="BPR_003" data-source-line="126" data-uid="ent0026" id="entity_BPR_003"><rect fill="#FFFAC8" height="71.9375" rx="2" ry="2" style="stroke:#B8860B;stroke-width:0.5;" width="147.7246" x="1932" y="299"/><text fill="#000000" font-family="sans-serif" font-size="12" font-style="italic" lengthAdjust="spacing" textLength="113.7246" x="1949" y="326.1387">&#171;BusinessProcess&#187;</text><text fill="#000000" font-family="sans-serif" font-size="12" lengthAdjust="spacing" textLength="74.2793" x="1968.7227" y="352.1074">CQ Lifecycle</text></g><!--entity BPR_004--><g class="entity" data-entity="BPR_004" data-source-line="127" data-uid="ent0027" id="entity_BPR_004"><rect fill="#FFFAC8" height="71.9375" rx="2" ry="2" style="stroke:#B8860B;stroke-width:0.5;" width="147.7246" x="1754" y="299"/><text fill="#000000" font-family="sans-serif" font-size="12" font-style="italic" lengthAdjust="spacing" textLength="113.7246" x="1771" y="326.1387">&#171;BusinessProcess&#187;</text><text fill="#000000" font-family="sans-serif" font-size="12" lengthAdjust="spacing" textLength="95.8711" x="1779.9268" y="352.1074">Gate Evaluation</text></g><!--entity BPR_005--><g class="entity" data-entity="BPR_005" data-source-line="128" data-uid="ent0028" id="entity_BPR_005"><rect fill="#FFFAC8" height="71.9375" rx="2" ry="2" style="stroke:#B8860B;stroke-width:0.5;" width="156.3125" x="2110" y="299"/><text fill="#000000" font-family="sans-serif" font-size="12" font-style="italic" lengthAdjust="spacing" textLength="113.7246" x="2131.2939" y="326.1387">&#171;BusinessProcess&#187;</text><text fill="#000000" font-family="sans-serif" font-size="12" lengthAdjust="spacing" textLength="124.3125" x="2126" y="352.1074">Algedonic Escalation</text></g><!--entity BPR_006--><g class="entity" data-entity="BPR_006" data-source-line="129" data-uid="ent0029" id="entity_BPR_006"><rect fill="#FFFAC8" height="71.9375" rx="2" ry="2" style="stroke:#B8860B;stroke-width:0.5;" width="147.7246" x="2854" y="299"/><text fill="#000000" font-family="sans-serif" font-size="12" font-style="italic" lengthAdjust="spacing" textLength="113.7246" x="2871" y="326.1387">&#171;BusinessProcess&#187;</text><text fill="#000000" font-family="sans-serif" font-size="12" lengthAdjust="spacing" textLength="82.9805" x="2886.3721" y="352.1074">Sprint Review</text></g><!--entity BPR_007--><g class="entity" data-entity="BPR_007" data-source-line="130" data-uid="ent0030" id="entity_BPR_007"><rect fill="#FFFAC8" height="71.9375" rx="2" ry="2" style="stroke:#B8860B;stroke-width:0.5;" width="159.0723" x="2664.5" y="299"/><text fill="#000000" font-family="sans-serif" font-size="12" font-style="italic" lengthAdjust="spacing" textLength="113.7246" x="2687.1738" y="326.1387">&#171;BusinessProcess&#187;</text><text fill="#000000" font-family="sans-serif" font-size="12" lengthAdjust="spacing" textLength="127.0723" x="2680.5" y="352.1074">Enterprise Promotion</text></g><!--entity BPR_008--><g class="entity" data-entity="BPR_008" data-source-line="131" data-uid="ent0031" id="entity_BPR_008"><rect fill="#FFFAC8" height="71.9375" rx="2" ry="2" style="stroke:#B8860B;stroke-width:0.5;" width="158.5801" x="2296.5" y="299"/><text fill="#000000" font-family="sans-serif" font-size="12" font-style="italic" lengthAdjust="spacing" textLength="113.7246" x="2318.9277" y="326.1387">&#171;BusinessProcess&#187;</text><text fill="#000000" font-family="sans-serif" font-size="12" lengthAdjust="spacing" textLength="126.5801" x="2312.5" y="352.1074">Reverse Architecture</text></g><!--entity BSV_001--><g class="entity" data-entity="BSV_001" data-source-line="138" data-uid="ent0033" id="entity_BSV_001"><rect fill="#FFFAC8" height="71.9375" rx="2" ry="2" style="stroke:#B8860B;stroke-width:0.5;" width="210.8867" x="2106.5" y="558"/><text fill="#000000" font-family="sans-serif" font-size="12" font-style="italic" lengthAdjust="spacing" textLength="112.0781" x="2155.9043" y="585.1387">&#171;BusinessService&#187;</text><text fill="#000000" font-family="sans-serif" font-size="12" lengthAdjust="spacing" textLength="178.8867" x="2122.5" y="611.1074">Business Architecture Service</text></g><!--entity BSV_002--><g class="entity" data-entity="BSV_002" data-source-line="139" data-uid="ent0034" id="entity_BSV_002"><rect fill="#FFFAC8" height="71.9375" rx="2" ry="2" style="stroke:#B8860B;stroke-width:0.5;" width="311.2637" x="1532.5" y="558"/><text fill="#000000" font-family="sans-serif" font-size="12" font-style="italic" lengthAdjust="spacing" textLength="112.0781" x="1632.0928" y="585.1387">&#171;BusinessService&#187;</text><text fill="#000000" font-family="sans-serif" font-size="12" lengthAdjust="spacing" textLength="279.2637" x="1548.5" y="611.1074">Application &amp; Technology Architecture Service</text></g><!--entity BSV_003--><g class="entity" data-entity="BSV_003" data-source-line="140" data-uid="ent0035" id="entity_BSV_003"><rect fill="#FFFAC8" height="71.9375" rx="2" ry="2" style="stroke:#B8860B;stroke-width:0.5;" width="202.4023" x="1874" y="558"/><text fill="#000000" font-family="sans-serif" font-size="12" font-style="italic" lengthAdjust="spacing" textLength="112.0781" x="1919.1621" y="585.1387">&#171;BusinessService&#187;</text><text fill="#000000" font-family="sans-serif" font-size="12" lengthAdjust="spacing" textLength="170.4023" x="1890" y="611.1074">Project Coordination Service</text></g><!--entity BSV_004--><g class="entity" data-entity="BSV_004" data-source-line="141" data-uid="ent0036" id="entity_BSV_004"><rect fill="#FFFAC8" height="71.9375" rx="2" ry="2" style="stroke:#B8860B;stroke-width:0.5;" width="194.9668" x="835.5" y="558"/><text fill="#000000" font-family="sans-serif" font-size="12" font-style="italic" lengthAdjust="spacing" textLength="112.0781" x="876.9443" y="585.1387">&#171;BusinessService&#187;</text><text fill="#000000" font-family="sans-serif" font-size="12" lengthAdjust="spacing" textLength="162.9668" x="851.5" y="611.1074">Safety Governance Service</text></g><!--entity BSV_005--><g class="entity" data-entity="BSV_005" data-source-line="142" data-uid="ent0037" id="entity_BSV_005"><rect fill="#FFFAC8" height="71.9375" rx="2" ry="2" style="stroke:#B8860B;stroke-width:0.5;" width="247.2559" x="1060.5" y="558"/><text fill="#000000" font-family="sans-serif" font-size="12" font-style="italic" lengthAdjust="spacing" textLength="112.0781" x="1128.0889" y="585.1387">&#171;BusinessService&#187;</text><text fill="#000000" font-family="sans-serif" font-size="12" lengthAdjust="spacing" textLength="215.2559" x="1076.5" y="611.1074">Requirements Management Service</text></g><!--entity BSV_006--><g class="entity" data-entity="BSV_006" data-source-line="143" data-uid="ent0038" id="entity_BSV_006"><rect fill="#FFFAC8" height="71.9375" rx="2" ry="2" style="stroke:#B8860B;stroke-width:0.5;" width="164.5098" x="1337.5" y="558"/><text fill="#000000" font-family="sans-serif" font-size="12" font-style="italic" lengthAdjust="spacing" textLength="112.0781" x="1363.7158" y="585.1387">&#171;BusinessService&#187;</text><text fill="#000000" font-family="sans-serif" font-size="12" lengthAdjust="spacing" textLength="132.5098" x="1353.5" y="611.1074">Code Delivery Service</text></g><!--entity BSV_007--><g class="entity" data-entity="BSV_007" data-source-line="144" data-uid="ent0039" id="entity_BSV_007"><rect fill="#FFFAC8" height="71.9375" rx="2" ry="2" style="stroke:#B8860B;stroke-width:0.5;" width="189.0488" x="838.5" y="671"/><text fill="#000000" font-family="sans-serif" font-size="12" font-style="italic" lengthAdjust="spacing" textLength="112.0781" x="876.9854" y="698.1387">&#171;BusinessService&#187;</text><text fill="#000000" font-family="sans-serif" font-size="12" lengthAdjust="spacing" textLength="157.0488" x="854.5" y="724.1074">Quality Assurance Service</text></g><!--entity BSV_008--><g class="entity" data-entity="BSV_008" data-source-line="145" data-uid="ent0040" id="entity_BSV_008"><rect fill="#FFFAC8" height="71.9375" rx="2" ry="2" style="stroke:#B8860B;stroke-width:0.5;" width="206.7969" x="1057.5" y="671"/><text fill="#000000" font-family="sans-serif" font-size="12" font-style="italic" lengthAdjust="spacing" textLength="112.0781" x="1104.8594" y="698.1387">&#171;BusinessService&#187;</text><text fill="#000000" font-family="sans-serif" font-size="12" lengthAdjust="spacing" textLength="174.7969" x="1073.5" y="724.1074">Platform Engineering Service</text></g><!--entity BSV_009--><g class="entity" data-entity="BSV_009" data-source-line="146" data-uid="ent0041" id="entity_BSV_009"><rect fill="#FFFAC8" height="71.9375" rx="2" ry="2" style="stroke:#B8860B;stroke-width:0.5;" width="168.6699" x="2347.5" y="558"/><text fill="#000000" font-family="sans-serif" font-size="12" font-style="italic" lengthAdjust="spacing" textLength="112.0781" x="2375.7959" y="585.1387">&#171;BusinessService&#187;</text><text fill="#000000" font-family="sans-serif" font-size="12" lengthAdjust="spacing" textLength="136.6699" x="2363.5" y="611.1074">User Decisions Service</text></g><g class="entity" data-entity="N1" data-source-line="178" data-uid="ent0058" id="entity_N1"><path d="M2960,62 L2960,163.8125 A2,2 0 0 0 2962,165.8125 L3308.1445,165.8125 A2,2 0 0 0 3310.1445,163.8125 L3310.1445,70 L3300.1445,60 L2962,60 A2,2 0 0 0 2960,62" fill="#FEFFDD" style="stroke:#181818;stroke-width:0.5;"/><path d="M3300.1445,60 L3300.1445,69 A1,1 0 0 0 3301.1445,70 L3310.1445,70 L3300.1445,60" fill="#FEFFDD" style="stroke:#181818;stroke-width:1;"/><text fill="#000000" font-family="sans-serif" font-size="12" lengthAdjust="spacing" textLength="280.9453" x="2972" y="82.1387">BusinessRole elements (AI Agent Roles) define</text><text fill="#000000" font-family="sans-serif" font-size="12" lengthAdjust="spacing" textLength="258.2168" x="2972" y="96.1074">behavioral specifications. Application-layer</text><text fill="#000000" font-family="sans-serif" font-size="12" lengthAdjust="spacing" textLength="317.1445" x="2972" y="110.0762">implementations (ApplicationComponent) are shown</text><text fill="#000000" font-family="sans-serif" font-size="12" lengthAdjust="spacing" textLength="220.582" x="2972" y="124.0449">in phase-c-archimate-application-v1.</text><text fill="#000000" font-family="sans-serif" font-size="12" lengthAdjust="spacing" textLength="230.0391" x="2972" y="138.0137">BPR-002 (Skill Execution) also realizes</text><text fill="#000000" font-family="sans-serif" font-size="12" lengthAdjust="spacing" textLength="316.4707" x="2972" y="151.9824">BSV-004..BSV-008 &#8212; see connections/ for full graph.</text></g><!--link ACT_002 to BPR_001--><g class="link" data-entity-1="ACT_002" data-entity-2="BPR_001" data-source-line="152" data-uid="lnk42" id="link_ACT_002_BPR_001"><path d="M1520.28,120.61 C1742.6,143.49 2465.75,218.1 2471,221 C2502.81,238.56 2524.2054,267.4665 2539.3454,293.6365" fill="none" id="ACT_002-to-BPR_001" style="stroke:#B8860B;stroke-width:1;"/><polygon fill="#B8860B" points="2542.35,298.83,2541.3055,289.0367,2539.8462,294.5021,2534.3808,293.0428,2542.35,298.83" style="stroke:#B8860B;stroke-width:1;"/><text fill="#000000" font-family="sans-serif" font-size="12" lengthAdjust="spacing" textLength="84.4805" x="2406" y="204.1387">&#171;assignment&#187;</text></g><!--link ACT_002 to BPR_004--><g class="link" data-entity-1="ACT_002" data-entity-2="BPR_004" data-source-line="153" data-uid="lnk43" id="link_ACT_002_BPR_004"><path d="M1520.1,127.68 C1580.83,142.95 1672.38,172.17 1739,221 C1767.5,241.89 1788.4294,269.1668 1804.3694,293.8968" fill="none" id="ACT_002-to-BPR_004" style="stroke:#B8860B;stroke-width:1;"/><polygon fill="#B8860B" points="1807.62,298.94,1806.1062,289.2082,1804.9111,294.7374,1799.382,293.5423,1807.62,298.94" style="stroke:#B8860B;stroke-width:1;"/><text fill="#000000" font-family="sans-serif" font-size="12" lengthAdjust="spacing" textLength="84.4805" x="1732" y="204.1387">&#171;assignment&#187;</text></g><!--link ACT_002 to BPR_006--><g class="link" data-entity-1="ACT_002" data-entity-2="BPR_006" data-source-line="154" data-uid="lnk44" id="link_ACT_002_BPR_006"><path d="M1520.17,117.91 C1764.94,132.81 2626.4,185.3 2628,186 C2643.83,192.96 2640.11,206.18 2656,213 C2693.41,229.06 2802.78,202.43 2839,221 C2871.56,237.69 2893.0553,267.0523 2908.0053,293.5923" fill="none" id="ACT_002-to-BPR_006" style="stroke:#B8860B;stroke-width:1;"/><polygon fill="#B8860B" points="2910.95,298.82,2910.018,289.0153,2908.496,294.4636,2903.0478,292.9417,2910.95,298.82" style="stroke:#B8860B;stroke-width:1;"/><text fill="#000000" font-family="sans-serif" font-size="12" lengthAdjust="spacing" textLength="84.4805" x="2663" y="204.1387">&#171;assignment&#187;</text></g><!--link ACT_003 to BPR_002--><g class="link" data-entity-1="ACT_003" data-entity-2="BPR_002" data-source-line="155" data-uid="lnk45" id="link_ACT_003_BPR_002"><path d="M1339.7,149.29 C1351.27,157.9 1364.18,166.49 1377,173 C1430.9,200.38 1449.05,195.81 1507,213 C1519.41,216.68 1523.82,214.49 1535,221 C1569.47,241.08 1597.2997,269.2521 1618.6597,294.3321" fill="none" id="ACT_003-to-BPR_002" style="stroke:#B8860B;stroke-width:1;"/><polygon fill="#B8860B" points="1622.55,298.9,1619.7597,289.4547,1619.3081,295.0935,1613.6693,294.6418,1622.55,298.9" style="stroke:#B8860B;stroke-width:1;"/><text fill="#000000" font-family="sans-serif" font-size="12" lengthAdjust="spacing" textLength="84.4805" x="1514" y="204.1387">&#171;assignment&#187;</text></g><!--link ACT_004 to BPR_002--><g class="link" data-entity-1="ACT_004" data-entity-2="BPR_002" data-source-line="156" data-uid="lnk46" id="link_ACT_004_BPR_002"><path d="M1181.1,149.22 C1211.82,172.92 1256.1,201.82 1301,213 C1326.24,219.29 1511.09,210.74 1535,221 C1572.81,237.23 1601.4519,267.3319 1622.1019,294.0619" fill="none" id="ACT_004-to-BPR_002" style="stroke:#B8860B;stroke-width:1;"/><polygon fill="#B8860B" points="1625.77,298.81,1623.4332,289.2424,1622.7132,294.8532,1617.1024,294.1332,1625.77,298.81" style="stroke:#B8860B;stroke-width:1;"/><text fill="#000000" font-family="sans-serif" font-size="12" lengthAdjust="spacing" textLength="84.4805" x="1308" y="204.1387">&#171;assignment&#187;</text></g><!--link ACT_001 to BPR_003--><g class="link" data-entity-1="ACT_001" data-entity-2="BPR_003" data-source-line="157" data-uid="lnk47" id="link_ACT_001_BPR_003"><path d="M2825.71,149.24 C2797.35,177.51 2762.07,212.55 2761,213 C2726.86,227.28 2128.19,204.64 2095,221 C2062.07,237.23 2040.5239,266.8351 2025.6739,293.5651" fill="none" id="ACT_001-to-BPR_003" style="stroke:#B8860B;stroke-width:1;"/><polygon fill="#B8860B" points="2022.76,298.81,2030.6274,292.8852,2025.1882,294.4392,2023.6342,289,2022.76,298.81" style="stroke:#B8860B;stroke-width:1;"/><text fill="#000000" font-family="sans-serif" font-size="12" lengthAdjust="spacing" textLength="84.4805" x="2795" y="204.1387">&#171;assignment&#187;</text></g><!--link ACT_001 to BPR_006--><g class="link" data-entity-1="ACT_001" data-entity-2="BPR_006" data-source-line="158" data-uid="lnk48" id="link_ACT_001_BPR_006"><path d="M2878.92,149.31 C2884.28,160.8 2889.84,173.76 2894,186 C2906.82,223.69 2915.2397,262.5118 2920.8997,292.8518" fill="none" id="ACT_001-to-BPR_006" style="stroke:#B8860B;stroke-width:1;"/><polygon fill="#B8860B" points="2922,298.75,2924.2817,289.1691,2921.0831,293.8348,2916.4173,290.6362,2922,298.75" style="stroke:#B8860B;stroke-width:1;"/><text fill="#000000" font-family="sans-serif" font-size="12" lengthAdjust="spacing" textLength="84.4805" x="2908" y="204.1387">&#171;assignment&#187;</text></g><!--link ACT_011 to BPR_007--><g class="link" data-entity-1="ACT_011" data-entity-2="BPR_007" data-source-line="159" data-uid="lnk49" id="link_ACT_011_BPR_007"><path d="M2517.23,149.04 C2512.52,170.24 2511.37,196.31 2527,213 C2536.29,222.92 2636.88,214.86 2649,221 C2682.5,237.96 2705.6175,267.405 2721.9575,293.865" fill="none" id="ACT_011-to-BPR_007" style="stroke:#B8860B;stroke-width:1;"/><polygon fill="#B8860B" points="2725.11,298.97,2723.7845,289.2107,2722.4829,294.7158,2716.9778,293.4141,2725.11,298.97" style="stroke:#B8860B;stroke-width:1;"/><text fill="#000000" font-family="sans-serif" font-size="12" lengthAdjust="spacing" textLength="84.4805" x="2534" y="204.1387">&#171;assignment&#187;</text></g><!--link BPR_001 to BSV_003--><g class="link" data-entity-1="BPR_001" data-entity-2="BSV_003" data-source-line="165" data-uid="lnk50" id="link_BPR_001_BSV_003"><path d="M2514.98,371.29 C2501.49,380.32 2486.22,389.12 2471,395 C2391.31,425.77 2363.56,402.06 2281,424 C2248.77,432.57 2242.82,441.03 2211,451 C2159.05,467.27 2139.68,453.73 2092,480 C2056.63,499.49 2029.4732,526.3832 2007.7932,551.7032" fill="none" id="BPR_001-to-BSV_003" style="stroke:#B8860B;stroke-width:1;stroke-dasharray:7.0,7.0;"/><polygon fill="#B8860B" points="2002.59,557.78,2010.072,553.6544,2005.5144,549.752,2002.59,557.78" style="stroke:#B8860B;stroke-width:1;"/><text fill="#000000" font-family="sans-serif" font-size="12" lengthAdjust="spacing" textLength="77.6602" x="2288" y="442.1387">&#171;realization&#187;</text></g><!--link BPR_002 to BSV_001--><g class="link" data-entity-1="BPR_002" data-entity-2="BSV_001" data-source-line="166" data-uid="lnk51" id="link_BPR_002_BSV_001"><path d="M1693.41,371.01 C1707.22,380.39 1723.07,389.45 1739,395 C1881.37,444.64 1944.05,352.88 2077,424 C2132.79,453.85 2169.8656,510.561 2191.2556,550.671" fill="none" id="BPR_002-to-BSV_001" style="stroke:#B8860B;stroke-width:1;stroke-dasharray:7.0,7.0;"/><polygon fill="#B8860B" points="2195.02,557.73,2193.9027,549.2594,2188.6085,552.0827,2195.02,557.73" style="stroke:#B8860B;stroke-width:1;"/><text fill="#000000" font-family="sans-serif" font-size="12" lengthAdjust="spacing" textLength="77.6602" x="2120" y="442.1387">&#171;realization&#187;</text></g><!--link BPR_002 to BSV_002--><g class="link" data-entity-1="BPR_002" data-entity-2="BSV_002" data-source-line="167" data-uid="lnk52" id="link_BPR_002_BSV_002"><path d="M1655.2,371.2 C1662.46,420.27 1674.3691,500.8361 1681.6291,549.9061" fill="none" id="BPR_002-to-BSV_002" style="stroke:#B8860B;stroke-width:1;stroke-dasharray:7.0,7.0;"/><polygon fill="#B8860B" points="1682.8,557.82,1684.5968,549.4671,1678.6614,550.3452,1682.8,557.82" style="stroke:#B8860B;stroke-width:1;"/><text fill="#000000" font-family="sans-serif" font-size="12" lengthAdjust="spacing" textLength="77.6602" x="1673" y="442.1387">&#171;realization&#187;</text></g><!--link BPR_003 to BSV_009--><g class="link" data-entity-1="BPR_003" data-entity-2="BSV_009" data-source-line="168" data-uid="lnk53" id="link_BPR_003_BSV_009"><path d="M2049.92,371.16 C2063.63,380.42 2079.29,389.38 2095,395 C2154.73,416.37 2329.84,383.9 2379,424 C2418.79,456.46 2428.723,510.5055 2431.163,549.7055" fill="none" id="BPR_003-to-BSV_009" style="stroke:#B8860B;stroke-width:1;stroke-dasharray:7.0,7.0;"/><polygon fill="#B8860B" points="2431.66,557.69,2434.1572,549.5191,2428.1688,549.8918,2431.66,557.69" style="stroke:#B8860B;stroke-width:1;"/><text fill="#000000" font-family="sans-serif" font-size="12" lengthAdjust="spacing" textLength="77.6602" x="2409" y="442.1387">&#171;realization&#187;</text></g><!--link BPR_004 to BSV_003--><g class="link" data-entity-1="BPR_004" data-entity-2="BSV_003" data-source-line="169" data-uid="lnk54" id="link_BPR_004_BSV_003"><path d="M1830.3,371.22 C1832.96,394.8 1838.68,425.98 1851,451 C1871.39,492.4 1901.1437,525.7457 1928.9737,552.3157" fill="none" id="BPR_004-to-BSV_003" style="stroke:#B8860B;stroke-width:1;stroke-dasharray:7.0,7.0;"/><polygon fill="#B8860B" points="1934.76,557.84,1931.0453,550.1458,1926.902,554.4855,1934.76,557.84" style="stroke:#B8860B;stroke-width:1;"/><text fill="#000000" font-family="sans-serif" font-size="12" lengthAdjust="spacing" textLength="77.6602" x="1858" y="442.1387">&#171;realization&#187;</text></g><!--link BPR_006 to BSV_009--><g class="link" data-entity-1="BPR_006" data-entity-2="BSV_009" data-source-line="170" data-uid="lnk55" id="link_BPR_006_BSV_009"><path d="M2882.42,371 C2849.7,395.22 2803.97,427.23 2761,451 C2680.98,495.26 2591.8296,532.6297 2524.0796,558.8797" fill="none" id="BPR_006-to-BSV_009" style="stroke:#B8860B;stroke-width:1;stroke-dasharray:7.0,7.0;"/><polygon fill="#B8860B" points="2516.62,561.77,2525.1635,561.6771,2522.9958,556.0824,2516.62,561.77" style="stroke:#B8860B;stroke-width:1;"/><text fill="#000000" font-family="sans-serif" font-size="12" lengthAdjust="spacing" textLength="77.6602" x="2810" y="442.1387">&#171;realization&#187;</text></g><!--link BPR_007 to BSV_001--><g class="link" data-entity-1="BPR_007" data-entity-2="BSV_001" data-source-line="171" data-uid="lnk56" id="link_BPR_007_BSV_001"><path d="M2691.29,371.28 C2677.8,379.59 2663.11,388.05 2649,395 C2585.53,426.26 2568.26,432.42 2500,451 C2427.31,470.78 2400.45,446.45 2333,480 C2295.81,498.5 2267.3029,526.0775 2244.9429,551.8475" fill="none" id="BPR_007-to-BSV_001" style="stroke:#B8860B;stroke-width:1;stroke-dasharray:7.0,7.0;"/><polygon fill="#B8860B" points="2239.7,557.89,2247.2089,553.8136,2242.677,549.8814,2239.7,557.89" style="stroke:#B8860B;stroke-width:1;"/><text fill="#000000" font-family="sans-serif" font-size="12" lengthAdjust="spacing" textLength="77.6602" x="2591" y="442.1387">&#171;realization&#187;</text></g><!--link BPR_008 to BSV_002--><g class="link" data-entity-1="BPR_008" data-entity-2="BSV_002" data-source-line="172" data-uid="lnk57" id="link_BPR_008_BSV_002"><path d="M2328.85,371.2 C2314.21,380.46 2297.55,389.41 2281,395 C2153.25,438.15 2104.05,373.55 1979,424 C1961.1,431.22 1961.95,441.78 1945,451 C1909.57,470.27 1895.24,462.29 1859,480 C1814.24,501.87 1773.7682,528.9123 1740.4082,553.1923" fill="none" id="BPR_008-to-BSV_002" style="stroke:#B8860B;stroke-width:1;stroke-dasharray:7.0,7.0;"/><polygon fill="#B8860B" points="1733.94,557.9,1742.1736,555.6179,1738.6428,550.7667,1733.94,557.9" style="stroke:#B8860B;stroke-width:1;"/><text fill="#000000" font-family="sans-serif" font-size="12" lengthAdjust="spacing" textLength="77.6602" x="1986" y="442.1387">&#171;realization&#187;</text></g><!--SRC=[jLVRRjiu47ttLqop3qswa7nJR6TR653S82tQfeRLvcMn21YPjeb8f41IJjsYG9_w0SL-uNx93cKdrhJMOWrOVlAH3icPCsT8wecGSP9FEVX-yoPbiLR6p_8qQJmfls0wNeYKMUuPopLNTfNn3QzXxeJCc6OfpBNAizTomRMmJCOSsgMNKasvuHbqMwM7ciaxzp0eFypOT2ha77gDnbFm3lV3sKOiOxSY4LPm0yV6QanfleA4hRY6Vxxz3NR1uUX-mUnHyTUiCDyKqjnOC7cMAMrF3XoKvZ6ADKzmtN9qH_3YHRI9xzBfYeeCXy0CZC9n15yQ02ylHczl4DsqMcqAEnHsAGmeFAMmr_XwUDrVvIcJM5XjHImo9crz8gwN6c-NSagUvqP8RWnLyjN7T-7LLifmzA6GieRymzSGphcqC549EW-E7m9ok33UBL-mfL2Q9M0o7ekPY9aLIfeQ_KQZgjOflBou-X3zB5I7mYw50OMd5FOex5CueF2Cm7QhbWAv3SwYDBdcSAcMNCjY1zjMQgIIXDrYWLnLYf95OI4S_0xH_UFVZuRhEaksEyxgsbs-lxwO_6poTYqcZrw-7S5OgnY3uAO-3UWwrQcF9-z79TUUZoVbdN8DEnHsAGmeFAMmHs6Vma4T4Zya2X7NIn6xGun_iiu42Im5lmSrWxXqYjJen5z2gIv4T4tg45sJEXImGs6Nme32Kmfx5FOf751uLilkOOoOozHjfR6I4aLoEpSSkpsX6SPMuUNY-mz0Onow89kj6Bm_VpiV37gjyx-y8MoS3dzWHTXZQCFXVx63lTYzAdPt5xjJnGxsOhTtiRjxiQlYRkzaztzb7zmw4yuIyNbzg13lO0XhqqJNpZHl-0hqbckUmonFyAx0BGWoilbuLs-M-4sSpdk6I-9qtZC_dHuuaGVB-VwZZ3us_wQR2nrBqQ2G3xNUEQ2zxu1EvO3kxW5dbGE2VNFexRj2Vz-a1_y_wOFxyqhPWv_b4kTqvyALEmJ8JPWdt3KQsf_UJKzWocT8GtxbHTc7CCkI3VAAJpgaYpHRpyasVLKYZLIQAOdlJe3XTSeirBrqG_1BPS4Czs9l-ztBIdClsxuB73lA5U4ukXFOYHUVU9oxrpXPOjIcML4xSEL2Pk3xwp-3ulPeE2Tj2pCy9OgUdckMBVm6brDmIZN-1G00]--></g></svg>