<svg xmlns="http://www.w3.org/2000/svg" xmlns:xlink="http://www.w3.org/1999/xlink" contentStyleType="text/css" data-diagram-type="ACTIVITY" height="804px" preserveAspectRatio="none" style="width:970px;height:804px;background:#FFFFFF;" version="1.1" viewBox="0 0 970 804" width="970px" zoomAndPan="magnify"><defs/><g><rect fill="none" height="20.9531" style="stroke:none;stroke-width:1;" width="937.1262" x="15" y="12.7451"/><ellipse cx="210.2709" cy="48.6982" fill="#222222" rx="10" ry="10" style="stroke:#222222;stroke-width:1;"/><rect fill="#F0F8FF" height="45.6094" rx="12.5" ry="12.5" style="stroke:#4682B4;stroke-width:0.5;" width="158.166" x="131.1879" y="78.6982"/><text fill="#000000" font-family="sans-serif" font-size="11" lengthAdjust="spacing" textLength="138.166" x="141.1879" y="98.9087">BPR-004 Gate Evaluation</text><text fill="#000000" font-family="sans-serif" font-size="11" lengthAdjust="spacing" textLength="38.9351" x="141.1879" y="111.7134">passed</text><rect fill="#F0F8FF" height="45.6094" rx="12.5" ry="12.5" style="stroke:#4682B4;stroke-width:0.5;" width="129.9731" x="145.2844" y="144.3076"/><text fill="#000000" font-family="sans-serif" font-size="11" lengthAdjust="spacing" textLength="109.9731" x="155.2844" y="164.5181">Start BIA-001 Sprint</text><text fill="#000000" font-family="sans-serif" font-size="11" lengthAdjust="spacing" textLength="102.9155" x="155.2844" y="177.3228">Review Interaction</text><rect fill="#F0F8FF" height="45.6094" rx="12.5" ry="12.5" style="stroke:#4682B4;stroke-width:0.5;" width="143.5566" x="138.4926" y="209.917"/><text fill="#000000" font-family="sans-serif" font-size="11" lengthAdjust="spacing" textLength="123.5566" x="148.4926" y="230.1274">BIA-101 Present sprint</text><text fill="#000000" font-family="sans-serif" font-size="11" lengthAdjust="spacing" textLength="42.0127" x="148.4926" y="242.9321">outputs</text><rect fill="#F0F8FF" height="45.6094" rx="12.5" ry="12.5" style="stroke:#4682B4;stroke-width:0.5;" width="157.2314" x="21" y="385.1357"/><text fill="#000000" font-family="sans-serif" font-size="11" lengthAdjust="spacing" textLength="137.2314" x="31" y="405.3462">BIA-103 Record approval</text><text fill="#000000" font-family="sans-serif" font-size="11" lengthAdjust="spacing" textLength="87.5972" x="31" y="418.1509">and close sprint</text><ellipse cx="99.6157" cy="461.7451" fill="none" rx="11" ry="11" style="stroke:#222222;stroke-width:1;"/><ellipse cx="99.6157" cy="461.7451" fill="#222222" rx="6" ry="6" style="stroke:#222222;stroke-width:1;"/><rect fill="#F0F8FF" height="45.6094" rx="12.5" ry="12.5" style="stroke:#4682B4;stroke-width:0.5;" width="158.4077" x="241.7223" y="385.1357"/><text fill="#000000" font-family="sans-serif" font-size="11" lengthAdjust="spacing" textLength="138.4077" x="251.7223" y="405.3462">BIA-103 Route correction</text><text fill="#000000" font-family="sans-serif" font-size="11" lengthAdjust="spacing" textLength="47.8726" x="251.7223" y="418.1509">handoffs</text><rect fill="#F0F8FF" height="32.8047" rx="12.5" ry="12.5" style="stroke:#4682B4;stroke-width:0.5;" width="137.874" x="251.9891" y="503.5498"/><text fill="#000000" font-family="sans-serif" font-size="11" lengthAdjust="spacing" textLength="117.874" x="261.9891" y="523.7603">Re-open review cycle</text><rect fill="#F0F8FF" height="32.8047" rx="12.5" ry="12.5" style="stroke:#4682B4;stroke-width:0.5;" width="165.9702" x="237.941" y="609.1592"/><text fill="#000000" font-family="sans-serif" font-size="11" lengthAdjust="spacing" textLength="145.9702" x="247.941" y="629.3696">Process updated decisions</text><polygon fill="#FFFFE0" points="278.4086,661.9639,363.4437,661.9639,375.4437,673.9639,363.4437,685.9639,278.4086,685.9639,266.4086,673.9639,278.4086,661.9639" style="stroke:#B8860B;stroke-width:0.5;"/><text fill="#000000" font-family="sans-serif" font-size="11" lengthAdjust="spacing" textLength="85.0352" x="278.4086" y="677.772">Approved now?</text><text fill="#000000" font-family="sans-serif" font-size="11" lengthAdjust="spacing" textLength="19.0083" x="247.4003" y="671.3696">yes</text><text fill="#000000" font-family="sans-serif" font-size="11" lengthAdjust="spacing" textLength="13.7017" x="375.4437" y="671.3696">no</text><rect fill="#F0F8FF" height="32.8047" rx="12.5" ry="12.5" style="stroke:#4682B4;stroke-width:0.5;" width="85.0386" x="208.2314" y="695.9639"/><text fill="#000000" font-family="sans-serif" font-size="11" lengthAdjust="spacing" textLength="65.0386" x="218.2314" y="716.1743">Close sprint</text><ellipse cx="250.7507" cy="759.7686" fill="none" rx="11" ry="11" style="stroke:#222222;stroke-width:1;"/><ellipse cx="250.7507" cy="759.7686" fill="#222222" rx="6" ry="6" style="stroke:#222222;stroke-width:1;"/><rect fill="#F0F8FF" height="32.8047" rx="12.5" ry="12.5" style="stroke:#4682B4;stroke-width:0.5;" width="155.6631" x="313.27" y="695.9639"/><text fill="#000000" font-family="sans-serif" font-size="11" lengthAdjust="spacing" textLength="135.6631" x="323.27" y="716.1743">Continue correction loop</text><ellipse cx="391.1016" cy="759.7686" fill="none" rx="11" ry="11" style="stroke:#222222;stroke-width:1;"/><ellipse cx="391.1016" cy="759.7686" fill="#222222" rx="6" ry="6" style="stroke:#222222;stroke-width:1;"/><line style="stroke:#5F9EA0;stroke-width:1.5;" x1="15" x2="15" y1="12.7451" y2="792.7686"/><rect fill="#F0F8FF" height="45.6094" rx="12.5" ry="12.5" style="stroke:#4682B4;stroke-width:0.5;" width="176.2183" x="478.9331" y="275.5264"/><text fill="#000000" font-family="sans-serif" font-size="11" lengthAdjust="spacing" textLength="156.2183" x="488.9331" y="295.7368">BIA-102 Review outputs and</text><text fill="#000000" font-family="sans-serif" font-size="11" lengthAdjust="spacing" textLength="88.376" x="488.9331" y="308.5415">decide outcome</text><polygon fill="#FFFFE0" points="512.4075,341.1357,621.677,341.1357,633.677,353.1357,621.677,365.1357,512.4075,365.1357,500.4075,353.1357,512.4075,341.1357" style="stroke:#B8860B;stroke-width:0.5;"/><text fill="#000000" font-family="sans-serif" font-size="11" lengthAdjust="spacing" textLength="109.2695" x="512.4075" y="356.9438">All items approved?</text><text fill="#000000" font-family="sans-serif" font-size="11" lengthAdjust="spacing" textLength="19.0083" x="481.3992" y="350.5415">yes</text><text fill="#000000" font-family="sans-serif" font-size="11" lengthAdjust="spacing" textLength="13.7017" x="633.677" y="350.5415">no</text><rect fill="#F0F8FF" height="32.8047" rx="12.5" ry="12.5" style="stroke:#4682B4;stroke-width:0.5;" width="164.3428" x="595.5261" y="556.3545"/><text fill="#000000" font-family="sans-serif" font-size="11" lengthAdjust="spacing" textLength="144.3428" x="605.5261" y="576.5649">Re-review revised outputs</text><line style="stroke:#5F9EA0;stroke-width:1.5;" x1="472.9331" x2="472.9331" y1="12.7451" y2="792.7686"/><rect fill="#F0F8FF" height="32.8047" rx="12.5" ry="12.5" style="stroke:#4682B4;stroke-width:0.5;" width="150.1899" x="782.8359" y="450.7451"/><text fill="#000000" font-family="sans-serif" font-size="11" lengthAdjust="spacing" textLength="130.1899" x="792.8359" y="470.9556">Revise flagged artifacts</text><line style="stroke:#5F9EA0;stroke-width:1.5;" x1="763.8688" x2="763.8688" y1="12.7451" y2="792.7686"/><line style="stroke:#5F9EA0;stroke-width:1.5;" x1="949.9929" x2="949.9929" y1="12.7451" y2="792.7686"/><line style="stroke:#4682B4;stroke-width:1;" x1="210.2709" x2="210.2709" y1="58.6982" y2="78.6982"/><polygon fill="#4682B4" points="206.2709,68.6982,210.2709,78.6982,214.2709,68.6982,210.2709,72.6982" style="stroke:#4682B4;stroke-width:1;"/><line style="stroke:#4682B4;stroke-width:1;" x1="210.2709" x2="210.2709" y1="124.3076" y2="144.3076"/><polygon fill="#4682B4" points="206.2709,134.3076,210.2709,144.3076,214.2709,134.3076,210.2709,138.3076" style="stroke:#4682B4;stroke-width:1;"/><line style="stroke:#4682B4;stroke-width:1;" x1="210.2709" x2="210.2709" y1="189.917" y2="209.917"/><polygon fill="#4682B4" points="206.2709,199.917,210.2709,209.917,214.2709,199.917,210.2709,203.917" style="stroke:#4682B4;stroke-width:1;"/><line style="stroke:#4682B4;stroke-width:1;" x1="99.6157" x2="99.6157" y1="430.7451" y2="450.7451"/><polygon fill="#4682B4" points="95.6157,440.7451,99.6157,450.7451,103.6157,440.7451,99.6157,444.7451" style="stroke:#4682B4;stroke-width:1;"/><line style="stroke:#4682B4;stroke-width:1;" x1="250.7507" x2="250.7507" y1="728.7686" y2="748.7686"/><polygon fill="#4682B4" points="246.7507,738.7686,250.7507,748.7686,254.7507,738.7686,250.7507,742.7686" style="stroke:#4682B4;stroke-width:1;"/><line style="stroke:#4682B4;stroke-width:1;" x1="391.1016" x2="391.1016" y1="728.7686" y2="748.7686"/><polygon fill="#4682B4" points="387.1016,738.7686,391.1016,748.7686,395.1016,738.7686,391.1016,742.7686" style="stroke:#4682B4;stroke-width:1;"/><line style="stroke:#4682B4;stroke-width:1;" x1="266.4086" x2="250.7507" y1="673.9639" y2="673.9639"/><line style="stroke:#4682B4;stroke-width:1;" x1="250.7507" x2="250.7507" y1="673.9639" y2="695.9639"/><polygon fill="#4682B4" points="246.7507,685.9639,250.7507,695.9639,254.7507,685.9639,250.7507,689.9639" style="stroke:#4682B4;stroke-width:1;"/><line style="stroke:#4682B4;stroke-width:1;" x1="375.4437" x2="391.1016" y1="673.9639" y2="673.9639"/><line style="stroke:#4682B4;stroke-width:1;" x1="391.1016" x2="391.1016" y1="673.9639" y2="695.9639"/><polygon fill="#4682B4" points="387.1016,685.9639,391.1016,695.9639,395.1016,685.9639,391.1016,689.9639" style="stroke:#4682B4;stroke-width:1;"/><line style="stroke:#4682B4;stroke-width:1;" x1="320.9261" x2="320.9261" y1="641.9639" y2="661.9639"/><polygon fill="#4682B4" points="316.9261,651.9639,320.9261,661.9639,324.9261,651.9639,320.9261,655.9639" style="stroke:#4682B4;stroke-width:1;"/><line style="stroke:#4682B4;stroke-width:1;" x1="567.0422" x2="567.0422" y1="321.1357" y2="341.1357"/><polygon fill="#4682B4" points="563.0422,331.1357,567.0422,341.1357,571.0422,331.1357,567.0422,335.1357" style="stroke:#4682B4;stroke-width:1;"/><line style="stroke:#4682B4;stroke-width:1;" x1="210.2709" x2="210.2709" y1="255.5264" y2="260.5264"/><line style="stroke:#4682B4;stroke-width:1;" x1="210.2709" x2="567.0422" y1="260.5264" y2="260.5264"/><line style="stroke:#4682B4;stroke-width:1;" x1="567.0422" x2="567.0422" y1="260.5264" y2="275.5264"/><polygon fill="#4682B4" points="563.0422,265.5264,567.0422,275.5264,571.0422,265.5264,567.0422,269.5264" style="stroke:#4682B4;stroke-width:1;"/><line style="stroke:#4682B4;stroke-width:1;" x1="320.9261" x2="320.9261" y1="430.7451" y2="435.7451"/><line style="stroke:#4682B4;stroke-width:1;" x1="320.9261" x2="857.9308" y1="435.7451" y2="435.7451"/><line style="stroke:#4682B4;stroke-width:1;" x1="857.9308" x2="857.9308" y1="435.7451" y2="450.7451"/><polygon fill="#4682B4" points="853.9308,440.7451,857.9308,450.7451,861.9308,440.7451,857.9308,444.7451" style="stroke:#4682B4;stroke-width:1;"/><line style="stroke:#4682B4;stroke-width:1;" x1="857.9308" x2="857.9308" y1="483.5498" y2="488.5498"/><line style="stroke:#4682B4;stroke-width:1;" x1="857.9308" x2="320.9261" y1="488.5498" y2="488.5498"/><line style="stroke:#4682B4;stroke-width:1;" x1="320.9261" x2="320.9261" y1="488.5498" y2="503.5498"/><polygon fill="#4682B4" points="316.9261,493.5498,320.9261,503.5498,324.9261,493.5498,320.9261,497.5498" style="stroke:#4682B4;stroke-width:1;"/><line style="stroke:#4682B4;stroke-width:1;" x1="320.9261" x2="320.9261" y1="536.3545" y2="541.3545"/><line style="stroke:#4682B4;stroke-width:1;" x1="320.9261" x2="677.6974" y1="541.3545" y2="541.3545"/><line style="stroke:#4682B4;stroke-width:1;" x1="677.6974" x2="677.6974" y1="541.3545" y2="556.3545"/><polygon fill="#4682B4" points="673.6974,546.3545,677.6974,556.3545,681.6974,546.3545,677.6974,550.3545" style="stroke:#4682B4;stroke-width:1;"/><line style="stroke:#4682B4;stroke-width:1;" x1="677.6974" x2="677.6974" y1="589.1592" y2="594.1592"/><line style="stroke:#4682B4;stroke-width:1;" x1="677.6974" x2="320.9261" y1="594.1592" y2="594.1592"/><line style="stroke:#4682B4;stroke-width:1;" x1="320.9261" x2="320.9261" y1="594.1592" y2="609.1592"/><polygon fill="#4682B4" points="316.9261,599.1592,320.9261,609.1592,324.9261,599.1592,320.9261,603.1592" style="stroke:#4682B4;stroke-width:1;"/><line style="stroke:#4682B4;stroke-width:1;" x1="500.4075" x2="99.6157" y1="353.1357" y2="353.1357"/><line style="stroke:#4682B4;stroke-width:1;" x1="99.6157" x2="99.6157" y1="353.1357" y2="385.1357"/><polygon fill="#4682B4" points="95.6157,375.1357,99.6157,385.1357,103.6157,375.1357,99.6157,379.1357" style="stroke:#4682B4;stroke-width:1;"/><line style="stroke:#4682B4;stroke-width:1;" x1="633.677" x2="645.677" y1="353.1357" y2="353.1357"/><line style="stroke:#4682B4;stroke-width:1;" x1="645.677" x2="645.677" y1="353.1357" y2="371.1357"/><line style="stroke:#4682B4;stroke-width:1;" x1="645.677" x2="320.9261" y1="371.1357" y2="371.1357"/><line style="stroke:#4682B4;stroke-width:1;" x1="320.9261" x2="320.9261" y1="371.1357" y2="385.1357"/><polygon fill="#4682B4" points="316.9261,375.1357,320.9261,385.1357,324.9261,375.1357,320.9261,379.1357" style="stroke:#4682B4;stroke-width:1;"/><text fill="#000000" font-family="sans-serif" font-size="18" font-weight="bold" lengthAdjust="spacing" textLength="97.8135" x="195.0598" y="29.4531">PM Agent</text><text fill="#000000" font-family="sans-serif" font-size="18" font-weight="bold" lengthAdjust="spacing" textLength="46.415" x="595.1935" y="29.4531">User</text><text fill="#000000" font-family="sans-serif" font-size="18" font-weight="bold" lengthAdjust="spacing" textLength="176.124" x="768.8688" y="29.4531">Specialist Agents</text><!--SRC=[VP8nRzim48Lt_eeRdI50t6IAXq9ssY102nXsEtHaoPDCcE8HvCc2M_U_zoInWU80NJISllVktPFoqOMeasv16tOdnsVuhG3MsXoRH5sm6_AKeFBEuDftEBoZP35DypqZ-Z9_ShgbOA-bNrnpu1_eFVKpQERnfDFncRp5aCWAKgL4_NlxpnHuxtuXB9VgZyglkNFlMgy3JhbdlXjjaOlucsEFemEVFS9FMIScwhBz2bM3WIygiqwi7jVRtUtTtGCyQqRuTDA-q-megAXpHhjIZ_k1W_LB9TWIzZ6vm6g79uSzl0J6DFH8GSY1MGgpJPXb1UI9fOvZntabsxzdJ9T_u0SeBWK07QooQ9p5OMIeHT6u6XQLz-0OMq5YJ7H2-_46-8015cVCDtBkx2w0udyl_aRgAIBjbIm0uobZYROIE3D5XLvcYq3_iP9426ANS3nN7SICwZeF7fTzbDZQkyoJD8_QuJpnhRrk6fGOYLqjPKsIDrjsU4jHpabJ8UPiF8xKLDX4b9TfTBNmMkkrsJQHmPoXYrQ-gOMXqYoHHtIiivG8WVhh8aM_kMgeT0GmRsdWvEzoePkt0fueljK4wserFVy2]--></g></svg>