<svg xmlns="http://www.w3.org/2000/svg" xmlns:xlink="http://www.w3.org/1999/xlink" contentStyleType="text/css" data-diagram-type="ACTIVITY" height="2595px" preserveAspectRatio="none" style="width:1054px;height:2595px;background:#FFFFFF;" version="1.1" viewBox="0 0 1054 2595" width="1054px" zoomAndPan="magnify"><defs/><g><rect fill="none" height="20.9531" style="stroke:none;stroke-width:1;" width="1021.8059" x="15" y="12.7451"/><ellipse cx="294.9058" cy="48.6982" fill="#222222" rx="10" ry="10" style="stroke:#222222;stroke-width:1;"/><rect fill="#F0F8FF" height="45.6094" rx="12.5" ry="12.5" style="stroke:#4682B4;stroke-width:0.5;" width="160.0942" x="214.8586" y="78.6982"/><text fill="#000000" font-family="sans-serif" font-size="11" lengthAdjust="spacing" textLength="140.0942" x="224.8586" y="98.9087">Read engagement profile</text><text fill="#000000" font-family="sans-serif" font-size="11" lengthAdjust="spacing" textLength="116.3809" x="224.8586" y="111.7134">and EventStore state</text><rect fill="#F0F8FF" height="45.6094" rx="12.5" ry="12.5" style="stroke:#4682B4;stroke-width:0.5;" width="165.4385" x="212.1865" y="144.3076"/><text fill="#000000" font-family="sans-serif" font-size="11" lengthAdjust="spacing" textLength="145.4385" x="222.1865" y="164.5181">Assess open CQs, pending</text><text fill="#000000" font-family="sans-serif" font-size="11" lengthAdjust="spacing" textLength="137.1724" x="222.1865" y="177.3228">handoffs, gate outcomes</text><rect fill="#F0F8FF" height="45.6094" rx="12.5" ry="12.5" style="stroke:#4682B4;stroke-width:0.5;" width="175.7026" x="207.0544" y="209.917"/><text fill="#000000" font-family="sans-serif" font-size="11" lengthAdjust="spacing" textLength="155.7026" x="217.0544" y="230.1274">Determine next specialist(s)</text><text fill="#000000" font-family="sans-serif" font-size="11" lengthAdjust="spacing" textLength="109.812" x="217.0544" y="242.9321">to invoke (BPR-001)</text><rect fill="#F0F8FF" height="32.8047" rx="12.5" ry="12.5" style="stroke:#4682B4;stroke-width:0.5;" width="169.4883" x="210.1616" y="275.5264"/><text fill="#000000" font-family="sans-serif" font-size="11" lengthAdjust="spacing" textLength="25.0347" x="220.1616" y="295.7368">Emit</text><text fill="#000000" font-family="sans-serif" font-size="11" font-weight="bold" lengthAdjust="spacing" textLength="86.1309" x="248.6929" y="295.7368">sprint.started</text><text fill="#000000" font-family="sans-serif" font-size="11" lengthAdjust="spacing" textLength="31.3296" x="338.3203" y="295.7368">event</text><rect fill="#F0F8FF" height="45.6094" rx="12.5" ry="12.5" style="stroke:#4682B4;stroke-width:0.5;" width="146.8438" x="221.4839" y="372.3311"/><text fill="#000000" font-family="sans-serif" font-size="11" lengthAdjust="spacing" textLength="126.8438" x="231.4839" y="392.5415">Invoke specialist agent</text><text fill="#000000" font-family="sans-serif" font-size="11" lengthAdjust="spacing" textLength="100.563" x="231.4839" y="405.3462">with assigned skill</text><rect fill="#F0F8FF" height="71.2188" rx="12.5" ry="12.5" style="stroke:#4682B4;stroke-width:0.5;" width="142.6221" x="223.5947" y="1107.9248"/><text fill="#000000" font-family="sans-serif" font-size="11" lengthAdjust="spacing" textLength="103.7964" x="233.5947" y="1128.1353">Route algedonic to</text><text fill="#000000" font-family="sans-serif" font-size="11" lengthAdjust="spacing" textLength="98.7207" x="233.5947" y="1140.9399">CSCO and/or User</text><text fill="#000000" font-family="sans-serif" font-size="11" lengthAdjust="spacing" textLength="122.6221" x="233.5947" y="1153.7446">(fast path &#8212; bypasses</text><text fill="#000000" font-family="sans-serif" font-size="11" lengthAdjust="spacing" textLength="109.7744" x="233.5947" y="1166.5493">normal sequencing)</text><rect fill="#F0F8FF" height="45.6094" rx="12.5" ry="12.5" style="stroke:#4682B4;stroke-width:0.5;" width="117.2114" x="236.3" y="1199.1436"/><text fill="#000000" font-family="sans-serif" font-size="11" lengthAdjust="spacing" textLength="88.9775" x="246.3" y="1219.354">Await resolution</text><text fill="#000000" font-family="sans-serif" font-size="11" lengthAdjust="spacing" textLength="97.2114" x="246.3" y="1232.1587">before continuing</text><rect fill="#F0F8FF" height="32.8047" rx="12.5" ry="12.5" style="stroke:#4682B4;stroke-width:0.5;" width="195.4146" x="197.1985" y="1439.9717"/><text fill="#000000" font-family="sans-serif" font-size="11" lengthAdjust="spacing" textLength="43.5596" x="207.1985" y="1460.1821">Receive</text><text fill="#000000" font-family="sans-serif" font-size="11" font-weight="bold" lengthAdjust="spacing" textLength="128.3584" x="254.2546" y="1460.1821">specialist.completed</text><polygon fill="#FFFFE0" points="294.9058,328.3311,306.9058,340.3311,294.9058,352.3311,282.9058,340.3311,294.9058,328.3311" style="stroke:#B8860B;stroke-width:0.5;"/><polygon fill="#FFFFE0" points="242.0461,1492.7764,347.7654,1492.7764,359.7654,1505.5811,347.7654,1518.3857,242.0461,1518.3857,230.0461,1505.5811,242.0461,1492.7764" style="stroke:#B8860B;stroke-width:0.5;"/><text fill="#000000" font-family="sans-serif" font-size="11" lengthAdjust="spacing" textLength="88.2202" x="242.0461" y="1502.9868">More specialists</text><text fill="#000000" font-family="sans-serif" font-size="11" lengthAdjust="spacing" textLength="105.7192" x="242.0461" y="1515.7915">needed this sprint?</text><text fill="#000000" font-family="sans-serif" font-size="11" lengthAdjust="spacing" textLength="19.0083" x="359.7654" y="1502.9868">yes</text><rect fill="#F0F8FF" height="45.6094" rx="12.5" ry="12.5" style="stroke:#4682B4;stroke-width:0.5;" width="150.4048" x="219.7034" y="1559.7847"/><text fill="#000000" font-family="sans-serif" font-size="11" lengthAdjust="spacing" textLength="99.4995" x="229.7034" y="1579.9951">Collect gate votes</text><text fill="#000000" font-family="sans-serif" font-size="11" lengthAdjust="spacing" textLength="130.4048" x="229.7034" y="1592.7998">from all agents + CSCO</text><polygon fill="#FFFFE0" points="257.5981,1625.394,332.2134,1625.394,344.2134,1637.394,332.2134,1649.394,257.5981,1649.394,245.5981,1637.394,257.5981,1625.394" style="stroke:#B8860B;stroke-width:0.5;"/><text fill="#000000" font-family="sans-serif" font-size="11" lengthAdjust="spacing" textLength="74.6152" x="257.5981" y="1641.2021">Gate passed?</text><text fill="#000000" font-family="sans-serif" font-size="11" lengthAdjust="spacing" textLength="127.6011" x="117.9971" y="1634.7998">no &#8212; failed or deferred</text><text fill="#000000" font-family="sans-serif" font-size="11" lengthAdjust="spacing" textLength="19.0083" x="344.2134" y="1634.7998">yes</text><path d="M179.7656,1662.0659 L179.7656,1678.1987 L159.7656,1682.1987 L179.7656,1686.1987 L179.7656,1702.3315 A0,0 0 0 0 179.7656,1702.3315 L392.3696,1702.3315 A0,0 0 0 0 392.3696,1702.3315 L392.3696,1672.0659 L382.3696,1662.0659 L179.7656,1662.0659 A0,0 0 0 0 179.7656,1662.0659" fill="#FEFFDD" style="stroke:#181818;stroke-width:0.5;"/><path d="M382.3696,1662.0659 L382.3696,1672.0659 L392.3696,1672.0659 L382.3696,1662.0659" fill="#FEFFDD" style="stroke:#181818;stroke-width:0.5;"/><text fill="#000000" font-family="sans-serif" font-size="13" lengthAdjust="spacing" textLength="139.8198" x="185.7656" y="1679.1328">Deferred &#8594; re-queue;</text><text fill="#000000" font-family="sans-serif" font-size="13" lengthAdjust="spacing" textLength="191.604" x="185.7656" y="1694.2656">Failed &#8594; algedonic escalation</text><rect fill="#F0F8FF" height="45.6094" rx="12.5" ry="12.5" style="stroke:#4682B4;stroke-width:0.5;" width="138.7656" x="21" y="1659.394"/><text fill="#000000" font-family="sans-serif" font-size="11" lengthAdjust="spacing" textLength="118.7656" x="31" y="1679.6045">Record gate outcome</text><text fill="#000000" font-family="sans-serif" font-size="11" lengthAdjust="spacing" textLength="4.2915" x="31" y="1692.4092">(</text><text fill="#000000" font-family="sans-serif" font-size="11" font-weight="bold" lengthAdjust="spacing" textLength="93.8652" x="35.2915" y="1692.4092">gate.evaluated</text><text fill="#000000" font-family="sans-serif" font-size="11" lengthAdjust="spacing" textLength="4.2915" x="129.1567" y="1692.4092">)</text><ellipse cx="90.3828" cy="1736.0034" fill="none" rx="11" ry="11" style="stroke:#222222;stroke-width:1;"/><ellipse cx="90.3828" cy="1736.0034" fill="#222222" rx="6" ry="6" style="stroke:#222222;stroke-width:1;"/><rect fill="#F0F8FF" height="45.6094" rx="12.5" ry="12.5" style="stroke:#4682B4;stroke-width:0.5;" width="174.1182" x="412.3696" y="1659.394"/><text fill="#000000" font-family="sans-serif" font-size="11" lengthAdjust="spacing" textLength="25.0347" x="422.3696" y="1679.6045">Emit</text><text fill="#000000" font-family="sans-serif" font-size="11" font-weight="bold" lengthAdjust="spacing" textLength="117.3208" x="450.9009" y="1679.6045">phase.transitioned</text><text fill="#000000" font-family="sans-serif" font-size="11" lengthAdjust="spacing" textLength="154.1182" x="422.3696" y="1692.4092">(if phase boundary crossed)</text><rect fill="#F0F8FF" height="45.6094" rx="12.5" ry="12.5" style="stroke:#4682B4;stroke-width:0.5;" width="139.1147" x="429.8713" y="1725.0034"/><text fill="#000000" font-family="sans-serif" font-size="11" lengthAdjust="spacing" textLength="119.1147" x="439.8713" y="1745.2139">Trigger Sprint Review</text><text fill="#000000" font-family="sans-serif" font-size="11" lengthAdjust="spacing" textLength="55.3706" x="439.8713" y="1758.0186">(BPR-006)</text><rect fill="#F0F8FF" height="32.8047" rx="12.5" ry="12.5" style="stroke:#4682B4;stroke-width:0.5;" width="156.8501" x="216.4807" y="1921.8315"/><text fill="#000000" font-family="sans-serif" font-size="11" lengthAdjust="spacing" textLength="136.8501" x="226.4807" y="1942.042">Process review decisions</text><rect fill="#F0F8FF" height="45.6094" rx="12.5" ry="12.5" style="stroke:#4682B4;stroke-width:0.5;" width="169.2896" x="210.261" y="2024.6479"/><text fill="#000000" font-family="sans-serif" font-size="11" lengthAdjust="spacing" textLength="122.9873" x="220.261" y="2044.8584">Create handoff events</text><text fill="#000000" font-family="sans-serif" font-size="11" lengthAdjust="spacing" textLength="149.2896" x="220.261" y="2057.6631">to tagged specialist agents</text><rect fill="#F0F8FF" height="45.6094" rx="12.5" ry="12.5" style="stroke:#4682B4;stroke-width:0.5;" width="116.1211" x="236.8452" y="2236.4761"/><text fill="#000000" font-family="sans-serif" font-size="11" lengthAdjust="spacing" textLength="96.1211" x="246.8452" y="2256.6865">Confirm revisions</text><text fill="#000000" font-family="sans-serif" font-size="11" lengthAdjust="spacing" textLength="51.3799" x="246.8452" y="2269.4912">complete</text><polygon fill="#FFFFE0" points="238.5791,1974.6362,351.2324,1974.6362,363.2324,1987.4409,351.2324,2000.2456,238.5791,2000.2456,226.5791,1987.4409,238.5791,1974.6362" style="stroke:#B8860B;stroke-width:0.5;"/><text fill="#000000" font-family="sans-serif" font-size="11" lengthAdjust="spacing" textLength="19.0083" x="298.9058" y="2010.4561">yes</text><text fill="#000000" font-family="sans-serif" font-size="11" lengthAdjust="spacing" textLength="86.0718" x="238.5791" y="1984.8467">Any items need</text><text fill="#000000" font-family="sans-serif" font-size="11" lengthAdjust="spacing" textLength="112.6533" x="238.5791" y="1997.6514">revision or rejected?</text><text fill="#000000" font-family="sans-serif" font-size="11" lengthAdjust="spacing" textLength="13.7017" x="212.8774" y="1984.8467">no</text><polygon fill="#FFFFE0" points="294.9058,2302.0854,306.9058,2314.0854,294.9058,2326.0854,282.9058,2314.0854,294.9058,2302.0854" style="stroke:#B8860B;stroke-width:0.5;"/><rect fill="#F0F8FF" height="32.8047" rx="12.5" ry="12.5" style="stroke:#4682B4;stroke-width:0.5;" width="156.0981" x="216.8567" y="2346.0854"/><text fill="#000000" font-family="sans-serif" font-size="11" lengthAdjust="spacing" textLength="25.0347" x="226.8567" y="2366.2959">Emit</text><text fill="#000000" font-family="sans-serif" font-size="11" font-weight="bold" lengthAdjust="spacing" textLength="72.7407" x="255.3879" y="2366.2959">sprint.close</text><text fill="#000000" font-family="sans-serif" font-size="11" lengthAdjust="spacing" textLength="31.3296" x="331.6252" y="2366.2959">event</text><rect fill="#F0F8FF" height="32.8047" rx="12.5" ry="12.5" style="stroke:#4682B4;stroke-width:0.5;" width="177.835" x="205.9883" y="2398.8901"/><text fill="#000000" font-family="sans-serif" font-size="11" lengthAdjust="spacing" textLength="157.835" x="215.9883" y="2419.1006">Create sprint-close snapshot</text><polygon fill="#FFFFE0" points="259.8245,2451.6948,329.9871,2451.6948,341.9871,2464.4995,329.9871,2477.3042,259.8245,2477.3042,247.8245,2464.4995,259.8245,2451.6948" style="stroke:#B8860B;stroke-width:0.5;"/><text fill="#000000" font-family="sans-serif" font-size="11" lengthAdjust="spacing" textLength="70.1626" x="259.8245" y="2461.9053">Engagement</text><text fill="#000000" font-family="sans-serif" font-size="11" lengthAdjust="spacing" textLength="57.2183" x="259.8245" y="2474.71">complete?</text><text fill="#000000" font-family="sans-serif" font-size="11" lengthAdjust="spacing" textLength="19.0083" x="228.8162" y="2461.9053">yes</text><text fill="#000000" font-family="sans-serif" font-size="11" lengthAdjust="spacing" textLength="13.7017" x="341.9871" y="2461.9053">no</text><rect fill="#F0F8FF" height="32.8047" rx="12.5" ry="12.5" style="stroke:#4682B4;stroke-width:0.5;" width="195.8818" x="109.3804" y="2487.3042"/><text fill="#000000" font-family="sans-serif" font-size="11" lengthAdjust="spacing" textLength="25.0347" x="119.3804" y="2507.5146">Emit</text><text fill="#000000" font-family="sans-serif" font-size="11" font-weight="bold" lengthAdjust="spacing" textLength="147.3506" x="147.9116" y="2507.5146">engagement.completed</text><ellipse cx="207.3213" cy="2558.5698" fill="none" rx="11" ry="11" style="stroke:#222222;stroke-width:1;"/><ellipse cx="207.3213" cy="2558.5698" fill="#222222" rx="6" ry="6" style="stroke:#222222;stroke-width:1;"/><path d="M459.7183,2487.3042 L459.7183,2503.437 L439.7183,2507.437 L459.7183,2511.437 L459.7183,2527.5698 A0,0 0 0 0 459.7183,2527.5698 L578.5801,2527.5698 A0,0 0 0 0 578.5801,2527.5698 L578.5801,2497.3042 L568.5801,2487.3042 L459.7183,2487.3042 A0,0 0 0 0 459.7183,2487.3042" fill="#FEFFDD" style="stroke:#181818;stroke-width:0.5;"/><path d="M568.5801,2487.3042 L568.5801,2497.3042 L578.5801,2497.3042 L568.5801,2487.3042" fill="#FEFFDD" style="stroke:#181818;stroke-width:0.5;"/><text fill="#000000" font-family="sans-serif" font-size="13" lengthAdjust="spacing" textLength="83.6113" x="465.7183" y="2504.3711">Loop back to</text><text fill="#000000" font-family="sans-serif" font-size="13" lengthAdjust="spacing" textLength="97.8618" x="465.7183" y="2519.5039">sprint planning</text><rect fill="#F0F8FF" height="32.8047" rx="12.5" ry="12.5" style="stroke:#4682B4;stroke-width:0.5;" width="114.4561" x="325.2622" y="2491.0347"/><text fill="#000000" font-family="sans-serif" font-size="11" lengthAdjust="spacing" textLength="94.4561" x="335.2622" y="2511.2451">Begin next sprint</text><ellipse cx="382.4902" cy="2566.0308" fill="none" rx="11" ry="11" style="stroke:#222222;stroke-width:1;"/><ellipse cx="382.4902" cy="2566.0308" fill="#222222" rx="6" ry="6" style="stroke:#222222;stroke-width:1;"/><line style="stroke:#5F9EA0;stroke-width:1.5;" x1="15" x2="15" y1="12.7451" y2="2583.0308"/><rect fill="#F0F8FF" height="45.6094" rx="12.5" ry="12.5" style="stroke:#4682B4;stroke-width:0.5;" width="174.5049" x="614.2161" y="437.9404"/><text fill="#000000" font-family="sans-serif" font-size="11" lengthAdjust="spacing" textLength="129.9536" x="624.2161" y="458.1509">Retrieve prior learnings</text><text fill="#000000" font-family="sans-serif" font-size="11" lengthAdjust="spacing" textLength="154.5049" x="624.2161" y="470.9556">(Step 0.L via LearningStore)</text><rect fill="#F0F8FF" height="45.6094" rx="12.5" ry="12.5" style="stroke:#4682B4;stroke-width:0.5;" width="152.4082" x="625.2644" y="503.5498"/><text fill="#000000" font-family="sans-serif" font-size="11" lengthAdjust="spacing" textLength="132.4082" x="635.2644" y="523.7603">Execute Discovery Scan</text><text fill="#000000" font-family="sans-serif" font-size="11" lengthAdjust="spacing" textLength="89.6812" x="635.2644" y="536.5649">(5-layer, Step 0)</text><rect fill="#F0F8FF" height="45.6094" rx="12.5" ry="12.5" style="stroke:#4682B4;stroke-width:0.5;" width="162.9087" x="620.0142" y="569.1592"/><text fill="#000000" font-family="sans-serif" font-size="11" lengthAdjust="spacing" textLength="102.1152" x="630.0142" y="589.3696">Execute skill steps</text><text fill="#000000" font-family="sans-serif" font-size="11" lengthAdjust="spacing" textLength="142.9087" x="630.0142" y="602.1743">(BPR-002: Skill Execution)</text><rect fill="#F0F8FF" height="45.6094" rx="12.5" ry="12.5" style="stroke:#4682B4;stroke-width:0.5;" width="119.2793" x="641.8289" y="683.1709"/><text fill="#000000" font-family="sans-serif" font-size="11" lengthAdjust="spacing" textLength="99.2793" x="651.8289" y="703.3813">Raise Clarification</text><text fill="#000000" font-family="sans-serif" font-size="11" lengthAdjust="spacing" textLength="73.5947" x="651.8289" y="716.186">Request (CQ)</text><rect fill="#F0F8FF" height="45.6094" rx="12.5" ry="12.5" style="stroke:#4682B4;stroke-width:0.5;" width="118.4038" x="642.2666" y="878.292"/><text fill="#000000" font-family="sans-serif" font-size="11" lengthAdjust="spacing" textLength="96.1963" x="652.2666" y="898.5024">Resume skill with</text><text fill="#000000" font-family="sans-serif" font-size="11" lengthAdjust="spacing" textLength="98.4038" x="652.2666" y="911.3071">answer in context</text><polygon fill="#FFFFE0" points="638.7019,634.7686,764.2351,634.7686,776.2351,646.7686,764.2351,658.7686,638.7019,658.7686,626.7019,646.7686,638.7019,634.7686" style="stroke:#B8860B;stroke-width:0.5;"/><text fill="#000000" font-family="sans-serif" font-size="11" lengthAdjust="spacing" textLength="19.0083" x="705.4685" y="668.979">yes</text><text fill="#000000" font-family="sans-serif" font-size="11" lengthAdjust="spacing" textLength="125.5332" x="638.7019" y="650.5767">Knowledge gap found?</text><text fill="#000000" font-family="sans-serif" font-size="11" lengthAdjust="spacing" textLength="13.7017" x="613.0002" y="644.1743">no</text><polygon fill="#FFFFE0" points="701.4685,948.3037,713.4685,960.3037,701.4685,972.3037,689.4685,960.3037,701.4685,948.3037" style="stroke:#B8860B;stroke-width:0.5;"/><rect fill="#F0F8FF" height="45.6094" rx="12.5" ry="12.5" style="stroke:#4682B4;stroke-width:0.5;" width="149.6582" x="626.6394" y="1042.3154"/><text fill="#000000" font-family="sans-serif" font-size="11" lengthAdjust="spacing" textLength="25.0347" x="636.6394" y="1062.5259">Emit</text><text fill="#000000" font-family="sans-serif" font-size="11" font-weight="bold" lengthAdjust="spacing" textLength="101.127" x="665.1707" y="1062.5259">algedonic signal</text><text fill="#000000" font-family="sans-serif" font-size="11" lengthAdjust="spacing" textLength="55.3706" x="636.6394" y="1075.3306">(BPR-005)</text><polygon fill="#FFFFE0" points="641.9219,992.3037,761.0151,992.3037,773.0151,1005.1084,761.0151,1017.9131,641.9219,1017.9131,629.9219,1005.1084,641.9219,992.3037" style="stroke:#B8860B;stroke-width:0.5;"/><text fill="#000000" font-family="sans-serif" font-size="11" lengthAdjust="spacing" textLength="19.0083" x="705.4685" y="1028.1235">yes</text><text fill="#000000" font-family="sans-serif" font-size="11" lengthAdjust="spacing" textLength="119.0933" x="641.9219" y="1002.5142">Safety or time-critical</text><text fill="#000000" font-family="sans-serif" font-size="11" lengthAdjust="spacing" textLength="109.1353" x="641.9219" y="1015.3188">condition detected?</text><text fill="#000000" font-family="sans-serif" font-size="11" lengthAdjust="spacing" textLength="13.7017" x="773.0151" y="1002.5142">no</text><polygon fill="#FFFFE0" points="701.4685,1264.7529,713.4685,1276.7529,701.4685,1288.7529,689.4685,1276.7529,701.4685,1264.7529" style="stroke:#B8860B;stroke-width:0.5;"/><rect fill="#F0F8FF" height="45.6094" rx="12.5" ry="12.5" style="stroke:#4682B4;stroke-width:0.5;" width="191.6226" x="605.6572" y="1308.7529"/><text fill="#000000" font-family="sans-serif" font-size="11" lengthAdjust="spacing" textLength="126.731" x="615.6572" y="1328.9634">Write output artifact(s)</text><text fill="#000000" font-family="sans-serif" font-size="11" lengthAdjust="spacing" textLength="171.6226" x="615.6572" y="1341.7681">(emit artifact.created/updated)</text><rect fill="#F0F8FF" height="45.6094" rx="12.5" ry="12.5" style="stroke:#4682B4;stroke-width:0.5;" width="152.2793" x="625.3289" y="1374.3623"/><text fill="#000000" font-family="sans-serif" font-size="11" lengthAdjust="spacing" textLength="132.2793" x="635.3289" y="1394.5728">Generate LearningEntry</text><text fill="#000000" font-family="sans-serif" font-size="11" lengthAdjust="spacing" textLength="113.0454" x="635.3289" y="1407.3774">if feedback occurred</text><rect fill="#F0F8FF" height="45.6094" rx="12.5" ry="12.5" style="stroke:#4682B4;stroke-width:0.5;" width="130.0537" x="636.4417" y="2090.2573"/><text fill="#000000" font-family="sans-serif" font-size="11" lengthAdjust="spacing" textLength="101.3472" x="646.4417" y="2110.4678">Revise artifact per</text><text fill="#000000" font-family="sans-serif" font-size="11" lengthAdjust="spacing" textLength="110.0537" x="646.4417" y="2123.2725">handoff instructions</text><rect fill="#F0F8FF" height="45.6094" rx="12.5" ry="12.5" style="stroke:#4682B4;stroke-width:0.5;" width="145.7749" x="628.5811" y="2170.8667"/><text fill="#000000" font-family="sans-serif" font-size="11" lengthAdjust="spacing" textLength="116.4722" x="638.5811" y="2191.0771">Write revised artifact</text><text fill="#000000" font-family="sans-serif" font-size="11" lengthAdjust="spacing" textLength="125.7749" x="638.5811" y="2203.8818">(emit artifact.updated)</text><line style="stroke:#5F9EA0;stroke-width:1.5;" x1="590.4878" x2="590.4878" y1="12.7451" y2="2583.0308"/><rect fill="#F0F8FF" height="32.8047" rx="12.5" ry="12.5" style="stroke:#4682B4;stroke-width:0.5;" width="163.9614" x="839.0044" y="748.7803"/><text fill="#000000" font-family="sans-serif" font-size="11" lengthAdjust="spacing" textLength="143.9614" x="849.0044" y="768.9907">Receive CQ on Dashboard</text><rect fill="#F0F8FF" height="45.6094" rx="12.5" ry="12.5" style="stroke:#4682B4;stroke-width:0.5;" width="143.938" x="849.0161" y="812.6826"/><text fill="#000000" font-family="sans-serif" font-size="11" lengthAdjust="spacing" textLength="84.4282" x="859.0161" y="832.8931">Provide answer</text><text fill="#000000" font-family="sans-serif" font-size="11" lengthAdjust="spacing" textLength="123.938" x="859.0161" y="845.6978">(optionally upload file)</text><rect fill="#F0F8FF" height="45.6094" rx="12.5" ry="12.5" style="stroke:#4682B4;stroke-width:0.5;" width="141.7358" x="850.1172" y="1790.6128"/><text fill="#000000" font-family="sans-serif" font-size="11" lengthAdjust="spacing" textLength="121.7358" x="860.1172" y="1810.8232">Receive sprint artifact</text><text fill="#000000" font-family="sans-serif" font-size="11" lengthAdjust="spacing" textLength="96.7227" x="860.1172" y="1823.6279">list on Dashboard</text><rect fill="#F0F8FF" height="45.6094" rx="12.5" ry="12.5" style="stroke:#4682B4;stroke-width:0.5;" width="219.375" x="811.2976" y="1856.2222"/><text fill="#000000" font-family="sans-serif" font-size="11" lengthAdjust="spacing" textLength="116.5742" x="821.2976" y="1876.4326">Review each artifact:</text><text fill="#000000" font-family="sans-serif" font-size="11" lengthAdjust="spacing" textLength="199.375" x="821.2976" y="1889.2373">approved / needs-revision / rejected</text><line style="stroke:#5F9EA0;stroke-width:1.5;" x1="805.2976" x2="805.2976" y1="12.7451" y2="2583.0308"/><line style="stroke:#5F9EA0;stroke-width:1.5;" x1="1034.6726" x2="1034.6726" y1="12.7451" y2="2583.0308"/><line style="stroke:#4682B4;stroke-width:1;" x1="294.9058" x2="294.9058" y1="58.6982" y2="78.6982"/><polygon fill="#4682B4" points="290.9058,68.6982,294.9058,78.6982,298.9058,68.6982,294.9058,72.6982" style="stroke:#4682B4;stroke-width:1;"/><line style="stroke:#4682B4;stroke-width:1;" x1="294.9058" x2="294.9058" y1="124.3076" y2="144.3076"/><polygon fill="#4682B4" points="290.9058,134.3076,294.9058,144.3076,298.9058,134.3076,294.9058,138.3076" style="stroke:#4682B4;stroke-width:1;"/><line style="stroke:#4682B4;stroke-width:1;" x1="294.9058" x2="294.9058" y1="189.917" y2="209.917"/><polygon fill="#4682B4" points="290.9058,199.917,294.9058,209.917,298.9058,199.917,294.9058,203.917" style="stroke:#4682B4;stroke-width:1;"/><line style="stroke:#4682B4;stroke-width:1;" x1="294.9058" x2="294.9058" y1="255.5264" y2="275.5264"/><polygon fill="#4682B4" points="290.9058,265.5264,294.9058,275.5264,298.9058,265.5264,294.9058,269.5264" style="stroke:#4682B4;stroke-width:1;"/><line style="stroke:#4682B4;stroke-width:1;" x1="294.9058" x2="294.9058" y1="1179.1436" y2="1199.1436"/><polygon fill="#4682B4" points="290.9058,1189.1436,294.9058,1199.1436,298.9058,1189.1436,294.9058,1193.1436" style="stroke:#4682B4;stroke-width:1;"/><line style="stroke:#4682B4;stroke-width:1;" x1="294.9058" x2="294.9058" y1="352.3311" y2="372.3311"/><polygon fill="#4682B4" points="290.9058,362.3311,294.9058,372.3311,298.9058,362.3311,294.9058,366.3311" style="stroke:#4682B4;stroke-width:1;"/><line style="stroke:#4682B4;stroke-width:1;" x1="230.0461" x2="185.1985" y1="1505.5811" y2="1505.5811"/><polygon fill="#4682B4" points="181.1985,933.2061,185.1985,923.2061,189.1985,933.2061,185.1985,929.2061" style="stroke:#4682B4;stroke-width:1;"/><line style="stroke:#4682B4;stroke-width:1;" x1="185.1985" x2="185.1985" y1="340.3311" y2="1505.5811"/><line style="stroke:#4682B4;stroke-width:1;" x1="185.1985" x2="282.9058" y1="340.3311" y2="340.3311"/><polygon fill="#4682B4" points="272.9058,336.3311,282.9058,340.3311,272.9058,344.3311,276.9058,340.3311" style="stroke:#4682B4;stroke-width:1;"/><line style="stroke:#4682B4;stroke-width:1;" x1="294.9058" x2="294.9058" y1="1472.7764" y2="1492.7764"/><polygon fill="#4682B4" points="290.9058,1482.7764,294.9058,1492.7764,298.9058,1482.7764,294.9058,1486.7764" style="stroke:#4682B4;stroke-width:1;"/><line style="stroke:#4682B4;stroke-width:1;" x1="294.9058" x2="294.9058" y1="308.3311" y2="328.3311"/><polygon fill="#4682B4" points="290.9058,318.3311,294.9058,328.3311,298.9058,318.3311,294.9058,322.3311" style="stroke:#4682B4;stroke-width:1;"/><line style="stroke:#4682B4;stroke-width:1;" x1="294.9058" x2="294.9058" y1="1518.3857" y2="1559.7847"/><polygon fill="#4682B4" points="290.9058,1549.7847,294.9058,1559.7847,298.9058,1549.7847,294.9058,1553.7847" style="stroke:#4682B4;stroke-width:1;"/><text fill="#000000" font-family="sans-serif" font-size="11" lengthAdjust="spacing" textLength="13.7017" x="298.9058" y="1539.6904">no</text><line style="stroke:#4682B4;stroke-width:1;" x1="90.3828" x2="90.3828" y1="1705.0034" y2="1725.0034"/><polygon fill="#4682B4" points="86.3828,1715.0034,90.3828,1725.0034,94.3828,1715.0034,90.3828,1719.0034" style="stroke:#4682B4;stroke-width:1;"/><line style="stroke:#4682B4;stroke-width:1;" x1="499.4287" x2="499.4287" y1="1705.0034" y2="1725.0034"/><polygon fill="#4682B4" points="495.4287,1715.0034,499.4287,1725.0034,503.4287,1715.0034,499.4287,1719.0034" style="stroke:#4682B4;stroke-width:1;"/><line style="stroke:#4682B4;stroke-width:1;" x1="245.5981" x2="90.3828" y1="1637.394" y2="1637.394"/><line style="stroke:#4682B4;stroke-width:1;" x1="90.3828" x2="90.3828" y1="1637.394" y2="1659.394"/><polygon fill="#4682B4" points="86.3828,1649.394,90.3828,1659.394,94.3828,1649.394,90.3828,1653.394" style="stroke:#4682B4;stroke-width:1;"/><line style="stroke:#4682B4;stroke-width:1;" x1="344.2134" x2="499.4287" y1="1637.394" y2="1637.394"/><line style="stroke:#4682B4;stroke-width:1;" x1="499.4287" x2="499.4287" y1="1637.394" y2="1659.394"/><polygon fill="#4682B4" points="495.4287,1649.394,499.4287,1659.394,503.4287,1649.394,499.4287,1653.394" style="stroke:#4682B4;stroke-width:1;"/><line style="stroke:#4682B4;stroke-width:1;" x1="499.4287" x2="499.4287" y1="1770.6128" y2="1775.6128"/><line style="stroke:#4682B4;stroke-width:1;" x1="499.4287" x2="920.9851" y1="1775.6128" y2="1775.6128"/><line style="stroke:#4682B4;stroke-width:1;" x1="920.9851" x2="920.9851" y1="1775.6128" y2="1790.6128"/><polygon fill="#4682B4" points="916.9851,1780.6128,920.9851,1790.6128,924.9851,1780.6128,920.9851,1784.6128" style="stroke:#4682B4;stroke-width:1;"/><line style="stroke:#4682B4;stroke-width:1;" x1="294.9058" x2="294.9058" y1="1605.394" y2="1625.394"/><polygon fill="#4682B4" points="290.9058,1615.394,294.9058,1625.394,298.9058,1615.394,294.9058,1619.394" style="stroke:#4682B4;stroke-width:1;"/><line style="stroke:#4682B4;stroke-width:1;" x1="294.9058" x2="294.9058" y1="2000.2456" y2="2024.6479"/><polygon fill="#4682B4" points="290.9058,2014.6479,294.9058,2024.6479,298.9058,2014.6479,294.9058,2018.6479" style="stroke:#4682B4;stroke-width:1;"/><line style="stroke:#4682B4;stroke-width:1;" x1="226.5791" x2="200.261" y1="1987.4409" y2="1987.4409"/><polygon fill="#4682B4" points="196.261,2142.9644,200.261,2152.9644,204.261,2142.9644,200.261,2146.9644" style="stroke:#4682B4;stroke-width:1;"/><line style="stroke:#4682B4;stroke-width:1;" x1="200.261" x2="200.261" y1="1987.4409" y2="2314.0854"/><line style="stroke:#4682B4;stroke-width:1;" x1="200.261" x2="282.9058" y1="2314.0854" y2="2314.0854"/><polygon fill="#4682B4" points="272.9058,2310.0854,282.9058,2314.0854,272.9058,2318.0854,276.9058,2314.0854" style="stroke:#4682B4;stroke-width:1;"/><line style="stroke:#4682B4;stroke-width:1;" x1="294.9058" x2="294.9058" y1="2282.0854" y2="2302.0854"/><polygon fill="#4682B4" points="290.9058,2292.0854,294.9058,2302.0854,298.9058,2292.0854,294.9058,2296.0854" style="stroke:#4682B4;stroke-width:1;"/><line style="stroke:#4682B4;stroke-width:1;" x1="294.9058" x2="294.9058" y1="1954.6362" y2="1974.6362"/><polygon fill="#4682B4" points="290.9058,1964.6362,294.9058,1974.6362,298.9058,1964.6362,294.9058,1968.6362" style="stroke:#4682B4;stroke-width:1;"/><line style="stroke:#4682B4;stroke-width:1;" x1="294.9058" x2="294.9058" y1="2326.0854" y2="2346.0854"/><polygon fill="#4682B4" points="290.9058,2336.0854,294.9058,2346.0854,298.9058,2336.0854,294.9058,2340.0854" style="stroke:#4682B4;stroke-width:1;"/><line style="stroke:#4682B4;stroke-width:1;" x1="294.9058" x2="294.9058" y1="2378.8901" y2="2398.8901"/><polygon fill="#4682B4" points="290.9058,2388.8901,294.9058,2398.8901,298.9058,2388.8901,294.9058,2392.8901" style="stroke:#4682B4;stroke-width:1;"/><line style="stroke:#4682B4;stroke-width:1;" x1="207.3213" x2="207.3213" y1="2520.1089" y2="2547.5698"/><polygon fill="#4682B4" points="203.3213,2537.5698,207.3213,2547.5698,211.3213,2537.5698,207.3213,2541.5698" style="stroke:#4682B4;stroke-width:1;"/><line style="stroke:#4682B4;stroke-width:1;" x1="382.4902" x2="382.4902" y1="2523.8394" y2="2555.0308"/><polygon fill="#4682B4" points="378.4902,2545.0308,382.4902,2555.0308,386.4902,2545.0308,382.4902,2549.0308" style="stroke:#4682B4;stroke-width:1;"/><line style="stroke:#4682B4;stroke-width:1;" x1="247.8245" x2="207.3213" y1="2464.4995" y2="2464.4995"/><line style="stroke:#4682B4;stroke-width:1;" x1="207.3213" x2="207.3213" y1="2464.4995" y2="2487.3042"/><polygon fill="#4682B4" points="203.3213,2477.3042,207.3213,2487.3042,211.3213,2477.3042,207.3213,2481.3042" style="stroke:#4682B4;stroke-width:1;"/><line style="stroke:#4682B4;stroke-width:1;" x1="341.9871" x2="382.4902" y1="2464.4995" y2="2464.4995"/><line style="stroke:#4682B4;stroke-width:1;" x1="382.4902" x2="382.4902" y1="2464.4995" y2="2491.0347"/><polygon fill="#4682B4" points="378.4902,2481.0347,382.4902,2491.0347,386.4902,2481.0347,382.4902,2485.0347" style="stroke:#4682B4;stroke-width:1;"/><line style="stroke:#4682B4;stroke-width:1;" x1="294.9058" x2="294.9058" y1="2431.6948" y2="2451.6948"/><polygon fill="#4682B4" points="290.9058,2441.6948,294.9058,2451.6948,298.9058,2441.6948,294.9058,2445.6948" style="stroke:#4682B4;stroke-width:1;"/><line style="stroke:#4682B4;stroke-width:1;" x1="701.4685" x2="701.4685" y1="483.5498" y2="503.5498"/><polygon fill="#4682B4" points="697.4685,493.5498,701.4685,503.5498,705.4685,493.5498,701.4685,497.5498" style="stroke:#4682B4;stroke-width:1;"/><line style="stroke:#4682B4;stroke-width:1;" x1="701.4685" x2="701.4685" y1="549.1592" y2="569.1592"/><polygon fill="#4682B4" points="697.4685,559.1592,701.4685,569.1592,705.4685,559.1592,701.4685,563.1592" style="stroke:#4682B4;stroke-width:1;"/><line style="stroke:#4682B4;stroke-width:1;" x1="701.4685" x2="701.4685" y1="658.7686" y2="683.1709"/><polygon fill="#4682B4" points="697.4685,673.1709,701.4685,683.1709,705.4685,673.1709,701.4685,677.1709" style="stroke:#4682B4;stroke-width:1;"/><line style="stroke:#4682B4;stroke-width:1;" x1="626.7019" x2="609.4878" y1="646.7686" y2="646.7686"/><polygon fill="#4682B4" points="605.4878,791.585,609.4878,801.585,613.4878,791.585,609.4878,795.585" style="stroke:#4682B4;stroke-width:1;"/><line style="stroke:#4682B4;stroke-width:1;" x1="609.4878" x2="609.4878" y1="646.7686" y2="960.3037"/><line style="stroke:#4682B4;stroke-width:1;" x1="609.4878" x2="689.4685" y1="960.3037" y2="960.3037"/><polygon fill="#4682B4" points="679.4685,956.3037,689.4685,960.3037,679.4685,964.3037,683.4685,960.3037" style="stroke:#4682B4;stroke-width:1;"/><line style="stroke:#4682B4;stroke-width:1;" x1="701.4685" x2="701.4685" y1="923.9014" y2="948.3037"/><polygon fill="#4682B4" points="697.4685,938.3037,701.4685,948.3037,705.4685,938.3037,701.4685,942.3037" style="stroke:#4682B4;stroke-width:1;"/><line style="stroke:#4682B4;stroke-width:1;" x1="701.4685" x2="701.4685" y1="614.7686" y2="634.7686"/><polygon fill="#4682B4" points="697.4685,624.7686,701.4685,634.7686,705.4685,624.7686,701.4685,628.7686" style="stroke:#4682B4;stroke-width:1;"/><line style="stroke:#4682B4;stroke-width:1;" x1="701.4685" x2="701.4685" y1="1017.9131" y2="1042.3154"/><polygon fill="#4682B4" points="697.4685,1032.3154,701.4685,1042.3154,705.4685,1032.3154,701.4685,1036.3154" style="stroke:#4682B4;stroke-width:1;"/><line style="stroke:#4682B4;stroke-width:1;" x1="773.0151" x2="786.2976" y1="1005.1084" y2="1005.1084"/><polygon fill="#4682B4" points="782.2976,1133.1318,786.2976,1143.1318,790.2976,1133.1318,786.2976,1137.1318" style="stroke:#4682B4;stroke-width:1;"/><line style="stroke:#4682B4;stroke-width:1;" x1="786.2976" x2="786.2976" y1="1005.1084" y2="1276.7529"/><line style="stroke:#4682B4;stroke-width:1;" x1="786.2976" x2="713.4685" y1="1276.7529" y2="1276.7529"/><polygon fill="#4682B4" points="723.4685,1272.7529,713.4685,1276.7529,723.4685,1280.7529,719.4685,1276.7529" style="stroke:#4682B4;stroke-width:1;"/><line style="stroke:#4682B4;stroke-width:1;" x1="701.4685" x2="701.4685" y1="972.3037" y2="992.3037"/><polygon fill="#4682B4" points="697.4685,982.3037,701.4685,992.3037,705.4685,982.3037,701.4685,986.3037" style="stroke:#4682B4;stroke-width:1;"/><line style="stroke:#4682B4;stroke-width:1;" x1="701.4685" x2="701.4685" y1="1288.7529" y2="1308.7529"/><polygon fill="#4682B4" points="697.4685,1298.7529,701.4685,1308.7529,705.4685,1298.7529,701.4685,1302.7529" style="stroke:#4682B4;stroke-width:1;"/><line style="stroke:#4682B4;stroke-width:1;" x1="701.4685" x2="701.4685" y1="1354.3623" y2="1374.3623"/><polygon fill="#4682B4" points="697.4685,1364.3623,701.4685,1374.3623,705.4685,1364.3623,701.4685,1368.3623" style="stroke:#4682B4;stroke-width:1;"/><line style="stroke:#4682B4;stroke-width:1;" x1="701.4685" x2="701.4685" y1="2135.8667" y2="2170.8667"/><polygon fill="#4682B4" points="697.4685,2160.8667,701.4685,2170.8667,705.4685,2160.8667,701.4685,2164.8667" style="stroke:#4682B4;stroke-width:1;"/><line style="stroke:#4682B4;stroke-width:1;" x1="920.9851" x2="920.9851" y1="781.585" y2="812.6826"/><polygon fill="#4682B4" points="916.9851,802.6826,920.9851,812.6826,924.9851,802.6826,920.9851,806.6826" style="stroke:#4682B4;stroke-width:1;"/><line style="stroke:#4682B4;stroke-width:1;" x1="920.9851" x2="920.9851" y1="1836.2222" y2="1856.2222"/><polygon fill="#4682B4" points="916.9851,1846.2222,920.9851,1856.2222,924.9851,1846.2222,920.9851,1850.2222" style="stroke:#4682B4;stroke-width:1;"/><line style="stroke:#4682B4;stroke-width:1;" x1="294.9058" x2="294.9058" y1="417.9404" y2="422.9404"/><line style="stroke:#4682B4;stroke-width:1;" x1="294.9058" x2="701.4685" y1="422.9404" y2="422.9404"/><line style="stroke:#4682B4;stroke-width:1;" x1="701.4685" x2="701.4685" y1="422.9404" y2="437.9404"/><polygon fill="#4682B4" points="697.4685,427.9404,701.4685,437.9404,705.4685,427.9404,701.4685,431.9404" style="stroke:#4682B4;stroke-width:1;"/><line style="stroke:#4682B4;stroke-width:1;" x1="701.4685" x2="701.4685" y1="728.7803" y2="733.7803"/><line style="stroke:#4682B4;stroke-width:1;" x1="701.4685" x2="920.9851" y1="733.7803" y2="733.7803"/><line style="stroke:#4682B4;stroke-width:1;" x1="920.9851" x2="920.9851" y1="733.7803" y2="748.7803"/><polygon fill="#4682B4" points="916.9851,738.7803,920.9851,748.7803,924.9851,738.7803,920.9851,742.7803" style="stroke:#4682B4;stroke-width:1;"/><line style="stroke:#4682B4;stroke-width:1;" x1="920.9851" x2="920.9851" y1="858.292" y2="863.292"/><line style="stroke:#4682B4;stroke-width:1;" x1="920.9851" x2="701.4685" y1="863.292" y2="863.292"/><line style="stroke:#4682B4;stroke-width:1;" x1="701.4685" x2="701.4685" y1="863.292" y2="878.292"/><polygon fill="#4682B4" points="697.4685,868.292,701.4685,878.292,705.4685,868.292,701.4685,872.292" style="stroke:#4682B4;stroke-width:1;"/><line style="stroke:#4682B4;stroke-width:1;" x1="701.4685" x2="701.4685" y1="1087.9248" y2="1092.9248"/><line style="stroke:#4682B4;stroke-width:1;" x1="701.4685" x2="294.9058" y1="1092.9248" y2="1092.9248"/><line style="stroke:#4682B4;stroke-width:1;" x1="294.9058" x2="294.9058" y1="1092.9248" y2="1107.9248"/><polygon fill="#4682B4" points="290.9058,1097.9248,294.9058,1107.9248,298.9058,1097.9248,294.9058,1101.9248" style="stroke:#4682B4;stroke-width:1;"/><line style="stroke:#4682B4;stroke-width:1;" x1="294.9058" x2="294.9058" y1="1244.7529" y2="1252.5518"/><line style="stroke:#4682B4;stroke-width:1;" x1="294.9058" x2="701.4685" y1="1252.5518" y2="1252.5518"/><line style="stroke:#4682B4;stroke-width:1;" x1="701.4685" x2="701.4685" y1="1252.5518" y2="1264.7529"/><polygon fill="#4682B4" points="697.4685,1254.7529,701.4685,1264.7529,705.4685,1254.7529,701.4685,1258.7529" style="stroke:#4682B4;stroke-width:1;"/><line style="stroke:#4682B4;stroke-width:1;" x1="701.4685" x2="701.4685" y1="1419.9717" y2="1424.9717"/><line style="stroke:#4682B4;stroke-width:1;" x1="701.4685" x2="294.9058" y1="1424.9717" y2="1424.9717"/><line style="stroke:#4682B4;stroke-width:1;" x1="294.9058" x2="294.9058" y1="1424.9717" y2="1439.9717"/><polygon fill="#4682B4" points="290.9058,1429.9717,294.9058,1439.9717,298.9058,1429.9717,294.9058,1433.9717" style="stroke:#4682B4;stroke-width:1;"/><line style="stroke:#4682B4;stroke-width:1;" x1="920.9851" x2="920.9851" y1="1901.8315" y2="1906.8315"/><line style="stroke:#4682B4;stroke-width:1;" x1="920.9851" x2="294.9058" y1="1906.8315" y2="1906.8315"/><line style="stroke:#4682B4;stroke-width:1;" x1="294.9058" x2="294.9058" y1="1906.8315" y2="1921.8315"/><polygon fill="#4682B4" points="290.9058,1911.8315,294.9058,1921.8315,298.9058,1911.8315,294.9058,1915.8315" style="stroke:#4682B4;stroke-width:1;"/><line style="stroke:#4682B4;stroke-width:1;" x1="294.9058" x2="294.9058" y1="2070.2573" y2="2075.2573"/><line style="stroke:#4682B4;stroke-width:1;" x1="294.9058" x2="701.4685" y1="2075.2573" y2="2075.2573"/><line style="stroke:#4682B4;stroke-width:1;" x1="701.4685" x2="701.4685" y1="2075.2573" y2="2090.2573"/><polygon fill="#4682B4" points="697.4685,2080.2573,701.4685,2090.2573,705.4685,2080.2573,701.4685,2084.2573" style="stroke:#4682B4;stroke-width:1;"/><line style="stroke:#4682B4;stroke-width:1;" x1="701.4685" x2="701.4685" y1="2216.4761" y2="2221.4761"/><line style="stroke:#4682B4;stroke-width:1;" x1="701.4685" x2="294.9058" y1="2221.4761" y2="2221.4761"/><line style="stroke:#4682B4;stroke-width:1;" x1="294.9058" x2="294.9058" y1="2221.4761" y2="2236.4761"/><polygon fill="#4682B4" points="290.9058,2226.4761,294.9058,2236.4761,298.9058,2226.4761,294.9058,2230.4761" style="stroke:#4682B4;stroke-width:1;"/><text fill="#000000" font-family="sans-serif" font-size="18" font-weight="bold" lengthAdjust="spacing" textLength="97.8135" x="253.8372" y="29.4531">PM Agent</text><text fill="#000000" font-family="sans-serif" font-size="18" font-weight="bold" lengthAdjust="spacing" textLength="176.124" x="609.8307" y="29.4531">Specialist Agents</text><text fill="#000000" font-family="sans-serif" font-size="18" font-weight="bold" lengthAdjust="spacing" textLength="46.415" x="896.7776" y="29.4531">User</text><!--SRC=[hLPBRXj74Dtp50Lx4P8nAIcEio2111Ab645an1OT106uQSxKa1qrkoVTFQIPA41MEK2GE-GUEOfFabSz7-e7hwIDY9xg-hnwzRh2jRQbycf3Aejwg-EUVkyHdQdiUkLTPVEPCyxJgT4PdvcAvPlpEVlwV1wPJND-hjN6sVp-rKkzMiUVsHYtksLqoyUvyjUldSdPUfV3vDHxjtle_bjdurp_ndHoqlkZ5xgymqvlZB9SvttBxqpb79lBxtKqd3p4lM5Q8XoSz3wZqTFzmTkypGMfHPtfKjaOwEEV_z2o2jfo22EZzkp9EyE1-gUpzwC1xhKruEkI3GLN-OmdzD-_kGubRj3pvy-x_YoDowu3EKkiiZMnZJY54t5sV7moeMS_1lRFY6weEVi2Ps_VqEaAjhVFN-9yNdAcbT4Xrj_3ioT6fNVJXhw1Py6bG2aZdK_Qx7eXuhWtkMALevoLMl46vbHwLsZ32wjiJXTRbkuvpmJpoDFUv3G484gkP4kpT-45uKUkxMfXrxZXYW97AvYIgsBcDXnmvvmZ-mrQGPO_H0fTzVqmMDZeIDkjksRgdxsz4ZG7k7EnqP66mr1wRUCu9SlvS4WiAKrxFSybgmYMJRwhBn-yafB25tQduvfK27fbEIUGrnXSH2iUm7-3qqTXUabz1F8SOAL01KwyKdPFhcXDnkFqu-Hu8DbSSVGQIG98ZNamhBm5F65X-nYiaex7bxJLYYwR3mbT58oh5nyugu3SkGwPsxBVqpnJ5XTVrGH-GRM7kzQfBhI7IubH8mZkpTDnRQIT7QJATK7zxwtR6SvNZ3QLL8XcV3EWk4O_-tiEKeIKeNHWcXdbTQ4p9IuMzef_hHYWzMVlQd_0KcX_atu-2k19uuup5lHcxsI4pbLOBvto-RJ- -jQxhSuPk8OTUrJXIWceZDbJLHe7XWedkvYFzYz52TMcHKIwBomMbo0OPH0Yi4z2ia5jVUkaLc5lqM8pLmLZsD6tg3Syoho6e2YpiBYSQyc986-SWOgFODPGLfaLvyxgZ8HvoWo7NLzUTIKSnhFEt4ah3pUZMzZPVFO38CcFa8wW32-5Gicb0gsJlErB9TEuiDRvZG89f3ys0wi63RAdEuMSm5zdghg7Iovad0KDRIkOJZ-1wQD0JNu2B6c-oofsFK-Zt6U1e3qQPnuZolbHLURol-RjQxRiHI3Q2RYmqUyN5lWNpFaIBncvBAkyvxmUrzjOTKmIQMWp7aDeIiD983ffeDqQdA7-cwHUdQsWXJ0GXBZMWMfzGJFnksxbw6koRlhqpzHhgVbYgqoLfgaLkoy7JnnfWeVOWAAr2czT588Ktc7Pm5GaQGpqEGcxKAMmFcMMg7HWjNM9OeK2XhaCHCu5IqiQaSlmvj_HUJH_E9I3CTSrIZDInorI82yBoOJE6o_qyQ-_GSiH-5hnT66_hUF8wM48E63s4bZm4g8hUpKVcubhvwrSgy3Zw37gQKGbCB91PUaBzWv8d8AQPjv9ZJKDtoEZ5PHXdWX0LxpLlEi6zIiODOH_ydNbTa3guZrnd4QNkt6fUTwDviAcIR-hnPCcfxJXj9OJQ6Y9fM2BzXoHZ4uOUTW5uV0HUlXBaiFfdPL353sJDS7N7dDCdrm83UDEyO12GpOXELpOpY68rdgyBx2JML8JQjQCUX48QNs82gtC7sm0uHElVQeLv6ZBn1hZknK6pqM8lifYdN8dUIbD13gWU4_m3aBtGBTcpXRQRwWjDSYZKglMj7VGsOPqzzQVpBZ0X-MdXQB-EafVAQ1FOUrY0_55jz8T0Zs0j8boMF_kAkcTgQjVWSaPh_2ODdkSXBy_ufVEbPHKN1wnXdVOfwreVUSobVa_]--></g></svg>