<svg xmlns="http://www.w3.org/2000/svg" xmlns:xlink="http://www.w3.org/1999/xlink" contentStyleType="text/css" data-diagram-type="ACTIVITY" height="506px" preserveAspectRatio="none" style="width:565px;height:506px;background:#FFFFFF;" version="1.1" viewBox="0 0 565 506" width="565px" zoomAndPan="magnify"><defs/><g><rect fill="none" height="20.9531" style="stroke:none;stroke-width:1;" width="532.2246" x="15" y="12.7451"/><ellipse cx="111.7329" cy="48.6982" fill="#222222" rx="10" ry="10" style="stroke:#222222;stroke-width:1;"/><rect fill="#F0F8FF" height="45.6094" rx="12.5" ry="12.5" style="stroke:#4682B4;stroke-width:0.5;" width="169.5957" x="26.9351" y="78.6982"/><text fill="#000000" font-family="sans-serif" font-size="11" lengthAdjust="spacing" textLength="149.5957" x="36.9351" y="98.9087">Detect missing information</text><text fill="#000000" font-family="sans-serif" font-size="11" lengthAdjust="spacing" textLength="85.771" x="36.9351" y="111.7134">during BPR-202</text><rect fill="#F0F8FF" height="45.6094" rx="12.5" ry="12.5" style="stroke:#4682B4;stroke-width:0.5;" width="126.8042" x="48.3308" y="144.3076"/><text fill="#000000" font-family="sans-serif" font-size="11" lengthAdjust="spacing" textLength="106.8042" x="58.3308" y="164.5181">Raise CQ and enter</text><text fill="#000000" font-family="sans-serif" font-size="11" lengthAdjust="spacing" textLength="95.4658" x="58.3308" y="177.3228">BPR-003 lifecycle</text><rect fill="#F0F8FF" height="45.6094" rx="12.5" ry="12.5" style="stroke:#4682B4;stroke-width:0.5;" width="181.4658" x="21" y="406.7451"/><text fill="#000000" font-family="sans-serif" font-size="11" lengthAdjust="spacing" textLength="161.4658" x="31" y="426.9556">Resume suspended task with</text><text fill="#000000" font-family="sans-serif" font-size="11" lengthAdjust="spacing" textLength="98.4038" x="31" y="439.7603">answer in context</text><ellipse cx="111.7329" cy="483.3545" fill="none" rx="11" ry="11" style="stroke:#222222;stroke-width:1;"/><ellipse cx="111.7329" cy="483.3545" fill="#222222" rx="6" ry="6" style="stroke:#222222;stroke-width:1;"/><line style="stroke:#5F9EA0;stroke-width:1.5;" x1="15" x2="15" y1="12.7451" y2="494.3545"/><rect fill="#F0F8FF" height="45.6094" rx="12.5" ry="12.5" style="stroke:#4682B4;stroke-width:0.5;" width="164.5737" x="212.4658" y="209.917"/><text fill="#000000" font-family="sans-serif" font-size="11" lengthAdjust="spacing" textLength="144.5737" x="222.4658" y="230.1274">BPR-301 Route CQ to user</text><text fill="#000000" font-family="sans-serif" font-size="11" lengthAdjust="spacing" textLength="104.1992" x="222.4658" y="242.9321">(single or batched)</text><rect fill="#F0F8FF" height="45.6094" rx="12.5" ry="12.5" style="stroke:#4682B4;stroke-width:0.5;" width="164.1333" x="212.686" y="341.1357"/><text fill="#000000" font-family="sans-serif" font-size="11" lengthAdjust="spacing" textLength="144.1333" x="222.686" y="361.3462">BPR-303 Integrate answer</text><text fill="#000000" font-family="sans-serif" font-size="11" lengthAdjust="spacing" textLength="98.4683" x="222.686" y="374.1509">and route resume</text><line style="stroke:#5F9EA0;stroke-width:1.5;" x1="206.4658" x2="206.4658" y1="12.7451" y2="494.3545"/><rect fill="#F0F8FF" height="45.6094" rx="12.5" ry="12.5" style="stroke:#4682B4;stroke-width:0.5;" width="154.0518" x="387.0396" y="275.5264"/><text fill="#000000" font-family="sans-serif" font-size="11" lengthAdjust="spacing" textLength="134.0518" x="397.0396" y="295.7368">BPR-302 Review CQ and</text><text fill="#000000" font-family="sans-serif" font-size="11" lengthAdjust="spacing" textLength="80.9961" x="397.0396" y="308.5415">submit answer</text><line style="stroke:#5F9EA0;stroke-width:1.5;" x1="381.0396" x2="381.0396" y1="12.7451" y2="494.3545"/><line style="stroke:#5F9EA0;stroke-width:1.5;" x1="545.0913" x2="545.0913" y1="12.7451" y2="494.3545"/><line style="stroke:#4682B4;stroke-width:1;" x1="111.7329" x2="111.7329" y1="58.6982" y2="78.6982"/><polygon fill="#4682B4" points="107.7329,68.6982,111.7329,78.6982,115.7329,68.6982,111.7329,72.6982" style="stroke:#4682B4;stroke-width:1;"/><line style="stroke:#4682B4;stroke-width:1;" x1="111.7329" x2="111.7329" y1="124.3076" y2="144.3076"/><polygon fill="#4682B4" points="107.7329,134.3076,111.7329,144.3076,115.7329,134.3076,111.7329,138.3076" style="stroke:#4682B4;stroke-width:1;"/><line style="stroke:#4682B4;stroke-width:1;" x1="111.7329" x2="111.7329" y1="452.3545" y2="472.3545"/><polygon fill="#4682B4" points="107.7329,462.3545,111.7329,472.3545,115.7329,462.3545,111.7329,466.3545" style="stroke:#4682B4;stroke-width:1;"/><line style="stroke:#4682B4;stroke-width:1;" x1="111.7329" x2="111.7329" y1="189.917" y2="194.917"/><line style="stroke:#4682B4;stroke-width:1;" x1="111.7329" x2="294.7527" y1="194.917" y2="194.917"/><line style="stroke:#4682B4;stroke-width:1;" x1="294.7527" x2="294.7527" y1="194.917" y2="209.917"/><polygon fill="#4682B4" points="290.7527,199.917,294.7527,209.917,298.7527,199.917,294.7527,203.917" style="stroke:#4682B4;stroke-width:1;"/><line style="stroke:#4682B4;stroke-width:1;" x1="294.7527" x2="294.7527" y1="255.5264" y2="260.5264"/><line style="stroke:#4682B4;stroke-width:1;" x1="294.7527" x2="464.0654" y1="260.5264" y2="260.5264"/><line style="stroke:#4682B4;stroke-width:1;" x1="464.0654" x2="464.0654" y1="260.5264" y2="275.5264"/><polygon fill="#4682B4" points="460.0654,265.5264,464.0654,275.5264,468.0654,265.5264,464.0654,269.5264" style="stroke:#4682B4;stroke-width:1;"/><line style="stroke:#4682B4;stroke-width:1;" x1="464.0654" x2="464.0654" y1="321.1357" y2="326.1357"/><line style="stroke:#4682B4;stroke-width:1;" x1="464.0654" x2="294.7527" y1="326.1357" y2="326.1357"/><line style="stroke:#4682B4;stroke-width:1;" x1="294.7527" x2="294.7527" y1="326.1357" y2="341.1357"/><polygon fill="#4682B4" points="290.7527,331.1357,294.7527,341.1357,298.7527,331.1357,294.7527,335.1357" style="stroke:#4682B4;stroke-width:1;"/><line style="stroke:#4682B4;stroke-width:1;" x1="294.7527" x2="294.7527" y1="386.7451" y2="391.7451"/><line style="stroke:#4682B4;stroke-width:1;" x1="294.7527" x2="111.7329" y1="391.7451" y2="391.7451"/><line style="stroke:#4682B4;stroke-width:1;" x1="111.7329" x2="111.7329" y1="391.7451" y2="406.7451"/><polygon fill="#4682B4" points="107.7329,396.7451,111.7329,406.7451,115.7329,396.7451,111.7329,400.7451" style="stroke:#4682B4;stroke-width:1;"/><text fill="#000000" font-family="sans-serif" font-size="18" font-weight="bold" lengthAdjust="spacing" textLength="176.124" x="22.6709" y="29.4531">Specialist Agents</text><text fill="#000000" font-family="sans-serif" font-size="18" font-weight="bold" lengthAdjust="spacing" textLength="97.8135" x="244.8459" y="29.4531">PM Agent</text><text fill="#000000" font-family="sans-serif" font-size="18" font-weight="bold" lengthAdjust="spacing" textLength="46.415" x="439.8579" y="29.4531">User</text><!--SRC=[RP1BJyCm48Jl_XLxX0DI7xVqr8T0I22L50uSNNkRhkBOqNhJK2Z_7IUfK0MzMJixyuqtbkHhpRe2ROGE94VuKW0BRSg2G-FjChZ0C7TaSE4QxBJ05dcORmJHdUShqbNmzg_rYOgzlADpeRrOkiXOQIuVWhFeETYqCcSExV_u- -1bGvy8ux7wLl6tTsofSjhZqFiYTwajojdyIkAmJv2ZGzWcN0fHfqsDXhIZA30lq4iygIYQHMKh53G25SL8lW3oky2L5WfUsOQxqMATtqr6avdASaqHOVa2sbj8ASYg4qUZAJZQeJaQXxD4MpyFb9FAEdqw6aCU6kcj4g29oNZJuLB5z86j5hD7UzjPtvBsQvj0ZWV2zenKiTbM9EaPM-Ihe2ayfbe5wmGRrbJNbNiwOsoglk2LSsHvhq9iOetUeWNHiOIMPA-6f7GRCEcq-26pTBrGgny0]--></g></svg>