<svg xmlns="http://www.w3.org/2000/svg" xmlns:xlink="http://www.w3.org/1999/xlink" contentStyleType="text/css" data-diagram-type="ACTIVITY" height="842px" preserveAspectRatio="none" style="width:970px;height:842px;background:#FFFFFF;" version="1.1" viewBox="0 0 970 842" width="970px" zoomAndPan="magnify"><title>Phase C Activity &#8212; Sprint Review Workflow</title><defs/><g><text fill="#000000" font-family="sans-serif" font-size="14" font-weight="bold" lengthAdjust="spacing" textLength="341.2021" x="312.962" y="32.9951">Phase C Activity &#8212; Sprint Review Workflow</text><rect fill="none" height="20.9531" style="stroke:none;stroke-width:1;" width="937.1262" x="15" y="50.042"/><ellipse cx="210.2709" cy="85.9951" fill="#222222" rx="10" ry="10" style="stroke:#222222;stroke-width:1;"/><rect fill="#F0F8FF" height="45.6094" rx="12.5" ry="12.5" style="stroke:#4682B4;stroke-width:0.5;" width="158.166" x="131.1879" y="115.9951"/><text fill="#000000" font-family="sans-serif" font-size="11" lengthAdjust="spacing" textLength="138.166" x="141.1879" y="136.2056">BPR-004 Gate Evaluation</text><text fill="#000000" font-family="sans-serif" font-size="11" lengthAdjust="spacing" textLength="38.9351" x="141.1879" y="149.0103">passed</text><rect fill="#F0F8FF" height="45.6094" rx="12.5" ry="12.5" style="stroke:#4682B4;stroke-width:0.5;" width="129.9731" x="145.2844" y="181.6045"/><text fill="#000000" font-family="sans-serif" font-size="11" lengthAdjust="spacing" textLength="109.9731" x="155.2844" y="201.8149">Start BIA-001 Sprint</text><text fill="#000000" font-family="sans-serif" font-size="11" lengthAdjust="spacing" textLength="102.9155" x="155.2844" y="214.6196">Review Interaction</text><rect fill="#F0F8FF" height="45.6094" rx="12.5" ry="12.5" style="stroke:#4682B4;stroke-width:0.5;" width="143.5566" x="138.4926" y="247.2139"/><text fill="#000000" font-family="sans-serif" font-size="11" lengthAdjust="spacing" textLength="123.5566" x="148.4926" y="267.4243">BIA-101 Present sprint</text><text fill="#000000" font-family="sans-serif" font-size="11" lengthAdjust="spacing" textLength="42.0127" x="148.4926" y="280.229">outputs</text><rect fill="#F0F8FF" height="45.6094" rx="12.5" ry="12.5" style="stroke:#4682B4;stroke-width:0.5;" width="157.2314" x="21" y="422.4326"/><text fill="#000000" font-family="sans-serif" font-size="11" lengthAdjust="spacing" textLength="137.2314" x="31" y="442.6431">BIA-103 Record approval</text><text fill="#000000" font-family="sans-serif" font-size="11" lengthAdjust="spacing" textLength="87.5972" x="31" y="455.4478">and close sprint</text><ellipse cx="99.6157" cy="499.042" fill="none" rx="11" ry="11" style="stroke:#222222;stroke-width:1;"/><ellipse cx="99.6157" cy="499.042" fill="#222222" rx="6" ry="6" style="stroke:#222222;stroke-width:1;"/><rect fill="#F0F8FF" height="45.6094" rx="12.5" ry="12.5" style="stroke:#4682B4;stroke-width:0.5;" width="158.4077" x="241.7223" y="422.4326"/><text fill="#000000" font-family="sans-serif" font-size="11" lengthAdjust="spacing" textLength="138.4077" x="251.7223" y="442.6431">BIA-103 Route correction</text><text fill="#000000" font-family="sans-serif" font-size="11" lengthAdjust="spacing" textLength="47.8726" x="251.7223" y="455.4478">handoffs</text><rect fill="#F0F8FF" height="32.8047" rx="12.5" ry="12.5" style="stroke:#4682B4;stroke-width:0.5;" width="137.874" x="251.9891" y="540.8467"/><text fill="#000000" font-family="sans-serif" font-size="11" lengthAdjust="spacing" textLength="117.874" x="261.9891" y="561.0571">Re-open review cycle</text><rect fill="#F0F8FF" height="32.8047" rx="12.5" ry="12.5" style="stroke:#4682B4;stroke-width:0.5;" width="165.9702" x="237.941" y="646.4561"/><text fill="#000000" font-family="sans-serif" font-size="11" lengthAdjust="spacing" textLength="145.9702" x="247.941" y="666.6665">Process updated decisions</text><polygon fill="#FFFFE0" points="278.4086,699.2607,363.4437,699.2607,375.4437,711.2607,363.4437,723.2607,278.4086,723.2607,266.4086,711.2607,278.4086,699.2607" style="stroke:#B8860B;stroke-width:0.5;"/><text fill="#000000" font-family="sans-serif" font-size="11" lengthAdjust="spacing" textLength="85.0352" x="278.4086" y="715.0688">Approved now?</text><text fill="#000000" font-family="sans-serif" font-size="11" lengthAdjust="spacing" textLength="19.0083" x="247.4003" y="708.6665">yes</text><text fill="#000000" font-family="sans-serif" font-size="11" lengthAdjust="spacing" textLength="13.7017" x="375.4437" y="708.6665">no</text><rect fill="#F0F8FF" height="32.8047" rx="12.5" ry="12.5" style="stroke:#4682B4;stroke-width:0.5;" width="85.0386" x="208.2314" y="733.2607"/><text fill="#000000" font-family="sans-serif" font-size="11" lengthAdjust="spacing" textLength="65.0386" x="218.2314" y="753.4712">Close sprint</text><ellipse cx="250.7507" cy="797.0654" fill="none" rx="11" ry="11" style="stroke:#222222;stroke-width:1;"/><ellipse cx="250.7507" cy="797.0654" fill="#222222" rx="6" ry="6" style="stroke:#222222;stroke-width:1;"/><rect fill="#F0F8FF" height="32.8047" rx="12.5" ry="12.5" style="stroke:#4682B4;stroke-width:0.5;" width="155.6631" x="313.27" y="733.2607"/><text fill="#000000" font-family="sans-serif" font-size="11" lengthAdjust="spacing" textLength="135.6631" x="323.27" y="753.4712">Continue correction loop</text><ellipse cx="391.1016" cy="797.0654" fill="none" rx="11" ry="11" style="stroke:#222222;stroke-width:1;"/><ellipse cx="391.1016" cy="797.0654" fill="#222222" rx="6" ry="6" style="stroke:#222222;stroke-width:1;"/><line style="stroke:#5F9EA0;stroke-width:1.5;" x1="15" x2="15" y1="50.042" y2="830.0654"/><rect fill="#F0F8FF" height="45.6094" rx="12.5" ry="12.5" style="stroke:#4682B4;stroke-width:0.5;" width="176.2183" x="478.9331" y="312.8232"/><text fill="#000000" font-family="sans-serif" font-size="11" lengthAdjust="spacing" textLength="156.2183" x="488.9331" y="333.0337">BIA-102 Review outputs and</text><text fill="#000000" font-family="sans-serif" font-size="11" lengthAdjust="spacing" textLength="88.376" x="488.9331" y="345.8384">decide outcome</text><polygon fill="#FFFFE0" points="512.4075,378.4326,621.677,378.4326,633.677,390.4326,621.677,402.4326,512.4075,402.4326,500.4075,390.4326,512.4075,378.4326" style="stroke:#B8860B;stroke-width:0.5;"/><text fill="#000000" font-family="sans-serif" font-size="11" lengthAdjust="spacing" textLength="109.2695" x="512.4075" y="394.2407">All items approved?</text><text fill="#000000" font-family="sans-serif" font-size="11" lengthAdjust="spacing" textLength="19.0083" x="481.3992" y="387.8384">yes</text><text fill="#000000" font-family="sans-serif" font-size="11" lengthAdjust="spacing" textLength="13.7017" x="633.677" y="387.8384">no</text><rect fill="#F0F8FF" height="32.8047" rx="12.5" ry="12.5" style="stroke:#4682B4;stroke-width:0.5;" width="164.3428" x="595.5261" y="593.6514"/><text fill="#000000" font-family="sans-serif" font-size="11" lengthAdjust="spacing" textLength="144.3428" x="605.5261" y="613.8618">Re-review revised outputs</text><line style="stroke:#5F9EA0;stroke-width:1.5;" x1="472.9331" x2="472.9331" y1="50.042" y2="830.0654"/><rect fill="#F0F8FF" height="32.8047" rx="12.5" ry="12.5" style="stroke:#4682B4;stroke-width:0.5;" width="150.1899" x="782.8359" y="488.042"/><text fill="#000000" font-family="sans-serif" font-size="11" lengthAdjust="spacing" textLength="130.1899" x="792.8359" y="508.2524">Revise flagged artifacts</text><line style="stroke:#5F9EA0;stroke-width:1.5;" x1="763.8688" x2="763.8688" y1="50.042" y2="830.0654"/><line style="stroke:#5F9EA0;stroke-width:1.5;" x1="949.9929" x2="949.9929" y1="50.042" y2="830.0654"/><line style="stroke:#4682B4;stroke-width:1;" x1="210.2709" x2="210.2709" y1="95.9951" y2="115.9951"/><polygon fill="#4682B4" points="206.2709,105.9951,210.2709,115.9951,214.2709,105.9951,210.2709,109.9951" style="stroke:#4682B4;stroke-width:1;"/><line style="stroke:#4682B4;stroke-width:1;" x1="210.2709" x2="210.2709" y1="161.6045" y2="181.6045"/><polygon fill="#4682B4" points="206.2709,171.6045,210.2709,181.6045,214.2709,171.6045,210.2709,175.6045" style="stroke:#4682B4;stroke-width:1;"/><line style="stroke:#4682B4;stroke-width:1;" x1="210.2709" x2="210.2709" y1="227.2139" y2="247.2139"/><polygon fill="#4682B4" points="206.2709,237.2139,210.2709,247.2139,214.2709,237.2139,210.2709,241.2139" style="stroke:#4682B4;stroke-width:1;"/><line style="stroke:#4682B4;stroke-width:1;" x1="99.6157" x2="99.6157" y1="468.042" y2="488.042"/><polygon fill="#4682B4" points="95.6157,478.042,99.6157,488.042,103.6157,478.042,99.6157,482.042" style="stroke:#4682B4;stroke-width:1;"/><line style="stroke:#4682B4;stroke-width:1;" x1="250.7507" x2="250.7507" y1="766.0654" y2="786.0654"/><polygon fill="#4682B4" points="246.7507,776.0654,250.7507,786.0654,254.7507,776.0654,250.7507,780.0654" style="stroke:#4682B4;stroke-width:1;"/><line style="stroke:#4682B4;stroke-width:1;" x1="391.1016" x2="391.1016" y1="766.0654" y2="786.0654"/><polygon fill="#4682B4" points="387.1016,776.0654,391.1016,786.0654,395.1016,776.0654,391.1016,780.0654" style="stroke:#4682B4;stroke-width:1;"/><line style="stroke:#4682B4;stroke-width:1;" x1="266.4086" x2="250.7507" y1="711.2607" y2="711.2607"/><line style="stroke:#4682B4;stroke-width:1;" x1="250.7507" x2="250.7507" y1="711.2607" y2="733.2607"/><polygon fill="#4682B4" points="246.7507,723.2607,250.7507,733.2607,254.7507,723.2607,250.7507,727.2607" style="stroke:#4682B4;stroke-width:1;"/><line style="stroke:#4682B4;stroke-width:1;" x1="375.4437" x2="391.1016" y1="711.2607" y2="711.2607"/><line style="stroke:#4682B4;stroke-width:1;" x1="391.1016" x2="391.1016" y1="711.2607" y2="733.2607"/><polygon fill="#4682B4" points="387.1016,723.2607,391.1016,733.2607,395.1016,723.2607,391.1016,727.2607" style="stroke:#4682B4;stroke-width:1;"/><line style="stroke:#4682B4;stroke-width:1;" x1="320.9261" x2="320.9261" y1="679.2607" y2="699.2607"/><polygon fill="#4682B4" points="316.9261,689.2607,320.9261,699.2607,324.9261,689.2607,320.9261,693.2607" style="stroke:#4682B4;stroke-width:1;"/><line style="stroke:#4682B4;stroke-width:1;" x1="567.0422" x2="567.0422" y1="358.4326" y2="378.4326"/><polygon fill="#4682B4" points="563.0422,368.4326,567.0422,378.4326,571.0422,368.4326,567.0422,372.4326" style="stroke:#4682B4;stroke-width:1;"/><line style="stroke:#4682B4;stroke-width:1;" x1="210.2709" x2="210.2709" y1="292.8232" y2="297.8232"/><line style="stroke:#4682B4;stroke-width:1;" x1="210.2709" x2="567.0422" y1="297.8232" y2="297.8232"/><line style="stroke:#4682B4;stroke-width:1;" x1="567.0422" x2="567.0422" y1="297.8232" y2="312.8232"/><polygon fill="#4682B4" points="563.0422,302.8232,567.0422,312.8232,571.0422,302.8232,567.0422,306.8232" style="stroke:#4682B4;stroke-width:1;"/><line style="stroke:#4682B4;stroke-width:1;" x1="320.9261" x2="320.9261" y1="468.042" y2="473.042"/><line style="stroke:#4682B4;stroke-width:1;" x1="320.9261" x2="857.9308" y1="473.042" y2="473.042"/><line style="stroke:#4682B4;stroke-width:1;" x1="857.9308" x2="857.9308" y1="473.042" y2="488.042"/><polygon fill="#4682B4" points="853.9308,478.042,857.9308,488.042,861.9308,478.042,857.9308,482.042" style="stroke:#4682B4;stroke-width:1;"/><line style="stroke:#4682B4;stroke-width:1;" x1="857.9308" x2="857.9308" y1="520.8467" y2="525.8467"/><line style="stroke:#4682B4;stroke-width:1;" x1="857.9308" x2="320.9261" y1="525.8467" y2="525.8467"/><line style="stroke:#4682B4;stroke-width:1;" x1="320.9261" x2="320.9261" y1="525.8467" y2="540.8467"/><polygon fill="#4682B4" points="316.9261,530.8467,320.9261,540.8467,324.9261,530.8467,320.9261,534.8467" style="stroke:#4682B4;stroke-width:1;"/><line style="stroke:#4682B4;stroke-width:1;" x1="320.9261" x2="320.9261" y1="573.6514" y2="578.6514"/><line style="stroke:#4682B4;stroke-width:1;" x1="320.9261" x2="677.6974" y1="578.6514" y2="578.6514"/><line style="stroke:#4682B4;stroke-width:1;" x1="677.6974" x2="677.6974" y1="578.6514" y2="593.6514"/><polygon fill="#4682B4" points="673.6974,583.6514,677.6974,593.6514,681.6974,583.6514,677.6974,587.6514" style="stroke:#4682B4;stroke-width:1;"/><line style="stroke:#4682B4;stroke-width:1;" x1="677.6974" x2="677.6974" y1="626.4561" y2="631.4561"/><line style="stroke:#4682B4;stroke-width:1;" x1="677.6974" x2="320.9261" y1="631.4561" y2="631.4561"/><line style="stroke:#4682B4;stroke-width:1;" x1="320.9261" x2="320.9261" y1="631.4561" y2="646.4561"/><polygon fill="#4682B4" points="316.9261,636.4561,320.9261,646.4561,324.9261,636.4561,320.9261,640.4561" style="stroke:#4682B4;stroke-width:1;"/><line style="stroke:#4682B4;stroke-width:1;" x1="500.4075" x2="99.6157" y1="390.4326" y2="390.4326"/><line style="stroke:#4682B4;stroke-width:1;" x1="99.6157" x2="99.6157" y1="390.4326" y2="422.4326"/><polygon fill="#4682B4" points="95.6157,412.4326,99.6157,422.4326,103.6157,412.4326,99.6157,416.4326" style="stroke:#4682B4;stroke-width:1;"/><line style="stroke:#4682B4;stroke-width:1;" x1="633.677" x2="645.677" y1="390.4326" y2="390.4326"/><line style="stroke:#4682B4;stroke-width:1;" x1="645.677" x2="645.677" y1="390.4326" y2="408.4326"/><line style="stroke:#4682B4;stroke-width:1;" x1="645.677" x2="320.9261" y1="408.4326" y2="408.4326"/><line style="stroke:#4682B4;stroke-width:1;" x1="320.9261" x2="320.9261" y1="408.4326" y2="422.4326"/><polygon fill="#4682B4" points="316.9261,412.4326,320.9261,422.4326,324.9261,412.4326,320.9261,416.4326" style="stroke:#4682B4;stroke-width:1;"/><text fill="#000000" font-family="sans-serif" font-size="18" font-weight="bold" lengthAdjust="spacing" textLength="97.8135" x="195.0598" y="66.75">PM Agent</text><text fill="#000000" font-family="sans-serif" font-size="18" font-weight="bold" lengthAdjust="spacing" textLength="46.415" x="595.1935" y="66.75">User</text><text fill="#000000" font-family="sans-serif" font-size="18" font-weight="bold" lengthAdjust="spacing" textLength="176.124" x="768.8688" y="66.75">Specialist Agents</text><!--SRC=[VPB1ZXCn38RlUGeVkuULji1fUq3JBgnM0gbgGOXZc7ZQg6aSEPvMXIBn43mXJu8pCuNP8d6PG-RpR_jBn4j0M6vjHbX0LOi_U3d1hny_OPtOHu4L7ZmUuHFnhWbqD2RlV4oMxHxi1Vzc0EQstcsOskWM58YX2hx6UMYn_2DsoFtvMX33SFxWxPwYkovzvpTR-OoXjFiBZJ8UBEyUAJYCJ4wHYfcE_yQ_fIXh_nLXEZNVHtFdezy76x6VUvIxi0vbAFvGp7G9Sb95NxITXfZpyZrK6unoDbaiYxcVBrUtTtUluD4Amfk33QqLJz4acpEwcRbV5mxcJvLYqq6h6RG-HK4k7YagMPYfCal6h2qWzoorabh9C-t-CIEVB-2Bo-KC0DZeZCFQEon7DUrHQtm3aoe4y89xHL9YEg1xVGEonGYJ4-ORNNUq5y2G_rBpQzKp5DbWj07KWVInzAFD5Cv2oM3Giqca_qJfH0WQnzYjQxOQHasJIyPvdNHi6toMlZHtjMKzpMs2tMnGns3nZShgIvvrMU4j9Ls7Uo7rgGxOKRsmdXX-SfVgu8_Mwx0bKuqvGvkStgc3eZJho1tQwHmaGgJZjKYjNrmP6Xm1Z2qLJb-NZ-tO2WIYzBmcEj-O_liR]--></g></svg>