<svg xmlns="http://www.w3.org/2000/svg" xmlns:xlink="http://www.w3.org/1999/xlink" contentStyleType="text/css" data-diagram-type="ACTIVITY" height="918px" preserveAspectRatio="none" style="width:740px;height:918px;background:#FFFFFF;" version="1.1" viewBox="0 0 740 918" width="740px" zoomAndPan="magnify"><defs/><g><rect fill="none" height="20.9531" style="stroke:none;stroke-width:1;" width="707.6006" x="15" y="12.7451"/><ellipse cx="200.3433" cy="48.6982" fill="#222222" rx="10" ry="10" style="stroke:#222222;stroke-width:1;"/><rect fill="#F0F8FF" height="32.8047" rx="12.5" ry="12.5" style="stroke:#4682B4;stroke-width:0.5;" width="153.9927" x="123.3469" y="78.6982"/><text fill="#000000" font-family="sans-serif" font-size="11" lengthAdjust="spacing" textLength="133.9927" x="133.3469" y="98.9087">BPR-001 Sprint Planning</text><rect fill="#F0F8FF" height="45.6094" rx="12.5" ry="12.5" style="stroke:#4682B4;stroke-width:0.5;" width="159.1973" x="120.7446" y="131.5029"/><text fill="#000000" font-family="sans-serif" font-size="11" lengthAdjust="spacing" textLength="139.1973" x="130.7446" y="151.7134">BPR-201 Select specialist</text><text fill="#000000" font-family="sans-serif" font-size="11" lengthAdjust="spacing" textLength="82.3926" x="130.7446" y="164.5181">and active skill</text><rect fill="#F0F8FF" height="45.6094" rx="12.5" ry="12.5" style="stroke:#4682B4;stroke-width:0.5;" width="153.0259" x="123.8303" y="551.3545"/><text fill="#000000" font-family="sans-serif" font-size="11" lengthAdjust="spacing" textLength="133.0259" x="133.8303" y="571.5649">Apply fast-path decision</text><text fill="#000000" font-family="sans-serif" font-size="11" lengthAdjust="spacing" textLength="38.4893" x="133.8303" y="584.3696">or hold</text><rect fill="#F0F8FF" height="32.8047" rx="12.5" ry="12.5" style="stroke:#4682B4;stroke-width:0.5;" width="158.166" x="121.2603" y="726.5732"/><text fill="#000000" font-family="sans-serif" font-size="11" lengthAdjust="spacing" textLength="138.166" x="131.2603" y="746.7837">BPR-004 Gate Evaluation</text><polygon fill="#FFFFE0" points="163.0356,779.3779,237.6509,779.3779,249.6509,791.3779,237.6509,803.3779,163.0356,803.3779,151.0356,791.3779,163.0356,779.3779" style="stroke:#B8860B;stroke-width:0.5;"/><text fill="#000000" font-family="sans-serif" font-size="11" lengthAdjust="spacing" textLength="74.6152" x="163.0356" y="795.186">Gate passed?</text><text fill="#000000" font-family="sans-serif" font-size="11" lengthAdjust="spacing" textLength="19.0083" x="132.0273" y="788.7837">yes</text><text fill="#000000" font-family="sans-serif" font-size="11" lengthAdjust="spacing" textLength="13.7017" x="249.6509" y="788.7837">no</text><rect fill="#F0F8FF" height="45.6094" rx="12.5" ry="12.5" style="stroke:#4682B4;stroke-width:0.5;" width="166.9961" x="21" y="813.3779"/><text fill="#000000" font-family="sans-serif" font-size="11" lengthAdjust="spacing" textLength="146.9961" x="31" y="833.5884">Route to next phase/sprint</text><text fill="#000000" font-family="sans-serif" font-size="11" lengthAdjust="spacing" textLength="69.3193" x="31" y="846.3931">control node</text><ellipse cx="104.498" cy="889.9873" fill="none" rx="11" ry="11" style="stroke:#222222;stroke-width:1;"/><ellipse cx="104.498" cy="889.9873" fill="#222222" rx="6" ry="6" style="stroke:#222222;stroke-width:1;"/><rect fill="#F0F8FF" height="45.6094" rx="12.5" ry="12.5" style="stroke:#4682B4;stroke-width:0.5;" width="176.3848" x="207.9961" y="813.3779"/><text fill="#000000" font-family="sans-serif" font-size="11" lengthAdjust="spacing" textLength="156.3848" x="217.9961" y="833.5884">Record hold/rework decision</text><text fill="#000000" font-family="sans-serif" font-size="11" lengthAdjust="spacing" textLength="59.2324" x="217.9961" y="846.3931">and replan</text><ellipse cx="296.1885" cy="889.9873" fill="none" rx="11" ry="11" style="stroke:#222222;stroke-width:1;"/><ellipse cx="296.1885" cy="889.9873" fill="#222222" rx="6" ry="6" style="stroke:#222222;stroke-width:1;"/><line style="stroke:#5F9EA0;stroke-width:1.5;" x1="15" x2="15" y1="12.7451" y2="906.9873"/><rect fill="#F0F8FF" height="45.6094" rx="12.5" ry="12.5" style="stroke:#4682B4;stroke-width:0.5;" width="163.5693" x="398.7664" y="197.1123"/><text fill="#000000" font-family="sans-serif" font-size="11" lengthAdjust="spacing" textLength="143.5693" x="408.7664" y="217.3228">BPR-202 Execute skill and</text><text fill="#000000" font-family="sans-serif" font-size="11" lengthAdjust="spacing" textLength="93.8384" x="408.7664" y="230.1274">produce artifacts</text><rect fill="#F0F8FF" height="45.6094" rx="12.5" ry="12.5" style="stroke:#4682B4;stroke-width:0.5;" width="117.249" x="421.9265" y="311.124"/><text fill="#000000" font-family="sans-serif" font-size="11" lengthAdjust="spacing" textLength="97.249" x="431.9265" y="331.3345">Route to BPR-003</text><text fill="#000000" font-family="sans-serif" font-size="11" lengthAdjust="spacing" textLength="68.0894" x="431.9265" y="344.1392">CQ Lifecycle</text><polygon fill="#FFFFE0" points="435.2969,262.7217,525.8052,262.7217,537.8052,274.7217,525.8052,286.7217,435.2969,286.7217,423.2969,274.7217,435.2969,262.7217" style="stroke:#B8860B;stroke-width:0.5;"/><text fill="#000000" font-family="sans-serif" font-size="11" lengthAdjust="spacing" textLength="19.0083" x="484.551" y="296.9321">yes</text><text fill="#000000" font-family="sans-serif" font-size="11" lengthAdjust="spacing" textLength="90.5083" x="435.2969" y="278.5298">Knowledge gap?</text><text fill="#000000" font-family="sans-serif" font-size="11" lengthAdjust="spacing" textLength="13.7017" x="537.8052" y="272.1274">no</text><polygon fill="#FFFFE0" points="480.551,376.7334,492.551,388.7334,480.551,400.7334,468.551,388.7334,480.551,376.7334" style="stroke:#B8860B;stroke-width:0.5;"/><polygon fill="#FFFFE0" points="423.6362,420.7334,537.4658,420.7334,549.4658,433.5381,537.4658,446.3428,423.6362,446.3428,411.6362,433.5381,423.6362,420.7334" style="stroke:#B8860B;stroke-width:0.5;"/><text fill="#000000" font-family="sans-serif" font-size="11" lengthAdjust="spacing" textLength="19.0083" x="484.551" y="456.5532">yes</text><text fill="#000000" font-family="sans-serif" font-size="11" lengthAdjust="spacing" textLength="113.8296" x="423.6362" y="430.9438">Critical risk or safety</text><text fill="#000000" font-family="sans-serif" font-size="11" lengthAdjust="spacing" textLength="102.7651" x="423.6362" y="443.7485">constraint breach?</text><text fill="#000000" font-family="sans-serif" font-size="11" lengthAdjust="spacing" textLength="13.7017" x="549.4658" y="430.9438">no</text><polygon fill="#FFFFE0" points="480.551,616.9639,492.551,628.9639,480.551,640.9639,468.551,628.9639,480.551,616.9639" style="stroke:#B8860B;stroke-width:0.5;"/><rect fill="#F0F8FF" height="45.6094" rx="12.5" ry="12.5" style="stroke:#4682B4;stroke-width:0.5;" width="172.3403" x="394.3809" y="660.9639"/><text fill="#000000" font-family="sans-serif" font-size="11" lengthAdjust="spacing" textLength="152.3403" x="404.3809" y="681.1743">BPR-203 Return completion</text><text fill="#000000" font-family="sans-serif" font-size="11" lengthAdjust="spacing" textLength="66.6982" x="404.3809" y="693.979">signal to PM</text><line style="stroke:#5F9EA0;stroke-width:1.5;" x1="388.3809" x2="388.3809" y1="12.7451" y2="906.9873"/><rect fill="#F0F8FF" height="45.6094" rx="12.5" ry="12.5" style="stroke:#4682B4;stroke-width:0.5;" width="124.4033" x="592.064" y="470.7451"/><text fill="#000000" font-family="sans-serif" font-size="11" lengthAdjust="spacing" textLength="104.4033" x="602.064" y="490.9556">BPR-005 Algedonic</text><text fill="#000000" font-family="sans-serif" font-size="11" lengthAdjust="spacing" textLength="56.3374" x="602.064" y="503.7603">Escalation</text><line style="stroke:#5F9EA0;stroke-width:1.5;" x1="586.064" x2="586.064" y1="12.7451" y2="906.9873"/><line style="stroke:#5F9EA0;stroke-width:1.5;" x1="720.4673" x2="720.4673" y1="12.7451" y2="906.9873"/><line style="stroke:#4682B4;stroke-width:1;" x1="200.3433" x2="200.3433" y1="58.6982" y2="78.6982"/><polygon fill="#4682B4" points="196.3433,68.6982,200.3433,78.6982,204.3433,68.6982,200.3433,72.6982" style="stroke:#4682B4;stroke-width:1;"/><line style="stroke:#4682B4;stroke-width:1;" x1="200.3433" x2="200.3433" y1="111.5029" y2="131.5029"/><polygon fill="#4682B4" points="196.3433,121.5029,200.3433,131.5029,204.3433,121.5029,200.3433,125.5029" style="stroke:#4682B4;stroke-width:1;"/><line style="stroke:#4682B4;stroke-width:1;" x1="104.498" x2="104.498" y1="858.9873" y2="878.9873"/><polygon fill="#4682B4" points="100.498,868.9873,104.498,878.9873,108.498,868.9873,104.498,872.9873" style="stroke:#4682B4;stroke-width:1;"/><line style="stroke:#4682B4;stroke-width:1;" x1="296.1885" x2="296.1885" y1="858.9873" y2="878.9873"/><polygon fill="#4682B4" points="292.1885,868.9873,296.1885,878.9873,300.1885,868.9873,296.1885,872.9873" style="stroke:#4682B4;stroke-width:1;"/><line style="stroke:#4682B4;stroke-width:1;" x1="151.0356" x2="104.498" y1="791.3779" y2="791.3779"/><line style="stroke:#4682B4;stroke-width:1;" x1="104.498" x2="104.498" y1="791.3779" y2="813.3779"/><polygon fill="#4682B4" points="100.498,803.3779,104.498,813.3779,108.498,803.3779,104.498,807.3779" style="stroke:#4682B4;stroke-width:1;"/><line style="stroke:#4682B4;stroke-width:1;" x1="249.6509" x2="296.1885" y1="791.3779" y2="791.3779"/><line style="stroke:#4682B4;stroke-width:1;" x1="296.1885" x2="296.1885" y1="791.3779" y2="813.3779"/><polygon fill="#4682B4" points="292.1885,803.3779,296.1885,813.3779,300.1885,803.3779,296.1885,807.3779" style="stroke:#4682B4;stroke-width:1;"/><line style="stroke:#4682B4;stroke-width:1;" x1="200.3433" x2="200.3433" y1="759.3779" y2="779.3779"/><polygon fill="#4682B4" points="196.3433,769.3779,200.3433,779.3779,204.3433,769.3779,200.3433,773.3779" style="stroke:#4682B4;stroke-width:1;"/><line style="stroke:#4682B4;stroke-width:1;" x1="480.551" x2="480.551" y1="286.7217" y2="311.124"/><polygon fill="#4682B4" points="476.551,301.124,480.551,311.124,484.551,301.124,480.551,305.124" style="stroke:#4682B4;stroke-width:1;"/><line style="stroke:#4682B4;stroke-width:1;" x1="537.8052" x2="549.8052" y1="274.7217" y2="274.7217"/><polygon fill="#4682B4" points="545.8052,323.9287,549.8052,333.9287,553.8052,323.9287,549.8052,327.9287" style="stroke:#4682B4;stroke-width:1;"/><line style="stroke:#4682B4;stroke-width:1;" x1="549.8052" x2="549.8052" y1="274.7217" y2="388.7334"/><line style="stroke:#4682B4;stroke-width:1;" x1="549.8052" x2="492.551" y1="388.7334" y2="388.7334"/><polygon fill="#4682B4" points="502.551,384.7334,492.551,388.7334,502.551,392.7334,498.551,388.7334" style="stroke:#4682B4;stroke-width:1;"/><line style="stroke:#4682B4;stroke-width:1;" x1="480.551" x2="480.551" y1="356.7334" y2="376.7334"/><polygon fill="#4682B4" points="476.551,366.7334,480.551,376.7334,484.551,366.7334,480.551,370.7334" style="stroke:#4682B4;stroke-width:1;"/><line style="stroke:#4682B4;stroke-width:1;" x1="480.551" x2="480.551" y1="242.7217" y2="262.7217"/><polygon fill="#4682B4" points="476.551,252.7217,480.551,262.7217,484.551,252.7217,480.551,256.7217" style="stroke:#4682B4;stroke-width:1;"/><line style="stroke:#4682B4;stroke-width:1;" x1="549.4658" x2="567.064" y1="433.5381" y2="433.5381"/><polygon fill="#4682B4" points="563.064,523.4521,567.064,533.4521,571.064,523.4521,567.064,527.4521" style="stroke:#4682B4;stroke-width:1;"/><line style="stroke:#4682B4;stroke-width:1;" x1="567.064" x2="567.064" y1="433.5381" y2="628.9639"/><line style="stroke:#4682B4;stroke-width:1;" x1="567.064" x2="492.551" y1="628.9639" y2="628.9639"/><polygon fill="#4682B4" points="502.551,624.9639,492.551,628.9639,502.551,632.9639,498.551,628.9639" style="stroke:#4682B4;stroke-width:1;"/><line style="stroke:#4682B4;stroke-width:1;" x1="480.551" x2="480.551" y1="400.7334" y2="420.7334"/><polygon fill="#4682B4" points="476.551,410.7334,480.551,420.7334,484.551,410.7334,480.551,414.7334" style="stroke:#4682B4;stroke-width:1;"/><line style="stroke:#4682B4;stroke-width:1;" x1="480.551" x2="480.551" y1="640.9639" y2="660.9639"/><polygon fill="#4682B4" points="476.551,650.9639,480.551,660.9639,484.551,650.9639,480.551,654.9639" style="stroke:#4682B4;stroke-width:1;"/><line style="stroke:#4682B4;stroke-width:1;" x1="200.3433" x2="200.3433" y1="177.1123" y2="182.1123"/><line style="stroke:#4682B4;stroke-width:1;" x1="200.3433" x2="480.551" y1="182.1123" y2="182.1123"/><line style="stroke:#4682B4;stroke-width:1;" x1="480.551" x2="480.551" y1="182.1123" y2="197.1123"/><polygon fill="#4682B4" points="476.551,187.1123,480.551,197.1123,484.551,187.1123,480.551,191.1123" style="stroke:#4682B4;stroke-width:1;"/><line style="stroke:#4682B4;stroke-width:1;" x1="654.2656" x2="654.2656" y1="516.3545" y2="533.8545"/><line style="stroke:#4682B4;stroke-width:1;" x1="654.2656" x2="200.3433" y1="533.8545" y2="533.8545"/><line style="stroke:#4682B4;stroke-width:1;" x1="200.3433" x2="200.3433" y1="533.8545" y2="551.3545"/><polygon fill="#4682B4" points="196.3433,541.3545,200.3433,551.3545,204.3433,541.3545,200.3433,545.3545" style="stroke:#4682B4;stroke-width:1;"/><line style="stroke:#4682B4;stroke-width:1;" x1="480.551" x2="480.551" y1="446.3428" y2="458.5439"/><line style="stroke:#4682B4;stroke-width:1;" x1="480.551" x2="654.2656" y1="458.5439" y2="458.5439"/><line style="stroke:#4682B4;stroke-width:1;" x1="654.2656" x2="654.2656" y1="458.5439" y2="470.7451"/><polygon fill="#4682B4" points="650.2656,460.7451,654.2656,470.7451,658.2656,460.7451,654.2656,464.7451" style="stroke:#4682B4;stroke-width:1;"/><line style="stroke:#4682B4;stroke-width:1;" x1="200.3433" x2="200.3433" y1="596.9639" y2="604.7627"/><line style="stroke:#4682B4;stroke-width:1;" x1="200.3433" x2="480.551" y1="604.7627" y2="604.7627"/><line style="stroke:#4682B4;stroke-width:1;" x1="480.551" x2="480.551" y1="604.7627" y2="616.9639"/><polygon fill="#4682B4" points="476.551,606.9639,480.551,616.9639,484.551,606.9639,480.551,610.9639" style="stroke:#4682B4;stroke-width:1;"/><line style="stroke:#4682B4;stroke-width:1;" x1="480.551" x2="480.551" y1="706.5732" y2="711.5732"/><line style="stroke:#4682B4;stroke-width:1;" x1="480.551" x2="200.3433" y1="711.5732" y2="711.5732"/><line style="stroke:#4682B4;stroke-width:1;" x1="200.3433" x2="200.3433" y1="711.5732" y2="726.5732"/><polygon fill="#4682B4" points="196.3433,716.5732,200.3433,726.5732,204.3433,716.5732,200.3433,720.5732" style="stroke:#4682B4;stroke-width:1;"/><text fill="#000000" font-family="sans-serif" font-size="18" font-weight="bold" lengthAdjust="spacing" textLength="97.8135" x="152.7837" y="29.4531">PM Agent</text><text fill="#000000" font-family="sans-serif" font-size="18" font-weight="bold" lengthAdjust="spacing" textLength="176.124" x="399.1604" y="29.4531">Specialist Agents</text><text fill="#000000" font-family="sans-serif" font-size="18" font-weight="bold" lengthAdjust="spacing" textLength="121.3945" x="592.5684" y="29.4531">CSCO Agent</text><!--SRC=[TP9FKnin3CNl_XGwXWC3WVP23fraIJcqJDEa5ux2rkvwujWUMqlODltkrVw1fD1UBUcdzvwLjzP7JBW3r6oVBBVmIm4iK6-h51flYk12WhcpcXQkeQuMag4ql6-Oo8tljnPtmPkterzjLVC3EHVs9qqdZ5jCsxlW3FaKZBJCKmhxz_ZFmVF6_YIOJjLlbLzrvxtTEVGqw3xX5cY8n-4VbXtr16uTmQEi4uWwhEvXNf7dWygCYTNDOhK-lxoSmYOcwnbMGlRMLxEXSjLLo95co96qHMSpA_HcI8z0P3at4_3cjJmio8SNmXKidqatF3Q3JAiepXjD819iAQWi25l2v8iFUqUc8gWmVZe3hid3fALy9fvkrg6ZS811zBKglalQ9UbMEvefSfbWuiEP8cziEH2BPDbgT91iteAabB4aRfKEFdF2plDZ8jJrsss7ObDyUmbBbWyxFyfbL6I2jrejit2HRV2phlyOhNJFOtGjb9ZvF2BNO2ITB9rA5DJo6Vt4Fp9xvs4CyHhMn4toeCCkEkgMgcmhByOaZzNzxA-_7SL-W3kKm9PFw9fHPnT9_nWnPpB_ZzZJCqEiCTD5xa-ZIunJSE23eKv-vX1Fz7R3fEKSUtyNYVOXRO- -kvj95EMyZhEzmpy0]--></g></svg>