<svg xmlns="http://www.w3.org/2000/svg" xmlns:xlink="http://www.w3.org/1999/xlink" contentStyleType="text/css" data-diagram-type="SEQUENCE" height="799px" preserveAspectRatio="none" style="width:1357px;height:799px;background:#FFFFFF;" version="1.1" viewBox="0 0 1357 799" width="1357px" zoomAndPan="magnify"><title>Sprint Review Correction Loop (Application Runtime)</title><defs/><g><text fill="#000000" font-family="sans-serif" font-size="14" font-weight="bold" lengthAdjust="spacing" textLength="418.5986" x="470.873" y="27.9951">Sprint Review Correction Loop (Application Runtime)</text><rect fill="none" height="470.9297" style="stroke:#000000;stroke-width:1.5;" width="1341.3447" x="10" y="167.0234"/><rect fill="none" height="294.1328" style="stroke:#000000;stroke-width:1.5;" width="1321.3447" x="20" y="336.8203"/><g><title>LangGraph Orchestrator</title><rect fill="#000000" fill-opacity="0.00000" height="584.3281" width="8" x="118.21" y="120.8906"/><line style="stroke:#181818;stroke-width:0.5;stroke-dasharray:5.0,5.0;" x1="122" x2="122" y1="120.8906" y2="705.2188"/></g><g><title>PM Agent</title><rect fill="#000000" fill-opacity="0.00000" height="584.3281" width="8" x="312.7524" y="120.8906"/><line style="stroke:#181818;stroke-width:0.5;stroke-dasharray:5.0,5.0;" x1="316.5469" x2="316.5469" y1="120.8906" y2="705.2188"/></g><g><title>Dashboard Server</title><rect fill="#000000" fill-opacity="0.00000" height="584.3281" width="8" x="433.2383" y="120.8906"/><line style="stroke:#181818;stroke-width:0.5;stroke-dasharray:5.0,5.0;" x1="436.958" x2="436.958" y1="120.8906" y2="705.2188"/></g><g><title>UserInputGateway</title><rect fill="#000000" fill-opacity="0.00000" height="584.3281" width="8" x="694.6724" y="120.8906"/><line style="stroke:#181818;stroke-width:0.5;stroke-dasharray:5.0,5.0;" x1="698.6694" x2="698.6694" y1="120.8906" y2="705.2188"/></g><g><title>UserInteractionOrchestrator</title><rect fill="#000000" fill-opacity="0.00000" height="584.3281" width="8" x="882.0513" y="120.8906"/><line style="stroke:#181818;stroke-width:0.5;stroke-dasharray:5.0,5.0;" x1="885.6753" x2="885.6753" y1="120.8906" y2="705.2188"/></g><g><title>Specialist Agent</title><rect fill="#000000" fill-opacity="0.00000" height="584.3281" width="8" x="1060.9297" y="120.8906"/><line style="stroke:#181818;stroke-width:0.5;stroke-dasharray:5.0,5.0;" x1="1064.4272" x2="1064.4272" y1="120.8906" y2="705.2188"/></g><g><title>EventStore</title><rect fill="#000000" fill-opacity="0.00000" height="584.3281" width="8" x="1285.6362" y="120.8906"/><line style="stroke:#181818;stroke-width:0.5;stroke-dasharray:5.0,5.0;" x1="1288.9277" x2="1288.9277" y1="120.8906" y2="705.2188"/></g><g class="participant participant-head" data-participant="APP_016"><rect fill="#E2E2F0" height="46.5938" rx="2.5" ry="2.5" style="stroke:#181818;stroke-width:0.5;" width="184.4199" x="30" y="73.2969"/><text fill="#000000" font-family="sans-serif" font-size="14" lengthAdjust="spacing" textLength="170.4199" x="37" y="93.292">LangGraph Orchestrator</text><text fill="#000000" font-family="sans-serif" font-size="14" lengthAdjust="spacing" textLength="58.2354" x="93.0923" y="109.5889">APP-016</text></g><g class="participant participant-tail" data-participant="APP_016"><rect fill="#E2E2F0" height="46.5938" rx="2.5" ry="2.5" style="stroke:#181818;stroke-width:0.5;" width="184.4199" x="30" y="704.2188"/><text fill="#000000" font-family="sans-serif" font-size="14" lengthAdjust="spacing" textLength="170.4199" x="37" y="724.2139">LangGraph Orchestrator</text><text fill="#000000" font-family="sans-serif" font-size="14" lengthAdjust="spacing" textLength="58.2354" x="93.0923" y="740.5107">APP-016</text></g><g class="participant participant-head" data-participant="APP_007"><rect fill="#E2E2F0" height="46.5938" rx="2.5" ry="2.5" style="stroke:#181818;stroke-width:0.5;" width="80.4111" x="276.5469" y="73.2969"/><text fill="#000000" font-family="sans-serif" font-size="14" lengthAdjust="spacing" textLength="66.4111" x="283.5469" y="93.292">PM Agent</text><text fill="#000000" font-family="sans-serif" font-size="14" lengthAdjust="spacing" textLength="58.2354" x="287.6348" y="109.5889">APP-007</text></g><g class="participant participant-tail" data-participant="APP_007"><rect fill="#E2E2F0" height="46.5938" rx="2.5" ry="2.5" style="stroke:#181818;stroke-width:0.5;" width="80.4111" x="276.5469" y="704.2188"/><text fill="#000000" font-family="sans-serif" font-size="14" lengthAdjust="spacing" textLength="66.4111" x="283.5469" y="724.2139">PM Agent</text><text fill="#000000" font-family="sans-serif" font-size="14" lengthAdjust="spacing" textLength="58.2354" x="287.6348" y="740.5107">APP-007</text></g><g class="participant participant-head" data-participant="APP_020"><rect fill="#E2E2F0" height="46.5938" rx="2.5" ry="2.5" style="stroke:#181818;stroke-width:0.5;" width="140.5605" x="366.958" y="73.2969"/><text fill="#000000" font-family="sans-serif" font-size="14" lengthAdjust="spacing" textLength="126.5605" x="373.958" y="93.292">Dashboard Server</text><text fill="#000000" font-family="sans-serif" font-size="14" lengthAdjust="spacing" textLength="58.2354" x="408.1206" y="109.5889">APP-020</text></g><g class="participant participant-tail" data-participant="APP_020"><rect fill="#E2E2F0" height="46.5938" rx="2.5" ry="2.5" style="stroke:#181818;stroke-width:0.5;" width="140.5605" x="366.958" y="704.2188"/><text fill="#000000" font-family="sans-serif" font-size="14" lengthAdjust="spacing" textLength="126.5605" x="373.958" y="724.2139">Dashboard Server</text><text fill="#000000" font-family="sans-serif" font-size="14" lengthAdjust="spacing" textLength="58.2354" x="408.1206" y="740.5107">APP-020</text></g><g class="participant participant-head" data-participant="APP_021"><rect fill="#E2E2F0" height="46.5938" rx="2.5" ry="2.5" style="stroke:#181818;stroke-width:0.5;" width="144.0059" x="626.6694" y="73.2969"/><text fill="#000000" font-family="sans-serif" font-size="14" lengthAdjust="spacing" textLength="130.0059" x="633.6694" y="93.292">UserInputGateway</text><text fill="#000000" font-family="sans-serif" font-size="14" lengthAdjust="spacing" textLength="58.2354" x="669.5547" y="109.5889">APP-021</text></g><g class="participant participant-tail" data-participant="APP_021"><rect fill="#E2E2F0" height="46.5938" rx="2.5" ry="2.5" style="stroke:#181818;stroke-width:0.5;" width="144.0059" x="626.6694" y="704.2188"/><text fill="#000000" font-family="sans-serif" font-size="14" lengthAdjust="spacing" textLength="130.0059" x="633.6694" y="724.2139">UserInputGateway</text><text fill="#000000" font-family="sans-serif" font-size="14" lengthAdjust="spacing" textLength="58.2354" x="669.5547" y="740.5107">APP-021</text></g><g class="participant participant-head" data-participant="APP_018"><rect fill="#E2E2F0" height="46.5938" rx="2.5" ry="2.5" style="stroke:#181818;stroke-width:0.5;" width="210.752" x="780.6753" y="73.2969"/><text fill="#000000" font-family="sans-serif" font-size="14" lengthAdjust="spacing" textLength="196.752" x="787.6753" y="93.292">UserInteractionOrchestrator</text><text fill="#000000" font-family="sans-serif" font-size="14" lengthAdjust="spacing" textLength="58.2354" x="856.9336" y="109.5889">APP-018</text></g><g class="participant participant-tail" data-participant="APP_018"><rect fill="#E2E2F0" height="46.5938" rx="2.5" ry="2.5" style="stroke:#181818;stroke-width:0.5;" width="210.752" x="780.6753" y="704.2188"/><text fill="#000000" font-family="sans-serif" font-size="14" lengthAdjust="spacing" textLength="196.752" x="787.6753" y="724.2139">UserInteractionOrchestrator</text><text fill="#000000" font-family="sans-serif" font-size="14" lengthAdjust="spacing" textLength="58.2354" x="856.9336" y="740.5107">APP-018</text></g><g class="participant participant-head" data-participant="APP_008"><rect fill="#E2E2F0" height="46.5938" rx="2.5" ry="2.5" style="stroke:#181818;stroke-width:0.5;" width="127.0049" x="1001.4272" y="73.2969"/><text fill="#000000" font-family="sans-serif" font-size="14" lengthAdjust="spacing" textLength="113.0049" x="1008.4272" y="93.292">Specialist Agent</text><text fill="#000000" font-family="sans-serif" font-size="14" lengthAdjust="spacing" textLength="58.2354" x="1035.812" y="109.5889">APP-008</text></g><g class="participant participant-tail" data-participant="APP_008"><rect fill="#E2E2F0" height="46.5938" rx="2.5" ry="2.5" style="stroke:#181818;stroke-width:0.5;" width="127.0049" x="1001.4272" y="704.2188"/><text fill="#000000" font-family="sans-serif" font-size="14" lengthAdjust="spacing" textLength="113.0049" x="1008.4272" y="724.2139">Specialist Agent</text><text fill="#000000" font-family="sans-serif" font-size="14" lengthAdjust="spacing" textLength="58.2354" x="1035.812" y="740.5107">APP-008</text></g><g class="participant participant-head" data-participant="APP_001"><text fill="#000000" font-family="sans-serif" font-size="14" lengthAdjust="spacing" textLength="77.417" x="1247.9277" y="101.292">EventStore</text><text fill="#000000" font-family="sans-serif" font-size="14" lengthAdjust="spacing" textLength="58.2354" x="1257.5186" y="117.5889">APP-001</text><path d="M1271.6362,52.2969 C1271.6362,42.2969 1289.6362,42.2969 1289.6362,42.2969 C1289.6362,42.2969 1307.6362,42.2969 1307.6362,52.2969 L1307.6362,78.2969 C1307.6362,88.2969 1289.6362,88.2969 1289.6362,88.2969 C1289.6362,88.2969 1271.6362,88.2969 1271.6362,78.2969 L1271.6362,52.2969" fill="#E2E2F0" style="stroke:#181818;stroke-width:1.5;"/><path d="M1271.6362,52.2969 C1271.6362,62.2969 1289.6362,62.2969 1289.6362,62.2969 C1289.6362,62.2969 1307.6362,62.2969 1307.6362,52.2969" fill="none" style="stroke:#181818;stroke-width:1.5;"/></g><g class="participant participant-tail" data-participant="APP_001"><text fill="#000000" font-family="sans-serif" font-size="14" lengthAdjust="spacing" textLength="77.417" x="1247.9277" y="717.2139">EventStore</text><text fill="#000000" font-family="sans-serif" font-size="14" lengthAdjust="spacing" textLength="58.2354" x="1257.5186" y="733.5107">APP-001</text><path d="M1271.6362,746.8125 C1271.6362,736.8125 1289.6362,736.8125 1289.6362,736.8125 C1289.6362,736.8125 1307.6362,736.8125 1307.6362,746.8125 L1307.6362,772.8125 C1307.6362,782.8125 1289.6362,782.8125 1289.6362,782.8125 C1289.6362,782.8125 1271.6362,782.8125 1271.6362,772.8125 L1271.6362,746.8125" fill="#E2E2F0" style="stroke:#181818;stroke-width:1.5;"/><path d="M1271.6362,746.8125 C1271.6362,756.8125 1289.6362,756.8125 1289.6362,756.8125 C1289.6362,756.8125 1307.6362,756.8125 1307.6362,746.8125" fill="none" style="stroke:#181818;stroke-width:1.5;"/></g><g class="message" data-participant-1="APP_007" data-participant-2="APP_001"><polygon fill="#181818" points="1277.6362,148.0234,1287.6362,152.0234,1277.6362,156.0234,1281.6362,152.0234" style="stroke:#181818;stroke-width:1;"/><line style="stroke:#181818;stroke-width:1;" x1="316.7524" x2="1283.6362" y1="152.0234" y2="152.0234"/><text fill="#000000" font-family="sans-serif" font-size="13" lengthAdjust="spacing" textLength="195.9648" x="323.7524" y="146.9575">record_event(review.pending)</text></g><path d="M10,167.0234 L86.624,167.0234 L86.624,174.1563 L76.624,184.1563 L10,184.1563 L10,167.0234" fill="#EEEEEE" style="stroke:#000000;stroke-width:1.5;"/><rect fill="none" height="470.9297" style="stroke:#000000;stroke-width:1.5;" width="1341.3447" x="10" y="167.0234"/><text fill="#000000" font-family="sans-serif" font-size="13" font-weight="bold" lengthAdjust="spacing" textLength="31.624" x="25" y="180.0903">loop</text><text fill="#000000" font-family="sans-serif" font-size="11" font-weight="bold" lengthAdjust="spacing" textLength="203.4033" x="101.624" y="179.2339">[until all review items approved]</text><g class="message" data-participant-1="APP_020" data-participant-2="APP_001"><polygon fill="#181818" points="1277.6362,201.2891,1287.6362,205.2891,1277.6362,209.2891,1281.6362,205.2891" style="stroke:#181818;stroke-width:1;"/><line style="stroke:#181818;stroke-width:1;" x1="437.2383" x2="1283.6362" y1="205.2891" y2="205.2891"/><text fill="#000000" font-family="sans-serif" font-size="13" lengthAdjust="spacing" textLength="184.1709" x="444.2383" y="200.2231">query pending review scope</text></g><g class="message" data-participant-1="APP_020" data-participant-2="APP_021"><polygon fill="#181818" points="686.6724,230.4219,696.6724,234.4219,686.6724,238.4219,690.6724,234.4219" style="stroke:#181818;stroke-width:1;"/><line style="stroke:#181818;stroke-width:1;" x1="437.2383" x2="692.6724" y1="234.4219" y2="234.4219"/><text fill="#000000" font-family="sans-serif" font-size="13" lengthAdjust="spacing" textLength="237.4341" x="444.2383" y="229.356">delegate review submission payload</text></g><g class="message" data-participant-1="APP_021" data-participant-2="APP_001"><polygon fill="#181818" points="1277.6362,259.5547,1287.6362,263.5547,1277.6362,267.5547,1281.6362,263.5547" style="stroke:#181818;stroke-width:1;"/><line style="stroke:#181818;stroke-width:1;" x1="698.6724" x2="1283.6362" y1="263.5547" y2="263.5547"/><text fill="#000000" font-family="sans-serif" font-size="13" lengthAdjust="spacing" textLength="209.1045" x="705.6724" y="258.4888">record_event(review.submitted)</text></g><g class="message" data-participant-1="APP_018" data-participant-2="APP_001"><polygon fill="#181818" points="1277.6362,288.6875,1287.6362,292.6875,1277.6362,296.6875,1281.6362,292.6875" style="stroke:#181818;stroke-width:1;"/><line style="stroke:#181818;stroke-width:1;" x1="886.0513" x2="1283.6362" y1="292.6875" y2="292.6875"/><text fill="#000000" font-family="sans-serif" font-size="13" lengthAdjust="spacing" textLength="155.0542" x="893.0513" y="287.6216">query review.submitted</text></g><g class="message" data-participant-1="APP_018" data-participant-2="APP_007"><polygon fill="#181818" points="327.7524,317.8203,317.7524,321.8203,327.7524,325.8203,323.7524,321.8203" style="stroke:#181818;stroke-width:1;"/><line style="stroke:#181818;stroke-width:1;" x1="321.7524" x2="885.0513" y1="321.8203" y2="321.8203"/><text fill="#000000" font-family="sans-serif" font-size="13" lengthAdjust="spacing" textLength="253.1382" x="333.7524" y="316.7544">forward review payload for decisioning</text></g><path d="M20,336.8203 L84.4429,336.8203 L84.4429,343.9531 L74.4429,353.9531 L20,353.9531 L20,336.8203" fill="#EEEEEE" style="stroke:#000000;stroke-width:1.5;"/><rect fill="none" height="294.1328" style="stroke:#000000;stroke-width:1.5;" width="1321.3447" x="20" y="336.8203"/><text fill="#000000" font-family="sans-serif" font-size="13" font-weight="bold" lengthAdjust="spacing" textLength="19.4429" x="35" y="349.8872">alt</text><text fill="#000000" font-family="sans-serif" font-size="11" font-weight="bold" lengthAdjust="spacing" textLength="325.0371" x="99.4429" y="349.0308">[submission contains needs-revision/rejected items]</text><g class="message" data-participant-1="APP_007" data-participant-2="APP_001"><polygon fill="#181818" points="1277.6362,371.0859,1287.6362,375.0859,1277.6362,379.0859,1281.6362,375.0859" style="stroke:#181818;stroke-width:1;"/><line style="stroke:#181818;stroke-width:1;" x1="316.7524" x2="1283.6362" y1="375.0859" y2="375.0859"/><text fill="#000000" font-family="sans-serif" font-size="13" lengthAdjust="spacing" textLength="256.5342" x="323.7524" y="370.02">record_event(review.correction-routed)</text></g><g class="message" data-participant-1="APP_007" data-participant-2="APP_016"><polygon fill="#181818" points="133.21,400.2188,123.21,404.2188,133.21,408.2188,129.21,404.2188" style="stroke:#181818;stroke-width:1;"/><line style="stroke:#181818;stroke-width:1;" x1="127.21" x2="315.7524" y1="404.2188" y2="404.2188"/><text fill="#000000" font-family="sans-serif" font-size="13" lengthAdjust="spacing" textLength="170.5425" x="139.21" y="399.1528">request correction routing</text></g><g class="message" data-participant-1="APP_016" data-participant-2="APP_008"><polygon fill="#181818" points="1052.9297,429.3516,1062.9297,433.3516,1052.9297,437.3516,1056.9297,433.3516" style="stroke:#181818;stroke-width:1;"/><line style="stroke:#181818;stroke-width:1;" x1="122.21" x2="1058.9297" y1="433.3516" y2="433.3516"/><text fill="#000000" font-family="sans-serif" font-size="13" lengthAdjust="spacing" textLength="175.4556" x="129.21" y="428.2856">route correction handoff(s)</text></g><g class="message" data-participant-1="APP_008" data-participant-2="APP_001"><polygon fill="#181818" points="1277.6362,458.4844,1287.6362,462.4844,1277.6362,466.4844,1281.6362,462.4844" style="stroke:#181818;stroke-width:1;"/><line style="stroke:#181818;stroke-width:1;" x1="1064.9297" x2="1283.6362" y1="462.4844" y2="462.4844"/><text fill="#000000" font-family="sans-serif" font-size="13" lengthAdjust="spacing" textLength="200.7065" x="1071.9297" y="457.4185">record_event(artifact.updated)</text></g><g class="message" data-participant-1="APP_007" data-participant-2="APP_001"><polygon fill="#181818" points="1277.6362,487.6172,1287.6362,491.6172,1277.6362,495.6172,1281.6362,491.6172" style="stroke:#181818;stroke-width:1;"/><line style="stroke:#181818;stroke-width:1;" x1="316.7524" x2="1283.6362" y1="491.6172" y2="491.6172"/><text fill="#000000" font-family="sans-serif" font-size="13" lengthAdjust="spacing" textLength="195.9648" x="323.7524" y="486.5513">record_event(review.pending)</text></g><line style="stroke:#000000;stroke-width:1;stroke-dasharray:2.0,2.0;" x1="20" x2="1341.3447" y1="500.6172" y2="500.6172"/><text fill="#000000" font-family="sans-serif" font-size="11" font-weight="bold" lengthAdjust="spacing" textLength="125.834" x="25" y="510.8276">[all items approved]</text><g class="message" data-participant-1="APP_007" data-participant-2="APP_001"><polygon fill="#181818" points="1277.6362,531.5547,1287.6362,535.5547,1277.6362,539.5547,1281.6362,535.5547" style="stroke:#181818;stroke-width:1;"/><line style="stroke:#181818;stroke-width:1;" x1="316.7524" x2="1283.6362" y1="535.5547" y2="535.5547"/><text fill="#000000" font-family="sans-serif" font-size="13" lengthAdjust="spacing" textLength="211.7197" x="323.7524" y="530.4888">record_event(decision.recorded)</text></g><g class="message" data-participant-1="APP_016" data-participant-2="APP_001"><polygon fill="#181818" points="1277.6362,560.6875,1287.6362,564.6875,1277.6362,568.6875,1281.6362,564.6875" style="stroke:#181818;stroke-width:1;"/><line style="stroke:#181818;stroke-width:1;" x1="122.21" x2="1283.6362" y1="564.6875" y2="564.6875"/><text fill="#000000" font-family="sans-serif" font-size="13" lengthAdjust="spacing" textLength="226.8652" x="129.21" y="559.6216">record_event(review.sprint-closed)</text></g><g class="message" data-participant-1="APP_016" data-participant-2="APP_001"><polygon fill="#181818" points="1277.6362,589.8203,1287.6362,593.8203,1277.6362,597.8203,1281.6362,593.8203" style="stroke:#181818;stroke-width:1;"/><line style="stroke:#181818;stroke-width:1;" x1="122.21" x2="1283.6362" y1="593.8203" y2="593.8203"/><text fill="#000000" font-family="sans-serif" font-size="13" lengthAdjust="spacing" textLength="170.644" x="129.21" y="588.7544">record_event(sprint.close)</text></g><g class="message" data-participant-1="APP_016" data-participant-2="APP_001"><polygon fill="#181818" points="1277.6362,618.9531,1287.6362,622.9531,1277.6362,626.9531,1281.6362,622.9531" style="stroke:#181818;stroke-width:1;"/><line style="stroke:#181818;stroke-width:1;" x1="122.21" x2="1283.6362" y1="622.9531" y2="622.9531"/><text fill="#000000" font-family="sans-serif" font-size="13" lengthAdjust="spacing" textLength="204.3818" x="129.21" y="617.8872">create_snapshot("sprint.close")</text></g><path d="M127,649.9531 L127,689.9531 L420,689.9531 L420,659.9531 L410,649.9531 L127,649.9531" fill="#FEFFDD" style="stroke:#181818;stroke-width:0.5;"/><path d="M410,649.9531 L410,659.9531 L420,659.9531 L410,649.9531" fill="#FEFFDD" style="stroke:#181818;stroke-width:0.5;"/><text fill="#000000" font-family="sans-serif" font-size="13" lengthAdjust="spacing" textLength="259.3335" x="133" y="667.02">Mapped to BIA-001 interaction loop and</text><text fill="#000000" font-family="sans-serif" font-size="13" lengthAdjust="spacing" textLength="272.5239" x="133" y="682.1528">review_processing_node closure contract.</text><!--SRC=[ZPHDR-8m48Rl-HKZJlG0ct20g8ULs0zLbLejAjhRIiZOG-ALiRss0-BVxpWa96b1vH0fikVnl3Fpsa46XR2sJke0RtYGU8JlnZdaGHeDByPO62-jLPApUkMjqa7kyI59B7D1ScaPaQCNfeidnsm9lnmlqGV7Wd5_z7ArcgJPV0JC0_rlw7y8hbvXMQ0EJMYww4BJnJ3q1_FbrZ0dO8tkWEtfixH3PkaG-UtHFMjRXISMyCXEBPBraEmQ4j2nkWNNoibxvUH3UcsHIwQa3yEoUaYQ9u85jcKUOVJpG45hEXlRo9wqD4kIfXCm-TgkFG9DnpYnmSYENJsqgKKjf2veBYhEB4v90LCApliW0-uzC6kTEQ18eEtNuE1_5ReJD4UrfEV6uXLWHe10XGMrzX9RRVVI-sWKoqxAi2vJzca9DHm2YeSMol8hyjv7NmjUFCBEk6FqIgEiaHENIJMNKICLcH3DLEWBvqO79hK7ZIZy9F9n_Ol3ltGhK9nRIHp0lSFXbnirSQPgAlo8P_E8KvNadWw1Y4If5oIRTndpnteV-q39j32xtTZtq-ItLKO3xyZkqygICs-f-zHv0AZ8qz5q7znsnt7jLARdrO6CViMtt5E_OHEkZByRFJFJchcDS8VKbOtNpFhIXF6eZutgkhL8ufTe4- -2BCe0PdTvy5wf4UIROE3Ryp9USP3T0mFrVQM99UT2DjGpZcH5NMoq4JHOIbCvh7qPcMbC1J7JVm00]--></g></svg>