<svg xmlns="http://www.w3.org/2000/svg" xmlns:xlink="http://www.w3.org/1999/xlink" contentStyleType="text/css" data-diagram-type="SEQUENCE" height="547px" preserveAspectRatio="none" style="width:1126px;height:547px;background:#FFFFFF;" version="1.1" viewBox="0 0 1126 547" width="1126px" zoomAndPan="magnify"><title>CQ Routing and Resume (Application Runtime)</title><defs/><g><text fill="#000000" font-family="sans-serif" font-size="14" font-weight="bold" lengthAdjust="spacing" textLength="368.8672" x="380.3164" y="27.9951">CQ Routing and Resume (Application Runtime)</text><g><title>Specialist Agent</title><rect fill="#000000" fill-opacity="0.00000" height="332.4609" width="8" x="64.5024" y="120.8906"/><line style="stroke:#181818;stroke-width:0.5;stroke-dasharray:5.0,5.0;" x1="68" x2="68" y1="120.8906" y2="453.3516"/></g><g><title>PM Agent</title><rect fill="#000000" fill-opacity="0.00000" height="332.4609" width="8" x="178.2104" y="120.8906"/><line style="stroke:#181818;stroke-width:0.5;stroke-dasharray:5.0,5.0;" x1="182.0049" x2="182.0049" y1="120.8906" y2="453.3516"/></g><g><title>Dashboard Server</title><rect fill="#000000" fill-opacity="0.00000" height="332.4609" width="8" x="298.6963" y="120.8906"/><line style="stroke:#181818;stroke-width:0.5;stroke-dasharray:5.0,5.0;" x1="302.416" x2="302.416" y1="120.8906" y2="453.3516"/></g><g><title>UserInputGateway</title><rect fill="#000000" fill-opacity="0.00000" height="332.4609" width="8" x="450.9795" y="120.8906"/><line style="stroke:#181818;stroke-width:0.5;stroke-dasharray:5.0,5.0;" x1="454.9766" x2="454.9766" y1="120.8906" y2="453.3516"/></g><g><title>UserInteractionOrchestrator</title><rect fill="#000000" fill-opacity="0.00000" height="332.4609" width="8" x="638.3584" y="120.8906"/><line style="stroke:#181818;stroke-width:0.5;stroke-dasharray:5.0,5.0;" x1="641.9824" x2="641.9824" y1="120.8906" y2="453.3516"/></g><g><title>LangGraph Orchestrator</title><rect fill="#000000" fill-opacity="0.00000" height="332.4609" width="8" x="845.9443" y="120.8906"/><line style="stroke:#181818;stroke-width:0.5;stroke-dasharray:5.0,5.0;" x1="849.7344" x2="849.7344" y1="120.8906" y2="453.3516"/></g><g><title>EventStore</title><rect fill="#000000" fill-opacity="0.00000" height="332.4609" width="8" x="1079.7915" y="120.8906"/><line style="stroke:#181818;stroke-width:0.5;stroke-dasharray:5.0,5.0;" x1="1083.083" x2="1083.083" y1="120.8906" y2="453.3516"/></g><g class="participant participant-head" data-participant="APP_008"><rect fill="#E2E2F0" height="46.5938" rx="2.5" ry="2.5" style="stroke:#181818;stroke-width:0.5;" width="127.0049" x="5" y="73.2969"/><text fill="#000000" font-family="sans-serif" font-size="14" lengthAdjust="spacing" textLength="113.0049" x="12" y="93.292">Specialist Agent</text><text fill="#000000" font-family="sans-serif" font-size="14" lengthAdjust="spacing" textLength="58.2354" x="39.3848" y="109.5889">APP-008</text></g><g class="participant participant-tail" data-participant="APP_008"><rect fill="#E2E2F0" height="46.5938" rx="2.5" ry="2.5" style="stroke:#181818;stroke-width:0.5;" width="127.0049" x="5" y="452.3516"/><text fill="#000000" font-family="sans-serif" font-size="14" lengthAdjust="spacing" textLength="113.0049" x="12" y="472.3467">Specialist Agent</text><text fill="#000000" font-family="sans-serif" font-size="14" lengthAdjust="spacing" textLength="58.2354" x="39.3848" y="488.6436">APP-008</text></g><g class="participant participant-head" data-participant="APP_007"><rect fill="#E2E2F0" height="46.5938" rx="2.5" ry="2.5" style="stroke:#181818;stroke-width:0.5;" width="80.4111" x="142.0049" y="73.2969"/><text fill="#000000" font-family="sans-serif" font-size="14" lengthAdjust="spacing" textLength="66.4111" x="149.0049" y="93.292">PM Agent</text><text fill="#000000" font-family="sans-serif" font-size="14" lengthAdjust="spacing" textLength="58.2354" x="153.0928" y="109.5889">APP-007</text></g><g class="participant participant-tail" data-participant="APP_007"><rect fill="#E2E2F0" height="46.5938" rx="2.5" ry="2.5" style="stroke:#181818;stroke-width:0.5;" width="80.4111" x="142.0049" y="452.3516"/><text fill="#000000" font-family="sans-serif" font-size="14" lengthAdjust="spacing" textLength="66.4111" x="149.0049" y="472.3467">PM Agent</text><text fill="#000000" font-family="sans-serif" font-size="14" lengthAdjust="spacing" textLength="58.2354" x="153.0928" y="488.6436">APP-007</text></g><g class="participant participant-head" data-participant="APP_020"><rect fill="#E2E2F0" height="46.5938" rx="2.5" ry="2.5" style="stroke:#181818;stroke-width:0.5;" width="140.5605" x="232.416" y="73.2969"/><text fill="#000000" font-family="sans-serif" font-size="14" lengthAdjust="spacing" textLength="126.5605" x="239.416" y="93.292">Dashboard Server</text><text fill="#000000" font-family="sans-serif" font-size="14" lengthAdjust="spacing" textLength="58.2354" x="273.5786" y="109.5889">APP-020</text></g><g class="participant participant-tail" data-participant="APP_020"><rect fill="#E2E2F0" height="46.5938" rx="2.5" ry="2.5" style="stroke:#181818;stroke-width:0.5;" width="140.5605" x="232.416" y="452.3516"/><text fill="#000000" font-family="sans-serif" font-size="14" lengthAdjust="spacing" textLength="126.5605" x="239.416" y="472.3467">Dashboard Server</text><text fill="#000000" font-family="sans-serif" font-size="14" lengthAdjust="spacing" textLength="58.2354" x="273.5786" y="488.6436">APP-020</text></g><g class="participant participant-head" data-participant="APP_021"><rect fill="#E2E2F0" height="46.5938" rx="2.5" ry="2.5" style="stroke:#181818;stroke-width:0.5;" width="144.0059" x="382.9766" y="73.2969"/><text fill="#000000" font-family="sans-serif" font-size="14" lengthAdjust="spacing" textLength="130.0059" x="389.9766" y="93.292">UserInputGateway</text><text fill="#000000" font-family="sans-serif" font-size="14" lengthAdjust="spacing" textLength="58.2354" x="425.8618" y="109.5889">APP-021</text></g><g class="participant participant-tail" data-participant="APP_021"><rect fill="#E2E2F0" height="46.5938" rx="2.5" ry="2.5" style="stroke:#181818;stroke-width:0.5;" width="144.0059" x="382.9766" y="452.3516"/><text fill="#000000" font-family="sans-serif" font-size="14" lengthAdjust="spacing" textLength="130.0059" x="389.9766" y="472.3467">UserInputGateway</text><text fill="#000000" font-family="sans-serif" font-size="14" lengthAdjust="spacing" textLength="58.2354" x="425.8618" y="488.6436">APP-021</text></g><g class="participant participant-head" data-participant="APP_018"><rect fill="#E2E2F0" height="46.5938" rx="2.5" ry="2.5" style="stroke:#181818;stroke-width:0.5;" width="210.752" x="536.9824" y="73.2969"/><text fill="#000000" font-family="sans-serif" font-size="14" lengthAdjust="spacing" textLength="196.752" x="543.9824" y="93.292">UserInteractionOrchestrator</text><text fill="#000000" font-family="sans-serif" font-size="14" lengthAdjust="spacing" textLength="58.2354" x="613.2407" y="109.5889">APP-018</text></g><g class="participant participant-tail" data-participant="APP_018"><rect fill="#E2E2F0" height="46.5938" rx="2.5" ry="2.5" style="stroke:#181818;stroke-width:0.5;" width="210.752" x="536.9824" y="452.3516"/><text fill="#000000" font-family="sans-serif" font-size="14" lengthAdjust="spacing" textLength="196.752" x="543.9824" y="472.3467">UserInteractionOrchestrator</text><text fill="#000000" font-family="sans-serif" font-size="14" lengthAdjust="spacing" textLength="58.2354" x="613.2407" y="488.6436">APP-018</text></g><g class="participant participant-head" data-participant="APP_016"><rect fill="#E2E2F0" height="46.5938" rx="2.5" ry="2.5" style="stroke:#181818;stroke-width:0.5;" width="184.4199" x="757.7344" y="73.2969"/><text fill="#000000" font-family="sans-serif" font-size="14" lengthAdjust="spacing" textLength="170.4199" x="764.7344" y="93.292">LangGraph Orchestrator</text><text fill="#000000" font-family="sans-serif" font-size="14" lengthAdjust="spacing" textLength="58.2354" x="820.8267" y="109.5889">APP-016</text></g><g class="participant participant-tail" data-participant="APP_016"><rect fill="#E2E2F0" height="46.5938" rx="2.5" ry="2.5" style="stroke:#181818;stroke-width:0.5;" width="184.4199" x="757.7344" y="452.3516"/><text fill="#000000" font-family="sans-serif" font-size="14" lengthAdjust="spacing" textLength="170.4199" x="764.7344" y="472.3467">LangGraph Orchestrator</text><text fill="#000000" font-family="sans-serif" font-size="14" lengthAdjust="spacing" textLength="58.2354" x="820.8267" y="488.6436">APP-016</text></g><g class="participant participant-head" data-participant="APP_001"><text fill="#000000" font-family="sans-serif" font-size="14" lengthAdjust="spacing" textLength="77.417" x="1042.083" y="101.292">EventStore</text><text fill="#000000" font-family="sans-serif" font-size="14" lengthAdjust="spacing" textLength="58.2354" x="1051.6738" y="117.5889">APP-001</text><path d="M1065.7915,52.2969 C1065.7915,42.2969 1083.7915,42.2969 1083.7915,42.2969 C1083.7915,42.2969 1101.7915,42.2969 1101.7915,52.2969 L1101.7915,78.2969 C1101.7915,88.2969 1083.7915,88.2969 1083.7915,88.2969 C1083.7915,88.2969 1065.7915,88.2969 1065.7915,78.2969 L1065.7915,52.2969" fill="#E2E2F0" style="stroke:#181818;stroke-width:1.5;"/><path d="M1065.7915,52.2969 C1065.7915,62.2969 1083.7915,62.2969 1083.7915,62.2969 C1083.7915,62.2969 1101.7915,62.2969 1101.7915,52.2969" fill="none" style="stroke:#181818;stroke-width:1.5;"/></g><g class="participant participant-tail" data-participant="APP_001"><text fill="#000000" font-family="sans-serif" font-size="14" lengthAdjust="spacing" textLength="77.417" x="1042.083" y="465.3467">EventStore</text><text fill="#000000" font-family="sans-serif" font-size="14" lengthAdjust="spacing" textLength="58.2354" x="1051.6738" y="481.6436">APP-001</text><path d="M1065.7915,494.9453 C1065.7915,484.9453 1083.7915,484.9453 1083.7915,484.9453 C1083.7915,484.9453 1101.7915,484.9453 1101.7915,494.9453 L1101.7915,520.9453 C1101.7915,530.9453 1083.7915,530.9453 1083.7915,530.9453 C1083.7915,530.9453 1065.7915,530.9453 1065.7915,520.9453 L1065.7915,494.9453" fill="#E2E2F0" style="stroke:#181818;stroke-width:1.5;"/><path d="M1065.7915,494.9453 C1065.7915,504.9453 1083.7915,504.9453 1083.7915,504.9453 C1083.7915,504.9453 1101.7915,504.9453 1101.7915,494.9453" fill="none" style="stroke:#181818;stroke-width:1.5;"/></g><g class="message" data-participant-1="APP_008" data-participant-2="APP_001"><polygon fill="#181818" points="1071.7915,148.0234,1081.7915,152.0234,1071.7915,156.0234,1075.7915,152.0234" style="stroke:#181818;stroke-width:1;"/><line style="stroke:#181818;stroke-width:1;" x1="68.5024" x2="1077.7915" y1="152.0234" y2="152.0234"/><text fill="#000000" font-family="sans-serif" font-size="13" lengthAdjust="spacing" textLength="155.1875" x="75.5024" y="146.9575">record_event(cq.raised)</text></g><g class="message" data-participant-1="APP_007" data-participant-2="APP_001"><polygon fill="#181818" points="1071.7915,177.1563,1081.7915,181.1563,1071.7915,185.1563,1075.7915,181.1563" style="stroke:#181818;stroke-width:1;"/><line style="stroke:#181818;stroke-width:1;" x1="182.2104" x2="1077.7915" y1="181.1563" y2="181.1563"/><text fill="#000000" font-family="sans-serif" font-size="13" lengthAdjust="spacing" textLength="168.1938" x="189.2104" y="176.0903">record_event(cq.batched)</text></g><g class="message" data-participant-1="APP_016" data-participant-2="APP_001"><polygon fill="#181818" points="1071.7915,206.2891,1081.7915,210.2891,1071.7915,214.2891,1075.7915,210.2891" style="stroke:#181818;stroke-width:1;"/><line style="stroke:#181818;stroke-width:1;" x1="849.9443" x2="1077.7915" y1="210.2891" y2="210.2891"/><text fill="#000000" font-family="sans-serif" font-size="13" lengthAdjust="spacing" textLength="209.8472" x="856.9443" y="205.2231">record_event(phase.suspended)</text></g><g class="message" data-participant-1="APP_020" data-participant-2="APP_001"><polygon fill="#181818" points="1071.7915,235.4219,1081.7915,239.4219,1071.7915,243.4219,1075.7915,239.4219" style="stroke:#181818;stroke-width:1;"/><line style="stroke:#181818;stroke-width:1;" x1="302.6963" x2="1077.7915" y1="239.4219" y2="239.4219"/><text fill="#000000" font-family="sans-serif" font-size="13" lengthAdjust="spacing" textLength="104.3174" x="309.6963" y="234.356">query open CQs</text></g><g class="message" data-participant-1="APP_021" data-participant-2="APP_001"><polygon fill="#181818" points="1071.7915,264.5547,1081.7915,268.5547,1071.7915,272.5547,1075.7915,268.5547" style="stroke:#181818;stroke-width:1;"/><line style="stroke:#181818;stroke-width:1;" x1="454.9795" x2="1077.7915" y1="268.5547" y2="268.5547"/><text fill="#000000" font-family="sans-serif" font-size="13" lengthAdjust="spacing" textLength="269.0771" x="461.9795" y="263.4888">record_event(cq.answered, upload_refs?)</text></g><g class="message" data-participant-1="APP_018" data-participant-2="APP_001"><polygon fill="#181818" points="1071.7915,293.6875,1081.7915,297.6875,1071.7915,301.6875,1075.7915,297.6875" style="stroke:#181818;stroke-width:1;"/><line style="stroke:#181818;stroke-width:1;" x1="642.3584" x2="1077.7915" y1="297.6875" y2="297.6875"/><text fill="#000000" font-family="sans-serif" font-size="13" lengthAdjust="spacing" textLength="124.395" x="649.3584" y="292.6216">query cq.answered</text></g><g class="message" data-participant-1="APP_018" data-participant-2="APP_001"><polygon fill="#181818" points="1071.7915,322.8203,1081.7915,326.8203,1071.7915,330.8203,1075.7915,326.8203" style="stroke:#181818;stroke-width:1;"/><line style="stroke:#181818;stroke-width:1;" x1="642.3584" x2="1077.7915" y1="326.8203" y2="326.8203"/><text fill="#000000" font-family="sans-serif" font-size="13" lengthAdjust="spacing" textLength="158.1265" x="649.3584" y="321.7544">record_event(cq.routed)</text></g><g class="message" data-participant-1="APP_016" data-participant-2="APP_001"><polygon fill="#181818" points="1071.7915,351.9531,1081.7915,355.9531,1071.7915,359.9531,1075.7915,355.9531" style="stroke:#181818;stroke-width:1;"/><line style="stroke:#181818;stroke-width:1;" x1="849.9443" x2="1077.7915" y1="355.9531" y2="355.9531"/><text fill="#000000" font-family="sans-serif" font-size="13" lengthAdjust="spacing" textLength="196.3394" x="856.9443" y="350.8872">record_event(phase.resumed)</text></g><g class="message" data-participant-1="APP_016" data-participant-2="APP_008"><polygon fill="#181818" points="79.5024,381.0859,69.5024,385.0859,79.5024,389.0859,75.5024,385.0859" style="stroke:#181818;stroke-width:1;"/><line style="stroke:#181818;stroke-width:1;" x1="73.5024" x2="848.9443" y1="385.0859" y2="385.0859"/><text fill="#000000" font-family="sans-serif" font-size="13" lengthAdjust="spacing" textLength="276.0596" x="85.5024" y="380.02">resume specialist with CQ answer payload</text></g><path d="M647,398.0859 L647,438.0859 L918,438.0859 L918,408.0859 L908,398.0859 L647,398.0859" fill="#FEFFDD" style="stroke:#181818;stroke-width:0.5;"/><path d="M908,398.0859 L908,408.0859 L918,408.0859 L908,398.0859" fill="#FEFFDD" style="stroke:#181818;stroke-width:0.5;"/><text fill="#000000" font-family="sans-serif" font-size="13" lengthAdjust="spacing" textLength="250.4658" x="653" y="415.1528">Mapped to BPR-003 and cq_user_node</text><text fill="#000000" font-family="sans-serif" font-size="13" lengthAdjust="spacing" textLength="211.3389" x="653" y="430.2856">suspend/resume event contract.</text><!--SRC=[bPDFJ-Cm4CNl_XIZda22RW9IMt40TVy8hRI8Rgkz8KLJUsWi5TiTJwZwxN6w2IIx0OcRbRoV_URvMQni2RxzXgMlnBeDe3Emf5Wz4PpCGzXQZMAzWsNbn3xHgL81MQos0Pt0Q1L8MzpQA33Va9C7DryiphDiDWACaDP5MlUHnLrVEkr8fttfTupbsYCRM14_4pV8HVQ6N6Hzv4ya_kb29RSejCT3Y-GT91z2X1XrFUezwvAYC8fl3ymxu-J_ZFCBtUQMCPGm14uwu4GP55nZ91ZzU4u9h9AGsXWw1hDSgIOwEBzklrq1a_Pi2ghP4xqRCzf8vhJHJZ_Khb6IkrQSJzuNXp8v7CSg1dAc9bGJT0_PLSG7y4cJsXCRIVwX1NHnJqpc3AgmzMWAfiTuqpgQ3MpVWGPL_mMIIlo96VdOyo7zhDOV7q5yA_ZUIba_bR-M8E2Xda8fvuM0xQOKy8-l9Rd34CY0UFYwMARxlJm-BRqhgbItmdb3giduItFKqHfexwHkubYbNr3l_G80]--></g></svg>