<svg xmlns="http://www.w3.org/2000/svg" xmlns:xlink="http://www.w3.org/1999/xlink" contentStyleType="text/css" data-diagram-type="SEQUENCE" height="697px" preserveAspectRatio="none" style="width:1801px;height:697px;background:#FFFFFF;" version="1.1" viewBox="0 0 1801 697" width="1801px" zoomAndPan="magnify"><title>Algedonic Escalation Fast-Path (Application Runtime)</title><defs/><g><text fill="#000000" font-family="sans-serif" font-size="14" font-weight="bold" lengthAdjust="spacing" textLength="422.9121" x="690.074" y="27.9951">Algedonic Escalation Fast-Path (Application Runtime)</text><rect fill="none" height="221.5391" style="stroke:#000000;stroke-width:1.5;" width="1784.0601" x="10" y="254.4219"/><g><title>Specialist Agent</title><rect fill="#000000" fill-opacity="0.00000" height="481.7344" width="8" x="79.5024" y="120.8906"/><line style="stroke:#181818;stroke-width:0.5;stroke-dasharray:5.0,5.0;" x1="83" x2="83" y1="120.8906" y2="602.625"/></g><g><title>LangGraph Orchestrator</title><rect fill="#000000" fill-opacity="0.00000" height="481.7344" width="8" x="574.8159" y="120.8906"/><line style="stroke:#181818;stroke-width:0.5;stroke-dasharray:5.0,5.0;" x1="578.606" x2="578.606" y1="120.8906" y2="602.625"/></g><g><title>PM Agent</title><rect fill="#000000" fill-opacity="0.00000" height="481.7344" width="8" x="972.1787" y="120.8906"/><line style="stroke:#181818;stroke-width:0.5;stroke-dasharray:5.0,5.0;" x1="975.9731" x2="975.9731" y1="120.8906" y2="602.625"/></g><g><title>CSCO Agent</title><rect fill="#000000" fill-opacity="0.00000" height="481.7344" width="8" x="1072.0576" y="120.8906"/><line style="stroke:#181818;stroke-width:0.5;stroke-dasharray:5.0,5.0;" x1="1075.3843" x2="1075.3843" y1="120.8906" y2="602.625"/></g><g><title>EventStore</title><rect fill="#000000" fill-opacity="0.00000" height="481.7344" width="8" x="1738.3516" y="120.8906"/><line style="stroke:#181818;stroke-width:0.5;stroke-dasharray:5.0,5.0;" x1="1741.6431" x2="1741.6431" y1="120.8906" y2="602.625"/></g><g class="participant participant-head" data-participant="APP_008"><rect fill="#E2E2F0" height="46.5938" rx="2.5" ry="2.5" style="stroke:#181818;stroke-width:0.5;" width="127.0049" x="20" y="73.2969"/><text fill="#000000" font-family="sans-serif" font-size="14" lengthAdjust="spacing" textLength="113.0049" x="27" y="93.292">Specialist Agent</text><text fill="#000000" font-family="sans-serif" font-size="14" lengthAdjust="spacing" textLength="58.2354" x="54.3848" y="109.5889">APP-008</text></g><g class="participant participant-tail" data-participant="APP_008"><rect fill="#E2E2F0" height="46.5938" rx="2.5" ry="2.5" style="stroke:#181818;stroke-width:0.5;" width="127.0049" x="20" y="601.625"/><text fill="#000000" font-family="sans-serif" font-size="14" lengthAdjust="spacing" textLength="113.0049" x="27" y="621.6201">Specialist Agent</text><text fill="#000000" font-family="sans-serif" font-size="14" lengthAdjust="spacing" textLength="58.2354" x="54.3848" y="637.917">APP-008</text></g><g class="participant participant-head" data-participant="APP_016"><rect fill="#E2E2F0" height="46.5938" rx="2.5" ry="2.5" style="stroke:#181818;stroke-width:0.5;" width="184.4199" x="486.606" y="73.2969"/><text fill="#000000" font-family="sans-serif" font-size="14" lengthAdjust="spacing" textLength="170.4199" x="493.606" y="93.292">LangGraph Orchestrator</text><text fill="#000000" font-family="sans-serif" font-size="14" lengthAdjust="spacing" textLength="58.2354" x="549.6982" y="109.5889">APP-016</text></g><g class="participant participant-tail" data-participant="APP_016"><rect fill="#E2E2F0" height="46.5938" rx="2.5" ry="2.5" style="stroke:#181818;stroke-width:0.5;" width="184.4199" x="486.606" y="601.625"/><text fill="#000000" font-family="sans-serif" font-size="14" lengthAdjust="spacing" textLength="170.4199" x="493.606" y="621.6201">LangGraph Orchestrator</text><text fill="#000000" font-family="sans-serif" font-size="14" lengthAdjust="spacing" textLength="58.2354" x="549.6982" y="637.917">APP-016</text></g><g class="participant participant-head" data-participant="APP_007"><rect fill="#E2E2F0" height="46.5938" rx="2.5" ry="2.5" style="stroke:#181818;stroke-width:0.5;" width="80.4111" x="935.9731" y="73.2969"/><text fill="#000000" font-family="sans-serif" font-size="14" lengthAdjust="spacing" textLength="66.4111" x="942.9731" y="93.292">PM Agent</text><text fill="#000000" font-family="sans-serif" font-size="14" lengthAdjust="spacing" textLength="58.2354" x="947.061" y="109.5889">APP-007</text></g><g class="participant participant-tail" data-participant="APP_007"><rect fill="#E2E2F0" height="46.5938" rx="2.5" ry="2.5" style="stroke:#181818;stroke-width:0.5;" width="80.4111" x="935.9731" y="601.625"/><text fill="#000000" font-family="sans-serif" font-size="14" lengthAdjust="spacing" textLength="66.4111" x="942.9731" y="621.6201">PM Agent</text><text fill="#000000" font-family="sans-serif" font-size="14" lengthAdjust="spacing" textLength="58.2354" x="947.061" y="637.917">APP-007</text></g><g class="participant participant-head" data-participant="APP_015"><rect fill="#E2E2F0" height="46.5938" rx="2.5" ry="2.5" style="stroke:#181818;stroke-width:0.5;" width="99.3467" x="1026.3843" y="73.2969"/><text fill="#000000" font-family="sans-serif" font-size="14" lengthAdjust="spacing" textLength="85.3467" x="1033.3843" y="93.292">CSCO Agent</text><text fill="#000000" font-family="sans-serif" font-size="14" lengthAdjust="spacing" textLength="58.2354" x="1046.9399" y="109.5889">APP-015</text></g><g class="participant participant-tail" data-participant="APP_015"><rect fill="#E2E2F0" height="46.5938" rx="2.5" ry="2.5" style="stroke:#181818;stroke-width:0.5;" width="99.3467" x="1026.3843" y="601.625"/><text fill="#000000" font-family="sans-serif" font-size="14" lengthAdjust="spacing" textLength="85.3467" x="1033.3843" y="621.6201">CSCO Agent</text><text fill="#000000" font-family="sans-serif" font-size="14" lengthAdjust="spacing" textLength="58.2354" x="1046.9399" y="637.917">APP-015</text></g><g class="participant participant-head" data-participant="APP_001"><text fill="#000000" font-family="sans-serif" font-size="14" lengthAdjust="spacing" textLength="77.417" x="1700.6431" y="101.292">EventStore</text><text fill="#000000" font-family="sans-serif" font-size="14" lengthAdjust="spacing" textLength="58.2354" x="1710.2339" y="117.5889">APP-001</text><path d="M1724.3516,52.2969 C1724.3516,42.2969 1742.3516,42.2969 1742.3516,42.2969 C1742.3516,42.2969 1760.3516,42.2969 1760.3516,52.2969 L1760.3516,78.2969 C1760.3516,88.2969 1742.3516,88.2969 1742.3516,88.2969 C1742.3516,88.2969 1724.3516,88.2969 1724.3516,78.2969 L1724.3516,52.2969" fill="#E2E2F0" style="stroke:#181818;stroke-width:1.5;"/><path d="M1724.3516,52.2969 C1724.3516,62.2969 1742.3516,62.2969 1742.3516,62.2969 C1742.3516,62.2969 1760.3516,62.2969 1760.3516,52.2969" fill="none" style="stroke:#181818;stroke-width:1.5;"/></g><g class="participant participant-tail" data-participant="APP_001"><text fill="#000000" font-family="sans-serif" font-size="14" lengthAdjust="spacing" textLength="77.417" x="1700.6431" y="614.6201">EventStore</text><text fill="#000000" font-family="sans-serif" font-size="14" lengthAdjust="spacing" textLength="58.2354" x="1710.2339" y="630.917">APP-001</text><path d="M1724.3516,644.2188 C1724.3516,634.2188 1742.3516,634.2188 1742.3516,634.2188 C1742.3516,634.2188 1760.3516,634.2188 1760.3516,644.2188 L1760.3516,670.2188 C1760.3516,680.2188 1742.3516,680.2188 1742.3516,680.2188 C1742.3516,680.2188 1724.3516,680.2188 1724.3516,670.2188 L1724.3516,644.2188" fill="#E2E2F0" style="stroke:#181818;stroke-width:1.5;"/><path d="M1724.3516,644.2188 C1724.3516,654.2188 1742.3516,654.2188 1742.3516,654.2188 C1742.3516,654.2188 1760.3516,654.2188 1760.3516,644.2188" fill="none" style="stroke:#181818;stroke-width:1.5;"/></g><g class="message" data-participant-1="APP_008" data-participant-2="APP_001"><polygon fill="#181818" points="1730.3516,148.0234,1740.3516,152.0234,1730.3516,156.0234,1734.3516,152.0234" style="stroke:#181818;stroke-width:1;"/><line style="stroke:#181818;stroke-width:1;" x1="83.5024" x2="1736.3516" y1="152.0234" y2="152.0234"/><text fill="#000000" font-family="sans-serif" font-size="13" lengthAdjust="spacing" textLength="544.4385" x="90.5024" y="146.9575">append_event(event_type="algedonic.raised", severity, correlation_id, context_ref)</text></g><g class="message" data-participant-1="APP_016" data-participant-2="APP_007"><polygon fill="#181818" points="964.1787,177.1563,974.1787,181.1563,964.1787,185.1563,968.1787,181.1563" style="stroke:#181818;stroke-width:1;"/><line style="stroke:#181818;stroke-width:1;" x1="578.8159" x2="970.1787" y1="181.1563" y2="181.1563"/><text fill="#000000" font-family="sans-serif" font-size="13" lengthAdjust="spacing" textLength="373.3628" x="585.8159" y="176.0903">prepare_emergency_coordination_context(correlation_id)</text></g><g class="message" data-participant-1="APP_016" data-participant-2="APP_015"><polygon fill="#181818" points="1064.0576,206.2891,1074.0576,210.2891,1064.0576,214.2891,1068.0576,210.2891" style="stroke:#181818;stroke-width:1;"/><line style="stroke:#181818;stroke-width:1;" x1="578.8159" x2="1070.0576" y1="210.2891" y2="210.2891"/><text fill="#000000" font-family="sans-serif" font-size="13" lengthAdjust="spacing" textLength="462.541" x="585.8159" y="205.2231">perform_safety_escalation_review(correlation_id, severity, context_ref)</text></g><g class="message" data-participant-1="APP_015" data-participant-2="APP_001"><polygon fill="#181818" points="1730.3516,235.4219,1740.3516,239.4219,1730.3516,243.4219,1734.3516,239.4219" style="stroke:#181818;stroke-width:1;"/><line style="stroke:#181818;stroke-width:1;" x1="1076.0576" x2="1736.3516" y1="239.4219" y2="239.4219"/><text fill="#000000" font-family="sans-serif" font-size="13" lengthAdjust="spacing" textLength="642.2939" x="1083.0576" y="234.356">append_event(event_type="decision.recorded", decision in {"contain","continue"}, correlation_id)</text></g><path d="M10,254.4219 L74.4429,254.4219 L74.4429,261.5547 L64.4429,271.5547 L10,271.5547 L10,254.4219" fill="#EEEEEE" style="stroke:#000000;stroke-width:1.5;"/><rect fill="none" height="221.5391" style="stroke:#000000;stroke-width:1.5;" width="1784.0601" x="10" y="254.4219"/><text fill="#000000" font-family="sans-serif" font-size="13" font-weight="bold" lengthAdjust="spacing" textLength="19.4429" x="25" y="267.4888">alt</text><text fill="#000000" font-family="sans-serif" font-size="11" font-weight="bold" lengthAdjust="spacing" textLength="226.5527" x="89.4429" y="266.6323">[severity S1 / containment required]</text><g class="message" data-participant-1="APP_016" data-participant-2="APP_001"><polygon fill="#181818" points="1730.3516,288.6875,1740.3516,292.6875,1730.3516,296.6875,1734.3516,292.6875" style="stroke:#181818;stroke-width:1;"/><line style="stroke:#181818;stroke-width:1;" x1="578.8159" x2="1736.3516" y1="292.6875" y2="292.6875"/><text fill="#000000" font-family="sans-serif" font-size="13" lengthAdjust="spacing" textLength="409.0811" x="585.8159" y="287.6216">append_event(event_type="phase.suspended", correlation_id)</text></g><g class="message" data-participant-1="APP_007" data-participant-2="APP_001"><polygon fill="#181818" points="1730.3516,317.8203,1740.3516,321.8203,1730.3516,325.8203,1734.3516,321.8203" style="stroke:#181818;stroke-width:1;"/><line style="stroke:#181818;stroke-width:1;" x1="976.1787" x2="1736.3516" y1="321.8203" y2="321.8203"/><text fill="#000000" font-family="sans-serif" font-size="13" lengthAdjust="spacing" textLength="395.1987" x="983.1787" y="316.7544">append_event(event_type="review.pending", correlation_id)</text></g><line style="stroke:#000000;stroke-width:1;stroke-dasharray:2.0,2.0;" x1="10" x2="1794.0601" y1="330.8203" y2="330.8203"/><text fill="#000000" font-family="sans-serif" font-size="11" font-weight="bold" lengthAdjust="spacing" textLength="236.6934" x="15" y="341.0308">[severity S2 / controlled continuation]</text><g class="message" data-participant-1="APP_016" data-participant-2="APP_008"><polygon fill="#181818" points="94.5024,361.7578,84.5024,365.7578,94.5024,369.7578,90.5024,365.7578" style="stroke:#181818;stroke-width:1;"/><line style="stroke:#181818;stroke-width:1;" x1="88.5024" x2="577.8159" y1="365.7578" y2="365.7578"/><text fill="#000000" font-family="sans-serif" font-size="13" lengthAdjust="spacing" textLength="471.3135" x="100.5024" y="360.6919">dispatch_containment_or_corrective_handoff(correlation_id, constraints)</text></g><g class="message" data-participant-1="APP_016" data-participant-2="APP_001"><polygon fill="#181818" points="1730.3516,390.8906,1740.3516,394.8906,1730.3516,398.8906,1734.3516,394.8906" style="stroke:#181818;stroke-width:1;"/><line style="stroke:#181818;stroke-width:1;" x1="578.8159" x2="1736.3516" y1="394.8906" y2="394.8906"/><text fill="#000000" font-family="sans-serif" font-size="13" lengthAdjust="spacing" textLength="661.3877" x="585.8159" y="389.8247">append_event(event_type="decision.recorded", decision="continue-with-constraints", correlation_id)</text></g><line style="stroke:#000000;stroke-width:1;stroke-dasharray:2.0,2.0;" x1="10" x2="1794.0601" y1="403.8906" y2="403.8906"/><text fill="#000000" font-family="sans-serif" font-size="11" font-weight="bold" lengthAdjust="spacing" textLength="226.8267" x="15" y="414.1011">[CSCO decision timeout/unavailable]</text><g class="message" data-participant-1="APP_016" data-participant-2="APP_001"><polygon fill="#181818" points="1730.3516,434.8281,1740.3516,438.8281,1730.3516,442.8281,1734.3516,438.8281" style="stroke:#181818;stroke-width:1;"/><line style="stroke:#181818;stroke-width:1;" x1="578.8159" x2="1736.3516" y1="438.8281" y2="438.8281"/><text fill="#000000" font-family="sans-serif" font-size="13" lengthAdjust="spacing" textLength="409.0811" x="585.8159" y="433.7622">append_event(event_type="phase.suspended", correlation_id)</text></g><g class="message" data-participant-1="APP_016" data-participant-2="APP_001"><polygon fill="#181818" points="1730.3516,463.9609,1740.3516,467.9609,1730.3516,471.9609,1734.3516,467.9609" style="stroke:#181818;stroke-width:1;"/><line style="stroke:#181818;stroke-width:1;" x1="578.8159" x2="1736.3516" y1="467.9609" y2="467.9609"/><text fill="#000000" font-family="sans-serif" font-size="13" lengthAdjust="spacing" textLength="642.9604" x="585.8159" y="462.895">append_event(event_type="algedonic.escalated", reason="csco-decision-timeout", correlation_id)</text></g><g class="message" data-participant-1="APP_016" data-participant-2="APP_001"><polygon fill="#181818" points="1730.3516,500.0938,1740.3516,504.0938,1730.3516,508.0938,1734.3516,504.0938" style="stroke:#181818;stroke-width:1;"/><line style="stroke:#181818;stroke-width:1;" x1="578.8159" x2="1736.3516" y1="504.0938" y2="504.0938"/><text fill="#000000" font-family="sans-serif" font-size="13" lengthAdjust="spacing" textLength="291.3511" x="585.8159" y="499.0278">create_snapshot(trigger="algedonic.raised")</text></g><path d="M1081,517.0938 L1081,587.0938 L1437,587.0938 L1437,527.0938 L1427,517.0938 L1081,517.0938" fill="#FEFFDD" style="stroke:#181818;stroke-width:0.5;"/><path d="M1427,517.0938 L1427,527.0938 L1437,527.0938 L1427,517.0938" fill="#FEFFDD" style="stroke:#181818;stroke-width:0.5;"/><text fill="#000000" font-family="sans-serif" font-size="13" lengthAdjust="spacing" textLength="295.9404" x="1087" y="534.1606">Mapped to BPR-005 Algedonic Escalation and</text><text fill="#000000" font-family="sans-serif" font-size="13" lengthAdjust="spacing" textLength="267.6108" x="1087" y="549.2935">BEV-005 Safety Signal Raised semantics.</text><text fill="#000000" font-family="sans-serif" font-size="13" lengthAdjust="spacing" textLength="335.0229" x="1087" y="564.4263">Fail-safe control: on missing CSCO decision in time,</text><text fill="#000000" font-family="sans-serif" font-size="13" lengthAdjust="spacing" textLength="308.1343" x="1087" y="579.5591">runtime defaults to containment/suspend path.</text><!--SRC=[jLNVQzj037xtNo7yb4ASreEq9T11Mjgzh3GqiAU1KS-oBN3kl3ivNHZxttTsxFogLxg7lOJBdVH9-lH95fQIO5xcb1hD2kwTmXA5ZOO7T18jK0eOpQkgPBMzVgwry8hEWg12AwouGYqGBYjIZ2KxWNbEMhxh-M8HNLnSXu0E_3dnvsENhwZpBnQh0fwiAiY9HJ6sSumlzuxnvR7Zul4unjL1ZAjZqxlbtTEHSJmzm9q6AGg-e2C8xzVUQEaJe1usFe2DWw2h0QBF_TqCiAf8fmarlgFsDv5DHJSXzenEBBAZD1o3y- -MPJC6PQobBSi9fyr_BVHJ4alPMT1Ll0zpDOFAag-A4bgHzRMeJQACiIdhBKRdFph6VGiLJpqKsSpOLU8m8zaajEktZxvcUXsT9dUOzfiqfnzZ8_NQS1vmOid3foqT_HsmXbzXWusimt5xObrJ-FkKA2yvB6MN42nZE8VESUM3WQKVDLjA0u0tBBwNNbLu1KnSxPhtDhdJmD3tucE0MoedpIlhV02FIY-vVI6VkaAiAKjAeQEWDH-gvNe6ARiAHHN9GVs9iKaRI0clAIbGfoRBHWDgQqQDjRYpVsNglKRUx5eNlR8KqK6Slp7GJkTE2CrQCRMSrnhNo2M-bFJVElbHmFqSTvFIWbf2rnRib8dw_ACk_w5YTHe4Gt6LHn9AdCRA5KP6OZdFoGxi3oz-ROJ06nG29jjjiCScznJ4mEtYsM-jwV0szs88Rk-_jGRBTlPXoRd64fxR05wDAxynMRb9yE3PZve5qOjo1XvXnSvvDPyqZRTz6mTs-rtmBndMfRWcemDnddTD0I_ROj8m0aqzVm00]--></g></svg>