<svg xmlns="http://www.w3.org/2000/svg" xmlns:xlink="http://www.w3.org/1999/xlink" contentStyleType="text/css" data-diagram-type="DESCRIPTION" height="652px" preserveAspectRatio="none" style="width:1980px;height:652px;background:#FAFAFA;" version="1.1" viewBox="0 0 1980 652" width="1980px" zoomAndPan="magnify"><title>Application Architecture - Runtime Interaction Boundaries</title><defs/><g><rect fill="#FAFAFA" height="652" style="stroke:none;stroke-width:1;" width="1980" x="0" y="0"/><text fill="#000000" font-family="sans-serif" font-size="14" font-weight="bold" lengthAdjust="spacing" textLength="460.4277" x="753.2227" y="22.9951">Application Architecture - Runtime Interaction Boundaries</text><!--cluster GRP_ORCH--><g class="cluster" data-entity="GRP_ORCH" data-source-line="48" data-uid="ent0002" id="cluster_GRP_ORCH"><rect fill="#E8F8FF" height="246" rx="2" ry="2" style="stroke:#0078A0;stroke-width:1;" width="421" x="74" y="231.2969"/><text fill="#000000" font-family="sans-serif" font-size="12" font-style="italic" lengthAdjust="spacing" textLength="137.2148" x="215.8926" y="244.4355">&#171;ApplicationGrouping&#187;</text><text fill="#000000" font-family="sans-serif" font-size="12" font-weight="bold" lengthAdjust="spacing" textLength="154.4414" x="207.2793" y="258.4043">Orchestration Runtime</text></g><!--cluster GRP_AGENTIC--><g class="cluster" data-entity="GRP_AGENTIC" data-source-line="54" data-uid="ent0006" id="cluster_GRP_AGENTIC"><rect fill="#E8F8FF" height="246" rx="2" ry="2" style="stroke:#0078A0;stroke-width:1;" width="604" x="519" y="231.2969"/><text fill="#000000" font-family="sans-serif" font-size="12" font-style="italic" lengthAdjust="spacing" textLength="137.2148" x="752.3926" y="244.4355">&#171;ApplicationGrouping&#187;</text><text fill="#000000" font-family="sans-serif" font-size="12" font-weight="bold" lengthAdjust="spacing" textLength="176.3906" x="732.8047" y="258.4043">Agent Invocation Runtime</text></g><!--cluster GRP_UI--><g class="cluster" data-entity="GRP_UI" data-source-line="61" data-uid="ent0011" id="cluster_GRP_UI"><rect fill="#E8F8FF" height="246" rx="2" ry="2" style="stroke:#0078A0;stroke-width:1;" width="206" x="1233" y="231.2969"/><text fill="#000000" font-family="sans-serif" font-size="12" font-style="italic" lengthAdjust="spacing" textLength="137.2148" x="1267.3926" y="244.4355">&#171;ApplicationGrouping&#187;</text><text fill="#000000" font-family="sans-serif" font-size="12" font-weight="bold" lengthAdjust="spacing" textLength="170.7656" x="1250.6172" y="258.4043">User Interaction Runtime</text></g><!--cluster GRP_STATE--><g class="cluster" data-entity="GRP_STATE" data-source-line="66" data-uid="ent0014" id="cluster_GRP_STATE"><rect fill="#E8F8FF" height="140" rx="2" ry="2" style="stroke:#0078A0;stroke-width:1;" width="206" x="719" y="44.2969"/><text fill="#000000" font-family="sans-serif" font-size="12" font-style="italic" lengthAdjust="spacing" textLength="137.2148" x="753.3926" y="57.4355">&#171;ApplicationGrouping&#187;</text><text fill="#000000" font-family="sans-serif" font-size="12" font-weight="bold" lengthAdjust="spacing" textLength="139.916" x="752.042" y="71.4043">Persistence Runtime</text></g><!--entity APP_016--><g class="entity" data-entity="APP_016" data-source-line="49" data-uid="ent0003" id="entity_APP_016"><rect fill="#CCF2FF" height="47.9375" rx="2" ry="2" style="stroke:#0078A0;stroke-width:0.5;" width="173.5293" x="276" y="307.2969"/><text fill="#000000" font-family="sans-serif" font-size="12" font-style="italic" lengthAdjust="spacing" textLength="151.5293" x="287" y="328.4355">&#171;ApplicationComponent&#187;</text><text fill="#000000" font-family="sans-serif" font-size="12" lengthAdjust="spacing" textLength="146.0742" x="289.7275" y="342.4043">LangGraph Orchestrator</text></g><!--entity APP_017--><g class="entity" data-entity="APP_017" data-source-line="50" data-uid="ent0004" id="entity_APP_017"><rect fill="#CCF2FF" height="47.9375" rx="2" ry="2" style="stroke:#0078A0;stroke-width:0.5;" width="173.5293" x="305" y="413.2969"/><text fill="#000000" font-family="sans-serif" font-size="12" font-style="italic" lengthAdjust="spacing" textLength="151.5293" x="316" y="434.4355">&#171;ApplicationComponent&#187;</text><text fill="#000000" font-family="sans-serif" font-size="12" lengthAdjust="spacing" textLength="122.3262" x="330.6016" y="448.4043">EngagementSession</text></g><!--entity APP_018--><g class="entity" data-entity="APP_018" data-source-line="51" data-uid="ent0005" id="entity_APP_018"><rect fill="#CCF2FF" height="47.9375" rx="2" ry="2" style="stroke:#0078A0;stroke-width:0.5;" width="188.6445" x="90.5" y="413.2969"/><text fill="#000000" font-family="sans-serif" font-size="12" font-style="italic" lengthAdjust="spacing" textLength="151.5293" x="109.0576" y="434.4355">&#171;ApplicationComponent&#187;</text><text fill="#000000" font-family="sans-serif" font-size="12" lengthAdjust="spacing" textLength="168.6445" x="100.5" y="448.4043">UserInteractionOrchestrator</text></g><!--entity APP_007--><g class="entity" data-entity="APP_007" data-source-line="55" data-uid="ent0007" id="entity_APP_007"><rect fill="#CCF2FF" height="47.9375" rx="2" ry="2" style="stroke:#0078A0;stroke-width:0.5;" width="173.5293" x="734" y="413.2969"/><text fill="#000000" font-family="sans-serif" font-size="12" font-style="italic" lengthAdjust="spacing" textLength="151.5293" x="745" y="434.4355">&#171;ApplicationComponent&#187;</text><text fill="#000000" font-family="sans-serif" font-size="12" lengthAdjust="spacing" textLength="56.9238" x="792.3027" y="448.4043">PM Agent</text></g><!--entity APP_008--><g class="entity" data-entity="APP_008" data-source-line="56" data-uid="ent0008" id="entity_APP_008"><rect fill="#CCF2FF" height="47.9375" rx="2" ry="2" style="stroke:#0078A0;stroke-width:0.5;" width="173.5293" x="734" y="307.2969"/><text fill="#000000" font-family="sans-serif" font-size="12" font-style="italic" lengthAdjust="spacing" textLength="151.5293" x="745" y="328.4355">&#171;ApplicationComponent&#187;</text><text fill="#000000" font-family="sans-serif" font-size="12" lengthAdjust="spacing" textLength="55.1602" x="793.1846" y="342.4043">SA Agent</text></g><!--entity APP_004--><g class="entity" data-entity="APP_004" data-source-line="57" data-uid="ent0009" id="entity_APP_004"><rect fill="#CCF2FF" height="47.9375" rx="2" ry="2" style="stroke:#0078A0;stroke-width:0.5;" width="173.5293" x="933" y="307.2969"/><text fill="#000000" font-family="sans-serif" font-size="12" font-style="italic" lengthAdjust="spacing" textLength="151.5293" x="944" y="328.4355">&#171;ApplicationComponent&#187;</text><text fill="#000000" font-family="sans-serif" font-size="12" lengthAdjust="spacing" textLength="65.8828" x="986.8232" y="342.4043">SkillLoader</text></g><!--entity APP_006--><g class="entity" data-entity="APP_006" data-source-line="58" data-uid="ent0010" id="entity_APP_006"><rect fill="#CCF2FF" height="47.9375" rx="2" ry="2" style="stroke:#0078A0;stroke-width:0.5;" width="173.5293" x="535" y="307.2969"/><text fill="#000000" font-family="sans-serif" font-size="12" font-style="italic" lengthAdjust="spacing" textLength="151.5293" x="546" y="328.4355">&#171;ApplicationComponent&#187;</text><text fill="#000000" font-family="sans-serif" font-size="12" lengthAdjust="spacing" textLength="85.1836" x="579.1729" y="342.4043">AgentRegistry</text></g><!--entity APP_020--><g class="entity" data-entity="APP_020" data-source-line="62" data-uid="ent0012" id="entity_APP_020"><rect fill="#CCF2FF" height="47.9375" rx="2" ry="2" style="stroke:#0078A0;stroke-width:0.5;" width="173.5293" x="1249" y="307.2969"/><text fill="#000000" font-family="sans-serif" font-size="12" font-style="italic" lengthAdjust="spacing" textLength="151.5293" x="1260" y="328.4355">&#171;ApplicationComponent&#187;</text><text fill="#000000" font-family="sans-serif" font-size="12" lengthAdjust="spacing" textLength="104.666" x="1283.4316" y="342.4043">DashboardServer</text></g><!--entity APP_021--><g class="entity" data-entity="APP_021" data-source-line="63" data-uid="ent0013" id="entity_APP_021"><rect fill="#CCF2FF" height="47.9375" rx="2" ry="2" style="stroke:#0078A0;stroke-width:0.5;" width="173.5293" x="1249" y="413.2969"/><text fill="#000000" font-family="sans-serif" font-size="12" font-style="italic" lengthAdjust="spacing" textLength="151.5293" x="1260" y="434.4355">&#171;ApplicationComponent&#187;</text><text fill="#000000" font-family="sans-serif" font-size="12" lengthAdjust="spacing" textLength="111.4336" x="1280.0479" y="448.4043">UserInputGateway</text></g><!--entity APP_001--><g class="entity" data-entity="APP_001" data-source-line="67" data-uid="ent0015" id="entity_APP_001"><rect fill="#CCF2FF" height="47.9375" rx="2" ry="2" style="stroke:#0078A0;stroke-width:0.5;" width="173.5293" x="735" y="120.2969"/><text fill="#000000" font-family="sans-serif" font-size="12" font-style="italic" lengthAdjust="spacing" textLength="151.5293" x="746" y="141.4355">&#171;ApplicationComponent&#187;</text><text fill="#000000" font-family="sans-serif" font-size="12" lengthAdjust="spacing" textLength="66.3574" x="788.5859" y="155.4043">EventStore</text></g><!--entity APP_015--><g class="entity" data-entity="APP_015" data-source-line="72" data-uid="ent0018" id="entity_APP_015"><ellipse cx="31.793" cy="408.7969" fill="#F1F1F1" rx="8" ry="8" style="stroke:#181818;stroke-width:0.5;"/><path d="M31.793,416.7969 L31.793,443.7969 M18.793,424.7969 L44.793,424.7969 M31.793,443.7969 L18.793,458.7969 M31.793,443.7969 L44.793,458.7969" fill="none" style="stroke:#181818;stroke-width:0.5;"/><text fill="#000000" font-family="sans-serif" font-size="12" lengthAdjust="spacing" textLength="51.5859" x="6" y="471.4355">APP_015</text></g><!--entity ACT_001--><g class="entity" data-entity="ACT_001" data-source-line="85" data-uid="ent0029" id="entity_ACT_001"><ellipse cx="1505.7617" cy="408.7969" fill="#F1F1F1" rx="8" ry="8" style="stroke:#181818;stroke-width:0.5;"/><path d="M1505.7617,416.7969 L1505.7617,443.7969 M1492.7617,424.7969 L1518.7617,424.7969 M1505.7617,443.7969 L1492.7617,458.7969 M1505.7617,443.7969 L1518.7617,458.7969" fill="none" style="stroke:#181818;stroke-width:0.5;"/><text fill="#000000" font-family="sans-serif" font-size="12" lengthAdjust="spacing" textLength="100.5234" x="1455.5" y="471.4355">ACTOR_ACT_001</text></g><g class="entity" data-entity="GMN31" data-source-line="89" data-uid="ent0032" id="entity_GMN31"><path d="M1038.5,511.2969 L1038.5,643.0156 A2,2 0 0 0 1040.5,645.0156 L1971.873,645.0156 A2,2 0 0 0 1973.873,643.0156 L1973.873,519.2969 L1963.873,509.2969 L1510,509.2969 L1506,474.5569 L1502,509.2969 L1040.5,509.2969 A2,2 0 0 0 1038.5,511.2969" fill="#FEFFDD" style="stroke:#181818;stroke-width:0.5;"/><path d="M1963.873,509.2969 L1963.873,518.2969 A1,1 0 0 0 1964.873,519.2969 L1973.873,519.2969 L1963.873,509.2969" fill="#FEFFDD" style="stroke:#181818;stroke-width:0.5;"/><text fill="#000000" font-family="sans-serif" font-size="12" lengthAdjust="spacing" textLength="209.8477" x="1044.5" y="525.4355">Model-backed runtime boundaries:</text><text fill="#000000" font-family="sans-serif" font-size="12" lengthAdjust="spacing" textLength="247.6816" x="1044.5" y="539.4043">- Orchestration control: APP-016/017/018</text><text fill="#000000" font-family="sans-serif" font-size="12" lengthAdjust="spacing" textLength="340.1367" x="1044.5" y="553.373">- Agent invocation runtime: APP-007/008 + APP-004/006</text><text fill="#000000" font-family="sans-serif" font-size="12" lengthAdjust="spacing" textLength="504.5156" x="1044.5" y="567.3418">- User interaction entry: APP-020 serving ACT-001 and delegating writes to APP-021</text><text fill="#000000" font-family="sans-serif" font-size="12" lengthAdjust="spacing" textLength="629.2207" x="1044.5" y="581.3105">- Event-sourced persistence path: APP-001 serving orchestration and dashboard interaction components</text><text fill="#000000" font-family="sans-serif" font-size="12" lengthAdjust="spacing" textLength="3.8145" x="1044.5" y="595.2793">&#160;</text><text fill="#000000" font-family="sans-serif" font-size="12" lengthAdjust="spacing" textLength="142.0664" x="1044.5" y="609.248">Exemplar scoping note:</text><text fill="#000000" font-family="sans-serif" font-size="12" lengthAdjust="spacing" textLength="427.4414" x="1044.5" y="623.2168">- APP-008 is shown as the SA specialist exemplar for this Phase C slice.</text><text fill="#000000" font-family="sans-serif" font-size="12" lengthAdjust="spacing" textLength="914.373" x="1044.5" y="637.1855">- PM invocation is role-polymorphic via AgentRegistry; the same pattern applies to other specialist agents (for example APP-009/010/011/012/014/015).</text></g><!--reverse link APP_016 to APP_007--><g class="link" data-entity-1="APP_016" data-entity-2="APP_007" data-source-line="70" data-uid="lnk16" id="link_APP_016_APP_007"><path d="M461.9223,354.7632 C543.2923,373.2332 652.32,397.9969 733.71,416.4769" fill="none" id="APP_016-backto-APP_007" style="stroke:#2E7D32;stroke-width:1;"/><polygon fill="#2E7D32" points="450.22,352.1069,455.1857,357.3358,461.9223,354.7632,456.9566,349.5342,450.22,352.1069" style="stroke:#2E7D32;stroke-width:1;"/><text fill="#000000" font-family="sans-serif" font-size="12" lengthAdjust="spacing" textLength="87.8438" x="593" y="382.4355">&#171;composition&#187;</text></g><!--reverse link APP_016 to APP_008--><g class="link" data-entity-1="APP_016" data-entity-2="APP_008" data-source-line="71" data-uid="lnk17" id="link_APP_016_APP_008"><path d="M400.6287,299.7035 C430.5787,275.8635 470.97,248.4269 521,234.2969 C606.54,210.1369 638.62,200.9069 721,234.2969 C757.09,248.9269 787.34,283.5169 804.82,307.1769" fill="none" id="APP_016-backto-APP_008" style="stroke:#2E7D32;stroke-width:1;"/><polygon fill="#2E7D32" points="391.24,307.1769,398.4255,306.5698,400.6287,299.7035,393.4432,300.3106,391.24,307.1769" style="stroke:#2E7D32;stroke-width:1;"/><text fill="#000000" font-family="sans-serif" font-size="12" lengthAdjust="spacing" textLength="87.8438" x="548.5" y="212.4355">&#171;composition&#187;</text></g><!--reverse link APP_016 to APP_015--><g class="link" data-entity-1="APP_016" data-entity-2="APP_015" data-source-line="72" data-uid="lnk19" id="link_APP_016_APP_015"><path d="M263.9766,341.8554 C204.5766,350.1954 137.7,365.5869 76,400.2969 C69.98,403.6869 63.96,407.9069 58.39,412.2669" fill="none" id="APP_016-backto-APP_015" style="stroke:#2E7D32;stroke-width:1;"/><polygon fill="#2E7D32" points="275.86,340.1869,269.3621,337.06,263.9766,341.8554,270.4744,344.9823,275.86,340.1869" style="stroke:#2E7D32;stroke-width:1;"/><text fill="#000000" font-family="sans-serif" font-size="12" lengthAdjust="spacing" textLength="87.8438" x="144" y="382.4355">&#171;composition&#187;</text></g><!--reverse link APP_016 to APP_018--><g class="link" data-entity-1="APP_016" data-entity-2="APP_018" data-source-line="73" data-uid="lnk20" id="link_APP_016_APP_018"><path d="M297.882,360.6083 C288.162,365.2283 289.09,365.1169 280,370.2969 C257.5,383.1269 233.55,399.7869 215.33,413.1569" fill="none" id="APP_016-backto-APP_018" style="stroke:#2E7D32;stroke-width:1;"/><polygon fill="#2E7D32" points="308.72,355.4569,301.5838,354.4199,297.882,360.6083,305.0181,361.6453,308.72,355.4569" style="stroke:#2E7D32;stroke-width:1;"/><text fill="#000000" font-family="sans-serif" font-size="12" lengthAdjust="spacing" textLength="87.8438" x="281" y="382.4355">&#171;composition&#187;</text></g><!--link APP_016 to APP_017--><g class="link" data-entity-1="APP_016" data-entity-2="APP_017" data-source-line="74" data-uid="lnk21" id="link_APP_016_APP_017"><path d="M369.44,355.3769 C374.24,372.6169 379.1689,390.2772 383.9689,407.4972" fill="none" id="APP_016-to-APP_017" style="stroke:#2E7D32;stroke-width:1;"/><polygon fill="#2E7D32" points="385.58,413.2769,387.0165,403.5333,384.2375,408.4605,379.3103,405.6814,385.58,413.2769" style="stroke:#2E7D32;stroke-width:1;"/><text fill="#000000" font-family="sans-serif" font-size="12" lengthAdjust="spacing" textLength="58.9102" x="379" y="382.4355">&#171;serving&#187;</text></g><!--link APP_004 to APP_007--><g class="link" data-entity-1="APP_004" data-entity-2="APP_007" data-source-line="76" data-uid="lnk22" id="link_APP_004_APP_007"><path d="M975.84,355.3769 C942.86,372.6169 903.3076,393.2778 870.3576,410.4978" fill="none" id="APP_004-to-APP_007" style="stroke:#5C6BC0;stroke-width:1;"/><polygon fill="#5C6BC0" points="865.04,413.2769,874.8691,412.6534,869.4713,410.961,871.1637,405.5632,865.04,413.2769" style="stroke:#5C6BC0;stroke-width:1;"/><text fill="#000000" font-family="sans-serif" font-size="12" lengthAdjust="spacing" textLength="58.9102" x="946" y="382.4355">&#171;serving&#187;</text></g><!--link APP_006 to APP_016--><g class="link" data-entity-1="APP_006" data-entity-2="APP_016" data-source-line="77" data-uid="lnk23" id="link_APP_006_APP_016"><path d="M534.61,331.2969 C507.44,331.2969 483.49,331.2969 456.32,331.2969" fill="none" id="APP_006-to-APP_016" style="stroke:#5C6BC0;stroke-width:1;"/><polygon fill="#5C6BC0" points="450.32,331.2969,459.32,335.2969,455.32,331.2969,459.32,327.2969,450.32,331.2969" style="stroke:#5C6BC0;stroke-width:1;"/><text fill="#000000" font-family="sans-serif" font-size="12" lengthAdjust="spacing" textLength="58.9102" x="463.5" y="325.4355">&#171;serving&#187;</text></g><!--link APP_001 to APP_016--><g class="link" data-entity-1="APP_001" data-entity-2="APP_016" data-source-line="79" data-uid="lnk24" id="link_APP_001_APP_016"><path d="M734.71,152.7769 C648.53,161.3169 523.63,177.1769 481,200.2969 C434.11,225.7169 399.427,272.0914 380.127,302.0814" fill="none" id="APP_001-to-APP_016" style="stroke:#0078A0;stroke-width:1;"/><polygon fill="#0078A0" points="376.88,307.1269,385.1142,301.7233,379.5858,302.9223,378.3869,297.394,376.88,307.1269" style="stroke:#0078A0;stroke-width:1;"/><text fill="#000000" font-family="sans-serif" font-size="12" lengthAdjust="spacing" textLength="58.9102" x="482" y="212.4355">&#171;serving&#187;</text></g><!--link APP_001 to APP_018--><g class="link" data-entity-1="APP_001" data-entity-2="APP_018" data-source-line="80" data-uid="lnk25" id="link_APP_001_APP_018"><path d="M734.8,146.4269 C585.03,149.9569 286.88,164.3969 203,223.2969 C142.97,265.4469 145.14,298.9869 128,370.2969 C126.44,376.7769 125.28,379.2069 128,385.2969 C132.82,396.0869 136.6614,401.5895 145.5214,409.3295" fill="none" id="APP_001-to-APP_018" style="stroke:#0078A0;stroke-width:1;"/><polygon fill="#0078A0" points="150.04,413.2769,145.8937,404.3433,146.2745,409.9874,140.6305,410.3682,150.04,413.2769" style="stroke:#0078A0;stroke-width:1;"/><text fill="#000000" font-family="sans-serif" font-size="12" lengthAdjust="spacing" textLength="58.9102" x="204" y="335.9355">&#171;serving&#187;</text></g><!--link APP_001 to APP_020--><g class="link" data-entity-1="APP_001" data-entity-2="APP_020" data-source-line="81" data-uid="lnk26" id="link_APP_001_APP_020"><path d="M909,151.1069 C983.18,157.8169 1091.94,171.8169 1183,200.2969 C1205.2,207.2369 1211.11,209.7369 1230,223.2969 C1264.2,247.8469 1293.4208,279.2681 1313.2808,302.5981" fill="none" id="APP_001-to-APP_020" style="stroke:#0078A0;stroke-width:1;"/><polygon fill="#0078A0" points="1317.17,307.1669,1314.382,297.7209,1313.929,303.3596,1308.2903,302.9065,1317.17,307.1669" style="stroke:#0078A0;stroke-width:1;"/><text fill="#000000" font-family="sans-serif" font-size="12" lengthAdjust="spacing" textLength="58.9102" x="1220" y="212.4355">&#171;serving&#187;</text></g><!--link APP_001 to APP_021--><g class="link" data-entity-1="APP_001" data-entity-2="APP_021" data-source-line="82" data-uid="lnk27" id="link_APP_001_APP_021"><path d="M909.12,147.8169 C974.47,154.0769 1062.39,172.3469 1121,223.2969 C1168.97,264.9969 1132.75,308.7269 1176,355.2969 C1200.15,381.3069 1228.9937,397.8703 1259.6937,410.8503" fill="none" id="APP_001-to-APP_021" style="stroke:#0078A0;stroke-width:1;"/><polygon fill="#0078A0" points="1265.22,413.1869,1258.4882,405.9978,1260.6147,411.2398,1255.3728,413.3663,1265.22,413.1869" style="stroke:#0078A0;stroke-width:1;"/><text fill="#000000" font-family="sans-serif" font-size="12" lengthAdjust="spacing" textLength="58.9102" x="1177" y="335.9355">&#171;serving&#187;</text></g><!--link APP_020 to APP_021--><g class="link" data-entity-1="APP_020" data-entity-2="APP_021" data-source-line="83" data-uid="lnk28" id="link_APP_020_APP_021"><path d="M1336,355.3769 C1336,372.6169 1336,390.0569 1336,407.2769" fill="none" id="APP_020-to-APP_021" style="stroke:#8D4E00;stroke-width:1;"/><polygon fill="#8D4E00" points="1336,413.2769,1340,404.2769,1336,408.2769,1332,404.2769,1336,413.2769" style="stroke:#8D4E00;stroke-width:1;"/><text fill="#000000" font-family="sans-serif" font-size="12" lengthAdjust="spacing" textLength="58.9102" x="1337" y="382.4355">&#171;serving&#187;</text></g><!--link APP_020 to ACT_001--><g class="link" data-entity-1="APP_020" data-entity-2="ACT_001" data-source-line="86" data-uid="lnk30" id="link_APP_020_ACT_001"><path d="M1376.65,355.3369 C1385.07,360.2069 1393.85,365.3669 1402,370.2969 C1419.57,380.9169 1433.5193,389.6337 1450.4293,400.4037" fill="none" id="APP_020-to-ACT_001" style="stroke:#8D4E00;stroke-width:1;"/><polygon fill="#8D4E00" points="1455.49,403.6269,1450.0477,395.4183,1451.2727,400.9409,1445.7501,402.1659,1455.49,403.6269" style="stroke:#8D4E00;stroke-width:1;"/><text fill="#000000" font-family="sans-serif" font-size="12" lengthAdjust="spacing" textLength="58.9102" x="1426" y="382.4355">&#171;serving&#187;</text></g><!--SRC=[bLJlJzim4FsUl-9WN_P3QPFIGiPGfL0gG89HbV9fcYhNlRKMYHtPRg6Qzh_ld1gMHAmg7rBrxEVttfrzTo0aprPpX5QhFSqPrygqYbMU1GVL3QRvKkJCOcWiQbHsKw37MM4pXBGeCi6P5Kf2wi0MkLrfX136Asb5Zd0jwIZZ9UHShUISQO4c2CoZa0NJB0VDvEDSQBWPLnQbcgF10Zgz1j8j7aL1e4c9oGMPEBmZPJHMRtruuKCuEwlOkzHgLGYvwFU16RWSZwPtuy4L_0u0BeQ3csaw6asZ-BWUdjJ39FXJqqqNA2qbk5RyVTBfvV3xv7hGK8_gSb5I3xlryBXXvi6WhXLxNpCFrmqVdQWUnWsb4MeZw458ZdkBt4_IoR2PRqdi2m-VmnyVEiEJYwFEpn1yFU2KUBdA2sM4u-ttTy6JTy7ZtllWkzWhwBw7RxtJdQpBElWyewx3zWR7vuFe5HiriVw2tu2IrfkqiSCIKPBkmEw09dj3Ez7-qFWjA14GDBde3gCTq20TJEx6K_ejoUaL-R__8V6u1ebK5c6ch5LvS4i39GjdZ3_Y7BGVJhFNWNGQX52V8rn9grLswXo6LCqsNMhR3G5w4MNZYt-Dx_ayDY8SlSOlFkgsNRU6K7Qeg7GeaUYDFqCPUUCkcR1CMiw1FEE2D6ZvITDqDM2LFn0JvN1D7A5HAyqfgwBIc0MponSxyIkrgcLO2Z2pd2ccvpLdvJENn4s3UlYCUP4n3OOhrzJWgkhAjILFG1WmI_KatItP9S9z2gP0BbX6PW1VZlzIchO9F5eoWp00G-C2MqGqkgtMaX1KTWmBbMrofOkbuB0MR5lqCIw8L6- -bKg6vMMcP9pKtVpP5aZHfgwQOEwiWO_E0pupCeJU_bUwqeY-cBuEVNHPSUzJAq2gZKlqBm00]--></g></svg>