<svg xmlns="http://www.w3.org/2000/svg" xmlns:xlink="http://www.w3.org/1999/xlink" contentStyleType="text/css" data-diagram-type="SEQUENCE" height="1255px" preserveAspectRatio="none" style="width:1868px;height:1255px;background:#FFFFFF;" version="1.1" viewBox="0 0 1868 1255" width="1868px" zoomAndPan="magnify"><title>Specialist Invocation Cycle (Application Runtime)</title><defs/><g><text fill="#000000" font-family="sans-serif" font-size="14" font-weight="bold" lengthAdjust="spacing" textLength="389.3818" x="741.053" y="27.9951">Specialist Invocation Cycle (Application Runtime)</text><rect fill="none" height="262.1953" style="stroke:#000000;stroke-width:1.5;" width="689.1138" x="884" y="283.5547"/><rect fill="none" height="96.5313" style="stroke:#000000;stroke-width:1.5;" width="926.0303" x="926.4575" y="588.8828"/><rect fill="none" height="185.9297" style="stroke:#000000;stroke-width:1.5;" width="946.0303" x="916.4575" y="699.4141"/><rect fill="none" height="75.3984" style="stroke:#000000;stroke-width:1.5;" width="926.0303" x="926.4575" y="802.9453"/><rect fill="none" height="46.2656" style="stroke:#000000;stroke-width:1.5;" width="1842.4878" x="10" y="986.7422"/><g><title>LangGraph Orchestrator</title><rect fill="#000000" fill-opacity="0.00000" height="1039.9141" width="8" x="108.21" y="120.8906"/><line style="stroke:#181818;stroke-width:0.5;stroke-dasharray:5.0,5.0;" x1="112" x2="112" y1="120.8906" y2="1160.8047"/></g><g><title>PM Agent</title><rect fill="#000000" fill-opacity="0.00000" height="1039.9141" width="8" x="533.9531" y="120.8906"/><line style="stroke:#181818;stroke-width:0.5;stroke-dasharray:5.0,5.0;" x1="537.7476" x2="537.7476" y1="120.8906" y2="1160.8047"/></g><g><title>SkillLoader</title><rect fill="#000000" fill-opacity="0.00000" height="1039.9141" width="8" x="753.645" y="120.8906"/><line style="stroke:#181818;stroke-width:0.5;stroke-dasharray:5.0,5.0;" x1="757.2134" x2="757.2134" y1="120.8906" y2="1160.8047"/></g><g><title>AgentRegistry</title><rect fill="#000000" fill-opacity="0.00000" height="1039.9141" width="8" x="865.7671" y="120.8906"/><line style="stroke:#181818;stroke-width:0.5;stroke-dasharray:5.0,5.0;" x1="869.0767" x2="869.0767" y1="120.8906" y2="1160.8047"/></g><g><title>Specialist Agent</title><rect fill="#000000" fill-opacity="0.00000" height="1039.9141" width="8" x="995.96" y="120.8906"/><line style="stroke:#181818;stroke-width:0.5;stroke-dasharray:5.0,5.0;" x1="999.4575" x2="999.4575" y1="120.8906" y2="1160.8047"/></g><g><title>LearningStore</title><rect fill="#000000" fill-opacity="0.00000" height="1039.9141" width="8" x="1387.6416" y="120.8906"/><line style="stroke:#181818;stroke-width:0.5;stroke-dasharray:5.0,5.0;" x1="1391.3511" x2="1391.3511" y1="120.8906" y2="1160.8047"/></g><g><title>MementoStore</title><rect fill="#000000" fill-opacity="0.00000" height="1039.9141" width="8" x="1504.5229" y="120.8906"/><line style="stroke:#181818;stroke-width:0.5;stroke-dasharray:5.0,5.0;" x1="1507.9321" x2="1507.9321" y1="120.8906" y2="1160.8047"/></g><g><title>EventStore</title><rect fill="#000000" fill-opacity="0.00000" height="1039.9141" width="8" x="1796.7793" y="120.8906"/><line style="stroke:#181818;stroke-width:0.5;stroke-dasharray:5.0,5.0;" x1="1800.0708" x2="1800.0708" y1="120.8906" y2="1160.8047"/></g><g class="participant participant-head" data-participant="APP_016"><rect fill="#E2E2F0" height="46.5938" rx="2.5" ry="2.5" style="stroke:#181818;stroke-width:0.5;" width="184.4199" x="20" y="73.2969"/><text fill="#000000" font-family="sans-serif" font-size="14" lengthAdjust="spacing" textLength="170.4199" x="27" y="93.292">LangGraph Orchestrator</text><text fill="#000000" font-family="sans-serif" font-size="14" lengthAdjust="spacing" textLength="58.2354" x="83.0923" y="109.5889">APP-016</text></g><g class="participant participant-tail" data-participant="APP_016"><rect fill="#E2E2F0" height="46.5938" rx="2.5" ry="2.5" style="stroke:#181818;stroke-width:0.5;" width="184.4199" x="20" y="1159.8047"/><text fill="#000000" font-family="sans-serif" font-size="14" lengthAdjust="spacing" textLength="170.4199" x="27" y="1179.7998">LangGraph Orchestrator</text><text fill="#000000" font-family="sans-serif" font-size="14" lengthAdjust="spacing" textLength="58.2354" x="83.0923" y="1196.0967">APP-016</text></g><g class="participant participant-head" data-participant="APP_007"><rect fill="#E2E2F0" height="46.5938" rx="2.5" ry="2.5" style="stroke:#181818;stroke-width:0.5;" width="80.4111" x="497.7476" y="73.2969"/><text fill="#000000" font-family="sans-serif" font-size="14" lengthAdjust="spacing" textLength="66.4111" x="504.7476" y="93.292">PM Agent</text><text fill="#000000" font-family="sans-serif" font-size="14" lengthAdjust="spacing" textLength="58.2354" x="508.8354" y="109.5889">APP-007</text></g><g class="participant participant-tail" data-participant="APP_007"><rect fill="#E2E2F0" height="46.5938" rx="2.5" ry="2.5" style="stroke:#181818;stroke-width:0.5;" width="80.4111" x="497.7476" y="1159.8047"/><text fill="#000000" font-family="sans-serif" font-size="14" lengthAdjust="spacing" textLength="66.4111" x="504.7476" y="1179.7998">PM Agent</text><text fill="#000000" font-family="sans-serif" font-size="14" lengthAdjust="spacing" textLength="58.2354" x="508.8354" y="1196.0967">APP-007</text></g><g class="participant participant-head" data-participant="APP_004"><rect fill="#E2E2F0" height="46.5938" rx="2.5" ry="2.5" style="stroke:#181818;stroke-width:0.5;" width="90.8633" x="712.2134" y="73.2969"/><text fill="#000000" font-family="sans-serif" font-size="14" lengthAdjust="spacing" textLength="76.8633" x="719.2134" y="93.292">SkillLoader</text><text fill="#000000" font-family="sans-serif" font-size="14" lengthAdjust="spacing" textLength="58.2354" x="728.5273" y="109.5889">APP-004</text></g><g class="participant participant-tail" data-participant="APP_004"><rect fill="#E2E2F0" height="46.5938" rx="2.5" ry="2.5" style="stroke:#181818;stroke-width:0.5;" width="90.8633" x="712.2134" y="1159.8047"/><text fill="#000000" font-family="sans-serif" font-size="14" lengthAdjust="spacing" textLength="76.8633" x="719.2134" y="1179.7998">SkillLoader</text><text fill="#000000" font-family="sans-serif" font-size="14" lengthAdjust="spacing" textLength="58.2354" x="728.5273" y="1196.0967">APP-004</text></g><g class="participant participant-head" data-participant="APP_006"><rect fill="#E2E2F0" height="46.5938" rx="2.5" ry="2.5" style="stroke:#181818;stroke-width:0.5;" width="113.3809" x="813.0767" y="73.2969"/><text fill="#000000" font-family="sans-serif" font-size="14" lengthAdjust="spacing" textLength="99.3809" x="820.0767" y="93.292">AgentRegistry</text><text fill="#000000" font-family="sans-serif" font-size="14" lengthAdjust="spacing" textLength="58.2354" x="840.6494" y="109.5889">APP-006</text></g><g class="participant participant-tail" data-participant="APP_006"><rect fill="#E2E2F0" height="46.5938" rx="2.5" ry="2.5" style="stroke:#181818;stroke-width:0.5;" width="113.3809" x="813.0767" y="1159.8047"/><text fill="#000000" font-family="sans-serif" font-size="14" lengthAdjust="spacing" textLength="99.3809" x="820.0767" y="1179.7998">AgentRegistry</text><text fill="#000000" font-family="sans-serif" font-size="14" lengthAdjust="spacing" textLength="58.2354" x="840.6494" y="1196.0967">APP-006</text></g><g class="participant participant-head" data-participant="APP_008"><rect fill="#E2E2F0" height="46.5938" rx="2.5" ry="2.5" style="stroke:#181818;stroke-width:0.5;" width="127.0049" x="936.4575" y="73.2969"/><text fill="#000000" font-family="sans-serif" font-size="14" lengthAdjust="spacing" textLength="113.0049" x="943.4575" y="93.292">Specialist Agent</text><text fill="#000000" font-family="sans-serif" font-size="14" lengthAdjust="spacing" textLength="58.2354" x="970.8423" y="109.5889">APP-008</text></g><g class="participant participant-tail" data-participant="APP_008"><rect fill="#E2E2F0" height="46.5938" rx="2.5" ry="2.5" style="stroke:#181818;stroke-width:0.5;" width="127.0049" x="936.4575" y="1159.8047"/><text fill="#000000" font-family="sans-serif" font-size="14" lengthAdjust="spacing" textLength="113.0049" x="943.4575" y="1179.7998">Specialist Agent</text><text fill="#000000" font-family="sans-serif" font-size="14" lengthAdjust="spacing" textLength="58.2354" x="970.8423" y="1196.0967">APP-008</text></g><g class="participant participant-head" data-participant="APP_003"><text fill="#000000" font-family="sans-serif" font-size="14" lengthAdjust="spacing" textLength="98.5811" x="1339.3511" y="101.292">LearningStore</text><text fill="#000000" font-family="sans-serif" font-size="14" lengthAdjust="spacing" textLength="58.2354" x="1359.5239" y="117.5889">APP-003</text><path d="M1373.6416,52.2969 C1373.6416,42.2969 1391.6416,42.2969 1391.6416,42.2969 C1391.6416,42.2969 1409.6416,42.2969 1409.6416,52.2969 L1409.6416,78.2969 C1409.6416,88.2969 1391.6416,88.2969 1391.6416,88.2969 C1391.6416,88.2969 1373.6416,88.2969 1373.6416,78.2969 L1373.6416,52.2969" fill="#E2E2F0" style="stroke:#181818;stroke-width:1.5;"/><path d="M1373.6416,52.2969 C1373.6416,62.2969 1391.6416,62.2969 1391.6416,62.2969 C1391.6416,62.2969 1409.6416,62.2969 1409.6416,52.2969" fill="none" style="stroke:#181818;stroke-width:1.5;"/></g><g class="participant participant-tail" data-participant="APP_003"><text fill="#000000" font-family="sans-serif" font-size="14" lengthAdjust="spacing" textLength="98.5811" x="1339.3511" y="1172.7998">LearningStore</text><text fill="#000000" font-family="sans-serif" font-size="14" lengthAdjust="spacing" textLength="58.2354" x="1359.5239" y="1189.0967">APP-003</text><path d="M1373.6416,1202.3984 C1373.6416,1192.3984 1391.6416,1192.3984 1391.6416,1192.3984 C1391.6416,1192.3984 1409.6416,1192.3984 1409.6416,1202.3984 L1409.6416,1228.3984 C1409.6416,1238.3984 1391.6416,1238.3984 1391.6416,1238.3984 C1391.6416,1238.3984 1373.6416,1238.3984 1373.6416,1228.3984 L1373.6416,1202.3984" fill="#E2E2F0" style="stroke:#181818;stroke-width:1.5;"/><path d="M1373.6416,1202.3984 C1373.6416,1212.3984 1391.6416,1212.3984 1391.6416,1212.3984 C1391.6416,1212.3984 1409.6416,1212.3984 1409.6416,1202.3984" fill="none" style="stroke:#181818;stroke-width:1.5;"/></g><g class="participant participant-head" data-participant="APP_023"><text fill="#000000" font-family="sans-serif" font-size="14" lengthAdjust="spacing" textLength="103.1816" x="1453.9321" y="101.292">MementoStore</text><text fill="#000000" font-family="sans-serif" font-size="14" lengthAdjust="spacing" textLength="58.2354" x="1476.4053" y="117.5889">APP-023</text><path d="M1490.5229,52.2969 C1490.5229,42.2969 1508.5229,42.2969 1508.5229,42.2969 C1508.5229,42.2969 1526.5229,42.2969 1526.5229,52.2969 L1526.5229,78.2969 C1526.5229,88.2969 1508.5229,88.2969 1508.5229,88.2969 C1508.5229,88.2969 1490.5229,88.2969 1490.5229,78.2969 L1490.5229,52.2969" fill="#E2E2F0" style="stroke:#181818;stroke-width:1.5;"/><path d="M1490.5229,52.2969 C1490.5229,62.2969 1508.5229,62.2969 1508.5229,62.2969 C1508.5229,62.2969 1526.5229,62.2969 1526.5229,52.2969" fill="none" style="stroke:#181818;stroke-width:1.5;"/></g><g class="participant participant-tail" data-participant="APP_023"><text fill="#000000" font-family="sans-serif" font-size="14" lengthAdjust="spacing" textLength="103.1816" x="1453.9321" y="1172.7998">MementoStore</text><text fill="#000000" font-family="sans-serif" font-size="14" lengthAdjust="spacing" textLength="58.2354" x="1476.4053" y="1189.0967">APP-023</text><path d="M1490.5229,1202.3984 C1490.5229,1192.3984 1508.5229,1192.3984 1508.5229,1192.3984 C1508.5229,1192.3984 1526.5229,1192.3984 1526.5229,1202.3984 L1526.5229,1228.3984 C1526.5229,1238.3984 1508.5229,1238.3984 1508.5229,1238.3984 C1508.5229,1238.3984 1490.5229,1238.3984 1490.5229,1228.3984 L1490.5229,1202.3984" fill="#E2E2F0" style="stroke:#181818;stroke-width:1.5;"/><path d="M1490.5229,1202.3984 C1490.5229,1212.3984 1508.5229,1212.3984 1508.5229,1212.3984 C1508.5229,1212.3984 1526.5229,1212.3984 1526.5229,1202.3984" fill="none" style="stroke:#181818;stroke-width:1.5;"/></g><g class="participant participant-head" data-participant="APP_001"><text fill="#000000" font-family="sans-serif" font-size="14" lengthAdjust="spacing" textLength="77.417" x="1759.0708" y="101.292">EventStore</text><text fill="#000000" font-family="sans-serif" font-size="14" lengthAdjust="spacing" textLength="58.2354" x="1768.6616" y="117.5889">APP-001</text><path d="M1782.7793,52.2969 C1782.7793,42.2969 1800.7793,42.2969 1800.7793,42.2969 C1800.7793,42.2969 1818.7793,42.2969 1818.7793,52.2969 L1818.7793,78.2969 C1818.7793,88.2969 1800.7793,88.2969 1800.7793,88.2969 C1800.7793,88.2969 1782.7793,88.2969 1782.7793,78.2969 L1782.7793,52.2969" fill="#E2E2F0" style="stroke:#181818;stroke-width:1.5;"/><path d="M1782.7793,52.2969 C1782.7793,62.2969 1800.7793,62.2969 1800.7793,62.2969 C1800.7793,62.2969 1818.7793,62.2969 1818.7793,52.2969" fill="none" style="stroke:#181818;stroke-width:1.5;"/></g><g class="participant participant-tail" data-participant="APP_001"><text fill="#000000" font-family="sans-serif" font-size="14" lengthAdjust="spacing" textLength="77.417" x="1759.0708" y="1172.7998">EventStore</text><text fill="#000000" font-family="sans-serif" font-size="14" lengthAdjust="spacing" textLength="58.2354" x="1768.6616" y="1189.0967">APP-001</text><path d="M1782.7793,1202.3984 C1782.7793,1192.3984 1800.7793,1192.3984 1800.7793,1192.3984 C1800.7793,1192.3984 1818.7793,1192.3984 1818.7793,1202.3984 L1818.7793,1228.3984 C1818.7793,1238.3984 1800.7793,1238.3984 1800.7793,1238.3984 C1800.7793,1238.3984 1782.7793,1238.3984 1782.7793,1228.3984 L1782.7793,1202.3984" fill="#E2E2F0" style="stroke:#181818;stroke-width:1.5;"/><path d="M1782.7793,1202.3984 C1782.7793,1212.3984 1800.7793,1212.3984 1800.7793,1212.3984 C1800.7793,1212.3984 1818.7793,1212.3984 1818.7793,1202.3984" fill="none" style="stroke:#181818;stroke-width:1.5;"/></g><g class="message" data-participant-1="APP_016" data-participant-2="APP_007"><polygon fill="#181818" points="525.9531,148.0234,535.9531,152.0234,525.9531,156.0234,529.9531,152.0234" style="stroke:#181818;stroke-width:1;"/><line style="stroke:#181818;stroke-width:1;" x1="112.21" x2="531.9531" y1="152.0234" y2="152.0234"/><text fill="#000000" font-family="sans-serif" font-size="13" lengthAdjust="spacing" textLength="401.7432" x="119.21" y="146.9575">decide_next_action(current_phase_id, pending_work_context)</text></g><g class="message" data-participant-1="APP_007" data-participant-2="APP_004"><polygon fill="#181818" points="745.645,177.1563,755.645,181.1563,745.645,185.1563,749.645,181.1563" style="stroke:#181818;stroke-width:1;"/><line style="stroke:#181818;stroke-width:1;" x1="537.9531" x2="751.645" y1="181.1563" y2="181.1563"/><text fill="#000000" font-family="sans-serif" font-size="13" lengthAdjust="spacing" textLength="195.6919" x="544.9531" y="176.0903">load_skill_instructions(skill_id)</text></g><g class="message" data-participant-1="APP_007" data-participant-2="APP_006"><polygon fill="#181818" points="857.7671,206.2891,867.7671,210.2891,857.7671,214.2891,861.7671,210.2891" style="stroke:#181818;stroke-width:1;"/><line style="stroke:#181818;stroke-width:1;" x1="537.9531" x2="863.7671" y1="210.2891" y2="210.2891"/><text fill="#000000" font-family="sans-serif" font-size="13" lengthAdjust="spacing" textLength="256.2358" x="544.9531" y="205.2231">resolve_specialist_agent(agent_role_id)</text></g><g class="message" data-participant-1="APP_007" data-participant-2="APP_001"><polygon fill="#181818" points="1788.7793,235.4219,1798.7793,239.4219,1788.7793,243.4219,1792.7793,239.4219" style="stroke:#181818;stroke-width:1;"/><line style="stroke:#181818;stroke-width:1;" x1="537.9531" x2="1794.7793" y1="239.4219" y2="239.4219"/><text fill="#000000" font-family="sans-serif" font-size="13" lengthAdjust="spacing" textLength="408.4399" x="544.9531" y="234.356">append_event(event_type="specialist.invoked", invocation_id)</text></g><g class="message" data-participant-1="APP_016" data-participant-2="APP_008"><polygon fill="#181818" points="987.96,264.5547,997.96,268.5547,987.96,272.5547,991.96,268.5547" style="stroke:#181818;stroke-width:1;"/><line style="stroke:#181818;stroke-width:1;" x1="112.21" x2="993.96" y1="268.5547" y2="268.5547"/><text fill="#000000" font-family="sans-serif" font-size="13" lengthAdjust="spacing" textLength="624.0254" x="119.21" y="263.4888">execute_specialist_task(skill_id, task_spec_artifact_ref, dependency_artifact_refs, invocation_id)</text></g><path d="M884,283.5547 L1285.1987,283.5547 L1285.1987,290.6875 L1275.1987,300.6875 L884,300.6875 L884,283.5547" fill="#EEEEEE" style="stroke:#000000;stroke-width:1.5;"/><rect fill="none" height="262.1953" style="stroke:#000000;stroke-width:1.5;" width="689.1138" x="884" y="283.5547"/><text fill="#000000" font-family="sans-serif" font-size="13" font-weight="bold" lengthAdjust="spacing" textLength="356.1987" x="899" y="296.6216">Step 0 &#8212; Discovery Scan (inside specialist node)</text><path d="M894,305.6875 L894,330.6875 L1104,330.6875 L1104,315.6875 L1094,305.6875 L894,305.6875" fill="#FEFFDD" style="stroke:#181818;stroke-width:0.5;"/><path d="M1094,305.6875 L1094,315.6875 L1104,315.6875 L1094,305.6875" fill="#FEFFDD" style="stroke:#181818;stroke-width:0.5;"/><text fill="#000000" font-family="sans-serif" font-size="13" lengthAdjust="spacing" textLength="189.6108" x="900" y="322.7544">Step 0.L &#8212; Learnings Lookup</text><g class="message" data-participant-1="APP_008" data-participant-2="APP_003"><polygon fill="#181818" points="1379.6416,352.9531,1389.6416,356.9531,1379.6416,360.9531,1383.6416,356.9531" style="stroke:#181818;stroke-width:1;"/><line style="stroke:#181818;stroke-width:1;" x1="999.96" x2="1385.6416" y1="356.9531" y2="356.9531"/><text fill="#000000" font-family="sans-serif" font-size="13" lengthAdjust="spacing" textLength="367.6816" x="1006.96" y="351.8872">query_learnings(skill_id, entry_type="skill-amendment")</text></g><g class="message" data-participant-1="APP_003" data-participant-2="APP_008"><polygon fill="#181818" points="1010.96,382.0859,1000.96,386.0859,1010.96,390.0859,1006.96,386.0859" style="stroke:#181818;stroke-width:1;"/><line style="stroke:#181818;stroke-width:1;stroke-dasharray:2.0,2.0;" x1="1004.96" x2="1390.6416" y1="386.0859" y2="386.0859"/><text fill="#000000" font-family="sans-serif" font-size="13" lengthAdjust="spacing" textLength="152.4771" x="1016.96" y="381.02">skill_amendments[0..3]</text></g><g class="message" data-participant-1="APP_008" data-participant-2="APP_003"><polygon fill="#181818" points="1379.6416,411.2188,1389.6416,415.2188,1379.6416,419.2188,1383.6416,415.2188" style="stroke:#181818;stroke-width:1;"/><line style="stroke:#181818;stroke-width:1;" x1="999.96" x2="1385.6416" y1="415.2188" y2="415.2188"/><text fill="#000000" font-family="sans-serif" font-size="13" lengthAdjust="spacing" textLength="300.9995" x="1006.96" y="410.1528">query_learnings(phase, artifact_type, domain)</text></g><g class="message" data-participant-1="APP_003" data-participant-2="APP_008"><polygon fill="#181818" points="1010.96,440.3516,1000.96,444.3516,1010.96,448.3516,1006.96,444.3516" style="stroke:#181818;stroke-width:1;"/><line style="stroke:#181818;stroke-width:1;stroke-dasharray:2.0,2.0;" x1="1004.96" x2="1390.6416" y1="444.3516" y2="444.3516"/><text fill="#000000" font-family="sans-serif" font-size="13" lengthAdjust="spacing" textLength="172.0532" x="1016.96" y="439.2856">corrections+episodic[0..5]</text></g><path d="M897,457.3516 L897,482.3516 L1101,482.3516 L1101,467.3516 L1091,457.3516 L897,457.3516" fill="#FEFFDD" style="stroke:#181818;stroke-width:0.5;"/><path d="M1091,457.3516 L1091,467.3516 L1101,467.3516 L1091,457.3516" fill="#FEFFDD" style="stroke:#181818;stroke-width:0.5;"/><text fill="#000000" font-family="sans-serif" font-size="13" lengthAdjust="spacing" textLength="183.2822" x="903" y="474.4185">Step 0.M &#8212; Memento Recall</text><g class="message" data-participant-1="APP_008" data-participant-2="APP_023"><polygon fill="#181818" points="1496.5229,504.6172,1506.5229,508.6172,1496.5229,512.6172,1500.5229,508.6172" style="stroke:#181818;stroke-width:1;"/><line style="stroke:#181818;stroke-width:1;" x1="999.96" x2="1502.5229" y1="508.6172" y2="508.6172"/><text fill="#000000" font-family="sans-serif" font-size="13" lengthAdjust="spacing" textLength="179.2642" x="1006.96" y="503.5513">get_memento_state(phase)</text></g><g class="message" data-participant-1="APP_023" data-participant-2="APP_008"><polygon fill="#181818" points="1010.96,533.75,1000.96,537.75,1010.96,541.75,1006.96,537.75" style="stroke:#181818;stroke-width:1;"/><line style="stroke:#181818;stroke-width:1;stroke-dasharray:2.0,2.0;" x1="1004.96" x2="1507.5229" y1="537.75" y2="537.75"/><text fill="#000000" font-family="sans-serif" font-size="13" lengthAdjust="spacing" textLength="142.1367" x="1016.96" y="532.6841">MementoState | None</text></g><g class="message" data-participant-1="APP_008" data-participant-2="APP_001"><polygon fill="#181818" points="1788.7793,569.8828,1798.7793,573.8828,1788.7793,577.8828,1792.7793,573.8828" style="stroke:#181818;stroke-width:1;"/><line style="stroke:#181818;stroke-width:1;" x1="999.96" x2="1794.7793" y1="573.8828" y2="573.8828"/><text fill="#000000" font-family="sans-serif" font-size="13" lengthAdjust="spacing" textLength="539.7856" x="1006.96" y="568.8169">append_event(event_type in {"artifact.created","artifact.updated"}, invocation_id)</text></g><path d="M926.4575,588.8828 L995.9087,588.8828 L995.9087,596.0156 L985.9087,606.0156 L926.4575,606.0156 L926.4575,588.8828" fill="#EEEEEE" style="stroke:#000000;stroke-width:1.5;"/><rect fill="none" height="96.5313" style="stroke:#000000;stroke-width:1.5;" width="926.0303" x="926.4575" y="588.8828"/><text fill="#000000" font-family="sans-serif" font-size="13" font-weight="bold" lengthAdjust="spacing" textLength="24.4512" x="941.4575" y="601.9497">opt</text><text fill="#000000" font-family="sans-serif" font-size="11" font-weight="bold" lengthAdjust="spacing" textLength="187.6553" x="1010.9087" y="601.0933">[specialist needs clarification]</text><g class="message" data-participant-1="APP_008" data-participant-2="APP_001"><polygon fill="#181818" points="1788.7793,623.1484,1798.7793,627.1484,1788.7793,631.1484,1792.7793,627.1484" style="stroke:#181818;stroke-width:1;"/><line style="stroke:#181818;stroke-width:1;" x1="999.96" x2="1794.7793" y1="627.1484" y2="627.1484"/><text fill="#000000" font-family="sans-serif" font-size="13" lengthAdjust="spacing" textLength="393.6943" x="1006.96" y="622.0825">append_event(event_type="cq.raised", cq_id, invocation_id)</text></g><path d="M1004,640.1484 L1004,680.1484 L1355,680.1484 L1355,650.1484 L1345,640.1484 L1004,640.1484" fill="#FEFFDD" style="stroke:#181818;stroke-width:0.5;"/><path d="M1345,640.1484 L1345,650.1484 L1355,650.1484 L1345,640.1484" fill="#FEFFDD" style="stroke:#181818;stroke-width:0.5;"/><text fill="#000000" font-family="sans-serif" font-size="13" lengthAdjust="spacing" textLength="292.189" x="1010" y="657.2153">CQ routing/resume path is abbreviated here.</text><text fill="#000000" font-family="sans-serif" font-size="13" lengthAdjust="spacing" textLength="330.9033" x="1010" y="672.3481">Full flow: runtime-sequence-cq-routing-resume-v1.</text><path d="M916.4575,699.4141 L1153.3027,699.4141 L1153.3027,706.5469 L1143.3027,716.5469 L916.4575,716.5469 L916.4575,699.4141" fill="#EEEEEE" style="stroke:#000000;stroke-width:1.5;"/><rect fill="none" height="185.9297" style="stroke:#000000;stroke-width:1.5;" width="946.0303" x="916.4575" y="699.4141"/><text fill="#000000" font-family="sans-serif" font-size="13" font-weight="bold" lengthAdjust="spacing" textLength="191.8452" x="931.4575" y="712.481">End-of-Skill Memory Close</text><g class="message" data-participant-1="APP_008" data-participant-2="APP_023"><polygon fill="#181818" points="1496.5229,733.6797,1506.5229,737.6797,1496.5229,741.6797,1500.5229,737.6797" style="stroke:#181818;stroke-width:1;"/><line style="stroke:#181818;stroke-width:1;" x1="999.96" x2="1502.5229" y1="737.6797" y2="737.6797"/><text fill="#000000" font-family="sans-serif" font-size="13" lengthAdjust="spacing" textLength="383.5698" x="1006.96" y="732.6138">save_memento_state(phase, key_decisions, open_threads)</text></g><path d="M1513,750.6797 L1513,790.6797 L1671,790.6797 L1671,760.6797 L1661,750.6797 L1513,750.6797" fill="#FEFFDD" style="stroke:#181818;stroke-width:0.5;"/><path d="M1661,750.6797 L1661,760.6797 L1671,760.6797 L1661,750.6797" fill="#FEFFDD" style="stroke:#181818;stroke-width:0.5;"/><text fill="#000000" font-family="sans-serif" font-size="13" lengthAdjust="spacing" textLength="137.3125" x="1519" y="767.7466">Overwrites prior slot;</text><text fill="#000000" font-family="sans-serif" font-size="13" lengthAdjust="spacing" textLength="136.938" x="1519" y="782.8794">always unconditional</text><path d="M926.4575,802.9453 L995.9087,802.9453 L995.9087,810.0781 L985.9087,820.0781 L926.4575,820.0781 L926.4575,802.9453" fill="#EEEEEE" style="stroke:#000000;stroke-width:1.5;"/><rect fill="none" height="75.3984" style="stroke:#000000;stroke-width:1.5;" width="926.0303" x="926.4575" y="802.9453"/><text fill="#000000" font-family="sans-serif" font-size="13" font-weight="bold" lengthAdjust="spacing" textLength="24.4512" x="941.4575" y="816.0122">opt</text><text fill="#000000" font-family="sans-serif" font-size="11" font-weight="bold" lengthAdjust="spacing" textLength="282.4712" x="1010.9087" y="815.1558">[significant outcome or &#167;3.1/&#167;3.2 trigger met]</text><g class="message" data-participant-1="APP_008" data-participant-2="APP_003"><polygon fill="#181818" points="1379.6416,837.2109,1389.6416,841.2109,1379.6416,845.2109,1383.6416,841.2109" style="stroke:#181818;stroke-width:1;"/><line style="stroke:#181818;stroke-width:1;" x1="999.96" x2="1385.6416" y1="841.2109" y2="841.2109"/><text fill="#000000" font-family="sans-serif" font-size="13" lengthAdjust="spacing" textLength="146.3198" x="1006.96" y="836.145">record_learning(entry)</text></g><g class="message" data-participant-1="APP_003" data-participant-2="APP_001"><polygon fill="#181818" points="1788.7793,866.3438,1798.7793,870.3438,1788.7793,874.3438,1792.7793,870.3438" style="stroke:#181818;stroke-width:1;"/><line style="stroke:#181818;stroke-width:1;" x1="1391.6416" x2="1794.7793" y1="870.3438" y2="870.3438"/><text fill="#000000" font-family="sans-serif" font-size="13" lengthAdjust="spacing" textLength="385.1377" x="1398.6416" y="865.2778">append_event(event_type="learning.created", learning_id)</text></g><g class="message" data-participant-1="APP_008" data-participant-2="APP_016"><polygon fill="#181818" points="123.21,909.4766,113.21,913.4766,123.21,917.4766,119.21,913.4766" style="stroke:#181818;stroke-width:1;"/><line style="stroke:#181818;stroke-width:1;stroke-dasharray:2.0,2.0;" x1="117.21" x2="998.96" y1="913.4766" y2="913.4766"/><text fill="#000000" font-family="sans-serif" font-size="13" lengthAdjust="spacing" textLength="369.167" x="129.21" y="908.4106">specialist_result(output_artifact_refs, completion_status)</text></g><g class="message" data-participant-1="APP_016" data-participant-2="APP_001"><polygon fill="#181818" points="1788.7793,938.6094,1798.7793,942.6094,1788.7793,946.6094,1792.7793,942.6094" style="stroke:#181818;stroke-width:1;"/><line style="stroke:#181818;stroke-width:1;" x1="112.21" x2="1794.7793" y1="942.6094" y2="942.6094"/><text fill="#000000" font-family="sans-serif" font-size="13" lengthAdjust="spacing" textLength="426.1372" x="119.21" y="937.5435">append_event(event_type="specialist.completed", invocation_id)</text></g><g class="message" data-participant-1="APP_016" data-participant-2="APP_001"><polygon fill="#181818" points="1788.7793,967.7422,1798.7793,971.7422,1788.7793,975.7422,1792.7793,971.7422" style="stroke:#181818;stroke-width:1;"/><line style="stroke:#181818;stroke-width:1;" x1="112.21" x2="1794.7793" y1="971.7422" y2="971.7422"/><text fill="#000000" font-family="sans-serif" font-size="13" lengthAdjust="spacing" textLength="225.729" x="119.21" y="966.6763">should_create_periodic_snapshot()</text></g><path d="M10,986.7422 L74.4429,986.7422 L74.4429,993.875 L64.4429,1003.875 L10,1003.875 L10,986.7422" fill="#EEEEEE" style="stroke:#000000;stroke-width:1.5;"/><rect fill="none" height="46.2656" style="stroke:#000000;stroke-width:1.5;" width="1842.4878" x="10" y="986.7422"/><text fill="#000000" font-family="sans-serif" font-size="13" font-weight="bold" lengthAdjust="spacing" textLength="19.4429" x="25" y="999.8091">alt</text><text fill="#000000" font-family="sans-serif" font-size="11" font-weight="bold" lengthAdjust="spacing" textLength="177.5146" x="89.4429" y="998.9526">[periodic threshold reached]</text><g class="message" data-participant-1="APP_016" data-participant-2="APP_001"><polygon fill="#181818" points="1788.7793,1021.0078,1798.7793,1025.0078,1788.7793,1029.0078,1792.7793,1025.0078" style="stroke:#181818;stroke-width:1;"/><line style="stroke:#181818;stroke-width:1;" x1="112.21" x2="1794.7793" y1="1025.0078" y2="1025.0078"/><text fill="#000000" font-family="sans-serif" font-size="13" lengthAdjust="spacing" textLength="236.4121" x="119.21" y="1019.9419">create_snapshot(trigger="periodic")</text></g><path d="M117,1045.0078 L117,1145.0078 L531,1145.0078 L531,1055.0078 L521,1045.0078 L117,1045.0078" fill="#FEFFDD" style="stroke:#181818;stroke-width:0.5;"/><path d="M521,1045.0078 L521,1055.0078 L531,1055.0078 L521,1045.0078" fill="#FEFFDD" style="stroke:#181818;stroke-width:0.5;"/><text fill="#000000" font-family="sans-serif" font-size="13" lengthAdjust="spacing" textLength="257.1943" x="123" y="1062.0747">Mapped to BPR-002 execution lane and</text><text fill="#000000" font-family="sans-serif" font-size="13" lengthAdjust="spacing" textLength="171.7612" x="123" y="1077.2075">Stage 5 emitter hierarchy.</text><text fill="#000000" font-family="sans-serif" font-size="13" lengthAdjust="spacing" textLength="107.085" x="123" y="1092.3403">Quality controls:</text><text fill="#000000" font-family="sans-serif" font-size="13" lengthAdjust="spacing" textLength="306.9219" x="123" y="1107.4731">- invocation_id supports replay-safe correlation</text><text fill="#000000" font-family="sans-serif" font-size="13" lengthAdjust="spacing" textLength="320.6328" x="123" y="1122.606">- specialist.completed carries same invocation_id</text><text fill="#000000" font-family="sans-serif" font-size="13" lengthAdjust="spacing" textLength="393.561" x="123" y="1137.7388">- MementoState overwrite is fire-and-forget (no ack needed)</text><!--SRC=[ZLPTRXit47xVKmpq9ADQHJzEOgX80TTDYm9suzYFJK3Gv4WYH94qoPKZf0LwYDwXz-XHUf8EgLrfrv4DlwnMvCp7cM- -6MvKKIFSEXIAQnKY_6esLl2eh86BhQ2z_hbpMjLBDvM9QeqdHU6uZqeenqs4tYKtYryyTqluuCKIG_GyMl_9d5zVbwFncnxm0FJEwBthU7q5vmiqiJOTlJsOZjvsJMzNIkjBooKsmAFJblLfrpgZtk22KlBRnhuLoEXH82q6EW6TjLpE2iaZl-C1AMFatYYpkAKyiJ6UjeodBUChN1EaRTjEMhQJjktx3PbsKCSjr75Hr3n2-KF3qmma1I-H6VmI6HUfKdrHUKz8p2q9bYav08T6KiJimVeL4zP4iZufQem3tEaCDB7CGkARAKC4LXaozEibUSJhpGmy1gitoCAUIiOJbVtyPDvgFEuxdW5tAJg6AVb-VhAuTVYkTm0RAbBc2cLl06glqGDWcv6p6U0N55Ni11DvMErJ643wcxTPqi6SQ6CUvmFYCeM2Hcmx6-6ROuk5jvM3suWEHl3VNt_3Joe8kq6_XLl13VI9F2eB7680OoKr3z1lH4YcUsb13JIyp52DlW9SMhkg7ErJLDcFNckdGyRJ6TnNT33JZLyhKsAJTce-qsh9IOyoQR9tiaURGjacSEU-Dmo_ZuR3wUSNdfr5Du0zV-biOjQkkJ9FdYWiANQdjE_GgM2b4kdKrv-BvncxoepLJGOtABZMp_CrePWN6DbwvyD2v15tKU_3cpmARz_4P0f_m6_MO457r0tP9kHfFPE4u6kleMKeF18OAVgmL3cPb_xyHcxMnOwI46K0eRbNytew7olESxqbxeUUgv1RIjndgJmwiwRTgyKoWfstgB_u2AJ-IDL-HNrVhH4SZqjG0VZTdSUDIbd04ZqEoVhdIckOQ_j0Ks9tWvG1IJH6O2dkongft26Lc_6mNRvCygxNtXjPsdcPhu9K44kjTg5jUAh6WTCyEbBa0QnmozBK34bk0x144OjBgeSCJwITy3wG_XwyYXZ0UMKz16tZzvyCrmzy6w0oD5QbIlJnfC1SChKmkK9qor2QmX9LvFZlFzFX-5LwJY3IGGiIzXeZEHtlCEeCw-M-nVgvfqzQvjENrRm1E6WFcgMwuedkhguRu34D-TOyJTNIiKz9kIe-dfMKfzEOXPHuhyAHCVt2kLz3lMZo4sHOsafBjikFEQGwqI1XmN17Mx5_Kd0TeLc7L7HQrv8evlJj8XifFOAjyVOmTT7UzHea6gMPjYFIeQ-UgvIf19fFFrxVqAK-gM-ez56bkK7Wv4kpPO7m6d2jOYH1B1LwJXzKss7niI8ouXRIlKqtQPWLPPSC29LpriT0UJZDjsNWSzpDLBsR3YKS8nK4zrwHe0FD-YuaUNI6dctKdzfyhZoM57Gvjvv6AVID1IvMUIwXp5paBleV]--></g></svg>