<svg xmlns="http://www.w3.org/2000/svg" xmlns:xlink="http://www.w3.org/1999/xlink" contentStyleType="text/css" data-diagram-type="SEQUENCE" height="786px" preserveAspectRatio="none" style="width:1604px;height:786px;background:#FFFFFF;" version="1.1" viewBox="0 0 1604 786" width="1604px" zoomAndPan="magnify"><title>Gate Evaluation Decision Path (Application Runtime)</title><defs/><g><text fill="#000000" font-family="sans-serif" font-size="14" font-weight="bold" lengthAdjust="spacing" textLength="416.6025" x="594.7568" y="27.9951">Gate Evaluation Decision Path (Application Runtime)</text><rect fill="none" height="104.5313" style="stroke:#000000;stroke-width:1.5;" width="988.1626" x="10" y="167.0234"/><rect fill="none" height="265" style="stroke:#000000;stroke-width:1.5;" width="1587.1162" x="10" y="314.6875"/><g><title>LangGraph Orchestrator</title><rect fill="#000000" fill-opacity="0.00000" height="571.4609" width="8" x="108.21" y="120.8906"/><line style="stroke:#181818;stroke-width:0.5;stroke-dasharray:5.0,5.0;" x1="112" x2="112" y1="120.8906" y2="692.3516"/></g><g><title>PM Agent</title><rect fill="#000000" fill-opacity="0.00000" height="571.4609" width="8" x="499.6377" y="120.8906"/><line style="stroke:#181818;stroke-width:0.5;stroke-dasharray:5.0,5.0;" x1="503.4321" x2="503.4321" y1="120.8906" y2="692.3516"/></g><g><title>Specialist Agent</title><rect fill="#000000" fill-opacity="0.00000" height="571.4609" width="8" x="811.3135" y="120.8906"/><line style="stroke:#181818;stroke-width:0.5;stroke-dasharray:5.0,5.0;" x1="814.811" x2="814.811" y1="120.8906" y2="692.3516"/></g><g><title>CSCO Agent</title><rect fill="#000000" fill-opacity="0.00000" height="571.4609" width="8" x="934.4893" y="120.8906"/><line style="stroke:#181818;stroke-width:0.5;stroke-dasharray:5.0,5.0;" x1="937.8159" x2="937.8159" y1="120.8906" y2="692.3516"/></g><g><title>EngagementSession</title><rect fill="#000000" fill-opacity="0.00000" height="571.4609" width="8" x="1072.5195" y="120.8906"/><line style="stroke:#181818;stroke-width:0.5;stroke-dasharray:5.0,5.0;" x1="1076.1626" x2="1076.1626" y1="120.8906" y2="692.3516"/></g><g><title>EventStore</title><rect fill="#000000" fill-opacity="0.00000" height="571.4609" width="8" x="1541.4077" y="120.8906"/><line style="stroke:#181818;stroke-width:0.5;stroke-dasharray:5.0,5.0;" x1="1544.6992" x2="1544.6992" y1="120.8906" y2="692.3516"/></g><g class="participant participant-head" data-participant="APP_016"><rect fill="#E2E2F0" height="46.5938" rx="2.5" ry="2.5" style="stroke:#181818;stroke-width:0.5;" width="184.4199" x="20" y="73.2969"/><text fill="#000000" font-family="sans-serif" font-size="14" lengthAdjust="spacing" textLength="170.4199" x="27" y="93.292">LangGraph Orchestrator</text><text fill="#000000" font-family="sans-serif" font-size="14" lengthAdjust="spacing" textLength="58.2354" x="83.0923" y="109.5889">APP-016</text></g><g class="participant participant-tail" data-participant="APP_016"><rect fill="#E2E2F0" height="46.5938" rx="2.5" ry="2.5" style="stroke:#181818;stroke-width:0.5;" width="184.4199" x="20" y="691.3516"/><text fill="#000000" font-family="sans-serif" font-size="14" lengthAdjust="spacing" textLength="170.4199" x="27" y="711.3467">LangGraph Orchestrator</text><text fill="#000000" font-family="sans-serif" font-size="14" lengthAdjust="spacing" textLength="58.2354" x="83.0923" y="727.6436">APP-016</text></g><g class="participant participant-head" data-participant="APP_007"><rect fill="#E2E2F0" height="46.5938" rx="2.5" ry="2.5" style="stroke:#181818;stroke-width:0.5;" width="80.4111" x="463.4321" y="73.2969"/><text fill="#000000" font-family="sans-serif" font-size="14" lengthAdjust="spacing" textLength="66.4111" x="470.4321" y="93.292">PM Agent</text><text fill="#000000" font-family="sans-serif" font-size="14" lengthAdjust="spacing" textLength="58.2354" x="474.52" y="109.5889">APP-007</text></g><g class="participant participant-tail" data-participant="APP_007"><rect fill="#E2E2F0" height="46.5938" rx="2.5" ry="2.5" style="stroke:#181818;stroke-width:0.5;" width="80.4111" x="463.4321" y="691.3516"/><text fill="#000000" font-family="sans-serif" font-size="14" lengthAdjust="spacing" textLength="66.4111" x="470.4321" y="711.3467">PM Agent</text><text fill="#000000" font-family="sans-serif" font-size="14" lengthAdjust="spacing" textLength="58.2354" x="474.52" y="727.6436">APP-007</text></g><g class="participant participant-head" data-participant="APP_008"><rect fill="#E2E2F0" height="46.5938" rx="2.5" ry="2.5" style="stroke:#181818;stroke-width:0.5;" width="127.0049" x="751.811" y="73.2969"/><text fill="#000000" font-family="sans-serif" font-size="14" lengthAdjust="spacing" textLength="113.0049" x="758.811" y="93.292">Specialist Agent</text><text fill="#000000" font-family="sans-serif" font-size="14" lengthAdjust="spacing" textLength="58.2354" x="786.1958" y="109.5889">APP-008</text></g><g class="participant participant-tail" data-participant="APP_008"><rect fill="#E2E2F0" height="46.5938" rx="2.5" ry="2.5" style="stroke:#181818;stroke-width:0.5;" width="127.0049" x="751.811" y="691.3516"/><text fill="#000000" font-family="sans-serif" font-size="14" lengthAdjust="spacing" textLength="113.0049" x="758.811" y="711.3467">Specialist Agent</text><text fill="#000000" font-family="sans-serif" font-size="14" lengthAdjust="spacing" textLength="58.2354" x="786.1958" y="727.6436">APP-008</text></g><g class="participant participant-head" data-participant="APP_015"><rect fill="#E2E2F0" height="46.5938" rx="2.5" ry="2.5" style="stroke:#181818;stroke-width:0.5;" width="99.3467" x="888.8159" y="73.2969"/><text fill="#000000" font-family="sans-serif" font-size="14" lengthAdjust="spacing" textLength="85.3467" x="895.8159" y="93.292">CSCO Agent</text><text fill="#000000" font-family="sans-serif" font-size="14" lengthAdjust="spacing" textLength="58.2354" x="909.3716" y="109.5889">APP-015</text></g><g class="participant participant-tail" data-participant="APP_015"><rect fill="#E2E2F0" height="46.5938" rx="2.5" ry="2.5" style="stroke:#181818;stroke-width:0.5;" width="99.3467" x="888.8159" y="691.3516"/><text fill="#000000" font-family="sans-serif" font-size="14" lengthAdjust="spacing" textLength="85.3467" x="895.8159" y="711.3467">CSCO Agent</text><text fill="#000000" font-family="sans-serif" font-size="14" lengthAdjust="spacing" textLength="58.2354" x="909.3716" y="727.6436">APP-015</text></g><g class="participant participant-head" data-participant="APP_017"><rect fill="#E2E2F0" height="46.5938" rx="2.5" ry="2.5" style="stroke:#181818;stroke-width:0.5;" width="156.7139" x="998.1626" y="73.2969"/><text fill="#000000" font-family="sans-serif" font-size="14" lengthAdjust="spacing" textLength="142.7139" x="1005.1626" y="93.292">EngagementSession</text><text fill="#000000" font-family="sans-serif" font-size="14" lengthAdjust="spacing" textLength="58.2354" x="1047.4019" y="109.5889">APP-017</text></g><g class="participant participant-tail" data-participant="APP_017"><rect fill="#E2E2F0" height="46.5938" rx="2.5" ry="2.5" style="stroke:#181818;stroke-width:0.5;" width="156.7139" x="998.1626" y="691.3516"/><text fill="#000000" font-family="sans-serif" font-size="14" lengthAdjust="spacing" textLength="142.7139" x="1005.1626" y="711.3467">EngagementSession</text><text fill="#000000" font-family="sans-serif" font-size="14" lengthAdjust="spacing" textLength="58.2354" x="1047.4019" y="727.6436">APP-017</text></g><g class="participant participant-head" data-participant="APP_001"><text fill="#000000" font-family="sans-serif" font-size="14" lengthAdjust="spacing" textLength="77.417" x="1503.6992" y="101.292">EventStore</text><text fill="#000000" font-family="sans-serif" font-size="14" lengthAdjust="spacing" textLength="58.2354" x="1513.29" y="117.5889">APP-001</text><path d="M1527.4077,52.2969 C1527.4077,42.2969 1545.4077,42.2969 1545.4077,42.2969 C1545.4077,42.2969 1563.4077,42.2969 1563.4077,52.2969 L1563.4077,78.2969 C1563.4077,88.2969 1545.4077,88.2969 1545.4077,88.2969 C1545.4077,88.2969 1527.4077,88.2969 1527.4077,78.2969 L1527.4077,52.2969" fill="#E2E2F0" style="stroke:#181818;stroke-width:1.5;"/><path d="M1527.4077,52.2969 C1527.4077,62.2969 1545.4077,62.2969 1545.4077,62.2969 C1545.4077,62.2969 1563.4077,62.2969 1563.4077,52.2969" fill="none" style="stroke:#181818;stroke-width:1.5;"/></g><g class="participant participant-tail" data-participant="APP_001"><text fill="#000000" font-family="sans-serif" font-size="14" lengthAdjust="spacing" textLength="77.417" x="1503.6992" y="704.3467">EventStore</text><text fill="#000000" font-family="sans-serif" font-size="14" lengthAdjust="spacing" textLength="58.2354" x="1513.29" y="720.6436">APP-001</text><path d="M1527.4077,733.9453 C1527.4077,723.9453 1545.4077,723.9453 1545.4077,723.9453 C1545.4077,723.9453 1563.4077,723.9453 1563.4077,733.9453 L1563.4077,759.9453 C1563.4077,769.9453 1545.4077,769.9453 1545.4077,769.9453 C1545.4077,769.9453 1527.4077,769.9453 1527.4077,759.9453 L1527.4077,733.9453" fill="#E2E2F0" style="stroke:#181818;stroke-width:1.5;"/><path d="M1527.4077,733.9453 C1527.4077,743.9453 1545.4077,743.9453 1545.4077,743.9453 C1545.4077,743.9453 1563.4077,743.9453 1563.4077,733.9453" fill="none" style="stroke:#181818;stroke-width:1.5;"/></g><g class="message" data-participant-1="APP_016" data-participant-2="APP_007"><polygon fill="#181818" points="491.6377,148.0234,501.6377,152.0234,491.6377,156.0234,495.6377,152.0234" style="stroke:#181818;stroke-width:1;"/><line style="stroke:#181818;stroke-width:1;" x1="112.21" x2="497.6377" y1="152.0234" y2="152.0234"/><text fill="#000000" font-family="sans-serif" font-size="13" lengthAdjust="spacing" textLength="367.4277" x="119.21" y="146.9575">evaluate_gate_readiness(gate_id, phase_id, context_ref)</text></g><path d="M10,167.0234 L86.624,167.0234 L86.624,174.1563 L76.624,184.1563 L10,184.1563 L10,167.0234" fill="#EEEEEE" style="stroke:#000000;stroke-width:1.5;"/><rect fill="none" height="104.5313" style="stroke:#000000;stroke-width:1.5;" width="988.1626" x="10" y="167.0234"/><text fill="#000000" font-family="sans-serif" font-size="13" font-weight="bold" lengthAdjust="spacing" textLength="31.624" x="25" y="180.0903">loop</text><text fill="#000000" font-family="sans-serif" font-size="11" font-weight="bold" lengthAdjust="spacing" textLength="212.3945" x="101.624" y="179.2339">[for each required reviewer input]</text><g class="message" data-participant-1="APP_007" data-participant-2="APP_008"><polygon fill="#181818" points="803.3135,201.2891,813.3135,205.2891,803.3135,209.2891,807.3135,205.2891" style="stroke:#181818;stroke-width:1;"/><line style="stroke:#181818;stroke-width:1;" x1="503.6377" x2="809.3135" y1="205.2891" y2="205.2891"/><text fill="#000000" font-family="sans-serif" font-size="13" lengthAdjust="spacing" textLength="287.6758" x="510.6377" y="200.2231">provide_reviewer_recommendation(gate_id)</text></g><g class="message" data-participant-1="APP_016" data-participant-2="APP_015"><polygon fill="#181818" points="926.4893,230.4219,936.4893,234.4219,926.4893,238.4219,930.4893,234.4219" style="stroke:#181818;stroke-width:1;"/><line style="stroke:#181818;stroke-width:1;" x1="112.21" x2="932.4893" y1="234.4219" y2="234.4219"/><text fill="#000000" font-family="sans-serif" font-size="13" lengthAdjust="spacing" textLength="271.2798" x="119.21" y="229.356">request_safety_vote(gate_id, context_ref)</text></g><g class="message" data-participant-1="APP_015" data-participant-2="APP_007"><polygon fill="#181818" points="514.6377,259.5547,504.6377,263.5547,514.6377,267.5547,510.6377,263.5547" style="stroke:#181818;stroke-width:1;"/><line style="stroke:#181818;stroke-width:1;stroke-dasharray:2.0,2.0;" x1="508.6377" x2="937.4893" y1="263.5547" y2="263.5547"/><text fill="#000000" font-family="sans-serif" font-size="13" lengthAdjust="spacing" textLength="227.0493" x="520.6377" y="258.4888">return_safety_vote(vote, rationale)</text></g><g class="message" data-participant-1="APP_007" data-participant-2="APP_001"><polygon fill="#181818" points="1533.4077,295.6875,1543.4077,299.6875,1533.4077,303.6875,1537.4077,299.6875" style="stroke:#181818;stroke-width:1;"/><line style="stroke:#181818;stroke-width:1;" x1="503.6377" x2="1539.4077" y1="299.6875" y2="299.6875"/><text fill="#000000" font-family="sans-serif" font-size="13" lengthAdjust="spacing" textLength="414.1084" x="510.6377" y="294.6216">append_event(event_type="gate.evaluated", gate_id, decision)</text></g><path d="M10,314.6875 L74.4429,314.6875 L74.4429,321.8203 L64.4429,331.8203 L10,331.8203 L10,314.6875" fill="#EEEEEE" style="stroke:#000000;stroke-width:1.5;"/><rect fill="none" height="265" style="stroke:#000000;stroke-width:1.5;" width="1587.1162" x="10" y="314.6875"/><text fill="#000000" font-family="sans-serif" font-size="13" font-weight="bold" lengthAdjust="spacing" textLength="19.4429" x="25" y="327.7544">alt</text><text fill="#000000" font-family="sans-serif" font-size="11" font-weight="bold" lengthAdjust="spacing" textLength="236.688" x="89.4429" y="326.8979">[gate passed with CSCO vote present]</text><g class="message" data-participant-1="APP_016" data-participant-2="APP_001"><polygon fill="#181818" points="1533.4077,348.9531,1543.4077,352.9531,1533.4077,356.9531,1537.4077,352.9531" style="stroke:#181818;stroke-width:1;"/><line style="stroke:#181818;stroke-width:1;" x1="112.21" x2="1539.4077" y1="352.9531" y2="352.9531"/><text fill="#000000" font-family="sans-serif" font-size="13" lengthAdjust="spacing" textLength="460.9414" x="119.21" y="347.8872">append_event(event_type="phase.transitioned", gate_id, to_phase_id)</text></g><g class="message" data-participant-1="APP_016" data-participant-2="APP_001"><polygon fill="#181818" points="1533.4077,378.0859,1543.4077,382.0859,1533.4077,386.0859,1537.4077,382.0859" style="stroke:#181818;stroke-width:1;"/><line style="stroke:#181818;stroke-width:1;" x1="112.21" x2="1539.4077" y1="382.0859" y2="382.0859"/><text fill="#000000" font-family="sans-serif" font-size="13" lengthAdjust="spacing" textLength="282.5088" x="119.21" y="377.02">create_snapshot(trigger="gate.evaluated")</text></g><g class="message" data-participant-1="APP_016" data-participant-2="APP_017"><polygon fill="#181818" points="1064.5195,407.2188,1074.5195,411.2188,1064.5195,415.2188,1068.5195,411.2188" style="stroke:#181818;stroke-width:1;"/><line style="stroke:#181818;stroke-width:1;" x1="112.21" x2="1070.5195" y1="411.2188" y2="411.2188"/><text fill="#000000" font-family="sans-serif" font-size="13" lengthAdjust="spacing" textLength="260.2412" x="119.21" y="406.1528">start_next_phase_iteration(to_phase_id)</text></g><g class="message" data-participant-1="APP_017" data-participant-2="APP_001"><polygon fill="#181818" points="1533.4077,436.3516,1543.4077,440.3516,1533.4077,444.3516,1537.4077,440.3516" style="stroke:#181818;stroke-width:1;"/><line style="stroke:#181818;stroke-width:1;" x1="1076.5195" x2="1539.4077" y1="440.3516" y2="440.3516"/><text fill="#000000" font-family="sans-serif" font-size="13" lengthAdjust="spacing" textLength="444.8882" x="1083.5195" y="435.2856">append_event(event_type="sprint.started", sprint_id) [if new sprint]</text></g><line style="stroke:#000000;stroke-width:1;stroke-dasharray:2.0,2.0;" x1="10" x2="1597.1162" y1="449.3516" y2="449.3516"/><text fill="#000000" font-family="sans-serif" font-size="11" font-weight="bold" lengthAdjust="spacing" textLength="324.3496" x="15" y="459.562">[CSCO vote missing/timeout or gate failed/deferred]</text><g class="message" data-participant-1="APP_016" data-participant-2="APP_001"><polygon fill="#181818" points="1533.4077,480.2891,1543.4077,484.2891,1533.4077,488.2891,1537.4077,484.2891" style="stroke:#181818;stroke-width:1;"/><line style="stroke:#181818;stroke-width:1;" x1="112.21" x2="1539.4077" y1="484.2891" y2="484.2891"/><text fill="#000000" font-family="sans-serif" font-size="13" lengthAdjust="spacing" textLength="622.248" x="119.21" y="479.2231">append_event(event_type="algedonic.escalated", reason="gate-safety-vote-timeout", gate_id)</text></g><g class="message" data-participant-1="APP_016" data-participant-2="APP_001"><polygon fill="#181818" points="1533.4077,509.4219,1543.4077,513.4219,1533.4077,517.4219,1537.4077,513.4219" style="stroke:#181818;stroke-width:1;"/><line style="stroke:#181818;stroke-width:1;" x1="112.21" x2="1539.4077" y1="513.4219" y2="513.4219"/><text fill="#000000" font-family="sans-serif" font-size="13" lengthAdjust="spacing" textLength="559.2349" x="119.21" y="508.356">append_event(event_type="decision.recorded", decision="rework-required", gate_id)</text></g><g class="message" data-participant-1="APP_016" data-participant-2="APP_008"><polygon fill="#181818" points="803.3135,538.5547,813.3135,542.5547,803.3135,546.5547,807.3135,542.5547" style="stroke:#181818;stroke-width:1;"/><line style="stroke:#181818;stroke-width:1;" x1="112.21" x2="809.3135" y1="542.5547" y2="542.5547"/><text fill="#000000" font-family="sans-serif" font-size="13" lengthAdjust="spacing" textLength="401.5464" x="119.21" y="537.4888">dispatch_rework_package(target_specialist_id, rework_scope)</text></g><g class="message" data-participant-1="APP_016" data-participant-2="APP_017"><polygon fill="#181818" points="1064.5195,567.6875,1074.5195,571.6875,1064.5195,575.6875,1068.5195,571.6875" style="stroke:#181818;stroke-width:1;"/><line style="stroke:#181818;stroke-width:1;" x1="112.21" x2="1070.5195" y1="571.6875" y2="571.6875"/><text fill="#000000" font-family="sans-serif" font-size="13" lengthAdjust="spacing" textLength="317.5605" x="119.21" y="566.6216">retain_current_phase_and_track_rework(gate_id)</text></g><path d="M508,591.6875 L508,676.6875 L960,676.6875 L960,601.6875 L950,591.6875 L508,591.6875" fill="#FEFFDD" style="stroke:#181818;stroke-width:0.5;"/><path d="M950,591.6875 L950,601.6875 L960,601.6875 L950,591.6875" fill="#FEFFDD" style="stroke:#181818;stroke-width:0.5;"/><text fill="#000000" font-family="sans-serif" font-size="13" lengthAdjust="spacing" textLength="263.0913" x="514" y="608.7544">Mapped to BPR-004 gate evaluation and</text><text fill="#000000" font-family="sans-serif" font-size="13" lengthAdjust="spacing" textLength="216.7217" x="514" y="623.8872">PM tool contract evaluate_gate().</text><text fill="#000000" font-family="sans-serif" font-size="13" lengthAdjust="spacing" textLength="316.3228" x="514" y="639.02">Reviewer roster is phase/gate-policy dependent;</text><text fill="#000000" font-family="sans-serif" font-size="13" lengthAdjust="spacing" textLength="327.0186" x="514" y="654.1528">CSCO is mandatory for safety/governance checks.</text><text fill="#000000" font-family="sans-serif" font-size="13" lengthAdjust="spacing" textLength="431.3613" x="514" y="669.2856">Safety default is fail-closed when CSCO safety vote is unavailable.</text><!--SRC=[bLN1Rjim3BtxAuIS4g1n6c1PYmmTq7L5BoiQDCTjC5YPjeKuaYRHoVBtesIxYT5sMo-6B9DyvECZJOfg57T0A6vtK3T0ocZn5QNouR02giJusjfQoVRJOwD9RN6I91OSAQaiQ1AZRw3BEmUs4WzELkZ90HdtGr-lLjFp-SUH02_udF5vwBYw5zSbQkfCpo-EfkSNGzErvRIWLfw6BfSdBfT3bvlrpSF0UBuuIMKnDBxL9PIuPUCr-b1-xtEIq_mYoO7W2JoomoxOSftOfp8_IMMU95t5OlgvhsWfiAKPip8y74AkDCEDuwlApuIjE7WyIQC9VnCR5PEaDiQAmZY182lXy5UZ7EPys2dSenDAsuOIqGCTCI-NmZgpKtb0Qutv8CsMAyrZKtliIUz-al9yiOnWtDBCGu5qo7Q6y9Zk8CdUVo6cfpKxfCRfWNzud0aNyQ5cFN4ooOlSvqi1rlAd30FNu_ZCw63nQXGoI7isyz6PU4ufx-JB8eMQuhsmu3tJjLSiwAYAa00JWvuZlbBtNw5ZYrBMkFOg53249vFrFPoy4LbotzdQQx2-CZGcfyeItOkYNkq84-g9XPlfm7i7HTXoENuL_JyfzTOfJMcC7cjgBq8eyLqLGkE-k_gPOCqZS6HogtXaT3aBoy4q95YeaVS2L8tvBCS27UlrlKn3NM9kj98fUWbrrsbcpnlTiZLjLJKDMKmxz6Ct9ky5xBMJXX5nUOJhxwv63lV6RQRzzFq3XoSlLzu2oIfhFJCBSiDBPimCbyWJzRpIed8w8o-DnRTQpxC4IcUoOJfrttxWMbYESjFX72SwZ5MYGuTOOXNtfNXUhlU1X9pbAhwi7dbvVMWxXiV_08TDU46JCNMSSqQWuG8RJzBaiLz1pdWAcyYtEsmMssCD_piEp64Wd3F-b4JHiD4MmlunxX3NMjl6MMbsw3HeYOB_8tBZqsGTlt240XeUP_OCefhAsiI9hb2tEcmZj79aeqR3ZktWgSOqq2022ty0]--></g></svg>