<svg xmlns="http://www.w3.org/2000/svg" xmlns:xlink="http://www.w3.org/1999/xlink" contentStyleType="text/css" data-diagram-type="SEQUENCE" height="718px" preserveAspectRatio="none" style="width:1168px;height:718px;background:#FFFFFF;" version="1.1" viewBox="0 0 1168 718" width="1168px" zoomAndPan="magnify"><title>Specialist Invocation Cycle (Application Runtime)</title><defs/><g><text fill="#000000" font-family="sans-serif" font-size="14" font-weight="bold" lengthAdjust="spacing" textLength="389.3818" x="390.8296" y="27.9951">Specialist Invocation Cycle (Application Runtime)</text><rect fill="none" height="96.5313" style="stroke:#000000;stroke-width:1.5;" width="455.041" x="707" y="312.6875"/><rect fill="none" height="46.2656" style="stroke:#000000;stroke-width:1.5;" width="1152.041" x="10" y="510.6172"/><g><title>LangGraph Orchestrator</title><rect fill="#000000" fill-opacity="0.00000" height="503.2578" width="8" x="108.21" y="120.8906"/><line style="stroke:#181818;stroke-width:0.5;stroke-dasharray:5.0,5.0;" x1="112" x2="112" y1="120.8906" y2="624.1484"/></g><g><title>PM Agent</title><rect fill="#000000" fill-opacity="0.00000" height="503.2578" width="8" x="346.1323" y="120.8906"/><line style="stroke:#181818;stroke-width:0.5;stroke-dasharray:5.0,5.0;" x1="349.9268" x2="349.9268" y1="120.8906" y2="624.1484"/></g><g><title>SkillLoader</title><rect fill="#000000" fill-opacity="0.00000" height="503.2578" width="8" x="534.1875" y="120.8906"/><line style="stroke:#181818;stroke-width:0.5;stroke-dasharray:5.0,5.0;" x1="537.7559" x2="537.7559" y1="120.8906" y2="624.1484"/></g><g><title>AgentRegistry</title><rect fill="#000000" fill-opacity="0.00000" height="503.2578" width="8" x="646.3096" y="120.8906"/><line style="stroke:#181818;stroke-width:0.5;stroke-dasharray:5.0,5.0;" x1="649.6191" x2="649.6191" y1="120.8906" y2="624.1484"/></g><g><title>Specialist Agent</title><rect fill="#000000" fill-opacity="0.00000" height="503.2578" width="8" x="776.5024" y="120.8906"/><line style="stroke:#181818;stroke-width:0.5;stroke-dasharray:5.0,5.0;" x1="780" x2="780" y1="120.8906" y2="624.1484"/></g><g><title>EventStore</title><rect fill="#000000" fill-opacity="0.00000" height="503.2578" width="8" x="1106.3325" y="120.8906"/><line style="stroke:#181818;stroke-width:0.5;stroke-dasharray:5.0,5.0;" x1="1109.624" x2="1109.624" y1="120.8906" y2="624.1484"/></g><g class="participant participant-head" data-participant="APP_016"><rect fill="#E2E2F0" height="46.5938" rx="2.5" ry="2.5" style="stroke:#181818;stroke-width:0.5;" width="184.4199" x="20" y="73.2969"/><text fill="#000000" font-family="sans-serif" font-size="14" lengthAdjust="spacing" textLength="170.4199" x="27" y="93.292">LangGraph Orchestrator</text><text fill="#000000" font-family="sans-serif" font-size="14" lengthAdjust="spacing" textLength="58.2354" x="83.0923" y="109.5889">APP-016</text></g><g class="participant participant-tail" data-participant="APP_016"><rect fill="#E2E2F0" height="46.5938" rx="2.5" ry="2.5" style="stroke:#181818;stroke-width:0.5;" width="184.4199" x="20" y="623.1484"/><text fill="#000000" font-family="sans-serif" font-size="14" lengthAdjust="spacing" textLength="170.4199" x="27" y="643.1436">LangGraph Orchestrator</text><text fill="#000000" font-family="sans-serif" font-size="14" lengthAdjust="spacing" textLength="58.2354" x="83.0923" y="659.4404">APP-016</text></g><g class="participant participant-head" data-participant="APP_007"><rect fill="#E2E2F0" height="46.5938" rx="2.5" ry="2.5" style="stroke:#181818;stroke-width:0.5;" width="80.4111" x="309.9268" y="73.2969"/><text fill="#000000" font-family="sans-serif" font-size="14" lengthAdjust="spacing" textLength="66.4111" x="316.9268" y="93.292">PM Agent</text><text fill="#000000" font-family="sans-serif" font-size="14" lengthAdjust="spacing" textLength="58.2354" x="321.0146" y="109.5889">APP-007</text></g><g class="participant participant-tail" data-participant="APP_007"><rect fill="#E2E2F0" height="46.5938" rx="2.5" ry="2.5" style="stroke:#181818;stroke-width:0.5;" width="80.4111" x="309.9268" y="623.1484"/><text fill="#000000" font-family="sans-serif" font-size="14" lengthAdjust="spacing" textLength="66.4111" x="316.9268" y="643.1436">PM Agent</text><text fill="#000000" font-family="sans-serif" font-size="14" lengthAdjust="spacing" textLength="58.2354" x="321.0146" y="659.4404">APP-007</text></g><g class="participant participant-head" data-participant="APP_004"><rect fill="#E2E2F0" height="46.5938" rx="2.5" ry="2.5" style="stroke:#181818;stroke-width:0.5;" width="90.8633" x="492.7559" y="73.2969"/><text fill="#000000" font-family="sans-serif" font-size="14" lengthAdjust="spacing" textLength="76.8633" x="499.7559" y="93.292">SkillLoader</text><text fill="#000000" font-family="sans-serif" font-size="14" lengthAdjust="spacing" textLength="58.2354" x="509.0698" y="109.5889">APP-004</text></g><g class="participant participant-tail" data-participant="APP_004"><rect fill="#E2E2F0" height="46.5938" rx="2.5" ry="2.5" style="stroke:#181818;stroke-width:0.5;" width="90.8633" x="492.7559" y="623.1484"/><text fill="#000000" font-family="sans-serif" font-size="14" lengthAdjust="spacing" textLength="76.8633" x="499.7559" y="643.1436">SkillLoader</text><text fill="#000000" font-family="sans-serif" font-size="14" lengthAdjust="spacing" textLength="58.2354" x="509.0698" y="659.4404">APP-004</text></g><g class="participant participant-head" data-participant="APP_006"><rect fill="#E2E2F0" height="46.5938" rx="2.5" ry="2.5" style="stroke:#181818;stroke-width:0.5;" width="113.3809" x="593.6191" y="73.2969"/><text fill="#000000" font-family="sans-serif" font-size="14" lengthAdjust="spacing" textLength="99.3809" x="600.6191" y="93.292">AgentRegistry</text><text fill="#000000" font-family="sans-serif" font-size="14" lengthAdjust="spacing" textLength="58.2354" x="621.1919" y="109.5889">APP-006</text></g><g class="participant participant-tail" data-participant="APP_006"><rect fill="#E2E2F0" height="46.5938" rx="2.5" ry="2.5" style="stroke:#181818;stroke-width:0.5;" width="113.3809" x="593.6191" y="623.1484"/><text fill="#000000" font-family="sans-serif" font-size="14" lengthAdjust="spacing" textLength="99.3809" x="600.6191" y="643.1436">AgentRegistry</text><text fill="#000000" font-family="sans-serif" font-size="14" lengthAdjust="spacing" textLength="58.2354" x="621.1919" y="659.4404">APP-006</text></g><g class="participant participant-head" data-participant="APP_008"><rect fill="#E2E2F0" height="46.5938" rx="2.5" ry="2.5" style="stroke:#181818;stroke-width:0.5;" width="127.0049" x="717" y="73.2969"/><text fill="#000000" font-family="sans-serif" font-size="14" lengthAdjust="spacing" textLength="113.0049" x="724" y="93.292">Specialist Agent</text><text fill="#000000" font-family="sans-serif" font-size="14" lengthAdjust="spacing" textLength="58.2354" x="751.3848" y="109.5889">APP-008</text></g><g class="participant participant-tail" data-participant="APP_008"><rect fill="#E2E2F0" height="46.5938" rx="2.5" ry="2.5" style="stroke:#181818;stroke-width:0.5;" width="127.0049" x="717" y="623.1484"/><text fill="#000000" font-family="sans-serif" font-size="14" lengthAdjust="spacing" textLength="113.0049" x="724" y="643.1436">Specialist Agent</text><text fill="#000000" font-family="sans-serif" font-size="14" lengthAdjust="spacing" textLength="58.2354" x="751.3848" y="659.4404">APP-008</text></g><g class="participant participant-head" data-participant="APP_001"><text fill="#000000" font-family="sans-serif" font-size="14" lengthAdjust="spacing" textLength="77.417" x="1068.624" y="101.292">EventStore</text><text fill="#000000" font-family="sans-serif" font-size="14" lengthAdjust="spacing" textLength="58.2354" x="1078.2148" y="117.5889">APP-001</text><path d="M1092.3325,52.2969 C1092.3325,42.2969 1110.3325,42.2969 1110.3325,42.2969 C1110.3325,42.2969 1128.3325,42.2969 1128.3325,52.2969 L1128.3325,78.2969 C1128.3325,88.2969 1110.3325,88.2969 1110.3325,88.2969 C1110.3325,88.2969 1092.3325,88.2969 1092.3325,78.2969 L1092.3325,52.2969" fill="#E2E2F0" style="stroke:#181818;stroke-width:1.5;"/><path d="M1092.3325,52.2969 C1092.3325,62.2969 1110.3325,62.2969 1110.3325,62.2969 C1110.3325,62.2969 1128.3325,62.2969 1128.3325,52.2969" fill="none" style="stroke:#181818;stroke-width:1.5;"/></g><g class="participant participant-tail" data-participant="APP_001"><text fill="#000000" font-family="sans-serif" font-size="14" lengthAdjust="spacing" textLength="77.417" x="1068.624" y="636.1436">EventStore</text><text fill="#000000" font-family="sans-serif" font-size="14" lengthAdjust="spacing" textLength="58.2354" x="1078.2148" y="652.4404">APP-001</text><path d="M1092.3325,665.7422 C1092.3325,655.7422 1110.3325,655.7422 1110.3325,655.7422 C1110.3325,655.7422 1128.3325,655.7422 1128.3325,665.7422 L1128.3325,691.7422 C1128.3325,701.7422 1110.3325,701.7422 1110.3325,701.7422 C1110.3325,701.7422 1092.3325,701.7422 1092.3325,691.7422 L1092.3325,665.7422" fill="#E2E2F0" style="stroke:#181818;stroke-width:1.5;"/><path d="M1092.3325,665.7422 C1092.3325,675.7422 1110.3325,675.7422 1110.3325,675.7422 C1110.3325,675.7422 1128.3325,675.7422 1128.3325,665.7422" fill="none" style="stroke:#181818;stroke-width:1.5;"/></g><g class="message" data-participant-1="APP_016" data-participant-2="APP_007"><polygon fill="#181818" points="338.1323,148.0234,348.1323,152.0234,338.1323,156.0234,342.1323,152.0234" style="stroke:#181818;stroke-width:1;"/><line style="stroke:#181818;stroke-width:1;" x1="112.21" x2="344.1323" y1="152.0234" y2="152.0234"/><text fill="#000000" font-family="sans-serif" font-size="13" lengthAdjust="spacing" textLength="213.9224" x="119.21" y="146.9575">request PMDecision(next_action)</text></g><g class="message" data-participant-1="APP_007" data-participant-2="APP_004"><polygon fill="#181818" points="526.1875,177.1563,536.1875,181.1563,526.1875,185.1563,530.1875,181.1563" style="stroke:#181818;stroke-width:1;"/><line style="stroke:#181818;stroke-width:1;" x1="350.1323" x2="532.1875" y1="181.1563" y2="181.1563"/><text fill="#000000" font-family="sans-serif" font-size="13" lengthAdjust="spacing" textLength="164.0552" x="357.1323" y="176.0903">load_instructions(skill_id)</text></g><g class="message" data-participant-1="APP_007" data-participant-2="APP_006"><polygon fill="#181818" points="638.3096,206.2891,648.3096,210.2891,638.3096,214.2891,642.3096,210.2891" style="stroke:#181818;stroke-width:1;"/><line style="stroke:#181818;stroke-width:1;" x1="350.1323" x2="644.3096" y1="210.2891" y2="210.2891"/><text fill="#000000" font-family="sans-serif" font-size="13" lengthAdjust="spacing" textLength="237.6118" x="357.1323" y="205.2231">resolve specialist instance(agent_id)</text></g><g class="message" data-participant-1="APP_007" data-participant-2="APP_001"><polygon fill="#181818" points="1098.3325,235.4219,1108.3325,239.4219,1098.3325,243.4219,1102.3325,239.4219" style="stroke:#181818;stroke-width:1;"/><line style="stroke:#181818;stroke-width:1;" x1="350.1323" x2="1104.3325" y1="239.4219" y2="239.4219"/><text fill="#000000" font-family="sans-serif" font-size="13" lengthAdjust="spacing" textLength="211.9609" x="357.1323" y="234.356">record_event(specialist.invoked)</text></g><g class="message" data-participant-1="APP_016" data-participant-2="APP_008"><polygon fill="#181818" points="768.5024,264.5547,778.5024,268.5547,768.5024,272.5547,772.5024,268.5547" style="stroke:#181818;stroke-width:1;"/><line style="stroke:#181818;stroke-width:1;" x1="112.21" x2="774.5024" y1="268.5547" y2="268.5547"/><text fill="#000000" font-family="sans-serif" font-size="13" lengthAdjust="spacing" textLength="236.812" x="119.21" y="263.4888">invoke specialist(skill_id, task, deps)</text></g><g class="message" data-participant-1="APP_008" data-participant-2="APP_001"><polygon fill="#181818" points="1098.3325,293.6875,1108.3325,297.6875,1098.3325,301.6875,1102.3325,297.6875" style="stroke:#181818;stroke-width:1;"/><line style="stroke:#181818;stroke-width:1;" x1="780.5024" x2="1104.3325" y1="297.6875" y2="297.6875"/><text fill="#000000" font-family="sans-serif" font-size="13" lengthAdjust="spacing" textLength="305.8301" x="787.5024" y="292.6216">record_event(artifact.created|artifact.updated)</text></g><path d="M707,312.6875 L776.4512,312.6875 L776.4512,319.8203 L766.4512,329.8203 L707,329.8203 L707,312.6875" fill="#EEEEEE" style="stroke:#000000;stroke-width:1.5;"/><rect fill="none" height="96.5313" style="stroke:#000000;stroke-width:1.5;" width="455.041" x="707" y="312.6875"/><text fill="#000000" font-family="sans-serif" font-size="13" font-weight="bold" lengthAdjust="spacing" textLength="24.4512" x="722" y="325.7544">opt</text><text fill="#000000" font-family="sans-serif" font-size="11" font-weight="bold" lengthAdjust="spacing" textLength="187.6553" x="791.4512" y="324.8979">[specialist needs clarification]</text><g class="message" data-participant-1="APP_008" data-participant-2="APP_001"><polygon fill="#181818" points="1098.3325,346.9531,1108.3325,350.9531,1098.3325,354.9531,1102.3325,350.9531" style="stroke:#181818;stroke-width:1;"/><line style="stroke:#181818;stroke-width:1;" x1="780.5024" x2="1104.3325" y1="350.9531" y2="350.9531"/><text fill="#000000" font-family="sans-serif" font-size="13" lengthAdjust="spacing" textLength="155.1875" x="787.5024" y="345.8872">record_event(cq.raised)</text></g><path d="M785,363.9531 L785,403.9531 L1136,403.9531 L1136,373.9531 L1126,363.9531 L785,363.9531" fill="#FEFFDD" style="stroke:#181818;stroke-width:0.5;"/><path d="M1126,363.9531 L1126,373.9531 L1136,373.9531 L1126,363.9531" fill="#FEFFDD" style="stroke:#181818;stroke-width:0.5;"/><text fill="#000000" font-family="sans-serif" font-size="13" lengthAdjust="spacing" textLength="292.189" x="791" y="381.02">CQ routing/resume path is abbreviated here.</text><text fill="#000000" font-family="sans-serif" font-size="13" lengthAdjust="spacing" textLength="330.9033" x="791" y="396.1528">Full flow: runtime-sequence-cq-routing-resume-v1.</text><g class="message" data-participant-1="APP_008" data-participant-2="APP_016"><polygon fill="#181818" points="123.21,433.3516,113.21,437.3516,123.21,441.3516,119.21,437.3516" style="stroke:#181818;stroke-width:1;"/><line style="stroke:#181818;stroke-width:1;stroke-dasharray:2.0,2.0;" x1="117.21" x2="779.5024" y1="437.3516" y2="437.3516"/><text fill="#000000" font-family="sans-serif" font-size="13" lengthAdjust="spacing" textLength="107.853" x="129.21" y="432.2856">specialist output</text></g><g class="message" data-participant-1="APP_016" data-participant-2="APP_001"><polygon fill="#181818" points="1098.3325,462.4844,1108.3325,466.4844,1098.3325,470.4844,1102.3325,466.4844" style="stroke:#181818;stroke-width:1;"/><line style="stroke:#181818;stroke-width:1;" x1="112.21" x2="1104.3325" y1="466.4844" y2="466.4844"/><text fill="#000000" font-family="sans-serif" font-size="13" lengthAdjust="spacing" textLength="229.6582" x="119.21" y="461.4185">record_event(specialist.completed)</text></g><g class="message" data-participant-1="APP_016" data-participant-2="APP_001"><polygon fill="#181818" points="1098.3325,491.6172,1108.3325,495.6172,1098.3325,499.6172,1102.3325,495.6172" style="stroke:#181818;stroke-width:1;"/><line style="stroke:#181818;stroke-width:1;" x1="112.21" x2="1104.3325" y1="495.6172" y2="495.6172"/><text fill="#000000" font-family="sans-serif" font-size="13" lengthAdjust="spacing" textLength="170.0601" x="119.21" y="490.5513">check_snapshot_interval()</text></g><path d="M10,510.6172 L74.4429,510.6172 L74.4429,517.75 L64.4429,527.75 L10,527.75 L10,510.6172" fill="#EEEEEE" style="stroke:#000000;stroke-width:1.5;"/><rect fill="none" height="46.2656" style="stroke:#000000;stroke-width:1.5;" width="1152.041" x="10" y="510.6172"/><text fill="#000000" font-family="sans-serif" font-size="13" font-weight="bold" lengthAdjust="spacing" textLength="19.4429" x="25" y="523.6841">alt</text><text fill="#000000" font-family="sans-serif" font-size="11" font-weight="bold" lengthAdjust="spacing" textLength="177.5146" x="89.4429" y="522.8276">[periodic threshold reached]</text><g class="message" data-participant-1="APP_016" data-participant-2="APP_001"><polygon fill="#181818" points="1098.3325,544.8828,1108.3325,548.8828,1098.3325,552.8828,1102.3325,548.8828" style="stroke:#181818;stroke-width:1;"/><line style="stroke:#181818;stroke-width:1;" x1="112.21" x2="1104.3325" y1="548.8828" y2="548.8828"/><text fill="#000000" font-family="sans-serif" font-size="13" lengthAdjust="spacing" textLength="181.6191" x="119.21" y="543.8169">create_snapshot("periodic")</text></g><path d="M117,568.8828 L117,608.8828 L395,608.8828 L395,578.8828 L385,568.8828 L117,568.8828" fill="#FEFFDD" style="stroke:#181818;stroke-width:0.5;"/><path d="M385,568.8828 L385,578.8828 L395,578.8828 L385,568.8828" fill="#FEFFDD" style="stroke:#181818;stroke-width:0.5;"/><text fill="#000000" font-family="sans-serif" font-size="13" lengthAdjust="spacing" textLength="257.1943" x="123" y="585.9497">Mapped to BPR-002 execution lane and</text><text fill="#000000" font-family="sans-serif" font-size="13" lengthAdjust="spacing" textLength="171.7612" x="123" y="601.0825">Stage 5 emitter hierarchy.</text><!--SRC=[XLHTRnen47o_Nx7YwP1o5AeqGNcebAOVgXHK2g-LqCQtS1R6Tkmz6gJ- -AxX3ewKjc-MFJExCskRDHk2kIUbqUZ8yDLkdKBMpiB3JibPVk-zqStMhBQiDzJFCe-1jT8UBKFl4UtgIq1VmRUWAeeSa5tuOU-dqs8ukka1Hf3rGjRdnEa4xbTakO4ERq_GuUqvTBxMnZmwBAaL7bvtqDVdwBtgZ5PYAUnQVAUHuQj6EWcSDJJkKCPPYOnF60bwdxO2cej9Qf6Z3dAKPOrTADwtTkuWq7CjuS1qyb6gHGaqj_J22rGft7xM04-SwpimudYXhTYezwYOnnJ4GfSNy3UfHdHcIn1FXX8RhQ8SaxFBp55YAXVA1ILd-Oa-q78ZrjIIkfR6Tt0ux5GxjdS5Z75z1INvs6_o68x_NZ5DOob935GWP2f_7JTgNwQDVkOyTtrPeZA2CXZqihcW6S1_2wddGK0Tao20TKmGzAfYSClZd04UlaDmDMkxUYE9rXi2Zro1Ze1FJu6sEdK45GKQ2FfpRGmiZViffGulf8XfrX9wePwBHgauA1NRKUAGBVVLCrcSqccx7iaeErP5mDVyvmJ-CJRbDjuGNnoSqEIPglKYMlInSd8fB5FOeidx6He6Jq6xKYlWIfgkd2cb3WgdR1D-BRSVsb4lxxKAlVxUO7OXQFaC9kYzvCWEFandyeZU0hsGglT_ZK5BWCATirnSU0UqqInTGgKfeFmpkq7MXlWR]--></g></svg>