<svg xmlns="http://www.w3.org/2000/svg" xmlns:xlink="http://www.w3.org/1999/xlink" contentStyleType="text/css" data-diagram-type="SEQUENCE" height="697px" preserveAspectRatio="none" style="width:1344px;height:697px;background:#FFFFFF;" version="1.1" viewBox="0 0 1344 697" width="1344px" zoomAndPan="magnify"><title>Algedonic Escalation Fast-Path (Application Runtime)</title><defs/><g><text fill="#000000" font-family="sans-serif" font-size="14" font-weight="bold" lengthAdjust="spacing" textLength="422.9121" x="461.771" y="27.9951">Algedonic Escalation Fast-Path (Application Runtime)</text><rect fill="none" height="221.5391" style="stroke:#000000;stroke-width:1.5;" width="1327.4541" x="10" y="254.4219"/><g><title>Specialist Agent</title><rect fill="#000000" fill-opacity="0.00000" height="481.7344" width="8" x="79.5024" y="120.8906"/><line style="stroke:#181818;stroke-width:0.5;stroke-dasharray:5.0,5.0;" x1="83" x2="83" y1="120.8906" y2="602.625"/></g><g><title>LangGraph Orchestrator</title><rect fill="#000000" fill-opacity="0.00000" height="481.7344" width="8" x="365.356" y="120.8906"/><line style="stroke:#181818;stroke-width:0.5;stroke-dasharray:5.0,5.0;" x1="369.146" x2="369.146" y1="120.8906" y2="602.625"/></g><g><title>PM Agent</title><rect fill="#000000" fill-opacity="0.00000" height="481.7344" width="8" x="655.3862" y="120.8906"/><line style="stroke:#181818;stroke-width:0.5;stroke-dasharray:5.0,5.0;" x1="659.1807" x2="659.1807" y1="120.8906" y2="602.625"/></g><g><title>CSCO Agent</title><rect fill="#000000" fill-opacity="0.00000" height="481.7344" width="8" x="755.2651" y="120.8906"/><line style="stroke:#181818;stroke-width:0.5;stroke-dasharray:5.0,5.0;" x1="758.5918" x2="758.5918" y1="120.8906" y2="602.625"/></g><g><title>EventStore</title><rect fill="#000000" fill-opacity="0.00000" height="481.7344" width="8" x="1281.7456" y="120.8906"/><line style="stroke:#181818;stroke-width:0.5;stroke-dasharray:5.0,5.0;" x1="1285.0371" x2="1285.0371" y1="120.8906" y2="602.625"/></g><g class="participant participant-head" data-participant="APP_008"><rect fill="#E2E2F0" height="46.5938" rx="2.5" ry="2.5" style="stroke:#181818;stroke-width:0.5;" width="127.0049" x="20" y="73.2969"/><text fill="#000000" font-family="sans-serif" font-size="14" lengthAdjust="spacing" textLength="113.0049" x="27" y="93.292">Specialist Agent</text><text fill="#000000" font-family="sans-serif" font-size="14" lengthAdjust="spacing" textLength="58.2354" x="54.3848" y="109.5889">APP-008</text></g><g class="participant participant-tail" data-participant="APP_008"><rect fill="#E2E2F0" height="46.5938" rx="2.5" ry="2.5" style="stroke:#181818;stroke-width:0.5;" width="127.0049" x="20" y="601.625"/><text fill="#000000" font-family="sans-serif" font-size="14" lengthAdjust="spacing" textLength="113.0049" x="27" y="621.6201">Specialist Agent</text><text fill="#000000" font-family="sans-serif" font-size="14" lengthAdjust="spacing" textLength="58.2354" x="54.3848" y="637.917">APP-008</text></g><g class="participant participant-head" data-participant="APP_016"><rect fill="#E2E2F0" height="46.5938" rx="2.5" ry="2.5" style="stroke:#181818;stroke-width:0.5;" width="184.4199" x="277.146" y="73.2969"/><text fill="#000000" font-family="sans-serif" font-size="14" lengthAdjust="spacing" textLength="170.4199" x="284.146" y="93.292">LangGraph Orchestrator</text><text fill="#000000" font-family="sans-serif" font-size="14" lengthAdjust="spacing" textLength="58.2354" x="340.2383" y="109.5889">APP-016</text></g><g class="participant participant-tail" data-participant="APP_016"><rect fill="#E2E2F0" height="46.5938" rx="2.5" ry="2.5" style="stroke:#181818;stroke-width:0.5;" width="184.4199" x="277.146" y="601.625"/><text fill="#000000" font-family="sans-serif" font-size="14" lengthAdjust="spacing" textLength="170.4199" x="284.146" y="621.6201">LangGraph Orchestrator</text><text fill="#000000" font-family="sans-serif" font-size="14" lengthAdjust="spacing" textLength="58.2354" x="340.2383" y="637.917">APP-016</text></g><g class="participant participant-head" data-participant="APP_007"><rect fill="#E2E2F0" height="46.5938" rx="2.5" ry="2.5" style="stroke:#181818;stroke-width:0.5;" width="80.4111" x="619.1807" y="73.2969"/><text fill="#000000" font-family="sans-serif" font-size="14" lengthAdjust="spacing" textLength="66.4111" x="626.1807" y="93.292">PM Agent</text><text fill="#000000" font-family="sans-serif" font-size="14" lengthAdjust="spacing" textLength="58.2354" x="630.2686" y="109.5889">APP-007</text></g><g class="participant participant-tail" data-participant="APP_007"><rect fill="#E2E2F0" height="46.5938" rx="2.5" ry="2.5" style="stroke:#181818;stroke-width:0.5;" width="80.4111" x="619.1807" y="601.625"/><text fill="#000000" font-family="sans-serif" font-size="14" lengthAdjust="spacing" textLength="66.4111" x="626.1807" y="621.6201">PM Agent</text><text fill="#000000" font-family="sans-serif" font-size="14" lengthAdjust="spacing" textLength="58.2354" x="630.2686" y="637.917">APP-007</text></g><g class="participant participant-head" data-participant="APP_015"><rect fill="#E2E2F0" height="46.5938" rx="2.5" ry="2.5" style="stroke:#181818;stroke-width:0.5;" width="99.3467" x="709.5918" y="73.2969"/><text fill="#000000" font-family="sans-serif" font-size="14" lengthAdjust="spacing" textLength="85.3467" x="716.5918" y="93.292">CSCO Agent</text><text fill="#000000" font-family="sans-serif" font-size="14" lengthAdjust="spacing" textLength="58.2354" x="730.1475" y="109.5889">APP-015</text></g><g class="participant participant-tail" data-participant="APP_015"><rect fill="#E2E2F0" height="46.5938" rx="2.5" ry="2.5" style="stroke:#181818;stroke-width:0.5;" width="99.3467" x="709.5918" y="601.625"/><text fill="#000000" font-family="sans-serif" font-size="14" lengthAdjust="spacing" textLength="85.3467" x="716.5918" y="621.6201">CSCO Agent</text><text fill="#000000" font-family="sans-serif" font-size="14" lengthAdjust="spacing" textLength="58.2354" x="730.1475" y="637.917">APP-015</text></g><g class="participant participant-head" data-participant="APP_001"><text fill="#000000" font-family="sans-serif" font-size="14" lengthAdjust="spacing" textLength="77.417" x="1244.0371" y="101.292">EventStore</text><text fill="#000000" font-family="sans-serif" font-size="14" lengthAdjust="spacing" textLength="58.2354" x="1253.6279" y="117.5889">APP-001</text><path d="M1267.7456,52.2969 C1267.7456,42.2969 1285.7456,42.2969 1285.7456,42.2969 C1285.7456,42.2969 1303.7456,42.2969 1303.7456,52.2969 L1303.7456,78.2969 C1303.7456,88.2969 1285.7456,88.2969 1285.7456,88.2969 C1285.7456,88.2969 1267.7456,88.2969 1267.7456,78.2969 L1267.7456,52.2969" fill="#E2E2F0" style="stroke:#181818;stroke-width:1.5;"/><path d="M1267.7456,52.2969 C1267.7456,62.2969 1285.7456,62.2969 1285.7456,62.2969 C1285.7456,62.2969 1303.7456,62.2969 1303.7456,52.2969" fill="none" style="stroke:#181818;stroke-width:1.5;"/></g><g class="participant participant-tail" data-participant="APP_001"><text fill="#000000" font-family="sans-serif" font-size="14" lengthAdjust="spacing" textLength="77.417" x="1244.0371" y="614.6201">EventStore</text><text fill="#000000" font-family="sans-serif" font-size="14" lengthAdjust="spacing" textLength="58.2354" x="1253.6279" y="630.917">APP-001</text><path d="M1267.7456,644.2188 C1267.7456,634.2188 1285.7456,634.2188 1285.7456,634.2188 C1285.7456,634.2188 1303.7456,634.2188 1303.7456,644.2188 L1303.7456,670.2188 C1303.7456,680.2188 1285.7456,680.2188 1285.7456,680.2188 C1285.7456,680.2188 1267.7456,680.2188 1267.7456,670.2188 L1267.7456,644.2188" fill="#E2E2F0" style="stroke:#181818;stroke-width:1.5;"/><path d="M1267.7456,644.2188 C1267.7456,654.2188 1285.7456,654.2188 1285.7456,654.2188 C1285.7456,654.2188 1303.7456,654.2188 1303.7456,644.2188" fill="none" style="stroke:#181818;stroke-width:1.5;"/></g><g class="message" data-participant-1="APP_008" data-participant-2="APP_001"><polygon fill="#181818" points="1273.7456,148.0234,1283.7456,152.0234,1273.7456,156.0234,1277.7456,152.0234" style="stroke:#181818;stroke-width:1;"/><line style="stroke:#181818;stroke-width:1;" x1="83.5024" x2="1279.7456" y1="152.0234" y2="152.0234"/><text fill="#000000" font-family="sans-serif" font-size="13" lengthAdjust="spacing" textLength="320.7852" x="90.5024" y="146.9575">record_event(algedonic.raised, severity, context)</text></g><g class="message" data-participant-1="APP_016" data-participant-2="APP_007"><polygon fill="#181818" points="647.3862,177.1563,657.3862,181.1563,647.3862,185.1563,651.3862,181.1563" style="stroke:#181818;stroke-width:1;"/><line style="stroke:#181818;stroke-width:1;" x1="369.356" x2="653.3862" y1="181.1563" y2="181.1563"/><text fill="#000000" font-family="sans-serif" font-size="13" lengthAdjust="spacing" textLength="266.0303" x="376.356" y="176.0903">request emergency coordination context</text></g><g class="message" data-participant-1="APP_016" data-participant-2="APP_015"><polygon fill="#181818" points="747.2651,206.2891,757.2651,210.2891,747.2651,214.2891,751.2651,210.2891" style="stroke:#181818;stroke-width:1;"/><line style="stroke:#181818;stroke-width:1;" x1="369.356" x2="753.2651" y1="210.2891" y2="210.2891"/><text fill="#000000" font-family="sans-serif" font-size="13" lengthAdjust="spacing" textLength="205.1689" x="376.356" y="205.2231">invoke safety escalation review</text></g><g class="message" data-participant-1="APP_015" data-participant-2="APP_001"><polygon fill="#181818" points="1273.7456,235.4219,1283.7456,239.4219,1273.7456,243.4219,1277.7456,239.4219" style="stroke:#181818;stroke-width:1;"/><line style="stroke:#181818;stroke-width:1;" x1="759.2651" x2="1279.7456" y1="239.4219" y2="239.4219"/><text fill="#000000" font-family="sans-serif" font-size="13" lengthAdjust="spacing" textLength="502.4805" x="766.2651" y="234.356">record_event(decision.recorded, decision="contain|continue", correlation_id)</text></g><path d="M10,254.4219 L74.4429,254.4219 L74.4429,261.5547 L64.4429,271.5547 L10,271.5547 L10,254.4219" fill="#EEEEEE" style="stroke:#000000;stroke-width:1.5;"/><rect fill="none" height="221.5391" style="stroke:#000000;stroke-width:1.5;" width="1327.4541" x="10" y="254.4219"/><text fill="#000000" font-family="sans-serif" font-size="13" font-weight="bold" lengthAdjust="spacing" textLength="19.4429" x="25" y="267.4888">alt</text><text fill="#000000" font-family="sans-serif" font-size="11" font-weight="bold" lengthAdjust="spacing" textLength="226.5527" x="89.4429" y="266.6323">[severity S1 / containment required]</text><g class="message" data-participant-1="APP_016" data-participant-2="APP_001"><polygon fill="#181818" points="1273.7456,288.6875,1283.7456,292.6875,1273.7456,296.6875,1277.7456,292.6875" style="stroke:#181818;stroke-width:1;"/><line style="stroke:#181818;stroke-width:1;" x1="369.356" x2="1279.7456" y1="292.6875" y2="292.6875"/><text fill="#000000" font-family="sans-serif" font-size="13" lengthAdjust="spacing" textLength="306.7441" x="376.356" y="287.6216">record_event(phase.suspended, correlation_id)</text></g><g class="message" data-participant-1="APP_007" data-participant-2="APP_001"><polygon fill="#181818" points="1273.7456,317.8203,1283.7456,321.8203,1273.7456,325.8203,1277.7456,321.8203" style="stroke:#181818;stroke-width:1;"/><line style="stroke:#181818;stroke-width:1;" x1="659.3862" x2="1279.7456" y1="321.8203" y2="321.8203"/><text fill="#000000" font-family="sans-serif" font-size="13" lengthAdjust="spacing" textLength="195.9648" x="666.3862" y="316.7544">record_event(review.pending)</text></g><line style="stroke:#000000;stroke-width:1;stroke-dasharray:2.0,2.0;" x1="10" x2="1337.4541" y1="330.8203" y2="330.8203"/><text fill="#000000" font-family="sans-serif" font-size="11" font-weight="bold" lengthAdjust="spacing" textLength="236.6934" x="15" y="341.0308">[severity S2 / controlled continuation]</text><g class="message" data-participant-1="APP_016" data-participant-2="APP_008"><polygon fill="#181818" points="94.5024,361.7578,84.5024,365.7578,94.5024,369.7578,90.5024,365.7578" style="stroke:#181818;stroke-width:1;"/><line style="stroke:#181818;stroke-width:1;" x1="88.5024" x2="368.356" y1="365.7578" y2="365.7578"/><text fill="#000000" font-family="sans-serif" font-size="13" lengthAdjust="spacing" textLength="261.8535" x="100.5024" y="360.6919">route containment or corrective handoff</text></g><g class="message" data-participant-1="APP_016" data-participant-2="APP_001"><polygon fill="#181818" points="1273.7456,390.8906,1283.7456,394.8906,1273.7456,398.8906,1277.7456,394.8906" style="stroke:#181818;stroke-width:1;"/><line style="stroke:#181818;stroke-width:1;" x1="369.356" x2="1279.7456" y1="394.8906" y2="394.8906"/><text fill="#000000" font-family="sans-serif" font-size="13" lengthAdjust="spacing" textLength="559.0508" x="376.356" y="389.8247">record_event(decision.recorded, decision="continue-with-constraints", correlation_id)</text></g><line style="stroke:#000000;stroke-width:1;stroke-dasharray:2.0,2.0;" x1="10" x2="1337.4541" y1="403.8906" y2="403.8906"/><text fill="#000000" font-family="sans-serif" font-size="11" font-weight="bold" lengthAdjust="spacing" textLength="226.8267" x="15" y="414.1011">[CSCO decision timeout/unavailable]</text><g class="message" data-participant-1="APP_016" data-participant-2="APP_001"><polygon fill="#181818" points="1273.7456,434.8281,1283.7456,438.8281,1273.7456,442.8281,1277.7456,438.8281" style="stroke:#181818;stroke-width:1;"/><line style="stroke:#181818;stroke-width:1;" x1="369.356" x2="1279.7456" y1="438.8281" y2="438.8281"/><text fill="#000000" font-family="sans-serif" font-size="13" lengthAdjust="spacing" textLength="306.7441" x="376.356" y="433.7622">record_event(phase.suspended, correlation_id)</text></g><g class="message" data-participant-1="APP_016" data-participant-2="APP_001"><polygon fill="#181818" points="1273.7456,463.9609,1283.7456,467.9609,1273.7456,471.9609,1277.7456,467.9609" style="stroke:#181818;stroke-width:1;"/><line style="stroke:#181818;stroke-width:1;" x1="369.356" x2="1279.7456" y1="467.9609" y2="467.9609"/><text fill="#000000" font-family="sans-serif" font-size="13" lengthAdjust="spacing" textLength="540.6235" x="376.356" y="462.895">record_event(algedonic.escalated, reason="csco-decision-timeout", correlation_id)</text></g><g class="message" data-participant-1="APP_016" data-participant-2="APP_001"><polygon fill="#181818" points="1273.7456,500.0938,1283.7456,504.0938,1273.7456,508.0938,1277.7456,504.0938" style="stroke:#181818;stroke-width:1;"/><line style="stroke:#181818;stroke-width:1;" x1="369.356" x2="1279.7456" y1="504.0938" y2="504.0938"/><text fill="#000000" font-family="sans-serif" font-size="13" lengthAdjust="spacing" textLength="236.5581" x="376.356" y="499.0278">create_snapshot("algedonic.raised")</text></g><path d="M764,517.0938 L764,587.0938 L1120,587.0938 L1120,527.0938 L1110,517.0938 L764,517.0938" fill="#FEFFDD" style="stroke:#181818;stroke-width:0.5;"/><path d="M1110,517.0938 L1110,527.0938 L1120,527.0938 L1110,517.0938" fill="#FEFFDD" style="stroke:#181818;stroke-width:0.5;"/><text fill="#000000" font-family="sans-serif" font-size="13" lengthAdjust="spacing" textLength="295.9404" x="770" y="534.1606">Mapped to BPR-005 Algedonic Escalation and</text><text fill="#000000" font-family="sans-serif" font-size="13" lengthAdjust="spacing" textLength="267.6108" x="770" y="549.2935">BEV-005 Safety Signal Raised semantics.</text><text fill="#000000" font-family="sans-serif" font-size="13" lengthAdjust="spacing" textLength="335.0229" x="770" y="564.4263">Fail-safe control: on missing CSCO decision in time,</text><text fill="#000000" font-family="sans-serif" font-size="13" lengthAdjust="spacing" textLength="308.1343" x="770" y="579.5591">runtime defaults to containment/suspend path.</text><!--SRC=[hLHDJzj04BtlhnZv118Ek5808RLIGD1B4H6HUgeK3Uj9FEfcrzrTXoBrntVM7-I3qFRGa-trl3VlpST6ZePWOfPKEiiQReD6Wv6TXJiCCPzYhE1eKjU6TNVysDZ8ApfMgaOVMNEDDa8sgqap6WuH9akoyPkTJAVvsTbb1XX0tkVolWlvWdRvsMDTmOFN5ONeCJhV0ulp3R0utmLExtTpN6pbkDWDlPdTFEm45-Cjth4gCU8J1eBiTYr1Cn500ssnHLierNk0_DDmTWMUjFFbd1Bs28SgZZnoeF84Wlpm75zEG3iRwMSyLhsX3Sj5OldHY7sW5NcHgbyaN6ZPTXNliM-WnVWAsAxTTuA02uelG9lkULepFVUOyVkYIsbR4C2eEqsgXwEFMSgCR7-b9zk6icJ4U-fopBcKAK0JNtt2h81Jw54heM-jiQTI0RnnlY-bhgGHez24ccmhP3yN32LxdwEpFKeCR9V7YepqTYFlGo_FEsEeXDvNc-6GmajXTqsa7KlETy9qv3L1XRPqYyM_-FjhgLE9ysUELIvVQHtOnd2WvgsfTh87FAIL5AMdZSKrii4dG_-pv7_Ys8nzFtw9nnE6rbRGBXzKvhtAGvPigTIXL5gO8is3nJfKBXvb-rkMoGnQ9ptolAoaEulNtRx7kfOcHmVNqqVPv_7XUquQgAvllxO1iswFPhoqQE2nJI3ZivAxX7KOgJkfRPwMRPYYAn265OSWqxRN4kwwSg9yTsFAdmKs9eQaQ6kWJlloGortxIXL0fAVtm00]--></g></svg>