<svg xmlns="http://www.w3.org/2000/svg" xmlns:xlink="http://www.w3.org/1999/xlink" contentStyleType="text/css" data-diagram-type="SEQUENCE" height="590px" preserveAspectRatio="none" style="width:2028px;height:590px;background:#FFFFFF;" version="1.1" viewBox="0 0 2028 590" width="2028px" zoomAndPan="magnify"><title>Local Runtime Bootstrap and Provisioning (Operational Sequence)</title><defs/><g><text fill="#000000" font-family="sans-serif" font-size="14" font-weight="bold" lengthAdjust="spacing" textLength="524.9727" x="750.3713" y="27.9951">Local Runtime Bootstrap and Provisioning (Operational Sequence)</text><g><title>Local Runtime Host</title><rect fill="#000000" fill-opacity="0.00000" height="374.5938" width="8" x="76.2056" y="120.8906"/><line style="stroke:#181818;stroke-width:0.5;stroke-dasharray:5.0,5.0;" x1="80" x2="80" y1="120.8906" y2="495.4844"/></g><g><title>Python Runtime and UV Toolchain</title><rect fill="#000000" fill-opacity="0.00000" height="374.5938" width="8" x="561.4961" y="120.8906"/><line style="stroke:#181818;stroke-width:0.5;stroke-dasharray:5.0,5.0;" x1="564.9561" x2="564.9561" y1="120.8906" y2="495.4844"/></g><g><title>Local File and Process Service</title><rect fill="#000000" fill-opacity="0.00000" height="374.5938" width="8" x="946.6016" y="120.8906"/><line style="stroke:#181818;stroke-width:0.5;stroke-dasharray:5.0,5.0;" x1="950.3418" x2="950.3418" y1="120.8906" y2="495.4844"/></g><g><title>EventStore</title><rect fill="#000000" fill-opacity="0.00000" height="374.5938" width="8" x="1316.5806" y="120.8906"/><line style="stroke:#181818;stroke-width:0.5;stroke-dasharray:5.0,5.0;" x1="1319.8721" x2="1319.8721" y1="120.8906" y2="495.4844"/></g><g><title>LangGraph Orchestrator</title><rect fill="#000000" fill-opacity="0.00000" height="374.5938" width="8" x="1671.9917" y="120.8906"/><line style="stroke:#181818;stroke-width:0.5;stroke-dasharray:5.0,5.0;" x1="1675.7817" x2="1675.7817" y1="120.8906" y2="495.4844"/></g><g><title>DashboardServer</title><rect fill="#000000" fill-opacity="0.00000" height="374.5938" width="8" x="1842.2568" y="120.8906"/><line style="stroke:#181818;stroke-width:0.5;stroke-dasharray:5.0,5.0;" x1="1846.2017" x2="1846.2017" y1="120.8906" y2="495.4844"/></g><g class="participant participant-head" data-participant="NOD_001"><rect fill="#E2E2F0" height="46.5938" rx="2.5" ry="2.5" style="stroke:#181818;stroke-width:0.5;" width="150.4111" x="5" y="73.2969"/><text fill="#000000" font-family="sans-serif" font-size="14" lengthAdjust="spacing" textLength="136.4111" x="12" y="93.292">Local Runtime Host</text><text fill="#000000" font-family="sans-serif" font-size="14" lengthAdjust="spacing" textLength="64.0459" x="48.1826" y="109.5889">NOD-001</text></g><g class="participant participant-tail" data-participant="NOD_001"><rect fill="#E2E2F0" height="46.5938" rx="2.5" ry="2.5" style="stroke:#181818;stroke-width:0.5;" width="150.4111" x="5" y="494.4844"/><text fill="#000000" font-family="sans-serif" font-size="14" lengthAdjust="spacing" textLength="136.4111" x="12" y="514.4795">Local Runtime Host</text><text fill="#000000" font-family="sans-serif" font-size="14" lengthAdjust="spacing" textLength="64.0459" x="48.1826" y="530.7764">NOD-001</text></g><g class="participant participant-head" data-participant="SSW_001"><rect fill="#E2E2F0" height="46.5938" rx="2.5" ry="2.5" style="stroke:#181818;stroke-width:0.5;" width="253.0801" x="438.9561" y="73.2969"/><text fill="#000000" font-family="sans-serif" font-size="14" lengthAdjust="spacing" textLength="239.0801" x="445.9561" y="93.292">Python Runtime and UV Toolchain</text><text fill="#000000" font-family="sans-serif" font-size="14" lengthAdjust="spacing" textLength="63.3896" x="533.8013" y="109.5889">SSW-001</text></g><g class="participant participant-tail" data-participant="SSW_001"><rect fill="#E2E2F0" height="46.5938" rx="2.5" ry="2.5" style="stroke:#181818;stroke-width:0.5;" width="253.0801" x="438.9561" y="494.4844"/><text fill="#000000" font-family="sans-serif" font-size="14" lengthAdjust="spacing" textLength="239.0801" x="445.9561" y="514.4795">Python Runtime and UV Toolchain</text><text fill="#000000" font-family="sans-serif" font-size="14" lengthAdjust="spacing" textLength="63.3896" x="533.8013" y="530.7764">SSW-001</text></g><g class="participant participant-head" data-participant="TSV_001"><rect fill="#E2E2F0" height="46.5938" rx="2.5" ry="2.5" style="stroke:#181818;stroke-width:0.5;" width="224.5195" x="838.3418" y="73.2969"/><text fill="#000000" font-family="sans-serif" font-size="14" lengthAdjust="spacing" textLength="210.5195" x="845.3418" y="93.292">Local File and Process Service</text><text fill="#000000" font-family="sans-serif" font-size="14" lengthAdjust="spacing" textLength="58.7891" x="921.207" y="109.5889">TSV-001</text></g><g class="participant participant-tail" data-participant="TSV_001"><rect fill="#E2E2F0" height="46.5938" rx="2.5" ry="2.5" style="stroke:#181818;stroke-width:0.5;" width="224.5195" x="838.3418" y="494.4844"/><text fill="#000000" font-family="sans-serif" font-size="14" lengthAdjust="spacing" textLength="210.5195" x="845.3418" y="514.4795">Local File and Process Service</text><text fill="#000000" font-family="sans-serif" font-size="14" lengthAdjust="spacing" textLength="58.7891" x="921.207" y="530.7764">TSV-001</text></g><g class="participant participant-head" data-participant="APP_001"><text fill="#000000" font-family="sans-serif" font-size="14" lengthAdjust="spacing" textLength="77.417" x="1278.8721" y="101.292">EventStore</text><text fill="#000000" font-family="sans-serif" font-size="14" lengthAdjust="spacing" textLength="58.2354" x="1288.4629" y="117.5889">APP-001</text><path d="M1302.5806,52.2969 C1302.5806,42.2969 1320.5806,42.2969 1320.5806,42.2969 C1320.5806,42.2969 1338.5806,42.2969 1338.5806,52.2969 L1338.5806,78.2969 C1338.5806,88.2969 1320.5806,88.2969 1320.5806,88.2969 C1320.5806,88.2969 1302.5806,88.2969 1302.5806,78.2969 L1302.5806,52.2969" fill="#E2E2F0" style="stroke:#181818;stroke-width:1.5;"/><path d="M1302.5806,52.2969 C1302.5806,62.2969 1320.5806,62.2969 1320.5806,62.2969 C1320.5806,62.2969 1338.5806,62.2969 1338.5806,52.2969" fill="none" style="stroke:#181818;stroke-width:1.5;"/></g><g class="participant participant-tail" data-participant="APP_001"><text fill="#000000" font-family="sans-serif" font-size="14" lengthAdjust="spacing" textLength="77.417" x="1278.8721" y="507.4795">EventStore</text><text fill="#000000" font-family="sans-serif" font-size="14" lengthAdjust="spacing" textLength="58.2354" x="1288.4629" y="523.7764">APP-001</text><path d="M1302.5806,537.0781 C1302.5806,527.0781 1320.5806,527.0781 1320.5806,527.0781 C1320.5806,527.0781 1338.5806,527.0781 1338.5806,537.0781 L1338.5806,563.0781 C1338.5806,573.0781 1320.5806,573.0781 1320.5806,573.0781 C1320.5806,573.0781 1302.5806,573.0781 1302.5806,563.0781 L1302.5806,537.0781" fill="#E2E2F0" style="stroke:#181818;stroke-width:1.5;"/><path d="M1302.5806,537.0781 C1302.5806,547.0781 1320.5806,547.0781 1320.5806,547.0781 C1320.5806,547.0781 1338.5806,547.0781 1338.5806,537.0781" fill="none" style="stroke:#181818;stroke-width:1.5;"/></g><g class="participant participant-head" data-participant="APP_016"><rect fill="#E2E2F0" height="46.5938" rx="2.5" ry="2.5" style="stroke:#181818;stroke-width:0.5;" width="184.4199" x="1583.7817" y="73.2969"/><text fill="#000000" font-family="sans-serif" font-size="14" lengthAdjust="spacing" textLength="170.4199" x="1590.7817" y="93.292">LangGraph Orchestrator</text><text fill="#000000" font-family="sans-serif" font-size="14" lengthAdjust="spacing" textLength="58.2354" x="1646.874" y="109.5889">APP-016</text></g><g class="participant participant-tail" data-participant="APP_016"><rect fill="#E2E2F0" height="46.5938" rx="2.5" ry="2.5" style="stroke:#181818;stroke-width:0.5;" width="184.4199" x="1583.7817" y="494.4844"/><text fill="#000000" font-family="sans-serif" font-size="14" lengthAdjust="spacing" textLength="170.4199" x="1590.7817" y="514.4795">LangGraph Orchestrator</text><text fill="#000000" font-family="sans-serif" font-size="14" lengthAdjust="spacing" textLength="58.2354" x="1646.874" y="530.7764">APP-016</text></g><g class="participant participant-head" data-participant="APP_020"><rect fill="#E2E2F0" height="46.5938" rx="2.5" ry="2.5" style="stroke:#181818;stroke-width:0.5;" width="136.1104" x="1778.2017" y="73.2969"/><text fill="#000000" font-family="sans-serif" font-size="14" lengthAdjust="spacing" textLength="122.1104" x="1785.2017" y="93.292">DashboardServer</text><text fill="#000000" font-family="sans-serif" font-size="14" lengthAdjust="spacing" textLength="58.2354" x="1817.1392" y="109.5889">APP-020</text></g><g class="participant participant-tail" data-participant="APP_020"><rect fill="#E2E2F0" height="46.5938" rx="2.5" ry="2.5" style="stroke:#181818;stroke-width:0.5;" width="136.1104" x="1778.2017" y="494.4844"/><text fill="#000000" font-family="sans-serif" font-size="14" lengthAdjust="spacing" textLength="122.1104" x="1785.2017" y="514.4795">DashboardServer</text><text fill="#000000" font-family="sans-serif" font-size="14" lengthAdjust="spacing" textLength="58.2354" x="1817.1392" y="530.7764">APP-020</text></g><g class="message" data-participant-1="NOD_001" data-participant-2="SSW_001"><polygon fill="#181818" points="553.4961,148.0234,563.4961,152.0234,553.4961,156.0234,557.4961,152.0234" style="stroke:#181818;stroke-width:1;"/><line style="stroke:#181818;stroke-width:1;" x1="80.2056" x2="559.4961" y1="152.0234" y2="152.0234"/><text fill="#000000" font-family="sans-serif" font-size="13" lengthAdjust="spacing" textLength="461.2905" x="87.2056" y="146.9575">initialize_python_runtime(python_version="3.12", env_manager="uv")</text></g><g class="message" data-participant-1="SSW_001" data-participant-2="TSV_001"><polygon fill="#181818" points="938.6016,177.1563,948.6016,181.1563,938.6016,185.1563,942.6016,181.1563" style="stroke:#181818;stroke-width:1;"/><line style="stroke:#181818;stroke-width:1;" x1="565.4961" x2="944.6016" y1="181.1563" y2="181.1563"/><text fill="#000000" font-family="sans-serif" font-size="13" lengthAdjust="spacing" textLength="361.1055" x="572.4961" y="176.0903">start_local_process_service(endpoint_profile="default")</text></g><g class="message" data-participant-1="TSV_001" data-participant-2="APP_001"><polygon fill="#181818" points="1308.5806,206.2891,1318.5806,210.2891,1308.5806,214.2891,1312.5806,210.2891" style="stroke:#181818;stroke-width:1;"/><line style="stroke:#181818;stroke-width:1;" x1="950.6016" x2="1314.5806" y1="210.2891" y2="210.2891"/><text fill="#000000" font-family="sans-serif" font-size="13" lengthAdjust="spacing" textLength="345.979" x="957.6016" y="205.2231">provision_eventstore_storage(db_path, snapshot_dir)</text></g><g class="message" data-participant-1="APP_001" data-participant-2="APP_001"><line style="stroke:#181818;stroke-width:1;" x1="1320.5806" x2="1362.5806" y1="239.4219" y2="239.4219"/><line style="stroke:#181818;stroke-width:1;" x1="1362.5806" x2="1362.5806" y1="239.4219" y2="252.4219"/><line style="stroke:#181818;stroke-width:1;" x1="1321.5806" x2="1362.5806" y1="252.4219" y2="252.4219"/><polygon fill="#181818" points="1331.5806,248.4219,1321.5806,252.4219,1331.5806,256.4219,1327.5806,252.4219" style="stroke:#181818;stroke-width:1;"/><text fill="#000000" font-family="sans-serif" font-size="13" lengthAdjust="spacing" textLength="269.6675" x="1327.5806" y="234.356">open_eventstore_and_verify_migrations()</text></g><g class="message" data-participant-1="TSV_001" data-participant-2="APP_016"><polygon fill="#181818" points="1663.9917,277.5547,1673.9917,281.5547,1663.9917,285.5547,1667.9917,281.5547" style="stroke:#181818;stroke-width:1;"/><line style="stroke:#181818;stroke-width:1;" x1="950.6016" x2="1669.9917" y1="281.5547" y2="281.5547"/><text fill="#000000" font-family="sans-serif" font-size="13" lengthAdjust="spacing" textLength="339.3711" x="957.6016" y="276.4888">start_orchestrator_runtime(graph_profile="default")</text></g><g class="message" data-participant-1="APP_016" data-participant-2="APP_001"><polygon fill="#181818" points="1331.5806,306.6875,1321.5806,310.6875,1331.5806,314.6875,1327.5806,310.6875" style="stroke:#181818;stroke-width:1;"/><line style="stroke:#181818;stroke-width:1;" x1="1325.5806" x2="1674.9917" y1="310.6875" y2="310.6875"/><text fill="#000000" font-family="sans-serif" font-size="13" lengthAdjust="spacing" textLength="196.8853" x="1337.5806" y="305.6216">replay_from_latest_snapshot()</text></g><g class="message" data-participant-1="APP_016" data-participant-2="APP_001"><polygon fill="#181818" points="1331.5806,335.8203,1321.5806,339.8203,1331.5806,343.8203,1327.5806,339.8203" style="stroke:#181818;stroke-width:1;"/><line style="stroke:#181818;stroke-width:1;" x1="1325.5806" x2="1674.9917" y1="339.8203" y2="339.8203"/><text fill="#000000" font-family="sans-serif" font-size="13" lengthAdjust="spacing" textLength="331.4111" x="1337.5806" y="334.7544">append_event(event_type="engagement.started")</text></g><g class="message" data-participant-1="APP_016" data-participant-2="APP_001"><polygon fill="#181818" points="1331.5806,364.9531,1321.5806,368.9531,1331.5806,372.9531,1327.5806,368.9531" style="stroke:#181818;stroke-width:1;"/><line style="stroke:#181818;stroke-width:1;" x1="1325.5806" x2="1674.9917" y1="368.9531" y2="368.9531"/><text fill="#000000" font-family="sans-serif" font-size="13" lengthAdjust="spacing" textLength="317.605" x="1337.5806" y="363.8872">create_snapshot(trigger="engagement.started")</text></g><g class="message" data-participant-1="TSV_001" data-participant-2="APP_020"><polygon fill="#181818" points="1834.2568,394.0859,1844.2568,398.0859,1834.2568,402.0859,1838.2568,398.0859" style="stroke:#181818;stroke-width:1;"/><line style="stroke:#181818;stroke-width:1;" x1="950.6016" x2="1840.2568" y1="398.0859" y2="398.0859"/><text fill="#000000" font-family="sans-serif" font-size="13" lengthAdjust="spacing" textLength="249.7866" x="957.6016" y="393.02">start_dashboard_server(bind_address)</text></g><g class="message" data-participant-1="APP_020" data-participant-2="APP_001"><polygon fill="#181818" points="1331.5806,423.2188,1321.5806,427.2188,1331.5806,431.2188,1327.5806,427.2188" style="stroke:#181818;stroke-width:1;"/><line style="stroke:#181818;stroke-width:1;" x1="1325.5806" x2="1845.2568" y1="427.2188" y2="427.2188"/><text fill="#000000" font-family="sans-serif" font-size="13" lengthAdjust="spacing" textLength="244.0103" x="1337.5806" y="422.1528">query_runtime_bootstrap_readiness()</text></g><path d="M1680,440.2188 L1680,480.2188 L2021,480.2188 L2021,450.2188 L2011,440.2188 L1680,440.2188" fill="#FEFFDD" style="stroke:#181818;stroke-width:0.5;"/><path d="M2011,440.2188 L2011,450.2188 L2021,450.2188 L2011,440.2188" fill="#FEFFDD" style="stroke:#181818;stroke-width:0.5;"/><text fill="#000000" font-family="sans-serif" font-size="13" lengthAdjust="spacing" textLength="243.2612" x="1686" y="457.2856">Operational readiness sequence over</text><text fill="#000000" font-family="sans-serif" font-size="13" lengthAdjust="spacing" textLength="320.7153" x="1686" y="472.4185">NOD-001/SSW-001/TSV-001 technology baseline.</text><!--SRC=[TLHDYzim4BtxLmm-ER2RTLB8OI65bkt7eJIXsMul0Q5O4rlWIAeq2QI_lgDOTjRTz6B6zhmtRzveH9fQX6-saYtyE1hI1uIFrb8WBnr8es3jxKa7ROqsDHGhXruIlt7-1dyVqLGuoJ8dFUbAEsa8yZ7RLnjeQxwldkxBSfQ33C2nu7WCMf-fiMP0nSe_N-3PshPgf3PRizdy6XWuVilGbVsiM-nrLnWu5_r9LxWrpvkNWO3Z2u6I97So8EIVJcXeGzPpveVrUiZa-4OfQUelR503Aryr6CrYP0BE5bVWR346FidGxApqAgh27Z4lhuXvcMN98BX_ttVw2DfeqhBLVr2uYrN2TrOLwPNfufIM-RlfR9xV0PgJE4WZQ_JB_7ZA9rdYYhIf_qS8nF946wqJhdDCXCwn0eroLXkAF_Piwp9Nk9V7bfWh4KIkvD0ZkFwa28ncXcYcY4_MKAYTS9AQEmX6kj1O4ahxIPR08nxhS4J1qupTwVrP77JT7RzGlDKmM_Jzs5TJ6Noguy1kzPB08mqUNIlFOk_jGRIIc4pqmelR2EbOjkfq5vUdeBFZGcXgDk307wONTQZ-KxFoo9MkTSZh-ZAzcmp_TZyl- -vLVyWkaqHVx3GBaqfvdcugFIz7fNcH_RbtIkpw2q2m8gKDmxZfp5X2O4qDWTqFv_lrZJ2aGqXt0rWMaANjVqWx_91M4GYhnjZMrcU8MzWoTfgnYn1B_GK0]--></g></svg>