<svg xmlns="http://www.w3.org/2000/svg" xmlns:xlink="http://www.w3.org/1999/xlink" contentStyleType="text/css" data-diagram-type="DESCRIPTION" height="2175px" preserveAspectRatio="none" style="width:730px;height:2175px;background:#FAFAFA;" version="1.1" viewBox="0 0 730 2175" width="730px" zoomAndPan="magnify"><title>Value Stream: Forward SDLC &#8212; Use Case View</title><defs/><g><rect fill="#FAFAFA" height="2175" style="stroke:none;stroke-width:1;" width="730" x="0" y="0"/><text fill="#000000" font-family="sans-serif" font-size="14" font-weight="bold" lengthAdjust="spacing" textLength="366.5703" x="174.7148" y="32.9951">Value Stream: Forward SDLC &#8212; Use Case View</text><!--cluster VS-001: Forward SDLC--><g class="cluster" data-entity="VS-001: Forward SDLC" data-source-line="56" data-uid="ent0004" id="cluster_VS-001: Forward SDLC"><rect fill="none" height="2018" rx="2" ry="2" style="stroke:#181818;stroke-width:1;" width="384" x="340" y="151.2969"/><text fill="#000000" font-family="sans-serif" font-size="12" font-weight="bold" lengthAdjust="spacing" textLength="152.2207" x="455.8896" y="174.4355">VS-001: Forward SDLC</text></g><g class="entity" data-entity="S1" data-source-line="58" data-uid="ent0005" id="entity_S1"><ellipse cx="532.1393" cy="326.1083" fill="#FEFDF0" rx="152.1393" ry="122.3114" style="stroke:#B8860B;stroke-width:1.5;"/><text fill="#000000" font-family="sans-serif" font-size="12" font-weight="bold" lengthAdjust="spacing" textLength="51.7324" x="506.2731" y="260.3251">Stage 1</text><text fill="#000000" font-family="sans-serif" font-size="12" lengthAdjust="spacing" textLength="128.0859" x="468.0963" y="294.2938">Engagement Scoping</text><text fill="#000000" font-family="sans-serif" font-size="12" lengthAdjust="spacing" textLength="101.1445" x="481.567" y="328.2626">&#9472;&#9472;&#9472;&#9472;&#9472;&#9472;&#9472;&#9472;&#9472;&#9472;&#9472;&#9472;&#9472;&#9472;</text><text fill="#000000" font-family="sans-serif" font-size="12" lengthAdjust="spacing" textLength="177.3457" x="443.4664" y="362.2313">BSV-003 Project Coordination</text><text fill="#000000" font-family="sans-serif" font-size="12" lengthAdjust="spacing" textLength="177.5156" x="443.3814" y="396.2001">BSV-005 Requirements Mgmt</text></g><g class="entity" data-entity="S2" data-source-line="59" data-uid="ent0006" id="entity_S2"><ellipse cx="532.0291" cy="641.3945" fill="#FEFDF0" rx="157.0291" ry="123.0977" style="stroke:#B8860B;stroke-width:1.5;"/><text fill="#000000" font-family="sans-serif" font-size="12" font-weight="bold" lengthAdjust="spacing" textLength="51.7324" x="506.1629" y="575.6113">Stage 2</text><text fill="#000000" font-family="sans-serif" font-size="12" lengthAdjust="spacing" textLength="113.8828" x="475.0877" y="609.5801">Architecture Vision</text><text fill="#000000" font-family="sans-serif" font-size="12" lengthAdjust="spacing" textLength="101.1445" x="481.4569" y="643.5488">&#9472;&#9472;&#9472;&#9472;&#9472;&#9472;&#9472;&#9472;&#9472;&#9472;&#9472;&#9472;&#9472;&#9472;</text><text fill="#000000" font-family="sans-serif" font-size="12" lengthAdjust="spacing" textLength="185.8301" x="439.1141" y="677.5176">BSV-001 Business Architecture</text><text fill="#000000" font-family="sans-serif" font-size="12" lengthAdjust="spacing" textLength="177.3457" x="443.3563" y="711.4863">BSV-003 Project Coordination</text></g><g class="entity" data-entity="S3" data-source-line="60" data-uid="ent0007" id="entity_S3"><ellipse cx="532.0485" cy="975.2357" fill="#FEFDF0" rx="176.0485" ry="141.4388" style="stroke:#B8860B;stroke-width:1.5;"/><text fill="#000000" font-family="sans-serif" font-size="12" font-weight="bold" lengthAdjust="spacing" textLength="51.7324" x="506.1823" y="892.4681">Stage 3</text><text fill="#000000" font-family="sans-serif" font-size="12" lengthAdjust="spacing" textLength="119.2383" x="472.4294" y="926.4369">Architecture Design</text><text fill="#000000" font-family="sans-serif" font-size="12" lengthAdjust="spacing" textLength="101.1445" x="481.4763" y="960.4056">&#9472;&#9472;&#9472;&#9472;&#9472;&#9472;&#9472;&#9472;&#9472;&#9472;&#9472;&#9472;&#9472;&#9472;</text><text fill="#000000" font-family="sans-serif" font-size="12" lengthAdjust="spacing" textLength="185.8301" x="439.1335" y="994.3744">BSV-001 Business Architecture</text><text fill="#000000" font-family="sans-serif" font-size="12" lengthAdjust="spacing" textLength="202.2598" x="430.9186" y="1028.3431">BSV-002 App &amp; Tech Architecture</text><text fill="#000000" font-family="sans-serif" font-size="12" lengthAdjust="spacing" textLength="177.5156" x="443.2907" y="1062.3119">BSV-005 Requirements Mgmt</text></g><g class="entity" data-entity="S4" data-source-line="61" data-uid="ent0008" id="entity_S4"><ellipse cx="531.7757" cy="1322.3174" fill="#FEFDF0" rx="169.2757" ry="136.0205" style="stroke:#B8860B;stroke-width:1.5;"/><text fill="#000000" font-family="sans-serif" font-size="12" font-weight="bold" lengthAdjust="spacing" textLength="51.7324" x="505.9095" y="1239.5498">Stage 4</text><text fill="#000000" font-family="sans-serif" font-size="12" lengthAdjust="spacing" textLength="105.3164" x="479.1175" y="1273.5186">Delivery Planning</text><text fill="#000000" font-family="sans-serif" font-size="12" lengthAdjust="spacing" textLength="101.1445" x="481.2034" y="1307.4873">&#9472;&#9472;&#9472;&#9472;&#9472;&#9472;&#9472;&#9472;&#9472;&#9472;&#9472;&#9472;&#9472;&#9472;</text><text fill="#000000" font-family="sans-serif" font-size="12" lengthAdjust="spacing" textLength="177.3457" x="443.1028" y="1341.4561">BSV-003 Project Coordination</text><text fill="#000000" font-family="sans-serif" font-size="12" lengthAdjust="spacing" textLength="163.9922" x="449.7796" y="1375.4248">BSV-007 Quality Assurance</text><text fill="#000000" font-family="sans-serif" font-size="12" lengthAdjust="spacing" textLength="181.7402" x="440.9056" y="1409.3936">BSV-008 Platform Engineering</text></g><g class="entity" data-entity="S5" data-source-line="62" data-uid="ent0009" id="entity_S5"><ellipse cx="531.7757" cy="1664.3174" fill="#FEFDF0" rx="169.2757" ry="136.0205" style="stroke:#B8860B;stroke-width:1.5;"/><text fill="#000000" font-family="sans-serif" font-size="12" font-weight="bold" lengthAdjust="spacing" textLength="51.7324" x="505.9095" y="1581.5498">Stage 5</text><text fill="#000000" font-family="sans-serif" font-size="12" lengthAdjust="spacing" textLength="106.998" x="478.2767" y="1615.5186">Software Delivery</text><text fill="#000000" font-family="sans-serif" font-size="12" lengthAdjust="spacing" textLength="101.1445" x="481.2034" y="1649.4873">&#9472;&#9472;&#9472;&#9472;&#9472;&#9472;&#9472;&#9472;&#9472;&#9472;&#9472;&#9472;&#9472;&#9472;</text><text fill="#000000" font-family="sans-serif" font-size="12" lengthAdjust="spacing" textLength="139.4531" x="462.0491" y="1683.4561">BSV-006 Code Delivery</text><text fill="#000000" font-family="sans-serif" font-size="12" lengthAdjust="spacing" textLength="163.9922" x="449.7796" y="1717.4248">BSV-007 Quality Assurance</text><text fill="#000000" font-family="sans-serif" font-size="12" lengthAdjust="spacing" textLength="181.7402" x="440.9056" y="1751.3936">BSV-008 Platform Engineering</text></g><g class="entity" data-entity="S6" data-source-line="63" data-uid="ent0010" id="entity_S6"><ellipse cx="532.0485" cy="2011.2357" fill="#FEFDF0" rx="176.0485" ry="141.4388" style="stroke:#B8860B;stroke-width:1.5;"/><text fill="#000000" font-family="sans-serif" font-size="12" font-weight="bold" lengthAdjust="spacing" textLength="51.7324" x="506.1823" y="1928.4681">Stage 6</text><text fill="#000000" font-family="sans-serif" font-size="12" lengthAdjust="spacing" textLength="139.3359" x="462.3806" y="1962.4369">Architecture Promotion</text><text fill="#000000" font-family="sans-serif" font-size="12" lengthAdjust="spacing" textLength="101.1445" x="481.4763" y="1996.4056">&#9472;&#9472;&#9472;&#9472;&#9472;&#9472;&#9472;&#9472;&#9472;&#9472;&#9472;&#9472;&#9472;&#9472;</text><text fill="#000000" font-family="sans-serif" font-size="12" lengthAdjust="spacing" textLength="185.8301" x="439.1335" y="2030.3744">BSV-001 Business Architecture</text><text fill="#000000" font-family="sans-serif" font-size="12" lengthAdjust="spacing" textLength="202.2598" x="430.9186" y="2064.3431">BSV-002 App &amp; Tech Architecture</text><text fill="#000000" font-family="sans-serif" font-size="12" lengthAdjust="spacing" textLength="169.9102" x="447.0934" y="2098.3119">BSV-004 Safety Governance</text></g><!--entity ACT_001_uc--><g class="entity" data-entity="ACT_001_uc" data-source-line="50" data-uid="ent0002" id="entity_ACT_001_uc"><ellipse cx="70.4502" cy="1103.7969" fill="#F1F1F1" rx="8" ry="8" style="stroke:#181818;stroke-width:0.5;"/><path d="M70.4502,1111.7969 L70.4502,1138.7969 M57.4502,1119.7969 L83.4502,1119.7969 M70.4502,1138.7969 L57.4502,1153.7969 M70.4502,1138.7969 L83.4502,1153.7969" fill="none" style="stroke:#181818;stroke-width:0.5;"/><text fill="#000000" font-family="sans-serif" font-size="12" lengthAdjust="spacing" textLength="27.3516" x="6" y="1176.4355">User</text><text fill="#000000" font-family="sans-serif" font-size="12" lengthAdjust="spacing" textLength="128.9004" x="6" y="1190.4043">(Engagement Owner)</text></g><!--entity BCO_001_uc--><g class="entity" data-entity="BCO_001_uc" data-source-line="51" data-uid="ent0003" id="entity_BCO_001_uc"><ellipse cx="70.6426" cy="1965.7969" fill="#F1F1F1" rx="8" ry="8" style="stroke:#181818;stroke-width:0.5;"/><path d="M70.6426,1973.7969 L70.6426,2000.7969 M57.6426,1981.7969 L83.6426,1981.7969 M70.6426,2000.7969 L57.6426,2015.7969 M70.6426,2000.7969 L83.6426,2015.7969" fill="none" style="stroke:#181818;stroke-width:0.5;"/><text fill="#000000" font-family="sans-serif" font-size="12" lengthAdjust="spacing" textLength="113.2852" x="14" y="2038.4355">Architecture Board</text><text fill="#000000" font-family="sans-serif" font-size="12" lengthAdjust="spacing" textLength="62.6543" x="14" y="2052.4043">(BCO-001)</text></g><g class="entity" data-entity="GMN23" data-source-line="89" data-uid="ent0024" id="entity_GMN23"><path d="M383,65.2969 L383,133.2031 A2,2 0 0 0 385,135.2031 L679.0508,135.2031 A2,2 0 0 0 681.0508,133.2031 L681.0508,73.2969 L671.0508,63.2969 L385,63.2969 A2,2 0 0 0 383,65.2969" fill="#FEFFDD" style="stroke:#181818;stroke-width:0.5;"/><path d="M671.0508,63.2969 L671.0508,72.2969 A1,1 0 0 0 672.0508,73.2969 L681.0508,73.2969 L671.0508,63.2969" fill="#FEFFDD" style="stroke:#181818;stroke-width:1;"/><text fill="#000000" font-family="sans-serif" font-size="12" lengthAdjust="spacing" textLength="226.5938" x="399" y="89.4355">Stage 6 occurs at VS-001 completion.</text><text fill="#000000" font-family="sans-serif" font-size="12" lengthAdjust="spacing" textLength="257.0508" x="399" y="103.4043">Also triggered by Brownfield engagements</text><text fill="#000000" font-family="sans-serif" font-size="12" lengthAdjust="spacing" textLength="255.8906" x="399" y="117.373">that reach full architecture reconstruction.</text></g><!--link ACT_001_uc to S1--><g class="link" data-entity-1="ACT_001_uc" data-entity-2="S1" data-source-line="71" data-uid="lnk11" id="link_ACT_001_uc_S1"><path d="M81.5,1095.1169 C96.44,1019.8669 127.96,880.3169 175,768.2969 C228.45,641.0169 244.01,606.6669 332,500.2969 C358.33,468.4669 386.2006,441.4404 417.1606,414.6804" fill="none" id="ACT_001_uc-to-S1" style="stroke:#B8860B;stroke-width:1;"/><polygon fill="#B8860B" points="421.7,410.7569,412.2753,413.616,417.9172,414.0265,417.5067,419.6684,421.7,410.7569" style="stroke:#B8860B;stroke-width:1;"/><text fill="#000000" font-family="sans-serif" font-size="12" lengthAdjust="spacing" textLength="48.0059" x="225.5" y="500.4355">initiates</text></g><!--link ACT_001_uc to S2--><g class="link" data-entity-1="ACT_001_uc" data-entity-2="S2" data-source-line="72" data-uid="lnk12" id="link_ACT_001_uc_S2"><path d="M107.13,1095.2769 C126.53,1066.5769 151.35,1030.9769 175,1000.2969 C240.63,915.1569 256.55,892.8769 332,816.2969 C360.66,787.2069 388.8469,761.2106 419.3469,734.4906" fill="none" id="ACT_001_uc-to-S2" style="stroke:#B8860B;stroke-width:1;"/><polygon fill="#B8860B" points="423.86,730.5369,414.4546,733.4588,420.0991,733.8317,419.7262,739.4762,423.86,730.5369" style="stroke:#B8860B;stroke-width:1;"/><text fill="#000000" font-family="sans-serif" font-size="12" lengthAdjust="spacing" textLength="50.3672" x="224.7578" y="798.4355">receives</text><text fill="#000000" font-family="sans-serif" font-size="12" lengthAdjust="spacing" textLength="113.8828" x="193" y="812.4043">Architecture Vision</text></g><!--link ACT_001_uc to S3--><g class="link" data-entity-1="ACT_001_uc" data-entity-2="S3" data-source-line="73" data-uid="lnk13" id="link_ACT_001_uc_S3"><path d="M145.07,1121.4369 C206.17,1098.2969 289.6488,1066.6917 366.8388,1037.4617" fill="none" id="ACT_001_uc-to-S3" style="stroke:#B8860B;stroke-width:1;"/><polygon fill="#B8860B" points="372.45,1035.3369,362.6167,1034.7833,367.774,1037.1076,365.4498,1042.2649,372.45,1035.3369" style="stroke:#B8860B;stroke-width:1;"/><text fill="#000000" font-family="sans-serif" font-size="12" lengthAdjust="spacing" textLength="59.373" x="220.1143" y="1030.4355">reviews &amp;</text><text fill="#000000" font-family="sans-serif" font-size="12" lengthAdjust="spacing" textLength="95.6016" x="202" y="1044.4043">confirms design</text></g><!--link ACT_001_uc to S4--><g class="link" data-entity-1="ACT_001_uc" data-entity-2="S4" data-source-line="74" data-uid="lnk14" id="link_ACT_001_uc_S4"><path d="M145.07,1176.9969 C207.69,1200.5769 294.0949,1233.1026 372.5749,1262.6526" fill="none" id="ACT_001_uc-to-S4" style="stroke:#B8860B;stroke-width:1;"/><polygon fill="#B8860B" points="378.19,1264.7669,371.1768,1257.852,373.5107,1263.005,368.3578,1265.3389,378.19,1264.7669" style="stroke:#B8860B;stroke-width:1;"/><text fill="#000000" font-family="sans-serif" font-size="12" lengthAdjust="spacing" textLength="55.5996" x="222.1563" y="1164.4355">approves</text><text fill="#000000" font-family="sans-serif" font-size="12" lengthAdjust="spacing" textLength="77.9121" x="211" y="1178.4043">delivery plan</text></g><!--link ACT_001_uc to S5--><g class="link" data-entity-1="ACT_001_uc" data-entity-2="S5" data-source-line="75" data-uid="lnk15" id="link_ACT_001_uc_S5"><path d="M106.89,1203.4969 C126.23,1232.2569 151.05,1267.8469 175,1298.2969 C240,1380.9569 258.92,1399.6869 332,1475.2969 C359.82,1504.0769 386.4518,1530.1825 415.5318,1557.8325" fill="none" id="ACT_001_uc-to-S5" style="stroke:#B8860B;stroke-width:1;"/><polygon fill="#B8860B" points="419.88,1561.9669,416.1139,1552.8665,416.2565,1558.5216,410.6014,1558.6641,419.88,1561.9669" style="stroke:#B8860B;stroke-width:1;"/><text fill="#000000" font-family="sans-serif" font-size="12" lengthAdjust="spacing" textLength="50.3672" x="224.7705" y="1271.4355">receives</text><text fill="#000000" font-family="sans-serif" font-size="12" lengthAdjust="spacing" textLength="111.9082" x="194" y="1285.4043">delivered software</text></g><!--link ACT_001_uc to S6--><g class="link" data-entity-1="ACT_001_uc" data-entity-2="S6" data-source-line="76" data-uid="lnk16" id="link_ACT_001_uc_S6"><path d="M82.43,1203.3069 C98.3,1277.3069 130.72,1413.6169 175,1524.2969 C229.88,1661.4669 243.18,1699.2369 332,1817.2969 C355.57,1848.6269 379.9441,1875.3978 408.0841,1903.0978" fill="none" id="ACT_001_uc-to-S6" style="stroke:#B8860B;stroke-width:1;"/><polygon fill="#B8860B" points="412.36,1907.3069,408.7521,1898.1426,408.7967,1903.7993,403.14,1903.8439,412.36,1907.3069" style="stroke:#B8860B;stroke-width:1;"/><text fill="#000000" font-family="sans-serif" font-size="12" lengthAdjust="spacing" textLength="62.7656" x="218.5" y="1497.4355">authorises</text><text fill="#000000" font-family="sans-serif" font-size="12" lengthAdjust="spacing" textLength="61.9102" x="218.9277" y="1511.4043">promotion</text></g><!--link BCO_001_uc to S6--><g class="link" data-entity-1="BCO_001_uc" data-entity-2="S6" data-source-line="79" data-uid="lnk17" id="link_BCO_001_uc_S6"><path d="M137.34,2011.2969 C194.29,2011.2969 273.28,2011.2969 349.73,2011.2969" fill="none" id="BCO_001_uc-to-S6" style="stroke:#B8860B;stroke-width:1;"/><polygon fill="#B8860B" points="355.73,2011.2969,346.73,2007.2969,350.73,2011.2969,346.73,2015.2969,355.73,2011.2969" style="stroke:#B8860B;stroke-width:1;"/><text fill="#000000" font-family="sans-serif" font-size="12" lengthAdjust="spacing" textLength="48.2344" x="225.5098" y="1984.4355">governs</text><text fill="#000000" font-family="sans-serif" font-size="12" lengthAdjust="spacing" textLength="127.2539" x="186" y="1998.4043">enterprise promotion</text></g><!--link S1 to S2--><g class="link" data-entity-1="S1" data-entity-2="S2" data-source-line="82" data-uid="lnk18" id="link_S1_S2"><path d="M532,448.8369 C532,471.5969 532,489.3769 532,512.1569" fill="none" id="S1-to-S2" style="stroke:#B8860B;stroke-width:1;stroke-dasharray:7.0,7.0;"/><polygon fill="#B8860B" points="532,518.1569,536,509.1569,532,513.1569,528,509.1569,532,518.1569" style="stroke:#B8860B;stroke-width:1;"/><text fill="#000000" font-family="sans-serif" font-size="12" lengthAdjust="spacing" textLength="58.1602" x="482.5" y="488.1855">&#171;include&#187;</text></g><!--link S2 to S3--><g class="link" data-entity-1="S2" data-entity-2="S3" data-source-line="83" data-uid="lnk19" id="link_S2_S3"><path d="M532,764.4069 C532,786.9469 532,804.6269 532,827.6469" fill="none" id="S2-to-S3" style="stroke:#B8860B;stroke-width:1;stroke-dasharray:7.0,7.0;"/><polygon fill="#B8860B" points="532,833.6469,536,824.6469,532,828.6469,528,824.6469,532,833.6469" style="stroke:#B8860B;stroke-width:1;"/><text fill="#000000" font-family="sans-serif" font-size="12" lengthAdjust="spacing" textLength="58.1602" x="482.5" y="803.6855">&#171;include&#187;</text></g><!--link S3 to S4--><g class="link" data-entity-1="S3" data-entity-2="S4" data-source-line="84" data-uid="lnk20" id="link_S3_S4"><path d="M532,1117.0469 C532,1139.8769 532,1157.4569 532,1180.1469" fill="none" id="S3-to-S4" style="stroke:#B8860B;stroke-width:1;stroke-dasharray:7.0,7.0;"/><polygon fill="#B8860B" points="532,1186.1469,536,1177.1469,532,1181.1469,528,1177.1469,532,1186.1469" style="stroke:#B8860B;stroke-width:1;"/><text fill="#000000" font-family="sans-serif" font-size="12" lengthAdjust="spacing" textLength="58.1602" x="482.5" y="1156.1855">&#171;include&#187;</text></g><!--link S4 to S5--><g class="link" data-entity-1="S4" data-entity-2="S5" data-source-line="85" data-uid="lnk21" id="link_S4_S5"><path d="M532,1458.5369 C532,1481.4469 532,1499.2369 532,1522.1469" fill="none" id="S4-to-S5" style="stroke:#B8860B;stroke-width:1;stroke-dasharray:7.0,7.0;"/><polygon fill="#B8860B" points="532,1528.1469,536,1519.1469,532,1523.1469,528,1519.1469,532,1528.1469" style="stroke:#B8860B;stroke-width:1;"/><text fill="#000000" font-family="sans-serif" font-size="12" lengthAdjust="spacing" textLength="58.1602" x="482.5" y="1497.9355">&#171;include&#187;</text></g><!--link S5 to S6--><g class="link" data-entity-1="S5" data-entity-2="S6" data-source-line="86" data-uid="lnk22" id="link_S5_S6"><path d="M532,1800.4369 C532,1823.1669 532,1840.7969 532,1863.6569" fill="none" id="S5-to-S6" style="stroke:#B8860B;stroke-width:1;stroke-dasharray:7.0,7.0;"/><polygon fill="#B8860B" points="532,1869.6569,536,1860.6569,532,1864.6569,528,1860.6569,532,1869.6569" style="stroke:#B8860B;stroke-width:1;"/><text fill="#000000" font-family="sans-serif" font-size="12" lengthAdjust="spacing" textLength="58.1602" x="482.5" y="1839.6855">&#171;include&#187;</text></g><!--link S6 to GMN23--><g class="link" data-entity-1="S6" data-entity-2="GMN23" data-source-line="89" data-uid="lnk25" id="link_S6_GMN23"><path d="M379.81,1940.0669 C324.9,1905.9369 268.98,1859.3369 238.5,1799.7969 C157.74,1642.0469 136.56,349.7669 238.5,204.7969 C271.75,157.5169 328.3,131.3169 382.94,116.8469" fill="none" id="S6-GMN23" style="stroke:#B8860B;stroke-width:1;stroke-dasharray:7.0,7.0;"/></g><!--SRC=[jLRRRXen47tVhvXIgKqYXN9PQ5HLaO24lhJgPLEUa2B7EonklFRMzeQYgb8_eb_OB-buMGXajtU241BZkHpFd9dn0w6up6E4PlF9PSguqRQPvQaC7cmVCCFd8cKEZwr3WzejCoprd70IOS9aZX0vWonz1cDj5ip449sz7C7thz_WlKKOCVgP25m4WSIP0wV1Y6Jk81O6kHDQ1VPQg8mPba9kaNlzpm70aF7hnEXSnICjjO67u_FnsRZbJxI9qPJIuSb9lpKawS0OlQW8kTDcHp_idtI6uUReRf3pyt4u7WTVgg1MNYxcWbyhj1RQpTwMKiRYMAW4sgqWU0p7-_kGjmAftRDRvfr2WqfafkhWN2KimHILWzSBXUQm0Sp2O7HnsMgrBtE-LXzuHZYgMswGwa3L9kFXwFKngQriwC_QPk-9c4G-JWtHc9HWnIUmZcvXFGmg6lYgxJjjdhDC9SJzHXsQ1b6NkBNcSUFeAFAGe7rqD5LRIOwupeWkK_NzszS__4xLC9fGn2wyCVe3mO2H9aeAnNmJhKzxy0u_vjHQFeo5LqdgYh94xJfO7GzhfwOJOGjlVu-h3SFSYg8rjZt-6lOAMwSEMxU2xGojIEu3MmS6MGQFu0Bvl5RXfrdjrY4FFV8pbE86pHBUIARKlTJwARpDcHHk2GDhSyCKtm0-yM7TJ9iKY7LqSpG4OOKvhCFSyvWZFND4PP_f5VX_mTmdhF6sY_y2swi3swzGWzAKQdS_pFqjEqA8s0pfPYyqtLZvgwt0zmDQ97kVWkzG5ZImSv7PlNlt2u6scN62YunMlmMXYldQBwThSBiLAFGfJHPuHZh22QzTEUtGAGrD93BOsbbJiUWM5ZVqPB3mQAguLZDXKWjnqVuLzP3KMPOPNGI8rssNKTjLT7ixO4fTZC6MnAyOzBtptCsr4TQRP6kU-R9Mbs4bSILVuM1Zk7RdbeV1xQwyZPOK7A9GD6dGP3ukx4HTlRbcKbDwhj0j4DLwxnrOcb9a9vWy3AWkpJB_pv-NhxhJqu04pJB9E-9k8GxlYiD2tBihxXNY_XrneBH3kDBEwHJqp3S0R5AWESyDxMPNhd7WEiqa-cir_NDCMWsEdeP9KP6h9GpfFKUbHna3RZQd9LKt9oVqvAHsdEN4JBPT1oeljOOpELzvHXM3XnNy0000]--></g></svg>